<svg xmlns="http://www.w3.org/2000/svg" xmlns:xlink="http://www.w3.org/1999/xlink" width="35.754" height="35.755" viewBox="0 0 35.754 35.755">
  <defs>
    <clipPath id="clip-path">
      <rect id="Rectangle_1789" data-name="Rectangle 1789" width="24" height="22.952" fill="none" stroke="#c05630" stroke-width="2"/>
    </clipPath>
  </defs>
  <g id="Group_9365" data-name="Group 9365" transform="translate(-1068 -379)">
    <path id="Path_3589" data-name="Path 3589" d="M0,17.878A17.877,17.877,0,1,1,31.768,29.134a.638.638,0,1,1-.992-.8,16.6,16.6,0,1,0-2.447,2.447.639.639,0,0,1,.8.993A17.879,17.879,0,0,1,0,17.878" transform="translate(1068 379)" fill="#c05630"/>
    <g id="Group_8898" data-name="Group 8898" transform="translate(1073.877 385.596)">
      <g id="Group_8897" data-name="Group 8897" clip-path="url(#clip-path)">
        <ellipse id="Ellipse_28" data-name="Ellipse 28" cx="4.501" cy="4.304" rx="4.501" ry="4.304" transform="translate(7.499 7.172)" fill="none" stroke="#c05630" stroke-linecap="round" stroke-linejoin="round" stroke-width="2"/>
        <path id="Path_3595" data-name="Path 3595" d="M26.207,14.842h0l2.642.361a10.472,10.472,0,0,1,0,3.6l-2.642.361h0a8.342,8.342,0,0,1-.953,2.2l1.6,2.04a11.325,11.325,0,0,1-2.659,2.543l-2.133-1.53h0a9.166,9.166,0,0,1-2.3.912h0l-.377,2.527a11.965,11.965,0,0,1-3.759,0l-.377-2.527h0a9.166,9.166,0,0,1-2.3-.912h0l-2.133,1.53A11.325,11.325,0,0,1,8.151,23.4l1.6-2.04a8.339,8.339,0,0,1-.953-2.2h0L6.155,18.8a10.477,10.477,0,0,1,0-3.6L8.8,14.841h0a8.337,8.337,0,0,1,.953-2.2l-1.6-2.04a11.324,11.324,0,0,1,2.659-2.543l2.133,1.53a9.165,9.165,0,0,1,2.3-.912h0l.377-2.526a11.958,11.958,0,0,1,3.759,0l.377,2.526h0a9.163,9.163,0,0,1,2.3.912l2.133-1.53A11.323,11.323,0,0,1,26.854,10.6l-1.6,2.04A8.34,8.34,0,0,1,26.207,14.842Z" transform="translate(-5.502 -5.524)" fill="none" stroke="#c05630" stroke-linecap="round" stroke-linejoin="round" stroke-width="2"/>
      </g>
    </g>
  </g>
</svg>
