<svg xmlns="http://www.w3.org/2000/svg" xmlns:xlink="http://www.w3.org/1999/xlink" width="1596.223" height="12.463" viewBox="0 0 1596.223 12.463">
  <defs>
    <clipPath id="clip-path">
      <rect id="Rectangle_1576" data-name="Rectangle 1576" width="1596.223" height="12.463" fill="none"/>
    </clipPath>
  </defs>
  <g id="Group_2957" data-name="Group 2957" transform="translate(1596.223 12.463) rotate(180)">
    <g id="Group_2630" data-name="Group 2630" clip-path="url(#clip-path)">
      <path id="Path_1447" data-name="Path 1447" d="M329.709,1.81l-17.754-.3c-3.121,0-5.462.2-8.585.1-2.924,0-5.267.3-8.388.3-1.365-.1-2.927-.1-4.291-.1s-3.121.1-4.293.1c-7.218-.1-27.7-.6-36.091-.2-2.926.1-13.071,0-15.8-.2-.976-.1-2.537-.1-3.707-.2-4.878,0-9.95-.6-14.827-.7S205.825.1,200.947,0h-4.683c-1.56,0-3.51.1-5.462.1-5.269-.1-11.511,0-16.778.2L151.979.8c-3.9,0-7.8-.1-11.511,0-4.878.1-9.56-.2-14.438,0l-8,.2-11.12.3c-3.316.1-7.413.3-11.12.2-19.9-.3-23.607-.4-43.506,1.207-5.267.4-10.536.6-16,.7-1.756,0-3.318.2-5.072.3l-14.049.2c-3.51-.2-7.218-.6-10.728-.6C3.707,3.217,0,4.523,0,5.83c0,.9.586,1.608,1.756,2.311.975.5,1.951,1.005,2.926,1.407,1.951.9,9.779.861,13.095,1.263,11.12,1.709,9.755.8,19.313.9,2.926,0,5.853-.6,9.171-.7,7.218-.3,12.852.245,17.73.345.975,0,2.535.1,3.705.2,3.123.3,6.634.4,9.755.4l3.9.2a40.447,40.447,0,0,0,6.439-.8c2.34-.3,4.291-.3,7.023-.4a104.545,104.545,0,0,1,11.315.4c12.487,1.105,16-.6,20.68-.4,3.318.1,6.242.4,9.56.4,6.048-.1,9.364.6,14.827.7l15.022.4c1.756,0,3.9-.3,5.658-.3,9.95,0,4.291-.1,11.706-.6,4.1-.3,7.023-.8,11.12-1.005,1.756-.1,3.705-.3,5.656-.5,1.756-.1,3.513-.2,5.658-.3h3.318c2.535-.1,4.875-.1,7.607,0,7.8.1,8.39-1.005,17.57.1,8.169.606,14.317,2.846,23.033,2.113,4.157-.349,8.122-1.162,12.273-1.538a489.635,489.635,0,0,1,59.015-1.309c6.534.248,12.863.3,19.248.3a34.649,34.649,0,0,1,6.026.291c6.149.66,18.117,3.274,24.178,1.713,2.732-.7,4.291-2.01,6.829-2.815,2.537-.7,7.242-.543,10.168-1.247L401.5,8.946c1.365-.3,2.927-.5,4.486-.8,3.707-.8,4.488-2.411.781-3.116a36.5,36.5,0,0,0-4.683-.1c-4.292-.1-8-1.306-11.9-1.708-3.316-.3-6.437-.3-9.755-.5a72.732,72.732,0,0,0-8.388-.3c-.976,0-2.343-.1-3.513-.1l-11.9-.2c-2.732,0-5.072-.2-7.8-.2-3.9-.1-7.413-.5-11.315-.5Z" transform="translate(590.573 -0.001)" fill-rule="evenodd"/>
      <path id="Path_1448" data-name="Path 1448" d="M407.668,5.313c1.951-.3,1.756-1.105.195-1.206-1.559-.2-3.51-.7-5.072-.9A93.806,93.806,0,0,0,384.453,2c-3.318.2-9.171-.7-12.1-.8-2.535-.1-4.291.2-6.632.2l-13.657-.1c-2.146-.1-4.488,0-6.634,0l-33.165-.9c-2.343,0-4.488-.1-6.634-.2-4.1-.1-8.974-.3-13.266-.1L279.3.287c-2.34,0-4.486,0-6.826.1-2.342,0-4.293-.2-6.828-.1-4.488.2-8.585.2-13.268.2-2.146,0-4.1.2-6.242.2l-13.852-.1c-2.34.1-4.291.1-6.828.1-8.78-.1-17.559.6-26.533.1-8.388-.5-18.532.1-27.312-.3-8.2-.3-18.145-.5-26.339-.1-12.29.7-22.826-.5-33.556.1-1.951.1-4.291-.1-6.634-.1L92.4.789c-4.488.1-8.974,0-13.657,0-2.146,0-4.291.2-6.439.2-2.34-.1-4.878-.1-6.829,0-4.1.2-9.169.1-13.46,0-2.146,0-4.488.2-6.634.2-2.341-.1-4.291-.3-6.632-.3s-4.294.1-6.634.1c-2.343-.1-4.294-.2-6.634-.2-6.048,0-18.534.4-23.021,2.312C1.288,3.6-.468,4.307.116,5.313c.2.7,2.148,1.508,3.318,1.81,3.316,1.105,7.412,1.005,11.706.7,1.951-.2,3.511-.5,5.853-.6l6.437-.2c4.1-.1,8-.6,12.29-.6a39.973,39.973,0,0,1,6.245.4,57.192,57.192,0,0,0,6.048.4,85.842,85.842,0,0,0,12.487-.1c3.9-.2,8.974.1,13.46.1,4.878,0,6.242.6,12.681-.1,3.511-.4,7.413-.9,11.12-1.307,5.072-.6,6.634-.4,11.511.2,4.486.6,20.875.4,26.728.5,4.1,0,8.974-.2,12.876-.4,7.8-.4,17.948.3,25.947.8,4.486.3,8.388.1,13.266.2,13.657.1,9.366.9,25.558-.3,8-.6,6.242-.2,12.876-.1,13.852.4,9.755.9,24.777-.9,9.169-1.105,16.194-.6,24.971-1.105,4.293-.3,8.974,0,13.073-.3,4.681-.4,8.388-.3,13.265-.3,3.707,0,13.071,1.206,17.754,1.708a43.247,43.247,0,0,0,6.437.3c2.148,0,4.1.2,6.244.2,2.146.1,4.1-.1,6.437-.1,2.146,0,4.488-.1,6.634-.1,1.951.1,9.56-.5,12.29-.6,2.148-.2,4.488-.1,6.634-.2a103.552,103.552,0,0,1,12.487-.2c7.218.6,6.826.2,13.071.3,4.291,0,9.364.4,13.071-.1" transform="translate(1187.14 0.554)" fill-rule="evenodd"/>
      <path id="Path_1449" data-name="Path 1449" d="M407.667,5.313c1.951-.3,1.756-1.105.195-1.206-1.559-.2-3.511-.7-5.072-.9A93.807,93.807,0,0,0,384.452,2c-3.318.2-9.171-.7-12.1-.8-2.535-.1-4.291.2-6.632.2l-13.657-.1c-2.146-.1-4.488,0-6.634,0l-33.165-.9c-2.343,0-4.488-.1-6.634-.2-4.1-.1-8.974-.3-13.266-.1l-13.073.2c-2.34,0-4.486,0-6.826.1-2.342,0-4.294-.2-6.829-.1-4.488.2-8.585.2-13.268.2-2.146,0-4.1.2-6.242.2l-13.852-.1c-2.34.1-4.291.1-6.829.1-8.78-.1-17.559.6-26.533.1-8.388-.5-18.532.1-27.312-.3-8.2-.3-18.145-.5-26.339-.1-12.29.7-22.826-.5-33.556.1-1.951.1-4.291-.1-6.632-.1L92.4.789c-4.488.1-8.974,0-13.657,0-2.146,0-4.291.2-6.439.2-2.34-.1-4.878-.1-6.829,0-4.1.2-9.169.1-13.46,0-2.146,0-4.488.2-6.634.2-2.34-.1-4.291-.3-6.632-.3s-4.294.1-6.634.1c-2.342-.1-4.293-.2-6.634-.2-6.048,0-18.535.4-23.021,2.312C1.287,3.6-.47,4.307.117,5.313c.195.7,2.146,1.508,3.316,1.81,3.316,1.105,7.413,1.005,11.706.7,1.951-.2,3.511-.5,5.853-.6l6.437-.2c4.1-.1,8-.6,12.292-.6a39.962,39.962,0,0,1,6.242.4,57.188,57.188,0,0,0,6.048.4,85.845,85.845,0,0,0,12.487-.1c3.9-.2,8.974.1,13.46.1,4.878,0,6.242.6,12.682-.1,3.51-.4,7.412-.9,11.12-1.307,5.072-.6,6.634-.4,11.511.2,4.486.6,20.875.4,26.728.5,4.1,0,8.974-.2,12.876-.4,7.8-.4,17.948.3,25.947.8,4.488.3,8.388.1,13.266.2,13.657.1,9.366.9,25.558-.3,8-.6,6.242-.2,12.876-.1,13.852.4,9.755.9,24.777-.9,9.169-1.105,16.194-.6,24.972-1.105,4.294-.3,8.974,0,13.073-.3,4.681-.4,8.388-.3,13.266-.3,3.707,0,13.071,1.206,17.754,1.708a43.249,43.249,0,0,0,6.437.3c2.148,0,4.1.2,6.245.2,2.146.1,4.1-.1,6.437-.1,2.146,0,4.488-.1,6.634-.1,1.951.1,9.56-.5,12.29-.6,2.148-.2,4.488-.1,6.634-.2a103.552,103.552,0,0,1,12.487-.2c7.218.6,6.829.2,13.071.3,4.291,0,9.363.4,13.071-.1" transform="translate(204.562 0.554)" fill-rule="evenodd"/>
      <path id="Path_1450" data-name="Path 1450" d="M408.687,3.427c1.365-1.005-.781-1.91-2.34-2.111-4.878-.7-28.876-.7-33.751-.3-4.293.2-9.171.3-13.462.3-6.048.1-9.755-.5-13.462-.5-4.486-.1-8.974.1-13.852.1-4.681-.1-9.363-.1-13.852-.2-2.34-.1-4.681,0-7.023,0-2.146-.1-4.291-.3-6.242-.3-4.878-.1-8.78-.3-13.657-.3-6.048,0-15.411-.2-21.07,0-2.537.1-4.488-.1-6.828-.1-4.488-.1-7.8.6-12.487.7l-20.483.2c-7.023.4-12.681,0-20.485.4-10.339.6-11.12,0-19.315-.6-2.34-.1-9.363.3-12.876.4-8.974.2-3.9.4-13.266-.1-5.267-.3-30.044-.4-34.532-.2-8.388.4-6.437.1-13.657.1-7.412-.1-13.852,0-21.07-.3L81.123.512c-9.169.5-11.706.3-20.094.5-7.218.2-5.853.1-13.071.6-4.1.2-9.171.1-12.876.5a54.409,54.409,0,0,1-6.245.4c-4.1,0-15.022.9-19.313.9-11.12.1-11.511,3.518-6.242,4.221,1.951.3,3.51.3,5.851.6,5.658.9,6.634.5,11.122-.6s6.048-1.407,11.706-.5c4.1.6,5.851,1.407,10.925,1.709,2.146.1,4.486,0,6.632.2,2.146.1,4.294.4,6.05.5,6.329.438,10.958-.366,16.9-.964,7.46-.751,15.55-.454,23.142-.275,10.443.246,20.858.788,31.311.919,8.937.113,17.782-.908,26.581-.786,10.555,0,21.223,1.082,31.711.9,8.033-.138,15.654-1.8,23.672-1.933,6.865-.111,13.237,1.452,20.118,1.032,1.951-.1,4.878,0,7.023,0a61.69,61.69,0,0,0,11.9-1.105c8.583-1.307,16.778.7,25.556-.4,8.585-1.105,14.049-2.211,23.8-2.111,4.293,0,7.22-1.005,11.9-1.105,4.683,0,8.2.7,13.073.7,2.34,0,4.681-.2,7.023-.1a199.025,199.025,0,0,0,20.483,0c3.318-.2,8.585-1.207,11.9-.9,2.537.2,7.025,1.307,10.536,1.809,7.415,1.107,18.729.6,26.142,0,4.1-.3,8.585-.4,10.341-1.809" transform="translate(401.952 0.751)" fill-rule="evenodd"/>
      <path id="Path_1451" data-name="Path 1451" d="M408.687,3.427c1.365-1.005-.781-1.91-2.34-2.111-4.878-.7-28.874-.7-33.751-.3-4.294.2-9.171.3-13.462.3-6.048.1-9.755-.5-13.462-.5-4.486-.1-8.974.1-13.852.1-4.681-.1-9.364-.1-13.852-.2-2.34-.1-4.681,0-7.023,0-2.146-.1-4.291-.3-6.242-.3-4.878-.1-8.78-.3-13.657-.3-6.048,0-15.411-.2-21.07,0-2.537.1-4.488-.1-6.829-.1-4.486-.1-7.8.6-12.487.7l-20.483.2c-7.023.4-12.682,0-20.486.4-10.339.6-11.12,0-19.313-.6-2.342-.1-9.366.3-12.876.4-8.974.2-3.9.4-13.268-.1-5.267-.3-30.044-.4-34.532-.2-8.388.4-6.437.1-13.655.1-7.415-.1-13.852,0-21.072-.3L81.123.512c-9.169.5-11.706.3-20.094.5-7.218.2-5.853.1-13.071.6-4.1.2-9.169.1-12.876.5a54.408,54.408,0,0,1-6.245.4c-4.1,0-15.022.9-19.313.9-11.12.1-11.511,3.518-6.242,4.221,1.951.3,3.511.3,5.853.6,5.656.9,6.632.5,11.12-.6s6.048-1.407,11.706-.5c4.1.6,5.853,1.407,10.925,1.709,2.146.1,4.486,0,6.632.2,2.148.1,4.294.4,6.05.5,6.329.438,10.958-.366,16.9-.964,7.46-.751,15.55-.454,23.142-.275,10.443.246,20.858.788,31.311.919,8.937.113,17.782-.908,26.581-.786,10.555,0,21.223,1.082,31.711.9,8.033-.138,15.653-1.8,23.672-1.933,6.865-.111,13.237,1.452,20.118,1.032,1.951-.1,4.878,0,7.023,0a61.69,61.69,0,0,0,11.9-1.105c8.583-1.307,16.778.7,25.558-.4,8.583-1.105,14.046-2.211,23.8-2.111,4.291,0,7.218-1.005,11.9-1.105,4.681,0,8.193.7,13.071.7,2.34,0,4.681-.2,7.023-.1a199.066,199.066,0,0,0,20.486,0c3.316-.2,8.583-1.207,11.9-.9,2.535.2,7.023,1.307,10.534,1.809,7.415,1.107,18.729.6,26.144,0,4.1-.3,8.583-.4,10.339-1.809" transform="translate(-0.001 0.751)" fill-rule="evenodd"/>
      <path id="Path_1452" data-name="Path 1452" d="M408.687,3.427c1.365-1.005-.781-1.91-2.34-2.111-4.878-.7-28.876-.7-33.751-.3-4.294.2-9.171.3-13.463.3-6.047.1-9.755-.5-13.462-.5-4.486-.1-8.974.1-13.852.1-4.681-.1-9.363-.1-13.852-.2-2.34-.1-4.681,0-7.023,0-2.146-.1-4.291-.3-6.242-.3-4.877-.1-8.78-.3-13.657-.3-6.048,0-15.411-.2-21.07,0-2.537.1-4.488-.1-6.829-.1-4.488-.1-7.8.6-12.487.7l-20.484.2c-7.023.4-12.681,0-20.486.4-10.339.6-11.12,0-19.313-.6-2.343-.1-9.366.3-12.876.4-8.976.2-3.9.4-13.268-.1-5.267-.3-30.044-.4-34.532-.2-8.388.4-6.437.1-13.657.1-7.412-.1-13.85,0-21.07-.3L81.123.512c-9.169.5-11.706.3-20.094.5-7.218.2-5.853.1-13.071.6-4.1.2-9.169.1-12.876.5a54.408,54.408,0,0,1-6.245.4c-4.1,0-15.022.9-19.313.9-11.12.1-11.511,3.518-6.242,4.221,1.951.3,3.511.3,5.851.6,5.658.9,6.634.5,11.122-.6s6.048-1.407,11.706-.5c4.1.6,5.851,1.407,10.925,1.709,2.146.1,4.486,0,6.632.2,2.148.1,4.294.4,6.048.5,13.073.9,16.778-1.608,24.582-1.508,2.537.1,4.878.1,7.22.1s4.291.2,6.437.3c4.488.1,9.56-.2,13.852.1,2.34.2,4.1.3,6.242.5,2.537.1,4.1-.1,6.634,0,2.537,0,4.488.1,6.634.2,1.951.1,4.877,0,7.023.1,12.29,0,12.1-1.005,19.313-.9,2.146,0,4.1-.2,6.245-.3,3.705,0,15.217.6,19.313,1.105a91.864,91.864,0,0,0,12.876-.3c1.951-.1,3.9-.4,5.853-.6,19.315-2.513,19.7.8,31.216.1,1.951-.1,4.878,0,7.023,0a61.691,61.691,0,0,0,11.9-1.105c8.583-1.307,16.778.7,25.558-.4,8.583-1.105,14.046-2.211,23.8-2.111,4.293,0,7.22-1.005,11.9-1.105,4.68,0,8.193.7,13.071.7,2.341,0,4.681-.2,7.023-.1a199.027,199.027,0,0,0,20.484,0c3.318-.2,8.585-1.207,11.9-.9,2.535.2,7.023,1.307,10.534,1.809,7.414,1.107,18.729.6,26.142,0,4.1-.3,8.585-.4,10.341-1.809" transform="translate(923.803 0.803)" fill-rule="evenodd"/>
    </g>
  </g>
</svg>
