<svg height="28.805" viewBox="0 0 335.951 28.805" width="335.951" xmlns="http://www.w3.org/2000/svg" xmlns:xlink="http://www.w3.org/1999/xlink"><clipPath id="a"><path d="m0 0h335.823v11.245h-335.823z"/></clipPath><g clip-path="url(#a)" transform="matrix(.99862953 -.05233596 .05233596 .99862953 0 17.576)"><path d="m334.082 9.785c-3.972-.175-65.9-2.23-108.652-2.053-6.474.027-79.473-.431-183.494 3.512 40.968-3.13 68.708-4.537 74.779-5.111-2.455-.02-108.636 1.561-110.07 1.588a6.513 6.513 0 0 1 -3.806-.978c-.95-.628-2.948-2.484-2.839-3.626.057-.46.283-.741 1.113-.774 1.334-.054 2.661-.123 3.987-.143 125.94-3.109 172.162-2.008 176.818-2.021 41.987-.116 104.261 1.99 109.668 2.266 13.493.662 36-.043 38.374.091 1.571.089 4.943.54 5.584 2.881.825 3.006-.346 4.417-1.462 4.368" fill="#c05630"/></g></svg>