<svg xmlns="http://www.w3.org/2000/svg" xmlns:xlink="http://www.w3.org/1999/xlink" width="1063.857" height="588.399" viewBox="0 0 1063.857 588.399">
  <defs>
    <clipPath id="clip-path">
      <rect id="Rectangle_1750" data-name="Rectangle 1750" width="1010.77" height="452.127" fill="#8b8b8b"/>
    </clipPath>
  </defs>
  <g id="Group_2937" data-name="Group 2937" transform="translate(62.924) rotate(8)" opacity="0.259">
    <g id="Group_2887" data-name="Group 2887" clip-path="url(#clip-path)">
      <path id="Path_3549" data-name="Path 3549" d="M855.351.772c-.877,2.641-5.155,4.641-6.809,2.4,1.008-1.473,3.7-.773,4-3.168,1.278-.115,1.536.879,2.812.763M830.369,5.287c-2.254-.364-4.293-.816-6.2-.02-1.289-1.842-4.69-.221-6.473.274-.8-.316-1.1-.984-2.056-.414.044,2.987,2.681,3.16,5.037,3.645,1.975-1.4,4.253-2.736,7.031-1.473.953-.266,1.633-.881,2.626-1.089,1.7,1.8,4.5,2,7.192,1.3A12.592,12.592,0,0,0,838.667,4.5c-2.432-1.082-5.016.025-7.453-1.007a3.23,3.23,0,0,1-.845,1.8m22.994.294c.458-.045,1.28.377,1.052-.56a1.074,1.074,0,0,0-1.052.56m-43.432.166c-.239,1.14.961.72.976,1.586-1.05.582.416,2.648.906,3.426a4.36,4.36,0,0,0,2.613-.783c.085-2.344-1.453-2.929-1.893-4.706a3.823,3.823,0,0,0-2.6.477m-4.906-.261c-1.063.756-1.675,2.106-2.935,2.61-.877-1.137-1.428-.356-2.571-.444-.661-.05-1.337-.705-1.783-.708a25.819,25.819,0,0,0-3.387.743c-1.737.256-4.213-.522-4.959,1.273,3.133,1.516,8.859,2.947,12.321,2.186.723.3,1.023,1.047,2.03,1.032,1.206-.366,1.369-2.081,2.425-2.638,1.939.374,2.8-.655,3.437-1.97a4.77,4.77,0,0,0-4.58-2.083M682.352,2.7c.737.1,1.312-.008,1.57-.532-.338-.444-1.544-.374-1.57.532m19.063,1.619c.336.439,1.781.68,1.821-.211-.33-.437-1.779-.675-1.821.211M780.045,10a3.974,3.974,0,0,0-3.6-.5,3.3,3.3,0,0,0-.372,3.052c3.573-1.481,6.089,2.347,10.534,1.785.038-3.16,3.744-1.566,4.532-3.753-3.775-1.049-7.764-2.756-11.094-.587M693.9,4.84c.344.018.687.038,1.031.058.01-.206.017-.409.025-.612-.344-.02-.689-.038-1.033-.055-.008.2-.015.407-.023.61M868.509,15.285c-1.72-2.319-5.552-1.694-7.986-.728.308,1.827,2.1,1.707,3.319,1.1,1.933,1.333,6.146,1.539,7.764-.206-.86-.884-1.946.1-3.1-.163M766.572,10.827c-.887.454-1.164,1.7-2.389,1.717-2.763-1.471-7.16-.868-9.074.751-2.248-2.666-6.213.838-9.032-.477-1.781.474-2.575,2.224-4.24,2.846-1.318-.043-1.392-1.428-2.791-1.376-1.012-.133-1.006,1.057-2.1.811-2.394-.472-4.849-1.079-7.483-.4-.932.243-1.663,1.247-2.635,1.4-.524.083-1.289-.374-1.794-.4-3.1-.181-5.307.856-7.542,1.137-5.315.668-11.079.218-16.071,1.3-1.147.248-2.576,1.325-3.928,1.328-.537-.3-.729-.971-1.513-1a4.011,4.011,0,0,1-4.422.688c-3.306,1.416-8.161.813-11.713,2.149a4.493,4.493,0,0,0-2.02-1.335c-2.1,2.618-4.914.582-7.525.833-2.383.223-4.3,2.839-7.566,1.747-.938.384-1.428,1.36-2.387,1.719-.45-.494-.748-1.147-1.773-1.017-.911-.005-1.185.816-2.1.811-2.489-.881-4.771,1.25-7.259.535-.461,2.764.518,3.953,2.163,4.415a10.049,10.049,0,0,1,.632-3.037c.621.6,2.045.324,2.271,1.35.769.459-.822,1.807.45,1.865,1.344.459.807-1.524,1.863-1.436,1.76.442,5.106,1.958,6.429.954-.739-1.358-2.273-1.847-2.444-3.815,1.17-1.31,2.366.572,3.847.818,1.111.181,2.672-.5,4.149-.394,2.2.156,4.819.592,6.731-.261.723-.778.306-3.032,1.91-2.663.769.831.222,3.087,1.418,3.454,1.975-.015,1.12-2.126,2.932-2.3.837-.083,1.479,1.4,2.523,1.667,2.157.572,4.716-.515,6.718.048.9-.65.651-2.8,1.675-3.288a17.443,17.443,0,0,1,6.989-.246c.515.62.353,1.968,1.479,1.923,1.863-.151,1.8-2.8,3.974-2.553.809.291.281,2.041,1.479,1.92,1.255-.409,1.139-2.593,2.436-2.942,2.985,1.217,4.846-.028,7.246-.233,3.013-.261,4.54,1.172,6.45.341.845.06.953.921,2.039.72.511-.3.414-1.393.843-1.8,2.954.811,4.76-1.15,7.306-1.765,1.259.3.957,2.289,2.229,2.575,2.134-.3,3.454-2.6,5.723-.929,3.477-3.707,8.444.326,13.481-1.13.668.005.416-1.177,1.078-1.172,4.082-.884,7.32-4.177,12.226-2.118,1.179-.831,2.233-1.817,3.461-2.58a3.181,3.181,0,0,0,2.8,1.069c.18-4.106-3.693-1.8-7.156-2.221m83.269,5.931c-.412-.685-1.724-1.441-2.556-.748,1.2,1.632.621,3.84.323,5.236.655-.434,2,.03,2.6-.477.139-.675-.739-1.7-.192-1.85,1.43.146,1.468,2.206,3.264,2.628.718.166,1.47-.382,2.345-.492,1.43-.183,3.693.62,3.925-1.328-1.589.354-1.481-1.135-2.26-1.654a16.334,16.334,0,0,1-4.116-.525c-.678-.713-.04-1.022-.45-1.867-1.587-.454-2.149.429-2.888,1.077m-122.573-5.55c.209-.939-1.43-1.353-1.783-.708a1.794,1.794,0,0,0,1.783.708m135.169,7.442L861.41,18.6c-.249,1.167,1.185,1.245,1.027.053m-25.618.8c-.5.085-1.337-.434-2.054-.417-1.656.043-2.662.685-4.126-.216-.564.552-1.394.763-1.371,2.076,1.688,1.325,4.329.07,6.213-.286,1.956,1.343,3.425.136,5.185-.339,1.31-.356,2.759.364,3.142-1.064-2.552-2.764-5.24-.048-6.989.246m-208.449-11c.342.115.477.459,1.02.359.011-.306.021-.612.034-.919-.585-.118-.972.023-1.054.56m25.014,1.627c.171.008.342.018.513.028.011-.206.017-.409.027-.612-.173-.01-.346-.02-.518-.028-.01.2-.017.409-.023.612M825.668,20.4c.321.786,1.373,1.82,2.29,1.044.017-1.948-1.823-3.539-2.29-1.044m-178-9.7.518.025c.006-.2.015-.409.021-.612-.171-.01-.342-.018-.516-.025-.008.2-.015.409-.023.612M614.381,9.246c-.009,1.2,1.122.954,1.783.705.289-1.232-1.358-1.135-1.783-.705m27.581,2.068c.11-.8-.319-1.027-1-.974-.108.8.323,1.024,1,.974M817.3,23.026c.8.462,2.385-.439,3.634-.424.4.251-.114,1.5.731,1.268,1.084-.622,2.708-.55,2.681-2.623-2.24-.906-7.094-2.716-7.046,1.78m24.084-1.187c.327.417.946.454,1.042-.251-.327-.417-.944-.457-1.042.251M630.319,11.62c.439.532,1.874.545,1.827-.52-.813-.093-1.555-.093-1.827.52m-26.867-.5c.809.188,1.071-.324,1.327-.851-.735-.1-1.407-.113-1.327.851m205.323,11.76c-2.326-1.584-4.018-1.087-7.2-.994-1.384,1.709-3.511,1.15-5.981.914a14.1,14.1,0,0,1-2.379,1.411,16.54,16.54,0,0,0-8.518-.452c-1.439.336-2.829,1.576-4.2,1.925-1.284.329-2.609-.279-3.649.73-.794-1.305-1.265-.688-2.322-.12-.72-.587-.885-1.785-1.722-2.244-.725.562-1.232,1.406-2.134,1.734-4.859-.389-9.015,2.317-13.274,2.367-1.669.02-2.438-1-4.128-.218-.439.2-.389.788-.807.881-.636.141-.944-.469-1.551-.083-.784-.05-.306,1.529-1.086,1.478-1.426-2.1-3.891.484-4.409.382-.98-.193-.568-2.226-2.007-1.642-.744-.005-.5,1.283-1.337,1.16-1.487-2.016-2.869.678-5.149-.58-.887.341-1.041,1.647-2.132,1.729-2.444-2.211-7.027-.58-9.568.11.154,1.2-1.01,1.536-.346,2.437,3.023.464,6.955-1.268,10.08-.08-.076,1.4-1.4,1.177-1.639,2.367.733.09,1.056.617,1.787.713,1.51-1.684,2.774-3.682,5.07-4.342,1.813,1.1,4.073,3.18,6.632,2.5.23-1.531-.987-1.478-.661-3.1,2.248-.826,3.057,2.063,5.347,2.123.822-.693.323-1.428.363-2.743.771-1.16,1.785-.336,3.116-.449,2.685-.231,5.987-1.519,7.506-.218,2.48-.422,4.464-1.493,6.8-2.1,1.439,1.147,2.358-.058,4.633.552.708-.156.689-1.247,1.6-1.147,1.555.851,3.456.038,4.889.567-.023.612-.044,1.225-.068,1.84,1.555-.09,1.823.946,3.082.469a5.617,5.617,0,0,0,.644-3.346c2.755-.919,6.568-.464,9.108-1.669.818-.1.551.971,1.523.7.862.048.923-.951,1.842-.821,1.663.12,3.423.371,4.166-.7,1.17.858,3.023.173,4.135-.088.285.67.215,1.724.7,2.184,3,1.014,4.846-1.122,6.562-2.723.68-.191,1.523-.163,1.84-.826-.761-1.729-4.58-3.677-5.146-.577M596.983,11.4l1.029.055c.011-.206.017-.412.027-.615L597,10.782c-.006.206-.015.412-.021.615M688.3,16.522a1.058,1.058,0,0,0,1.823-.517c-.532-.655-1.6-.191-1.823.517m-96.782-4.187c.013-.306.025-.612.036-.919l-.775-.04c-.07.665.175.984.739.959m25.259,1.948c.084-.873.1-1.672-.716-1.574-.526.565-.34,1.862.716,1.574m65.8,3.165c.18.264,1.756.916,1.559-.223-.207-.753-1.451-.208-1.559.223M586.34,12.677l.511.028c.006-.2.015-.409.023-.615-.171-.008-.344-.015-.513-.025-.006.2-.015.409-.021.612m-6.194-.326c-.165,1.082,1.718,1.446,1.549.083a1.555,1.555,0,0,0-1.549-.083m189.03,11.82c.11-.8-.321-1.027-1-.974-.108.8.321,1.024,1,.974M574.927,13.611c.835.979.826-1.094,0,0m-11.151.946c.011,1.308,1.3.9,1.546.083a1.113,1.113,0,0,0-1.546-.083M581,17l.518.028c.008-.206.015-.409.021-.612l-.513-.028L581,17m163.542,9.245a1.651,1.651,0,0,0,.218.936c.72.291.687-.4,1.306-.238.262-1.147-1.118-1.147-1.523-.7m-26.624-.173c.528.685,1.405.186,1.574-.532-.682-.033-1.513-.251-1.574.532M822.664,31.6c.258.015.516.028.773.04.006-.206.013-.409.021-.612-.258-.015-.511-.028-.769-.04-.011.2-.017.409-.025.612m-5.193.645c.74.105,1.314-.008,1.57-.53-.484-.156-.623-.7-1.266-.68-.1.412-.393.565-.3,1.21M563.324,19.755c.425-.437.444-1.727-.463-1.561-.558.582-.053,1.31.463,1.561m169.01,8a.72.72,0,0,0,.8-.572c-.406.008-.9-.088-.8.572M533.88,19.123c.526.688,1.4.186,1.572-.532-.463-.607-1.337-.108-1.572.532M624.7,23.608c.258.013.3.264.5.334.013-.306.224-.354.281-.6-.258-.015-.3-.264-.5-.334-.011.309-.224.354-.281.6m-54.2-2.246.516.028c.01-.206.017-.409.025-.612-.173-.01-.346-.02-.518-.028-.008.2-.015.407-.023.612m65.189,5.59a34.207,34.207,0,0,0,5.537,3.976c1.325-.961,1.492-3.419,4.234-2.538.733-.751,2.592-1.426,2.165-2.651-2.089-.271-3.332-1.222-4.914.048-1.481-1.7-6.142-1.559-7.023,1.165m-87.131-6.441c-.832-.976-.822,1.092,0,0m166.65,9.1c.672.359,1.958.683,2.33-.181-.4-.429-2.248-.783-2.33.181m46.175,2.437.778.043c.006-.206.015-.409.023-.612-.262-.015-.518-.03-.775-.043-.006.206-.015.409-.025.612m50.554,2.977c.049-.361.484-.67.036-.921-.051.364-.486.673-.036.921M544.646,21.532c.636.08,1.251.12,1.312-.545-.606-.213-1.181-.535-1.312.545m-22.724-.587c1.139-.231,3.359.936,3.389-.74-1.183.183-2.9-.331-3.389.74M622.23,27.469c-.366,1.423.059,2.146-.4,3.665,2.383,1.232,4.076-.808,5.99-1.22.211,1.785,1.568,3.213,3.028,2,.163-.961-.42-1.107-.175-2.159,1.927.09,3.828-1.383,3.477-3.2a58.853,58.853,0,0,0-11.924.906M536.064,22.92c-1.2-.916-.663.974,0,0m80.174,5.768c-.547-.286-.849-.841-1.785-.708-1.98,1.18-5.265.61-7.492-.088-.767.926-2.267.911-3.41,1.355-.788.261-.765,1.576-1.863,1.438-1.244-.118-.784-2.088-1.982-2.254-1.7,1.275-4.1,2.861-5.992,1.22-3.042,2.219-8.508.349-11.713,2.141a2.3,2.3,0,0,0-1.773-1.014c-1.658,1.343-2.9.841-4.914.05-.963.141-1.018,1.458-2.364,1.1-1.126-.248-.486-2.415-.906-3.426a26.156,26.156,0,0,1-4.141.09c-.883.994-1.187,2.741-2.939,2.608-.458.374-.076,1.832-.845,1.8-2-.028-3.12,1.089-5.2.954-1.084-.1-1.194-1.253-2.277-1.353-1.337,2.322-3.48,1.938-5.778,2.46-.68.522.98,2.071-.351,2.44-1.739-.56-2.176-2.535-4.291-2.683-.017-.961.256-2.239-.159-2.774-2.157-.123-4.508-.5-5.708.625a7.755,7.755,0,0,1-.361,2.741c-.887,1.2-2.816,1.059-3.7,2.262-3.122-1.807-6.6,1.109-10.375.989-2.932-.093-5.715.733-8.82.763-.114-.756-.974-.705-.7-1.883,1.071-.321,2.387-.326,2.894-1.378-1.063-1.825-2.7-.487-3.632.419-.761.04-.769-.735-1.525-.7a14.372,14.372,0,0,0-2.358.8c-1.289.038-2.941-.387-3.389.74-1.177,1.109,1.358,2.224.4,3.095-.915-.083-.892-1.185-2.03-1.032-2.466,4.014-7.72,2.417-12.036,3.973.127-1.627.534-3-.1-4.3-1.646.013-3.228.1-3.93,1.328a2.453,2.453,0,0,0-2.288-1.042c-.873.043-.49,1.717-1.356,1.772-2.491-1.609-4.709.02-7.5.216-.541.038-1.088-.168-1.549-.08-1.407.266-2.573,1.328-3.94,1.634-3.532.793-7.244-.053-9.4,2.575,1.382.166,3.042.028,3.311,1.4-1.762,1.521-4.069.868-6.285,2.126-1.037-1.122-.2-2.979-.615-4.332-2.782-.6-6.127,2.179-9.342,1.044-.98,1.616-4.316.181-4.5,2.831,1.312,1.13,1.857-1.125,3.636-.419a7.14,7.14,0,0,1-.1,2.756,5.739,5.739,0,0,0-4.98,1.89c-1.354-1.883-3.021.366-4.4.073-1.8-.382-1.479-2.342-3.241-3.243-1.483.447.068,1.591-.606,2.425-1.3-.768-2.381-2.558-4.3-2.683-.729-.048-1.566.628-2.356.8-3.638.776-9.03.369-10.7,2.814,2.656,1.064,6.144-1.473,7.437,1.621-.551,1.217-2.827.188-4.151.394-1.54,1.581-5.339.841-5.36-1.817-1.183.72-1.967-.284-3.087-.469-.959,1.072-2.267.1-3.634.422-1.016.236-1.846,1.242-2.894,1.381-.845.115-1.954-.51-2.829-.457s-1.882.7-2.869.773a20.5,20.5,0,0,0-2.066-.11c-.653.161-.976.748-1.582.836-.625.1-1.185-.236-1.806-.093-1.58.369-2.81,1.36-4.206,1.928-.247-.708-1.616-.2-2.307-.429-.925.09-1.236.971-2.115,1.117a7.448,7.448,0,0,0-6.245,1.2,6.046,6.046,0,0,0-3.86-.51c-1.28.243-2.694,1.719-4.206,1.93-1.878.254-3.175-.592-3.9.71-.49-.156-.625-.693-1.27-.678-.6.289-.763,1.152-1.346,1.466-.547-.291-.849-.843-1.781-.708A20.194,20.194,0,0,0,362.4,63.2c-1.952-1.084-4.42.316-6.744.565-1.789.191-3.676-.123-5.438.326-.777.387-1.031,1.446-2.123,1.423-2.054.2-3.875.115-5.958.3-2.529.226-4.726,1.7-7.056,2.088-1.5.248-3.123-.51-4.644-.246-1.7.294-4.323,1.933-6.025,2.139-2.939.351-6.676-.264-7.794,1.125-2.1-.761-4.631.314-6.249,1.2a8.7,8.7,0,0,0-1.785-.705c-1.348.379-2.476,1.3-3.936,1.634-1.973.444-4.189.161-6.228.59-1.939.409-3.5,1.456-5.485,1.556a43.066,43.066,0,0,0-4.677.673c-.9.113-1.722-.233-2.584-.136-.915.105-1.851.848-2.882,1.077-1.3.289-2.681.417-4.162.7-2.9.557-6.144,1.438-8.311,1.1-.832.422-1.31,1.3-2.381,1.411-.8-.407-1.325-1.107-2.271-1.348-1.352.763-2.823.153-4.153.4-1.1.2-1.956.984-3.154,1.365-2.594.826-5.725.693-7.3,1.765-2.789-2.056-5.92.05-8.808.457-1.449.206-2.96-.434-4.386-.231-1.481.213-2.994,1.122-4.445,1.3a61.121,61.121,0,0,0-6.492.889c-1.494.346-3.011,1.122-4.445,1.3-.376.05-.94-.369-1.278-.371-1.694-.013-3.342.969-4.946.966-.463.766.142,1.637-1.1,1.782-1.331.274-.989-1.273-2.022-1.333-3.813.156-7.122,2.425-10.665,1.9a50.737,50.737,0,0,1-13.815,2.957c-.7.259-1.039,1-1.849,1.127-6.235.105-12.38,2.525-18.725,3.007-.974.073-2.087-.241-3.1-.163-2.632.2-5.062,1.6-7.561,1.749-1.092.06-2.311-.329-3.355-.176-.963.136-1.857.969-2.884,1.074-2.362.241-3.518-.063-4.946.969-.936-.454-2.339-.4-3.33-.791-6.125,2.794-13.885,2.824-20.823,3.813-2.594.371-4.633,1.812-7.082,2.7-1.107.4-2.436-.146-3.623.115-.919.206-1.728,1.152-2.637,1.4-1.139.309-2.185-.326-3.118.449-.82.008-.832-.861-1.783-.71-3.617,1.727-8.123,3.3-12.769,2.706-4.162.59-7.758,2.181-11.476,2.774-1.394.223-2.789-.113-4.139.088-2.888.432-5.25,2.011-7.608,2.974-1.929-.748-3.661.986-5.474,1.245-.539.083-1.265-.4-1.8-.4-1.441.013-2.7,1.145-4.2,1.624-1.392.444-3.139.863-4.7,1.283-1.692.462-3.418.936-4.956,1.275-5.155,1.132-10.018,2.786-15.359,2.877-.737.324-.222,2.284-1.371,2.078-.934.035-.655-1.253-1.5-1.31-.965.354-1.648,1.074-2.882,1.079-.173,2.563-3.425,1.119-3.258,4.127.262.986,1.314,1.119,2.007,1.639a18.7,18.7,0,0,0,1.164,3.439c1.517-.64,2.5.389,3.87.2,1.4-.183,2.654-1.566,3.936-1.629s2.3.876,3.849.813c1.1-1.333,2.485-1.207,4.2-1.621,2.054-.492,4.413-2.292,6.034-2.442,1.128-.105,2.28.59,3.344.482,2.51-.248,4.451-1.915,6.564-2.728,1.1-.429,2.265.266,3.355.181,2.307-.181,4.344-1.862,6.8-2.1,1.221-.118,2.6.369,3.873.2.5-.06,1.145-.643,1.84-.821a17.157,17.157,0,0,0,3.67-1.343c1.88-.881,4.521-1.022,6.775-1.483.8-.168,1.574-.783,2.1-.811.423-.023.668.62,1.268.678.716.075,1.346-.6,2.075-.193.706-.156.689-1.247,1.593-1.147,2.191.487,3.325-.4,4.69-.981a4.741,4.741,0,0,0,2.311.429c2.117-2.435,6.452.148,9.321-.429.473-.562.374-1.867,1.358-1.772,1.443-.2,1.891.693,3.072.778,1.008-1.586,2.582-2.437,5.242-1.872.824-.324.877-1.649,1.874-1.744,7.963-.635,13.933-2.982,21.752-1,.268-.557-.737-1.062.046-1.225.978-.183,1.217.439,2.049.417,2.939-2.447,6.672-1.428,10.4-1.6,2.225-.1,4.377-1.418,6.75-.871,1.553-.459,2.966-2.071,4.494-2.523.215-.068.854.429,1.278.371.657-.085.822-.567,1.314-.542,2.844.133,6.049,2.477,9.027.474.482-.645.04-1.983.334-2.131.849-.136,1.2.269,1.8.4,1.192-1.744,3.611-.886,5.736-1.232,2.692-.434,5.362-1.777,7.785-.816.847-.4.978-1.732,2.132-1.732,2.263,1.25,4.344.058,6.234-.9,3.657,1.212,6.1-1.069,8.867-1.988,1.2-.125,1.46.766,2.558.748,1.952-2.309,6.528-2.47,9.892-1.933.777-.279.649-1.727,1.618-1.757.832-.025,1.071.6,2.056.414,4.468-1.865,9.4-1.16,13.808-2.959,1.293.163,1.4,1.614,3.049,1.393.87-.048.8-1.32,1.6-1.451a44.728,44.728,0,0,0,12.5-2.412c1.642,2.023,2.677-1.13,4.363.846.913-2.236,3.947-2.151,5.992-1.22.731-.444.94-1.564,1.876-1.747,4.09.52,6.854-2.116,10.633-.974,1.367-1.616,3.275-.622,5.218-1.258.45-.166.032-1.456.573-1.509.915.085.894,1.185,2.028,1.032,2.985-.535,5.506.3,7.551-1.443.547.286.854.841,1.783.708.851-.07.581-1.6,1.6-1.453,2.142.532,2.875-.766,4.185-1.313,2.271.316,4.2-.314,7.492.088,1.485-1.649,3.8-.944,6-1.524.471-.123.868-.7,1.325-.853.754-.246,1.546,0,2.335-.183,2.427-.58,4.3-1.556,6.46.035.841-.088.864-1.232,1.6-1.453,2.594,1.182,4.745-1.333,7.306-1.762,1.5-.256,3.118.449,4.642.246,1.329-.178,2.428-1.408,3.682-1.652,2.419-.462,5.087,1.079,6.765-1.177,2.856.472,5.389-1.978,8.548-.469,1.986-2.618,5.013-.562,7.561-1.752.1-1.521-.494-2.508.63-3.037,1.044-.607,1.639.407,1.747,1.627,1.737.316,3.23-.635,4.646.246.83-.1.953-1.117,1.853-1.13,4.737.5,8.51-2.485,13.762-1.732.815-.66.767-2.435,1.91-2.661,1.17.535,2.218,1.426,3.568,1.416.649-.008,1.2-.622,1.838-.826.923-.3,2.06-.06,3.12-.449.625-.231,1.23-.906,1.851-1.132,1.813-.655,3.913.354,5.685-.005.41-.083.7-.72,1.067-.866,1.817-.72,3.4-.306,4.95-.969.746-1.195-.017-2.374,1.392-2.688,1.511-.336,1.551,1.443,3.038,1.694,3.013-.4,5.442-1.719,9.613-1.333.613-.063.52-1.039,1.325-.851,3.07,1.3,4.578-1.674,6.541-2.113,1.483-.329,2.96.542,4.646.243.091-.532-.668-1.566.068-1.835,2-.321,1.944,1.609,3.285,2.016,3.011-1.177,6.465-.52,8.831-1.072a28.183,28.183,0,0,0,3.114-.447c.723-.3,1.107-.954,1.853-1.132a35.237,35.237,0,0,1,3.636-.424c.773-.133,1.747.259,2.322.126,1.12-.266,2.643-1.458,4.42-.69.864-.484,1.194-1.664,2.144-2.036,2.185.264,5.626,1.35,6.237-.9,2.907,1.31,4.561-1.5,6.308-2.736,1.534.178,3.712-.738,5.472-1.245a9.512,9.512,0,0,1,1.756-5.439c.778-.4,3.148-.4,3.87.206a3.782,3.782,0,0,1-1.124,2.4,3.211,3.211,0,0,0-2.559-.751c-.355,1.29-.837,3.067-.15,3.983.708,1.034,1.551-.673,2.066.11.2,1.155,1.287,1.35,2.267,1.659,1.257-1.541,3.163-.585,4.675-.678,1.346-.08,2.466-1.531,3.636-.422.636-.354.647-1.514,1.6-1.451.6.625,2.146.407,2.837.151.843-.69-.528-2.254.606-2.427,1.977-.281,2.493,1.022,4.094,1.14,1.025-.045-.152-.959.562-1.2.875-.136,1.206.6,2.041.72,6.513.929,12.321-1.84,18.433-2.1.689-.279.913-1.17,1.6-1.448,2.44.216,3.7-2.39,5.782-2.46,1.865-.063,3.207,1.682,5.628,1.524.845-.4.689-2.1,1.147-3.01,1.694,1.162,5.108-1.481,5.641,1.22-.442,1.082-1.855-.3-2.368,1.1,2.675.846,5.672-2.066,9.579-.414,1.244-.723,1.99-2.008,3.425-1.662.9-2.934,2.742-5.979,6.08-3.672.72.592.6,2.091,1.456,2.535,2.571.336,3.63-1.288,5-2.5,4.384-.158,7.238,1.345,11.047,1.81-.583-3.486,2.649-3.215,4.722-1.9,1.31-.233,1.821-1.5,3.167-1.679.968.03.731,1.365,2.032,1.032,2.787-1,5.928-.422,7.865-2.964.976,1.679,4.553.537,5.6,2.139.5-2.618,3.112.063,4.654-.06,1.01-.3,1.044-1.862,1.9-2.354,1.1,1.26,3.19,2.643,5.356,1.817.906-.758.938-2.646.946-4.561a3.073,3.073,0,0,0-4.665.369m29.423,1.247c.313.437,1.523.612,1.557-.226-.313-.437-1.523-.615-1.557.226M693.9,32.481c.587.115.974-.023,1.056-.557-.585-.118-.972.02-1.056.557m-23.512-.319c.344.018.689.038,1.035.053.015-.407.029-.818.049-1.222q-1.207-.282-1.084,1.17m-85.625-5.136a1.226,1.226,0,0,0,2.03,1.032,1.3,1.3,0,0,0-2.03-1.032m297.7,16.022c.344.113.475.464,1.018.361l.038-.919c-.588-.118-.974.023-1.057.557M525.934,24.231c-.169-.251-1.411-.761-1.546-.083.57.4,1.1.946,1.546.083m10.521,2.091c-.837-.979-.826,1.089,0,0m-41.82-1.594c-.262.969,2.518,1.114,2.322.123-.376-.783-1.794-.221-2.322-.123M679.857,34.81c.446-.828-1.082-.9-1.02-.361.342.118.48.464,1.02.361m41.808,1.9c-.027.946,1.325,1.167,1.783.71.285-1.235-1.361-1.137-1.783-.71M524.25,27.827a.954.954,0,0,0,1.534.387c.175-1.268-1.426-1.75-1.534-.387m-21.165-.813c-.264,1.335,2.565,2.076,2.565.444-.716-.271-1.914-1.007-2.565-.444m206.63,11.217c.325.417.944.454,1.039-.256-.33-.414-.94-.452-1.039.256M483.173,27.192c.976-.015,2.313.434,2.356-.8-.619-.781-2.25-.158-2.356.8M702.457,38.769c.987,1.544-.159,2.334-.9,3.328,1.819,1.222,3.963-.221,5.968-.6-.07-1.1-.625-1.674-.4-3.092-1.544-.884-3.374-.07-4.667.366M478.517,27.255a1.627,1.627,0,0,0,2.839.148,3.017,3.017,0,0,0-2.839-.148m14.649,2.309c.684.035,1.375.073,2.064.11.433-1.935-2.182-1.443-2.064-.11M485.628,30.7c.735.1,1.4.11,1.325-.851-.492.043-.56-.377-1.022-.361-.1.409-.387.567-.3,1.212m51.125,1.468c-1.211.03-2.672,1.343-3.94,1.637-1.766.409-3.513-.1-4.948.969-.906-.093-1.118-.936-2.028-1.029-.919,1.7-4.523-.088-4.992,2.191,4.037,2.485,7.7-2.375,11.383-.319a2.255,2.255,0,0,1,2.863-.467c.811-.226,1.242-.956,2.109-1.114.336-.743,2.231.535,1.851-1.13-.818.241-1.43-.756-2.3-.738m-58.126-.916a1.823,1.823,0,0,1,1.806.1c.159-1.544-1.648-.889-1.806-.1M683.394,43.9c.264,1.546,3.12,1.182,3.366-.131-.854-1.049-2.945-2.131-3.366.131M452.983,32.662c.3-1.009-.319-1.024-1-.971-.108.8.319,1.024,1,.971m2.97,3.537a3.059,3.059,0,0,0,2.639-1.4c-.594-1.378-3.017-.525-2.639,1.4m49.094.442c-1.289,1.325-4.061.723-5.005,2.5,2.474-.108,5.271.2,7.261-.54-.241-1.21-1.232-1.6-2.256-1.96m71.685,4.706c.359,1.373,1.912.321,2.087-.507-.486-.537-2.024-.487-2.087.507m72.729,4.45c.484.1.583-.314,1.042-.248.154-.954-.513-1.009-1.253-.991a2,2,0,0,0,.211,1.24M438.951,34.687a.759.759,0,0,0,1.3-.236c-.313-.439-1.246-.545-1.3.236m13.1,2.226c.258.013.516.025.773.04-.025-.361.078-.866-.222-.931-.044.479-.668.206-.551.891m-2.332.183.516.03c.006-.208.015-.412.023-.615l-.515-.028c-.008.2-.017.409-.023.612m-6.744.567c.551.555,2.347.665,2.1-.811-.716-.771-1.551.369-2.1.811m8.5.756a1.061,1.061,0,0,0,1.827-.52c-.534-.655-1.6-.188-1.827.52M620.656,48.882c.984.8,2.871.427,2.882-1.074-.845-.612-3.186-.826-2.882,1.074M419.172,38.249c.558.055,2.778.713,2.871-.771-1.088.088-2.531-.286-2.871.771M632.216,50.722c1.863.6,3.03-1.094,4.667-.366-1.054-1.19-4.118-2.159-4.667.366M435.389,40.029c.435-.906-1.306-.879-1.278-.377a1.5,1.5,0,0,0,1.278.377M602.715,51.623c.813-.018,1.887.309,2.332-.183q.032-.768.059-1.531c-1.154-1.014-3.4-.136-2.391,1.714M405.14,40.275c.33.555,1.2,1.3,1.779.708.226-1.694-1.415-1.857-1.779-.708m10,2.061c.315.439,1.109.364,1.792.4.351-1.24-1.745-1.325-1.792-.4M870.455,66.982c-2.7,2.8-7.327,1.162-10.961,2.8,2.869,3.619,7.471-1.273,10.857-.043.636-3.783,6.853-.311,8.134-3.258-3.148-1.632-5.2,1.712-8.03.5M461.531,46.015a1.507,1.507,0,0,0,1.278.374,1.74,1.74,0,0,0,.07-1.842c-1.01-.238-1.168.628-1.348,1.468m-69.173-2.728c1.456.065,3.011.264,2.907-1.692-1.238.213-2.907-.136-2.907,1.692m126.456,5.444c-.142,1.614,2.486,1.109,2.332-.186a4.748,4.748,0,0,0-2.332.186m-132.4-5.452c-.264,1.33,2.567,2.071,2.567.439-.321-.934-1.842-.738-2.567-.439m18.3,1.27c-.156,1.245,2.482,1.581,2.07-.2-.739,0-1.68-.254-2.07.2m107.049,5.959c.258.013.518.025.775.04.006-.2.015-.409.021-.612-.26-.013-.518-.028-.771-.043l-.025.615M381.97,44.58c.336.713,2.007,1.122,2.077-.2-.934.186-1.737-1.044-2.077.2M852.75,70.345c.828,2.347,4.458.929,6.18.635-.344-3.522-4.219-.718-6.18-.635M374.417,46.02c1.32-.643,4.229,1.353,4.447-1.3-1.792.033-3.974-.449-4.447,1.3m18.835.994c1.132.183,2.132.2,1.861-1.436-1.031-.055-1.931.06-1.861,1.436M442.01,49.59a7.678,7.678,0,0,0,4.173-1.009c-1.153.153-4.28-1.5-4.173,1.009M869.755,71.861c.33.033.342.409.763.346a.866.866,0,0,0-.482-.946c-.01.309-.224.351-.281.6M493.572,53.232c.638.492,2.157,1.559,3.074.778-.349-1-2.531-2.653-3.074-.778M843.864,72.951c1.937.557,4.253-.808,6-1.526-2.094.387-5.026-.314-6,1.526m-460.228-24.6c.655.512,3.351.929,3.378-.434-.773-.517-3.188-.831-3.378.434M365.592,47.09c.249,1.82,3.71.919,4.139-.088-1.447.316-2.246.025-4.139.088M863.954,74.934c.877-.038,2.081.346,2.59-.173-.044-1.958-2.7-2.1-2.59.173M834.509,74.3c1.578-1.13,2.624.615,4.409-.384-.245-2.347-5.423-2.761-4.409.384m21.4,1.433c1.289.874,4.806.926,5.715-.617-2.406,1.328-6.133-4.5-5.715.617m-496.6-26.519c1.694.738,4.606.462,5.222-1.26-1.72-.65-4.388-.254-5.222,1.26m17.544.926a1.5,1.5,0,0,0,2.347-.489c-.8-.5-2.018-.487-2.347.489m-5.977.914c.361.5,1.137.4,1.052-.557-.585-.118-.972.02-1.052.557m11.349.6c.256.013.515.028.773.043.008-.206.017-.412.021-.615-.253-.015-.513-.028-.771-.04-.011.2-.017.407-.023.612M881.181,77.378l-1.291-.068c-.5,1.438,1.6,1.2,1.291.068M364.363,52.248c1.263,1.089,2.793-.223,4.139-.088-.249-1.358-3.746-1.25-4.139.088m-5.992,1.217c1.354-.269,3.057.469,3.672-1.338-1.177-.67-3.672-.565-3.672,1.338M887.48,81.7c.8.045,1.654.813,2.32.126.334-2.121-2.091-1.024-2.32-.126M354.727,54.2c.978.2,1.616-.045,1.842-.823-.735-.437-1.735-.389-1.842.823m3.558,1.722a1.815,1.815,0,0,0,1.591-1.142,1.4,1.4,0,0,0-1.591,1.142m152.987,7.771a.858.858,0,0,0-.48-.946c-.384.427-.42,1.165.48.946M348.49,55.1c.363.432,2.022.735,2.075-.2-.361-.432-2.02-.735-2.075.2M341.7,56.889c2.054.1,3.917-.055,4.958-1.275-.875-1.93-4.107.1-4.958,1.275m5.746-1.541a.714.714,0,0,0,.794-.57c-.406.005-.892-.09-.794.57M791.119,80.3c-.3-.366-.9-.394-1.538-.387-.332,1.182,1.487,1.31,1.538.387M333.925,57.4c.834.148,2.973,1.637,3.11-.143-1.373.266-2.438-1.044-3.11.143m11.051,1.81c.828.223,1.206-.143,1.815-.211.211-1.511-2.134-1.225-1.815.211m-14.472-.148c.154-.949-.513-1.009-1.255-.989-.154.954.516,1.009,1.255.989M429.843,64c-.393.03-.953-.161-1.048.251.332.414.947.452,1.048-.251m-107.9-4.162,1.033.055c.251-1.167-1.192-1.245-1.033-.055m-1.593,1.147c.619-.643.458-1,.07-1.84l-1.031-.058a1.223,1.223,0,0,0,.961,1.9m12.9.678c.26.013.516.03.773.043.011-.306.023-.615.036-.919-.171-.013-.344-.018-.518-.03-.025.392-.346.407-.292.906m-17.419,2.766c.649.364,2.292-.329,2.14-2.033-1.154.105-2.3.231-2.14,2.033m78.858,6.313c.921.013,2.072.331,2.1-.813-.868.053-2.218-.525-2.1.813m-95.25-3.491c.8-.183.739.567,1.538.387,1.056-1.278-1.753-3.145-1.538-.387m-24.353,1.478c.951.354,3.175.512,3.644-.73-.873-1.258-3.414-.8-3.644.73m-2.335.183c.256.013.518.025.771.04.011-.206.017-.407.025-.61l-.775-.043c0,.2-.015.409-.021.612m-7.01.861c.528.562,2.915.8,2.858-.467-.868.266-2.78-.823-2.858.467m-8.326,1.4c1.227-.4,2.5,1.268,2.6-.477-1-.008-2.256-.359-2.6.477M271.078,72.2c.015,1.032,1.557,1.26,1.551.083-.085-.688-1.361-.314-1.551-.083m-4.428,1c.4-.01.889.085.794-.575l-.516-.028c-.011.309-.22.356-.279.6M244.7,72.649c.621.228,1.3.688,1.312-.545-.638-.08-1.251-.123-1.312.545m3.6.5a1.076,1.076,0,0,0,1.056-.562c-.458.05-1.28-.377-1.056.562m11.06,1.5c.344.018.691.035,1.033.058,0-.208.013-.412.021-.617-.344-.015-.687-.035-1.031-.053-.006.2-.015.409-.023.612m-24.025-.346c-.932.163-2.36-.537-2.613.781,2.092-.281,4.623.01,5.989-1.217-.82-.52-2.119.211-3.376.437m-1.17,3.622c.535.6,1.756.138,1.6-1.145-.815.013-1.546.133-1.6,1.145m-3.4,1.049c.7.259.545-.582,1.054-.56-.057-.715-.11-1.443-.982-1.28a1.737,1.737,0,0,0-.072,1.84m-4.149.4c.788.254.488.238,1.293.068.021-.612.044-1.225.065-1.84-.835.093-1.515.387-1.358,1.772m-4.935.66c1.492-.206,2.322-1.273,3.433-1.968-1.054-.248-3.454-.181-3.433,1.968M209.3,79.073c.5.685,1.023-.03,1.561-.223a.87.87,0,0,0-.484-.946c-.251.527-.966.454-1.077,1.17m-8.1,2.337a6.785,6.785,0,0,0,4.711-1.594c-1.411-.474-4.158-.1-4.711,1.594m13.682.417c.818-.013,1.549-.136,1.6-1.147-.815.013-1.549.136-1.6,1.147M199.135,81.3c.585.118.974-.023,1.056-.557-.346-.113-.475-.459-1.02-.361-.011.309-.023.615-.036.919m-7.549,1.446a2.147,2.147,0,0,0,2.066.108c.04-1.355-1.969-1.195-2.066-.108m2.324.123a1.081,1.081,0,0,0,1.054-.56c-.363-.5-1.139-.4-1.054.56m7.95,1.647c.782.266.78-.487,1.559-.221.158-.959-.323-1.22-.448-1.867-.427-.023-.858-.045-1.289-.07-.03.816-.165,1.747.177,2.159m5.472-1.245a.716.716,0,0,0,.8-.572c-.4.008-.891-.088-.8.572m-24.577.545c-.742.271-1.616-.274-1.58.841,1.527.7,3.006-.183,4.151-.4-.021-1.95-1.462-.848-2.571-.444m5.96-.3c-.317-.442-1.109-.364-1.8-.4-.182,1.456,1.316.763,1.8.4m4.844,1.792c.492.931,3.727,1.376,3.634-.422-.581-.939-4.454-1.3-3.634.422m-15.782.4c.877.171,1.47-.018,1.335-1.16-.841-.123-1.257.3-1.335,1.16m12.38.65c.192.54,1.859.3,1.832-.515-.044-.339-1.908-.359-1.832.515m-15.232-.492c.171.005.349.015.518.025,0-.206.013-.412.021-.615-.171-.008-.342-.018-.516-.028-.008.206-.015.407-.023.617m12.091,1.554c.64.08,1.253.126,1.314-.545-.49-.665-1.1-.068-1.314.545m-1.57.532c.735.1,1.4.115,1.325-.851-.507-.663-1.308-.068-1.325.851m-9.826.1c-1.8.359-3.982-.148-4.451,1.609,2.125,1.659,5.267-.55,6.786-1.79,2.113-.532,2.4,1.81,4.1.828-.2-3.727-4.2-1.089-6.437-.648M164.2,89.286c.008.969.112,1.837.963,1.893.4-.464.623-2.407-.435-2.174-.068.236-.23.346-.528.281m4.853,1.483c.659,0,1.02-.394,1.08-1.172-.676-.991-1.846.286-1.08,1.172m-8-.422c.019.866.4,1.328,1.244,1.3-.152-.949.475-.881.327-1.827-.8-.188-1.023.384-1.572.532m-5.427.018c-.224,1.145,1.925.851,1.559-.221-.634-.075-1.24-.113-1.559.221m2.32.125c-.011.306-.023.61-.034.919a1.96,1.96,0,0,0,2.873-.768,3.01,3.01,0,0,0-2.839-.151m-6.8,2.1c1.143,1.488,3.484.4,3.425-1.659a5.53,5.53,0,0,0-3.425,1.659m-6.213.289c.947,1.037,3.68,1.842,3.4-1.052-1.215.248-3.046-.314-3.4,1.052m-3.68,1.649c1.656.705,1.76-2.068.057-1.536-.017.512-.038,1.022-.057,1.536m-4.677.673c1.792.291,2.882-.326,3.173-1.983-1.745-.231-3.027.141-3.173,1.983m-1.02-.361c-.218-.547-.782-.718-1.527-.693-1.031,1.177,1.46,2.51,1.527.693m-13.5,1.438c.171,1.245,1.377.382,2.569.444,2.573.128,4.635.826,4.98-1.89-2.571-.128-5.637-.176-7.549,1.446M118.4,97.617c1.042-.467,2.713-.118,3.152-1.368-1.219.238-2.666.178-3.152,1.368m-12.243,2.422c1.1.088,1.87.715,2.839.151.169-2.452-2.749-2.272-2.839-.151m-5.474,1.25c.849.033,1.821.221,1.84-.828-.5-.557-2.18-.693-1.84.828m3.646-.728c-.431-.025-.86-.05-1.289-.07-.431.921,1.648,1.032,1.289.07M86.9,103.325c1.251.015,2.73.326,2.886-1.077a2.123,2.123,0,0,0-2.886,1.077m807.237,42.3c1.113.183,1.439-.166,1.077-1.17q-.989,0-1.077,1.17m-8.043.806c1.382.151,5.094,1.509,5.7-.314-1.483-1.165-4.77-1.619-5.7.314M84.289,104.108c.175.01.344.02.515.028.013-.309.224-.351.281-.6-.33-.035-.342-.412-.763-.346-.011.3-.023.612-.034.919m818.552,43.823c-1.206.249-1.426,1.792-2.662,2.006-1.306-.853-3.325.392-4.6-1.471-1.9.218-4.225-.131-4.232,2.543.79.045,1.5.924,2.29,1.039,1.542.223,4.878-.9,5.719-.926,1.84-.063,3.708,1.044,5.185-.341.608.028.737.567,1.534.389.357-.607,1.274-.492,1.1-1.785-1.766-.138-2.632-1.255-4.339-1.453M77,105.566l.775.04c.006-.2.015-.409.023-.615-.258-.013-.516-.023-.775-.038-.006.2-.015.409-.023.612m-12.507,2.716c.171.008.344.018.515.03.027-.394.344-.409.292-.906-.173-.008-.344-.018-.515-.028-.03.389-.346.4-.292.9M50.924,111.56c.638.078,1.251.123,1.314-.542-.49-.668-1.1-.07-1.314.542m-5.489,1.554a3.814,3.814,0,0,0,2.9-1.383c-1.3.023-2.823-.243-2.9,1.383m-5.168.03c-1.817.231-4.819.861-5,2.5,3.849.826,4.963-1.908,8.335-1.707-.154-1.408-2.3-.919-3.33-.793m-13.084,4.227a13.525,13.525,0,0,0,4.971-1.581c-1.523-.515-4.608-.464-4.971,1.581M887.833,176a4.8,4.8,0,0,0,1.771,1.017c.253-.64.82-.866.845-1.8-.851.284-2.373-.289-2.615.783m-10.143,1.614c.79.863,1.887.068,1.853-1.127-.953-.06-1.781.04-1.853,1.127M79.122,269.982a4.8,4.8,0,0,0,3.636-.424,1.85,1.85,0,1,0-3.636.424m891.355,59.95c-4.68-1.438-10.728.522-15.3,1.338-.868.366-.49,2.362-1.639,2.369a33.855,33.855,0,0,0-9.475-2.342c-1.4,2.9-5.049,2.869-8.89,2.6-.725-.419,1.291-1.835-.178-2.159-3.86.5-8.839,1.945-14.032,2.026a16.265,16.265,0,0,0-2.58-.138c-2.576.459-4.441,3.286-6.833,3.02a4.465,4.465,0,0,0-4.589-1.78c-1.1.346-.167,1.345-1.1,1.787-.82.105-.04-1.529-.989-1.28-5.123-.158-10.8,2.4-15.006.434-2.22,2.046-6.116,1.91-9.408,2.573-.79.74.608,1.529-.078,2.149-1.6-.924-2.793.422-4.394.073-1.052-.231-1.69-1.488-2.778-1.687-2.622-.459-5.223,2.184-8.034.5a8.967,8.967,0,0,1-7.046,1.777c-.032.811.076,1.815-.583,1.817-3.243-3.727-8.438.432-11.854-.931-1.872,1.441-4.9.512-7.058,2.078-1.194-1.21-2.064-1.112-3.826-1.433-.5.525-.38,1.87-1.111,2.093-2.732-.522-4.447-.178-5.878-1.845a10.144,10.144,0,0,1-3.642.728c-1.149,2.043-3.273,2.824-5.066,4.039-1.063-.123-.737-1.745-2-1.647-1.646.841-3.032-.442-4.633-.552-1.451,1.135-2.223,2.538-4.244,2.846-1.608.246-3.509-.808-4.937.66-1.76-.361-2.634.432-3.653,1.034-.222-.545-.782-.715-1.53-.69-1.006-.136-1,1.059-2.1.808-1.43-.11-.957-2.292-2.5-2.282-2.045.482-3.08,1.993-5.474,1.247-1.815,2.2-4.747,1.9-7.325,2.374-1.17.218-1.853.951-3.129.758-1.04-.153-1.745-1.242-2.8-1.375-1.823-.233-3.469,1.428-5.178.344-1.234.547-1.728,3.266-3.234,3.512-1.614.271-2.136-.959-3.543-2.031-2.071-.221-3.3.645-4.7,1.288-1.261-.638-2.049.03-3.611-.191-1.914,1.268-4.016,2.282-5.825,3.687a12.675,12.675,0,0,1-.951-2.2,7.981,7.981,0,0,0-5.229,1.566c-3.169-1.634-5.837,1.119-8.533.163-1.092,1.408-2.715.846-4.437,1-2.212.2-4.3,1.822-6.516,1.5-1.061.547-1.2,2.292-2.668,2.309-1.075.188-.433-1.491-1.508-1.3-1,1.323-2.024-.221-3.351-.178-1.762.058-3.741,2.146-5.2.648-2.256.71-3.146,3.205-6.061,3.057-1.367-.69-1.219-1.712-2.51-1.975-2.035-.412-4.42,2.52-6.482.58-3.116,2.48-8.73.309-12.218,1.807-.67.55.48,1.627-.583,1.817-2.333-2.139-5.926-.038-8.749-1.077-1.783,1.431-5.111-.218-6.788,1.792-.608-.319-.636-1.27-1.775-1.017-2.043,1.172-4.513.909-7.025,1.165-1.483.153-2.962.994-4.428,1-.617,0-1.194-.462-1.794-.4-.363.038-.86.489-1.312.547-.57.063-1.107-.183-1.551-.083-2.941.658-3.754,2.924-6.08,3.665-1.832-.921-3.807-2.126-5.9-1.23-.746.324-.311,2.171-1.371,2.076-1.882-3.035-5.075-.843-6.752.876-2.548-1.227-3.579,1.6-6.5.884-.9-.294-.592-1.9-1.737-1.933-1.688.274-2.51,1.669-3.716,2.57-1-.188-.642-1.855-2.007-1.644-3.3,1.283-7.762,1.062-11.444,1.85-1.287,1.97-4.166,1.875-5.563,3.7-3.991-1.752-8.3-.66-11.9.3-1.113-.163-1.1-1.554-2.533-1.363-1.261,1.388-2.738,2.633-5.229,1.566-1.629,2.194-4.546.909-7.033,1.468-.68.156-1.145.783-1.842.828-1.777.108-3.775-1.195-5.182.339-.93-1.514-2.007-1.107-4.084-1.441-2.358,2.347-6.446,4.616-9.894,1.933-1.373.981-2.81,2.545-4.756,2.816-1.54.216-3.142-.336-4.646-.241-2.341.148-4.38,1.386-6.532,1.8-.672.136-1.416-.213-2.06-.11a12.47,12.47,0,0,0-2.628,1.092c-.661-.848-1.073-1.965-2.78-1.682-1.424.417-.308,2.151-1.9,2.359-1.523.186-1.572-1.235-2.791-1.378-2.715,1.117-4.937.981-7.525.833-4.082-.233-6.718,3.13-9.169,3.2-1.314.038-2.468-1.26-3.837-1.124-1.033.1-1.151.919-2.368,1.1-5.271-1.529-9.321,1.13-12.777,3.012-1.025-.354-1.143-1.7-2.52-1.664-1.318.319-1.688,1.878-3.178,1.98-1.128-.354-1.322-.926-2.286-1.047-1.9-.236-3.725,2.134-5.444.326-2.007.961-5.269,2.513-7.538,1.142-1.065.665-1.591,2.578-3.209,2.9-1.978.394-3.125-.768-4.585-1.777-3.177,1.737-7.772.3-10.916,1.571-1.02.412-1.61,1.762-2.66,2.013-2.191.507-4.2-.763-5.981.911-.984-.108-.332-2-1.475-1.925-2.863,1.112-7.173.336-10.132,1.31-.739,3.584-4.2,1.96-5.7.314a8.138,8.138,0,0,1-5.732,1.23c-.756.412-.617,1.983-1.872,1.744-2.079-2.053-4.857-.417-8-.422-.87,1.82-3.841,3.251-4.407.384-3.247,1.135-7.737.663-10.434,2.52-2.5-2.249-5.083.813-7.536,1.137-.59.08-1.525-.407-2.056-.417-3.385-.065-6.366,2.259-9.412,2.882-1.086,0-.742-1.546-2.02-1.333-1.582.2-2.542,1.2-3.691,1.958-2.419-2.48-5.651,1.052-8.5-.755-1.084-.126-1.132,1.1-2.113,1.115-.872-.522-2.343-.4-3.6-.5a4.792,4.792,0,0,1-2.111,1.117c-1.709-.728-3.209.806-5.2.954-2.263.168-4.855-.713-7.223-.379-1.464.206-2.447,1.609-3.919,1.019-.938.6-1.35,1.885-2.658,2.013-1.044-.535-1.424-1.594-2.525-1.669-.949-.073-1.629,1.15-2.892,1.383-1.785.329-3.344-.494-5.419-.286a4.821,4.821,0,0,1-2.108,1.117c-3.553-.761-5.159,1.012-7.316,2.071-4.154-2.628-8.113,1.38-12.955.848-2.351,4.418-7.025.52-11.163,1.257-.932,1.12-.72,2.4-2.178,2.957-1.356.512-3.435-.8-4.665.361-1.09-1.431-3.767-1.1-5.656-.909-.934.389-1.094,1.79-1.9,2.357-3.059.058-4.147.833-7.508.218-1.682,1.94-4.764,1.729-7.031,1.468-1.35,1.99-5.588,1.438-7.77.515-3.013,2.538-8.594.366-11.975,2.131-1.434.748-1.553,2.821-3.2,2.593-.849-.153-.232-1.9-1.492-1.612-2.565,1.669-5.288.374-7.817,1.734-.448-.3-.283-1.26-1.257-.986-2.189.372-2.992,2.54-5.024,3.112-1.156-.924-1.975-2.013-3.56-1.724-1.263.228-1.215,1.908-2.4,2.026-1.145.264-.809-1.082-1.77-1.014-.83.964-1.549,2.061-2.932,2.3-1.9-1.541-3.251-.427-5.425.025-.515.186,0,1.709-.589,1.81-1.838-.249-4.451-1.182-6.437-.648-1.47.4-1.819,2.026-2.928,2.3-3.9-.924-6.961,1.539-9.545-.5a28.7,28.7,0,0,0-3.727,2.874,6.789,6.789,0,0,0-7.293,1.461c-.6-.033-1.2-.068-1.8-.1-2.782,2.357-6.627,1.589-10.7,2.505-2.248.507-4.39,2.513-6.046,2.751-2.318.331-5.385-1.5-6.283,2.126,3.938.675,8.2-.879,11.7-1.84,6.911,2.312,12.8-1.933,19.217-2.364,1.2-2.4,2.816-1.192,4.961-1.273,1.764-.068,3.672-1.16,5.732-1.235a18.572,18.572,0,0,0,2.32.126c.818-.141,1.57-.891,2.37-1.1,1.437-.387,3.241-.645,4.948-.966,3.283-.62,7.145-.63,9.883-1.632.862-.314,1.337-1.029,2.111-1.117a16.064,16.064,0,0,1,2.311.429c1.806.1,3.642-.61,5.461-.939.587-.108,1.2.188,1.806.1,3.7-.587,7.591-1.566,11.2-2.171,3.566-.6,7.251-.54,10.644-1.283,1.449-.316,2.8-1.112,4.437-.989.879.068.215-1.862,1.1-1.79.594.238.858.831,1.242,1.3,2.516-1.042,5.17-.565,8.058-1.115.627-.118,1.213-.655,1.84-.821,1.973-.525,4.16-.856,6.249-1.2.67-.118,1.4.181,2.064.108,2.292-.261,4.591-1.6,7.044-1.78,4.956-.356,9.256-1.6,13.787-2.337,1.618-.271,2.417-.615,3.389-.745.408-.058,1.128.407,1.538.387,1.821-.08,3.589-.934,5.474-1.247,2.675-.444,5.749-.264,8.558-.778.915-.163,1.718-.718,2.613-.783.87-.058,1.73.248,2.58.138.8-.1,1.6-.68,2.356-.8,2.723-.419,5.4-.158,7.821-1.737,3.987,1.684,8.58-1.594,12.7-.866,1.02-1.024,1.344-2.354,2.943-2.605,1.743-.274,3.277,1.039,4.587,1.775,3.169-1.25,6.636-.567,9.86-1.012,1.741-.243,3.5-1.124,5.216-1.26,3.97-.314,6.619-1.009,9.873-1.323,6.581-.63,12.93-1.667,19.475-2.349,1.792-1.541,4.9-1.1,6.763-1.177,3.163-.138,6.423-1.524,9.64-1.95,2.763-.371,5.586-.023,8.29-.484,1.7-.291,3.256-1.012,4.958-1.273.492-.075,1.183.2,1.809.1.446-.073.877-.52,1.308-.542.467-.035,1.12.371,1.538.381,2.368.075,4.673-.956,7.025-1.162,1.669-.143,3.2-.256,4.407-.381,4.213-.444,7.952-.848,11.666-.919,2.489-.053,3.456-.68,5.208-.954,4.147-.653,8.544-.233,12.708-1.172.56-.13,1.061-.71,1.584-.838,2.286-.565,4.5.018,6.739-.565.708-.156.689-1.245,1.6-1.145,2.237,1.729,4.255-.161,6.484-.582,1.66-.311,3.625-.043,5.438-.326,1.306-.2,2.463-.868,3.659-1.037,1.439-.2,3.017.108,4.4-.073,1.99-.256,3.8-1.14,5.732-1.232,4.39-.208,7.255-1.323,10.914-1.569,3.811-.266,6.091-1.3,9.11-1.674,1.944-.241,4.044.371,5.947.008.534-.1.991-.675,1.58-.836,1.682-.462,3.526-.01,5.185-.341,1.369-.276,2.594-1.79,3.9-.715,1.363-1.227,2.886-.8,4.946-.969,3.068-.254,5.539-1.343,8.594-1.7,3.706-.424,6.921-.989,9.615-1.328,3.461-.444,6.2-1.17,9.6-1.032,1.69-1.446,5.533-.105,6.8-2.1,1.851.851,4.344.407,6.718.05,1.937-.291,4-1.1,5.99-1.215,2.861-.183,4.612-.713,6.756-.876,2.478-.193,3.473-.035,4.7-1.288,1.716.9,3.313-.193,4.929-.356,5.123-.5,10.23-.735,15.3-1.34.813-.1,1.565-.407,2.345-.489,3.482-.366,6-.946,8.837-1.375,4.912-.751,10.016-.71,14.328-2.932,8.7.138,16.415-1.817,25.418-2.344.577-1.165-.365-2.759,1.642-2.369,1.265.316-1,1.82.708,1.88,1.555.419.741-2.241,2.142-2.038,6.41.424,9.868-1.067,14.831-2.6.915-.015.454,1.468,1.5,1.31,1.43-.063,4.154,1.6,6.437.65.756-.442-.479-1.463.325-1.83,1.183-.105.632,1.669,1.751,1.626a92.091,92.091,0,0,0,10.92-1.571c.864-.269.866-1.657,2.115-1.423.915.083.9,1.182,2.03,1.029,2.9-.753,6.581-1.308,8.85-1.682,1.694-.281,3.57-.008,5.182-.344,1.02-.213,1.893-.9,2.888-1.072,1.354-.238,2.81.138,4.141-.093,2.073-.359,4.2-1.536,6.268-1.817,2.1-.289,4.266.111,6.213-.286.579-.118,1.02-.645,1.58-.838,2.624-.894,5.389.193,7.811-1.431.636-.008,1.246.018,1.534.387,1.644-1.253,4.082-.863,5.47-.936,2.744-.156,5.394-1.684,8.085-2.031.908-.12,1.844.256,2.839.151a77,77,0,0,0,11.2-2.174,8.707,8.707,0,0,0,3.623-.118c2.968-.331,5.645-.407,8.3-.791,3.311-.474,6.716-2.008,9.387-2.267,2-.2,3.913.356,5.69-.008.467-.1.976-.655,1.585-.841.467-.141,1.166-.058,1.557-.223.775-.326,1.208-1,2.108-1.114,1.238-.161,2.706.735,3.86.512a3.928,3.928,0,0,0,2.4-2.026c.724.09.266,1.473,1.242,1.3,2.18-1.438,5.113-.173,7.773-.515,1.082-.138,2.222-.853,3.4-1.047,3.169-.53,7.42-.688,10.12-1,.872.068.452-1.551,1.346-1.463.708.309.891,1.187,1.76,1.323,4.54-1.4,10.771-.587,14.833-2.6,6.495.5,12.7-2.141,19.718-2.028a15.609,15.609,0,0,1,2.37-1.1c2.691.633,6.27-.587,9.858-1.017,3.258-.387,6.847.512,7.828-2.041.689.429.868,1.406,2.022,1.33,2.223-.9,4.582-.6,6.742-.562,1.335.028,2.683-.557,4.162-.7.921-.09,1.893.213,2.842.153,4.384-.284,9.2-1.509,13.247-1.762a20.488,20.488,0,0,0,2.579.138c.864-.171,1.737-1.017,2.624-1.094,1.058-.08,2.694.881,3.858.517.771.033.906-.751,1.584-.838,2.563,1.132,5.339-.311,8.032-.5,1.185-.08,2.459.241,3.611.191,1.715-.078,3.272-.758,4.948-.964,2.277-.286,4.5.191,6.718.043,2.009-.128,4.09-.986,5.989-1.215,1.08-.138,2.183.68,3.12-.452-.277-1.33.076-1.516.114-3.06-1.925-.944-4.42-.013-5.97.6M792.44,362.906c.877-.033,2.081.351,2.59-.168-.044-1.837-1.975-.181-2.59.168m-84.507,13.358c-.33-.038-.344-.412-.765-.349-.429.728.843.946.765.349m-12.2,1.192c-.429-.02-.858-.043-1.287-.065-.507,1.443,1.6,1.2,1.287.065m-55.587,7.2c.495-.105,1.54.5,1.316-.545-.64-.078-1.253-.121-1.316.545m-16.906,2.791c-.832-.971-.824,1.092,0,0m-287.918,40.4c.5-.105,1.118-.058,1.067-.868-.344-.018-.687-.035-1.033-.055-.011.309-.021.615-.034.924M34.075,423.918c.845,2.666,4.54.595,5.453-.63a10.987,10.987,0,0,0-5.453.63M852.123,31.926c-.653,1.087-.866,2.733-2.43,2.636-1.187.02-1.1-1.348-2.007-1.642-1.686.851-3.194-.053-4.686.981-.551-.286-.851-.841-1.785-.708-1.813.507-3.22,1.5-5.448.633-.987.01-1.029,1.235-2.113,1.119-1.69-.484-2.89-.909-4.388-.233-.906-.482-1.318-1.5-2.248-1.963-.384,1.785-1.4.03-2.326-.123-.833.1-.767,1.355-1.6,1.453a11.318,11.318,0,0,1-3.285-2.016c-.178.625.243,2.028-.336,2.131a9.881,9.881,0,0,0-4.646-.246c.139,2-.475,3.022-1.673,3.291a4.258,4.258,0,0,0-3.868-.2,5.7,5.7,0,0,0-6.148-1.554c-1.082-.1-1.192-1.253-2.277-1.35-3.535.781-6.211.073-8.78-.156.008,1.268,1.927.459,1.468,2.226-1.2.735-1.743-.53-2.816-.761a15.263,15.263,0,0,0-5.958.3c-1.166.223-2.956-.306-3.4,1.049.657,1.024,2.487-.808,2.816.763-1.439.321-1.12,2.588-1.678,3.288-1.149.078-.264-2.063-1.475-1.918a15.034,15.034,0,0,1-3.883.1c-.5-1.182-2.888-4.009-3.564-1.418-.066,1.15,1.821.176,1.758,1.32a8.767,8.767,0,0,1-3.68,1.652c-2.816-2.151-7.17,1.152-10-2.066-1.711,1-5.21-.5-5.985.914.148.823,1.424.422,1.236,1.6-1.825-.188-3.177-.7-4.9-.259-1.033.269-1.944,1.514-2.9,1.689a5.7,5.7,0,0,1-5.1-1.8,7.063,7.063,0,0,1-3.133.756c-.6.793.771,3.165-.161,4.292-.721-1.476-1.648-2.718-2.43-4.119-2.208.575-4.261-2.912-4.925.351-.634.336,1.194.437.982,1.28a9.033,9.033,0,0,1-6.247,1.207c-1.247-.279-2.157-1.712-3.551-1.724-.771-.005-1.075.791-2.092.5-.057.966.621,1.862-.581,1.812-.856-.05-.2-1.747-.7-2.186a17.482,17.482,0,0,0-3.122.449c-.019.61-.04,1.225-.065,1.84-1.9,1.074-4.426,1.32-6.786,1.79-.222-.939-.459-1.852-.674-2.8-1.948.751-2.482-.005-4.642-.246-1.141.786-.547,2.588-.642,3.346-1.378.545-3.488.063-4.9-.259-1.781,1.544-4.828,1.446-7.559,1.75-1.071-1.386-3.044-1.79-4.557-2.693-.581.951-2.085.715-2.4,2.021-1.333-.472-3.245.873-5.2.648-.444.387-.254,1.6-1.09,1.478-2.06.083-2.242-1.883-3.249-2.937-1.071-.1-1.614.479-1.618,1.755.218.848,2.149-.176,2.03,1.032a15.4,15.4,0,0,1-3.693,1.953c-1.654-2.3-4.348,1.32-5.36-1.817a4.948,4.948,0,0,0,1.58-.838c-.317-2.023.621-2.412.913-3.637a5.094,5.094,0,0,0-4.4.075c-.486,1,.078,1.368-.106,2.756-.583.419-1.726.118-2.094.811-.053,1.253.366,2.972-1.418,3.306-1.1-.269-.94-1.923-2.254-1.963-1.164-.226-1.568.535-2.356.8-.535-.208-.708-.8-1.523-.7-2.21,1.207-4.671-.023-6.987.243-2.189.254-4.227,1.709-6.252,1.207-2.178-4.016-4.223,2.216-7.775.512-.847.723-1.154,2.146-1.92,2.972a9.154,9.154,0,0,0-7.829,2.041c-.575-.653-1.344-1.092-1.468-2.229.452-1.875,2.535-1.637,2.48-4.167-.771-1.122-3.22-.419-4.352-1.152-.8.033-.492,1.506-1.591,1.145-1.084-.291-2.113-.645-2.52-1.667.554-1.795-.71-3.138-.38-3.7.82-.108.889.6,1.792.4-.095-1.089.279-1.566.845-1.8,5.07,3.353,10.582-1.072,16.511.871a2.809,2.809,0,0,1,4.173-1.012c.2,1.551-1.2,1.022-1.371,2.078,1.887,2.42,4.225.336,5.981-.914.311-.771-.731-1.5.07-1.837a34.023,34.023,0,0,1,8.077-1.724,12.5,12.5,0,0,1,1.245,1.3c3.646-.745,7.861-2.884,11.937-1.212a6.466,6.466,0,0,1,5.732-1.232c2.1-1.983,6.7-.72,8.637-2.922.771.537.8,1.878,2,1.945a19.251,19.251,0,0,1,6.518-1.5c.919-.2.729-1.837,1.874-1.744.129.936.338,1.79,1.221,1.908,1.608-.6,1.92-.748,3.625-.115a25.121,25.121,0,0,1,14.793-1.677c1.1-1.647,2.9-.437,4.443-1.3-.114,1.25-1.1,1.559-.619,2.728,2.869.193,2.153-4.277,5.554-3.391.723-1.624,2.337-2.688.951-4.556-1.557.407-3.156,1.574-4.982,1.888-1.726.294-3.733-.01-5.457.633-1.244.467-2.028,1.509-3.158,1.674-1.675.248-3.04-.607-4.367-.843a12.485,12.485,0,0,1-6.237.9c-1.42,1.37-4.147,1.039-6.013,1.832-.287-.472-.173-1.381-.985-1.283a18.223,18.223,0,0,1-8.271-.128c-1.061.12-1.088,1.581-2.377,1.408-4.31-1.212-7.855,1.087-10.952,2.492a5.123,5.123,0,0,0-4.075-1.441c-.866.1-1.464.871-2.372,1.1-1.756.447-3.864-.108-5.2.954-2.056-1.852-4.344.894-7.225-.382-.452.163-.032,1.453-.57,1.506-1.217-.073-2.609-.69-4.118-.525-.8.088-1.519.836-2.358.8a12.547,12.547,0,0,1-1.785-.708c-3.12-.879-4.029,1.32-6.034,2.442a3.091,3.091,0,0,0-3.085-.472c-.824-.474-.615-2.073-1.994-1.945a18.685,18.685,0,0,1-10.707,2.814c-.6.176-.727.981-1.333,1.16-.67-.449-.72-1.574-1.747-1.629-1.523,1.24-3.868.66-5.687.005-1.168.2-1.481,1.509-2.647,1.7-4.025-.7-7.473-.306-10.392,1.3-.82-.479-.613-2.076-2-1.948-1-.023-.513,1.9-1.367,2.076-1.7.384-3.311-.412-4.9-.259-1.726.166-3.038,1.227-4.43.994-1.192-.2-1.933-1.453-3.051-1.391-1.346.078-2.37,1.589-3.2,2.6-.775-.434-1.249-1.195-2.277-1.35-1.918.72-5.037-.113-6.26,1.514-3.4-3.366-5.233,3.065-10.141,1.614-1.732-2.8-4.675.259-6.4-1.566a11.6,11.6,0,0,1-6.6,3.645c-1.688-.477-2.166-1.441-3.613-.191a1.889,1.889,0,0,0-1.5-1.308c-1.956.5-3.611.136-5.463.939-.965.419-1.574,1.431-2.649,1.7-2.237.565-4.6-.259-6.978-.06-1.711.143-3.6,1.91-5.451.633-.5.1-.247,1.177-1.067.866-1.151-1.3-4.432-.279-5.63-1.526-.949.449-2.2,1.965-3.173,1.983-4.132.068-9.3,2.427-12.723,1.476-1.244,1.17-3.854.57-5.478,1.247-1.037.248-.74-.956-1.781-.71-.993,1.815-3.826,1.242-4.766,3.13a17.235,17.235,0,0,0-3.135.753c-.133-.537-1.225-.04-1.263-.68-1.591,1.471-3.545.178-5.7.314-2.675.171-6.3,2.274-8.335,1.712-.731.231-.672,1.488-1.608,1.451-.173-1.087-1.022-1.438-2.009-1.642-2.571,1.476-6.034,1.8-9.636,1.945a4.826,4.826,0,0,1-4.17,1.009c-.8.469-1.027,1.672-1.889,2.053-.723-.1-.268-1.476-1.242-1.3-.934.289-.921,1.807-2.132,1.732-1-.484-2.013-.956-3.053-1.388a15.207,15.207,0,0,1-3.4,1.044,21.391,21.391,0,0,1-3.649.73c-.37,0-.86-.447-1.276-.374-1.424.254-2.77,1.428-4.2,1.624-.6.078-1.47-.457-2.053-.417-.813.048-1.692.7-2.616.781-3.676.319-6.152,1.468-9.592.725-2.015,1.667-5.132,1.9-8.347,2.013-1.614,2.854-4.282,1.652-7.046,1.78-.363.018-.461.479-.8.57-.477.136-1.17-.2-1.547-.078-.509.161-.965.9-1.6,1.142-1.633.643-3.04-.213-4.654.063-1.519.259-2.643,1.845-3.949,1.94-1.7-1.22-3.989-.284-6.192-.326-.545.449-.644,2.535-1.608,1.451-.8-.59,1.726-1.885-.175-2.161a9.971,9.971,0,0,1-2.717,3.544c-2.013-2.648-5.193-.166-8.258-.437-.418.419-.26,1.589-1.088,1.481-3.122-2.171-5.026,1.491-8.537.161-1.585,1.476-4.8.828-6.541,2.111-.9.2-.974-.507-1.794-.4-.554.243-.494,1.28-1.335,1.157-1.156.181-1.534-.492-2.569-.444-7.68,1.488-15.754,2.467-23.165,4.3-.953-.336-1.3-1.333-2.8-1.067-.518.183,0,1.712-.587,1.81a36.49,36.49,0,0,0-9.365,1.657c-.854.279-1.585-.269-2.32-.118-.427.078-.868.718-1.325.846-.7.2-1.217.038-1.817.213-1.72-1.27-4.265-1.152-6.685-.966-.733,1.4-1.868,2.287-2.472,3.86-.856-.151-1.113-.951-2.3-.735-1.671.06-2.8,1.082-4.43.994-1.122-.063-2.309-1.084-3.577-1.112-2.392-.045-4.515,2.44-7.354,2.992-1.268.249-3.042-.146-4.394.075-1.707.281-2.6,1.192-3.881.1a4.374,4.374,0,0,1-5.708.62c-1.853,2.063-3.955,1.531-6.53,1.8-2.421.254-5.1,1.28-8.043.8-1.077-.176-2.085-1.047-3.33-.791-.323.655-.127,1.98-.858,2.106a12.121,12.121,0,0,0-5.474,1.245c-2.947-.5-6.765.64-9.613,1.335A4.321,4.321,0,0,0,223.6,104.7c-2.151-1.155-4.327.477-6.5.889-3.112.582-6.382.306-8.861,1.985-1.088-1.157-3.947-.387-5.9-1.23-2.313,2.528-6.355.884-9.636,1.945-.5.645-.33,2.146-1.126,2.4-1.83,1-3.207.045-4.618-.861-1.32.587-2.708.2-4.164.7-.953.331-1.6,1.3-2.637,1.4-.887.083-2.3-.728-3.585-.8-.349-.018-.993.309-1.3.238-.566-.128-.9-.66-1.527-.7-3.623-.2-6.729,1.433-10.4,1.6-1.251,3.245-4.185,4.405-7.373,3.6-.209-1.212.638-1.75.093-2.45-6.547.151-12.828,2.269-18.456,2.708-.794.063-1.57-.369-2.32-.123-1.331.439-2.223,2.392-3.471,2.889-1.265.507-2.491-.035-3.634.422-1.308,2.909-5.772,1.717-9.368,1.657-.877.3-1.6,1.473-2.647,1.7-1.7.374-3.63-.648-5.43.023-1.677.62-2.871,2.7-5,2.5-1.335-1.1-3.463-1.333-5.362-1.82-.433.51-.2,1.893-.854,2.106-3.651-2.259-5.82,2.184-9.594.723-1.781,1.945-4.151,2.643-7.559,1.749-3.211,3.436-9.4,3.012-15.112,3.2-.71.364-.978,1.3-1.616,1.76-1.369-.279-2.582,1.042-3.927,1.323-2.909.615-6.1-.535-9.053.141-.725.163-1.253.919-1.853,1.13-.431.146-1-.211-1.546-.08-1.126.264-2.332,1.486-3.917,1.019a3.2,3.2,0,0,1-3.915,1.022c-3.5,1.674-8.852.931-12.251,2.731-.334,1.34.378,1.551.425,2.482-1.576,1.062-4.018,1-5.51,2.164-1.029.043-1.27-.778-2.3-.735-.965,2.284-3.968,1.918-5.8,3.072-.3,1.21.735.966.435,2.171-.64.565-1.838.4-2.121,1.423,1.415.7.131,1.609.144,3.08,1.173,3.6,6.156-.3,7.637,3.168-.911.748-2.394.748-3.412,1.358-2.269,2.618-1.654,7.553-3.733,9.935.051,1.456-.537,2.086-.4,3.667-.809,1.729-2.78,1.955-3.748,3.486,2.013-.344,2.9.053,3.285,2.013-2.254,1.682-6.063,1.34-6.657,5.181a8.551,8.551,0,0,0-1.83.512c1.762,3.946,4.756.088,7.27-.841a21.607,21.607,0,0,1,3.378-.434c.5.838,1.464,2.372,1.175,3.133-2.168,2.646-5.577,3.682-7.735,6.35.7.314.706,1.386.953,2.2.9.487,2.567.151,2.252,1.96-.957,2.023-3.788,1.5-5.52,2.475-.539.3-.646,1.212-1.335,1.157a4.677,4.677,0,0,0-2.626,1.089c-.64,1.308-.082,2.738-.161,4.295-.974.768-2.47.861-2.93,2.3,2.111,2.324,5.039-1.729,7.282-1.15,1.236.321,2.385,1.95,2.419,4.423a4.223,4.223,0,0,1-3.1-.163A12.628,12.628,0,0,0,4.215,213.2c1.958,3.549,5.52-.565,8.254.437a3.185,3.185,0,0,1-.864,2.41C6.889,217,2.825,218.787,0,222.2a6.878,6.878,0,0,0,2.172,4.1c4.6.552,6.623-3.389,10.447-2.826,2.734-3.627,9.038-2.618,12.353-5.489.691.035,1.375.07,2.066.108,1.918-.761,5.434-2.395,7.035-1.473a9.136,9.136,0,0,1-8.419,3.855c-1.7,2.294-5.744,1.539-7.629,3.592-2.366-.073-3.5,1.446-5.5,1.857a17.755,17.755,0,0,1-.374,3.055c-.676.635-2.37,1.255-1.9,2.357.957.236,2.746-.437,2.546,1.054.251,1.089-1.511,2.018-2.176,2.957-.708,2.618-2.531,3.783-3.583,5.954-.585-.12-.974.023-1.054.555,3.025-.432,6.879-1.3,9.543.507.564.464.446,1.669,1.221,1.908,1.578.439,1.878-.778,3.376-.437a8.443,8.443,0,0,1,.718,1.574,3.663,3.663,0,0,0-.946,4.556,13.475,13.475,0,0,1-2.449,3.248c.942,2.728,5.383,2.339,6.955.678.562.856,2.459.261,2.793,1.375.811,3.01-2.552,4.159-1.473,4.832,1.325.11,2.313.949,3.577,1.112,4,.52,6.955-1.2,9.894-1.933,1.487-.371,2.956-.068,4.151-.4,1.876-.517,3.277-1.33,4.969-1.581a11.783,11.783,0,0,1,2.85-.156,9.512,9.512,0,0,1,1.853-1.127c7.914-.437,13.477-3.928,21.361-4.4,2-1.258,4.994-1.227,7.806-1.431.623-1.124,3.07-1.579,4.42-.69-.051.788-1.116.269-.83,1.5,2.377.4,4.91-.69,6.965.366-1.056,1.408-2.453.622-3.925,1.328-1.266.6-1.992,2.179-3.2,2.6-1.443.492-3.025-.163-4.409.379-.644.251-1.323,1.122-1.863,1.436-2.132,1.227-4.242,1.621-6.3,2.741-.8,2.643-1.859,4.837-1.073,7.927,3.739,1.122,8.491-3.085,11.622.3,0,.954-.676,1.7-.093,2.455-1.846.083-1.485,2.4-2.189,3.263-2.487-.61-5.345.025-8.29.482a4.042,4.042,0,0,1-1.956,3.893c.175,1.83-.613,3.032-.158,4.287,1.851.73,3.27,1.938,5.068,2.728-.775.919-2.656.409-3.659,1.032.532,3.8-2.3,3.22-2.3,6.325.26,1.192,1.992.773,2.254,1.968-1.173.617-1.5,2.329-2.2,3.567,1.57,2.651.866,6.192,1.988,9.011-.881.459-2.28.254-2.142,2.036a7.818,7.818,0,0,1,4.819,2.4c-1.033.9-.678,3.617-1.473,4.832,2.343,1.92,2.594,7.573-1.084,8.235-.22,1.815-.017,3.983-.733,5.8.617,1.483,2.542,1.551,2.442,3.815-.467,1.536-3.017.366-3.678,1.649.2,3.107,3.6,2.743,5,4.568,1.4-.648,4.306-2.043,5.711-.625-.623,1.978-3.065,1.586-4.735,2.206-.241,2.475-2.74,2.013-3.75,3.489.611,1.737.218,2.731.334,4.93-1.145,1.519-4.479.181-5.007,2.5.435,1.293,1.973,1.386,2.759,2.292a26.8,26.8,0,0,0-1.428,3.609c.788,1.2,1.3,2.713,2.185,3.8-1.629,1.1-4.686.344-5.768,2.154-1.561-1.034-4.549.7-6.26,1.514-1.817-.364-4.492.183-4.758,2.819.2.08.289.274.237.628,3.75.851,6.835-1.792,10.667-1.9.213.555.932.557.987,1.285-.6,1.255-.173,3.843-1.451,4.219-2.569-.334-3.566,1.368-4.758,2.819-1.206.256-2.951-.188-3.4,1.049.146,2.605,2.624,1.28,3.249,2.939a6.017,6.017,0,0,1-4.815,4.35,19.475,19.475,0,0,1-2.322-.123c-3.668.291-7.016,3.246-10.211,3.454.8,2.45-.832,2.691.334,4.932-3.511,1.33-7.606,1.908-10.739,3.73-.471-.376-2.142-.163-2.108,1.119,6.382.781,11.058-3.416,17.455-3.685.687,1.7,2.206,2.505,2.949,4.144a13.731,13.731,0,0,1-6.577,3.035c-.856,1.029-1.413,2.447-2.449,3.245-1.132.226-2.892-.281-4.141.09-1.023.309-2.717,1.451-1.882,2.051,1.164-.3,2.142-.71,3.363-.123,1.836-.833,3.161-2.332,6.015-1.837,1.189-1.027,2.381-2.051,4.711-1.594,1.329-.9,5.8-2.927,6.731-.259-.663.851-2.092.71-3.389.74-2.392,1.509-5.472,2.106-8.381,2.934a10.442,10.442,0,0,1-8.687,4.149c-1.392,1.621-3.7,2.056-5.542,3.087.034,2.613-2.056,2.475-2.248,4.794,6.782-.334,12.412-3.318,18.535-4.859,1.728-.429,3.642-.186,5.451-.625,1.925-.477,3.955-2.475,6.275-1.825a7.061,7.061,0,0,1,5.229-1.569c1.215-1.436,2.882-.688,4.43-.994,1.737-.336,3.384-1.456,5.239-1.873.471-.105,1.023.176,1.549.085,2.111-.364,4.291-1.28,6.516-1.5,1.4-.136,3.334-.382,4.633.545-4.088,3.589-9.982,2.839-15.414,4.413-2.546.735-5.108,2.307-7.6,2.671-.763.105-1.377-.269-2.064-.108-2.512.582-4.694,2.362-7.092,3-1.477.392-3.125-.005-4.407.384-1.234.371-1.863,1.426-3.154,1.368-1.265,2.748-5.165,2.073-5.892,5.522,2.349,1.187,3.649-1.363,5.989-1.22a3.512,3.512,0,0,1,1.211,2.214c-.934,2.005-3.644,1.692-5.52,2.475-.746.746-.989,2.144-1.663,2.982-2.911,1.466-7.168,1.192-8.2,5.1,1.686.768,2.835-.921,4.654-.06.854-.07.583-1.6,1.608-1.451,3.156-.181,5.056-2.236,8.075-1.724.807,1.473,2.271,2.234,3.5,3.253,1.375.321,2.138-.51,3.1.166.408.73,0,2.357.672,2.8,1.437.813,3.894-.3,5.125,1.192-1.037,1.546-2.252,2.856-3.268,4.433-2.313.532-5.054.507-6.049,2.754,5.911,3.258,10.39-1.039,16.063-1,1.422-1.707,4.825-1.386,7.272-.848a10.709,10.709,0,0,1,7.314-2.071c.414.633,1.274.776.951,2.2-1.794,1.458-4.515-.482-6.515,1.5-.847.793.765,1.35-.082,2.144-2.784,1.172-5.47,1.17-9.076.75-.241,1.4-1.1,2-1.661,2.984,3.393-1.047,6.374.773,9.545.5.961-.085,2.18-.557,3.389-.746,2.713-.422,5.242-.635,7.033-1.468.769-.364,1.023-1.017,1.853-1.134,1.261-.178,2.552.65,3.858.51,1.935-.2,3.461-1.172,5.239-1.868,3.156,1.7,6.04-.055,9.063-.444,3.456-.447,7.02-.417,9.636-1.95,1.109.936,2.083-.387,3.118-.449,1.094-.065,2.21.557,3.344.482,1.213-.073,2.413-1.057,3.668-1.343a30.786,30.786,0,0,1,4.424-.685,51.4,51.4,0,0,0,6.235-.9c1.42-.233,2.85-.065,4.149-.394.471-.115.866-.7,1.327-.848,2.92-.924,6.078-.939,9.087-1.059,5.146-2.317,12.454-1.82,17.233-4.616.6.131.949.53,1.794.4,1.823-1.36,4.08-.653,6.249-1.212.944-.236,1.9-1.122,2.894-1.381.513-.128,1.282.166,1.806.1,1.344-.173,2.63-1.074,3.925-1.33,5.132-.981,10.684.033,15.089-2.58,3.247.038,6.3-.173,8.584-1.391,2.924,1.393,5.6-1.531,8.537-.161,1.2-.7,2.275-1.373,3.9-.718,1.4-1.739,3.889-.653,6.237-.894,1.1-.118,2.225-.858,3.4-1.052,3.082-.512,6.325-.439,9.344-1.044,1.441-1.634,4.787-2.241,7.293-1.453.968-.143,1.1-1.358,2.121-1.426l3.1.158c1.591-2.427,4.306-.364,6.484-.575,1.544-.151,1.931-1.037,3.163-1.674,2.755.382,4.933-2.028,7.587-2.367,2.854-.364,6.154,1.757,8.556-.776,1.557.653,2.706.3,4.13.216,1.669-.088,2.058-.6,3.387-.74,2.93-.3,4.42-2.533,7.517-.525,2.349-.994,5.267-2.322,8.324-1.4,1.139-1.732,3.636-.515,5.721-.929,1.434-.281,1.76-1.438,2.907-1.689,6.556,1.057,11.354-3.017,16.849-1.258,3.089-.846,6.947-1.935,10.388-1.3.832-.1.955-1.124,1.853-1.135a112.2,112.2,0,0,0,11.689-1.534c.532.208.708.8,1.525.7,2.049-1.381,3.9-.419,6.226-.592,1.02-.078,2.182-.826,3.4-1.047,1.939-.356,3.311-.535,4.678-.678.775-.08,1.584.2,2.324.123a47.293,47.293,0,0,0,4.7-1.283c2.17-.429,4.147.143,5.945,0,1.1-.088,2.206-.924,3.4-1.047,2.06-.208,4.663.459,6.731-.261.811-.281,1.223-1.235,2.123-1.426.444.3.725.783,1.253.994,2.373-1.855,7.308-.372,9.9-1.935.606.023.737.567,1.538.389,1.361-1.767,4.832-.8,6.786-1.792,3.989,2.1,7.4-1.28,11.63,0,.684-.4,1.145-1.087,1.863-1.438,2.546.319,4.236-1.5,6.733-.261,4.426-2.989,10.927-1.393,17.142-2.166.953-.261,1.24-1.381,2.132-1.729,1.823-.59,2.987.708,4.618.856,3.1.291,5.892-2.332,9.391-2.267,1.192.023,2.14.745,3.6.5,2.144-3.087,5.863-1.536,8.863-1.99,1.4-.208,2.82-1.019,4.441-1.3,1.675-.286,3.577-.256,5.193-.65,3.894-.954,10.291-.781,13.532-2.352,2.67.419,5.389-.678,8.311-1.1,4.616-.673,9.617-1.373,14.034-2.021a9.012,9.012,0,0,1,4.386.231c.452-1.343,2.446-.68,3.906-.715,1.811-1.888,4.124-.856,6.245-1.2.619-.105,1.236-.66,1.84-.831,3.1-.879,6.794-1.074,10.145-1.611,1.47-.241,2.956-.429,4.416-.693a30.213,30.213,0,0,1,6.756-.868c2.915.2,4.855-1.044,7.549-1.443,4.289-.638,8.662-.806,12.978-1.468.8-.123,1.477-.648,2.362-.8,1.891-.321,4.1.116,5.951-.3.727-.163,1.342-.71,2.1-.811,4.17-.54,8.476-.384,12.452-1.187,1.158-.236,2.241-.916,3.4-1.052,1.808-.213,3.317-.261,4.409-.374,3.452-.366,7.183.1,10.352-.379.8-.118,1.47-.881,2.37-1.1,1.082-.269,2.294.1,3.365-.131.78-.166,1.367-.705,2.1-.813,3.332-.492,6.433-.407,9.615-1.333.879.128,1.208.838,2.3.74.587-.53,1.033-1.23,1.863-1.441,17.185-2.856,35.563-4.174,53.476-6.082.61-.065.52-1.039,1.327-.853,2.132.788,3.813-.768,5.968-.607a9.341,9.341,0,0,0,2.846-.158c1.908-.314,4.2-.206,6.228-.59,2.379-.454,4.73-1.263,7.037-1.471,2.113-.191,3.245-.133,4.686-.984.625-.09.541.592,1.278.374,1.447-1.062,3.125-.745,4.95-.966,3.465-.412,7.16-1.719,10.678-2.2,2.721-.369,5.74-.961,7.772-.507.664.143,1.173.7,1.783.708,2,.043,4.031-1.875,5.97-.6,1.346-1.4,2.5-.512,4.151-.394,3.86.269,5.926-2.005,8.615-2.312,1-.113,1.832.522,2.825.452,2.142-.128,3.262-1.727,5.018-2.8,2.1.216,2.744-.756,4.172-1a53.222,53.222,0,0,1,8.552-.474,35.487,35.487,0,0,0,5.191-.648c.347-.04.978.384,1.281.374,2.533-.048,4.929-1.165,7.538-1.135,2.077.028,3.991.61,5.932.314,3.7-2.41,8.763-2.347,13.54-2.666.448-.168.461-.906.824-1.185,3.589,2.633,7.544-1.767,11.875.319.993-.946,2.2-.585,3.646-.728,1.652-.163,3.566-1.263,4.956-1.273.488-.005.8.427,1.28.371.315-.035.763-.515,1.054-.555,2.2-.314,4.449-.387,6.754-.871,3.461-4.2,9.3-1.566,15.078-2.279,2.624-2.48,6.292-2.121,10.175-2.53,6.031-.64,14.273-3.158,19.979-2.018,1.669-2.129,4.652-.858,7.553-1.446,4.05-.823,9.822-1.393,13.715-.5,1.652-2.246,6-1,9.347-1.039,1.247-1.17,2.8-.748,4.688-.981,1.922-.248,4.211-1.112,5.734-1.235,1.572-.126,3.473.379,5.161.274,3.638-.233,7.386-.668,11.146-.951,4.506-.339,9.068-1.483,13.511-1.739,1.337-.08,2.578.339,3.868.2.748-.078,1.508-.678,2.356-.8,2.155-.309,5.191-.417,6.486-.577,1.515-.193,3.63.141,4.654-.058.7-.148,1.155-.75,1.842-.828.845-.1,1.637.166,2.577.133,2.776-.09,6.156-1.453,8.064-1.416.631.018,1.455.577,2.051.419,1.549-.424,2.189-2.2,3.249-3.825-2.185-.811-2.37-4.952-.537-6.478,1.8-.442,4.227-.08,5.721-.924-.063-1.009-.7-1.393-.951-2.2-3.268.3-6.454-1.328-9.509-1.423-.642-.023-1.156.442-1.828.517a28.218,28.218,0,0,1-5.43.02c2.592-4.463,10.141-.984,11.121-7.091-.571-2.244-3.2-1.787-2.949-4.149.27-2.573,4.563-2.239,6.6-3.645,1.238.821,3.769,2.48,4.4-.07-1.618-2.821-5.377-.11-7.961-1.348a8.1,8.1,0,0,1-2.626,1.092c-1.489-.437-1.994-2.159-3.522-2.646-.666-.208-1.7.161-2.85.161-3.158,0-5.341.575-7.76.2-2.212-.341-5.079.622-6.676-1.275.3-.035.3-.469.294-.9.592-.653,1.042.354,2.064.108,2.024-1.8,4.819-.653,7.268-.846,2.176-.171,4.316-.984,6.509-1.192,1.211-.118,2.765.758,3.646-.73-1.842-.761-3.725-.909-5.877-1.845-.505-.625-.471-1.837-1.479-1.92-1.172-.4-2.214.587-3.389.746-2.317.309-4.84-.444-7.236-.075-.754.113-1.456.663-2.1.808-3.068.68-5.848.168-8.275.176-1.021.281-1.435,1.355-2.639,1.4a4.385,4.385,0,0,1-2.275-1.348c-4.3.66-8.258.136-12.454,1.185-.515-.615-1.329-.909-1.208-2.216.771-1.092,1.194.063,2.322.123.735-.894,1.967-.751,3.131-.756,3.813,0,8.82.008,12.2-1.506,3.152.791,7.5-.093,9.834-.4.59-.078,1.266.208,1.809.1.661-.146,1.4-.74,2.1-.813,2.07-.231,4.2.4,6.2.02.908-.176,1.745-1.019,2.626-1.092,1.223-.1,2.6.515,3.86.51,3.253-.01,6.27-1.132,9.366-1.652.034-2-1.663-2.111-2.2-3.494.192-.826,1.1-.71,1.1-1.787-.9-.494-2.3-.432-2.252-1.963-.055-1.893,1.732-1.393,1.675-3.286-.471-.959-1.779-1.007-2.789-1.375-.942-2.661-1.8-2.568-4.31-2.38a67.356,67.356,0,0,1-9.051.138c-3.463-.233-6.915,1.99-9.311.118.247-3.813,3.938-1.6,6.543-2.108.809-.156,1.358-.906,2.108-1.117,2.174-.607,4.274-.291,5.992-1.215,1.362,1.521,3.739.412,5.675.3,1.808-.105,3.794.735,4.432-.994-1.6-1.694-3.718-1.4-5.385-1.2-3.023.356-3.636-1.519-5.6-2.139-.786-.251-1.956.577-2.569-.444-.5,1.441-1.39,1.86-2.394,1.717-2.6-.369-2.768-6.079-.484-7.7,1.568-.171,2.886.592,3.866.2.507-1.16-.822-2.55-1.422-3.456a31.62,31.62,0,0,0-9.106,1.672c-.729-.093-.268-1.478-1.248-1.3-1.538.043-2.941-.316-4.382-.233-2.244.133-4.43,1.27-6.522,1.5-1.633.183-3.289-.715-4.889-.56-.759.07-1.544.8-2.356.793-.851.007-1.61-.61-2.554-.748-2.011-.291-4.844,1.1-6.429-.951.021-1.147-.258-.889.07-1.837,1.407.161,2.7-1.15,4.188-1.318.7-.078,1.635.424,2.307.429,1.811.015,3.746-.761,5.719-.924,2.366-.2,4.865-.321,7.263-.542,2.29-.2,4.614-.449,6.74-.56,1.088-.06,2.32.339,3.351.173.682-.11,1.42-.74,2.1-.813.41-.04.843.379,1.276.377a53.9,53.9,0,0,0,8.833-1.069c.968,1.273,3.461,1.227,4.145-.394-.75-2.995-3.461-1.165-5.9-1.235-1.591-2.605-6.8-1.717-9.03-.477-1.43-1.283-3.294-2.1-4.517-3.612-2.689.788-4.02-2.033-5.852-2.462-1.352-.314-3.049,1.069-4.377-.537.034-.818.063-1.634.091-2.452.64-1.313,3.262-.05,3.93-1.328-1.405-1.817-3.723-.776-5.371-1.514-1.817-.813-2.886-3.524-5.047-3.336-.294,1.621,1.925,1.657,1.187,2.826a2.242,2.242,0,0,1-3.051-1.391c-.516-2.354,1.468-4.27,1.274-6.386-.161-1.737-1.836-2.415-2.432-4.114-1.821.409-1.982-.986-3.048-1.393-1.587.156-2.4-.527-3.86-.512-2.3,1.586-5.7.7-8.537.168-1.1.279-1.4,1.611-2.892,1.381-.777-1.606-1.994-2.738-2.408-4.734.4-.437,1.47-.01,1.335-1.16-3.4,1.059-7.388-.447-10.882.658-1.067-.7-1.6-1.235-2.827-.454-.125-3-1.7-4.43-2.6-6.586-1.625-.291-3.188-.653-4.065-1.757.649-1.729,2.442-1.632,2.7-3.233a5.475,5.475,0,0,0-1.654-4.081c-.591-.6-1.707-.71-2.277-1.348-.718-.806-.636-2.151-1.456-2.533-4.052,1.978-9.378,1.34-13.508,1.742-1.071-1.579-3.283-1.915-3.18-4.772-2.7-.336-4.923.537-7.5.216-3.1-.377-6.154-2.131-9.268-1.1-1.371.457-2.261,2.487-3.98,2.861-1.762.382-2.635-.51-4.388-.231-1.247-1.684-1.975-3.933-5.033-3.645.163-.959-.427-1.1-.18-2.164-1.633.791-3.245-.374-4.675.678.169.5,1.263,0,1,.979-1.525.412-3.37-1.195-5.383-1.21-.79,1.657-4.375-.324-4.724,1.9,1.282.276,2.007-.176,3.108-.143-1.166,2.141.705,2.754.872,4.345-2.1,2.5-6.051-2.043-4.215-4.827-2.411-2.668-4.116-.03-5.971.607-2.675.916-5.732.437-8.816.766-2.117.218-4.139.853-6.239.9-1.27.028-2.658-.346-3.868-.206-2.354.271-4.525,1.657-6.769,1.18-.972.276-.7-.8-1.519-.7a12.312,12.312,0,0,1-9.11,1.669c-.71.366-1.4.748-2.113,1.117-6.769.02-11.514,1.042-18.15,1.5-.822-.186-.864-1.215-1.76-1.323-.919-.371-3.017.54-3.072-.773,1.1-.276,2.349-1.3,3.154-1.368,1.515-.131,3.319.954,4.88.866,1.4-.083,3.068-1.167,4.956-1.273a19.823,19.823,0,0,0,2.58.136c.545-.1.866-.67,1.325-.853,2.92-1.145,6.5.382,9.579-.412.651-.166,1.219-.761,1.842-.823,1.037-.108,1.937.51,3.082.472a24.868,24.868,0,0,0,2.613-.786c1.944-.309,3.955-.853,5.466-.941,2.17-.128,4,1.054,5.216-1.26.553.382.82,1.069,1.5,1.305a30.573,30.573,0,0,1,6.758-.868c1.356.028,2.6-.921,3.913-1.022.776-.063,1.513.487,2.311.429,1.023-.08,2.064-.974,3.14-1.067,3.9-.324,8.493,1.408,11.444-1.85a4.668,4.668,0,0,0,3.072.778c.771.035.909-.753,1.585-.838,6.306,1.732,13.6.083,19.4-.515,3.839-.389,7.967.176,11.645-.3,1.071-.143,2.1-.931,3.141-1.064,2.8-.361,5.618.231,8.068-1.413,1.426,1.451,3.152.833,4.889.562,2.009-.309,4.922.264,5.487-1.551a3.611,3.611,0,0,0-4.361-.848c-1.9-1.755-4.99.289-6.71-.354-.444-2.357-1.872-3.647-4.785-3.321-.748-.464-.906-1.564-1.739-1.938-3.11.113-9.79,2.673-10.532-1.785.9-.861,1.644-1.935,2.933-2.3-.013-.874-.429-1.3-.437-2.174-.989-.635-1.553.462-2.861.464-2.558.005-4.838-1.486-6.224.595-1.779-1.335-5,.188-6.932-1.29-1.825,2.523-4.7,1.772-7.6,2.668-2.4-2.018-7.289.7-10.014-1.755-1.766,1.089-3.7-.023-5.216,1.26-.535-.206-.71-.8-1.527-.7-.744,3.318-5.51,1.416-8.345,2.016-.822-.68-1.464-1.544-3.053-1.391-1.568,2.786-5.425,2.6-8.9,2.914-.283-3.474,2.489-3.439,4.8-4.051a41.4,41.4,0,0,1,6.5-.881c3.175-.442,6-.5,8.043-.806a38.12,38.12,0,0,1,6.991-.246c1.6.08,3.095-.8,4.688-.979.881-.1,1.937.294,2.837.146,1.538-.243,3.042-1,4.654-.06.892-1.451,2.711-.781,3.649-.728,3.507.193,7.851-.991,11.408-.931.782-1.659,3.154-1.263,4.475-2.221-1.9-2.942-4.454-.9-7.713-1.022-1.113-.045-1.933-.562-2.829-.457-.983.115-1.952.974-2.88,1.074-.79.088-1.557-.487-2.311-.427-.925.07-1.758.718-2.615.783-.562.04-1.293-.389-1.794-.4-.708-.02-1.371.439-2.091.5-1.238.115-2.468-.251-3.611-.191-3.342.176-6.437,1.436-10.113,1-.41-1.029-1.768-1.022-1.449-2.841,1.787-1.2,3.313.811,4.923-.354.7.226.6,1.315,1.5,1.308.539-.7,1.9-.326,2.618-.786.788-.625-.585-2.191.608-2.422,1.625.685,2.191,2.518,4.832,2.1.739-.753.49-2.789,1.663-2.982,1.067.018,1.595.62,2.829.457,1.382-3.135,4.23-1.652,6.737-.567,1.01.02.518-1.9,1.373-2.076a8.434,8.434,0,0,1,1.747,1.627c2.311-1.845,5.043.068,7.509-.216,1.624-.188,3.289-1.278,4.958-1.278a8.214,8.214,0,0,1,2.049.419c2.157-1.7,5.85-1.4,8.615-2.309.232-1.33-.374-1.755-.144-3.08-1.709-2.342-5.84-2.43-8.221-1.355-2.334-1.938-4.244.74-6.984.243-5.69-4.5-13.84-1.325-21.4-1.739-.978-2.954-7.039-.387-7.341-4.074,1.27-.949,4.173-1.042,5.956-.3,1.12-.58,1.656-1.918,3.67-1.343.558-.454.568-1.619,1.606-1.448,1.574.05,1.792,1.584,3.3,1.707,1.177-.236,1.16-1.293,2.117-1.421,1.282-.173,2.539,1.453,3.826,1.431.756-.015,1.718-1.009,2.892-1.386,3.108-.986,5.254-2.626,8.373-2.628.321-.653.125-1.978.853-2.1,3.83.005,6.279-.811,9.811.208a9.972,9.972,0,0,0,1.688-3.594c-1.766-1.017-2.863-2.766-4.234-4.217-1.832-.07-3.137-.708-3.264-2.628-1.27-.186-1.758-1.23-2.508-1.975-1.225-.048-2.546.023-2.81-1.069.389-2.914.64-4.613.792-7.327.289-.911,1.39-.771,1.371-2.078-1.272-.186-2.719-.178-2.78-1.684.281-1.993,2.1-1.988,2.964-3.218-1.382-1.832-3.881-.115-6.207-.023-.693.025-1.576-.2-2.32-.123-1.654.176-3.446,1.142-4.441,1.3-.824.128-2.7.238-3.087-.469-.076-1.82,2.026-.8,2.4-2.023-.3-1.965-2.087-1.009-3.083-.472-2.886-.141-5.081.4-8.539.166-.822.221-1.13,1.1-2.108,1.117-.046-.831-1.065-.61-1.244-1.3,2.334-1.933,6.18-1.611,8.628-2.615.484.156.435.9,1.268.68a24.489,24.489,0,0,0,2.894-1.383c.087.693,1.263.193,1.8.4,1.614-.8,3.668-1.017,4.995-2.191,1.143-.015,2.229-.105,2.377-1.411-1.471.115-2.054-1.36-3.309-1.406-1.914-.06-3.826,2.262-6.013,1.835-1.063-.208-1.912-1.742-3.027-2-1.927-.452-5.035,1.029-7.54,1.137-2.727.12-4.426,1.285-6.437-.645,2.22-2.282,5.487-1.536,8.6-2,1.8-.269,3.646-1.215,5.489-1.551a60.256,60.256,0,0,1,7.01-.858c1.2-.07,3.1.964,3.655-1.039-1.213-.979-2.03-.2-3.61-.188-1.509-1.571-2.958-1.556-5.087-2.113-.78-.2-1.354-.919-2.034-1.027-4.711-.748-9.763,2.605-14.51,1.074-2.394,2.139-6.536,1.044-9.877,1.325-.795.063-1.384.723-2.1.811-2.085.251-3.34-.994-4.855-1.486a2.2,2.2,0,0,1,1.113-2.088c2.375.4,3.486-.833,5.956-.3.653-1.3,3.325.035,3.683-1.649-.949-.266-1.13.467-2.077.2-.4-.251.114-1.5-.729-1.27-1.754.587-2.033.808-3.613-.191-.653.221-1.044.788-1.838.826-3.37-.444-5.085.9-7.8,1.122-.56.048-1.249-.163-1.8-.1-2.212.271-4.128,1.172-5.734,1.232-1.658.068-3.336-1.288-4.912.048.08,1.531-1.173,1.755-2.662,2.011-1.608-1.576-3.528-5.866-5.8-3.988.226,2.3,1.823,3.11,2.937,4.453-1.405.853-2.134,2.585-4.726,1.9-2.166-5.2-8.244,0-11.831-1.546-1.12-.356-.754-2.319-1.975-2.563-.97.238-2.282.03-2.869.768-.934.645.78,1.393-.068,1.84a4.758,4.758,0,0,1-4.659.06c-1.608.8-2.966,1.933-4.5,2.836-3.818-2.575-9.114,2.39-12.892-.989a11.7,11.7,0,0,0-2.111,1.119c-.027-1.639-.966-2.282-2.5-2.284-.315,1.27-.93,1.657-1.906,2.663a1.609,1.609,0,0,0-2.326-.125c-.771-1.353-2.053-.635-3.564-1.413-.237,1.408-.906,2.254-2.157,2.344-.947-.241-1.135-1.318-2.546-1.054-.854.173-.361,2.1-1.369,2.076-1.029-.251-2.757.254-3.34-.484-.742-1.506.8-1.682.344-2.44-.22.6-1.665.08-1.523-.7a5.8,5.8,0,0,1,7.027-1.162c3.619-1.955,8.216-1.657,12.484-2.1.5-.053,1.092-.525,1.57-.535.553-.013.963.487,1.536.389,3.241-.547,6.158-2.221,9.359-1.348a5.329,5.329,0,0,1,3.647-.73c1.06-1.621,3.053-2.033,5.25-2.179,2.375,2.3,5.113.146,8.537-.163,1.234-.113,2.55.3,3.61.191.5-.055,1.105-.71,1.842-.823,1.9-.291,2.757-.256,3.657-1.039,3.856.4,7.538.58,9.12-1.973.347.8,1.318.921,2.016,1.333,3.9-1.576,10.783.715,13.285-2.676,1.6-.778,3.446-.181,5.172-.033,3.8.326,6.98-1.247,9.368-1.657,1.677-.289,3.235-.241,4.149-.394,4.618-.781,10.8-.261,13.529-2.359,2.151,1.019,4.122-.818,6.484-.577.5-.74.782-1.775,1.876-1.744,2.626,2.688,6.892.6,10.073.223.334-1.734-.83-1.837-.919-3.117.52-.841.995-2.879.139-3.677-2.643.881-6.279.761-9.615,1.335-2.185.374-4.768,1.423-6.7-.663,1.925-.823,3.585-1.988,6.518-1.5,1.265-2.533,4.627-2.344,5.871-4.91-3.049-1.2-7.071,1.1-10.646,1.28-1.019-.266-.535-2.166-1.724-2.241-2.9-.444-3.858,1.634-5.78,2.457-.188-.58-.285-1.255-.716-1.571-1.84-.248-3.357.811-5.2.645-.927-.08-1.669-.981-2.546-1.057-1.244-.1-2.951.848-4.946.969-5.516.334-10.006.55-13.039,3-1.7-1.89-3.974-.575-6.19-.326-.475.05-.9-.382-1.276-.376-1,.013-1.68.861-2.626,1.089a28.7,28.7,0,0,1-8.29.487c-.725,1.2-1.312,2.578-2.449,3.248-.653-2.016-1.963-.931-3.308-1.4-.226-2.887,1.3-2.181,2.951-2.917.268-.118.684-.778.809-.879,1.737-1.378,5.3.243,7.035-1.473,2.607.6,6.028-.487,8.043-.8,4.092-.648,7.506-.148,9.649-2.257,3.727,1.268,9.619.166,12.721-1.478.2.467.815.489,1.268.68,3.816-.422,8.447-1.767,11.453-2.161,1.388-.181,3.106.324,4.4-.073.792-.246,1.16-1.175,2.109-1.117a5.488,5.488,0,0,0,4.139-.088c.232-1.33-1.95-.033-1.489-1.614.287-.7.925-.944,1.84-.826.725-.1-.264,1.662.458,1.559.8-.678,2.18-.595,2.157-2.342-5.286-2.643-8.768,3.936-14.043,2.329-.061-1.042,1.158-.424.839-1.8a21.643,21.643,0,0,1-1.456-2.535c-1.02-.427-1.918.71-2.054-.414-.832-2.144,1.236-3.042,2.212-3.878.974-.068,1.4,1.338,2.311.432-.1-3.258-5.354-3.311-6.919-1.594-1.942-.552-3.469.108-5.193.648-.148-1.137.7-1.672.093-2.452-1.528.8-4.236.078-5.966.6m-3.116,7.206c2.212,1.059,4.994,1.049,7.707,1.33-.56.986-1.422,1.581-1.665,2.982-1.823.4-4.056-1.152-5.453.633-2.151-.655-1.817-3.379-.589-4.945M857.7,55.561c-.008,2.151-2.778,1.305-2.06-.108a1.742,1.742,0,0,1,2.06.108m-48.078-.08c-2.92.359-5.14,2.914-7.773.512.177-1.368,1.6-1.584,3.423-1.662,1.857-.083,4.7-1.215,4.35,1.15M687.89,48.134c-.435.4-.376,1.441-1.339,1.157.013-.306.025-.612.036-.919.619.158.583-.532,1.3-.238M883.38,59.989c-.046,1.509-2.094.876-3.139,1.064-.8.138-1.255.464-1.829.515,0-.3-.306-.254-.5-.331a5.911,5.911,0,0,1-.177-2.161c.56-.638.724.191,1.546.08,1.251-1.9,2.235.858,4.1.833M610.861,48.061c-.078,1.611-2.28.467-2.894,1.383a6.367,6.367,0,0,0-.879,2.718c1.227,1.019,4.549-.238,5.387,1.2-.372,1.559-1.6,2-2.191,3.261-3.125-1.325-6.4-1.862-9.051.136-1.044.254-.746-.956-1.785-.705-1.143-.093-.868,1.662-1.629,2.063-.7.67-1.17-.685-1.772-1.017-1.665-.246-3.173-.665-3.8-2.041,1.637-1.195,4.506-.788,6.52-1.5-.518-3.685-5.326-1.355-7.2-.994-.79.269-.433-.708-.473-1.255-.76.188-1.143.871-1.606,1.448.52,1.694,1.838,2.518,1.893,4.709-3.247.08-5.886.808-7.692-1.634-1.2-.108-1.029,1.556-2.144,2.036-2.558,1.1-6.334-.6-7.671-2.249a87,87,0,0,1-10.13,1.31c-1.253,1.37-1.958,3.456-4.266,3.461-.811-.223-1.354-1.2-2.275-1.35-1.154-.181-1.728.793-2.884,1.077-.611.148-1.166-.246-1.8-.1-1.223.289-1.61,1.054-2.392,1.717-4.27.248-8.468,2.272-12.968,1.157-1.363.7-2.427,1.775-4.7,1.288-.708-.171-.285,1.13-.822,1.185-.976.085-1.185-.668-1.77-1.012-1.08-.123-.959,1.32-1.614,1.757-1.54-.482-2.459-1.639-3.788-2.352-2.848,1.022-6.875.5-8.641,2.922a9.214,9.214,0,0,0-9.638,1.948c-.566-.655-.45-2.061-.93-2.811-1.986.525-4.058.941-4.276,3.765-2.556-.966-1.821,2.349-3.949,1.943a8.3,8.3,0,0,0-.391-3.4c-1.92,2.113-5.22,2.43-8.134,3.256-1.411-.53-2.485-1.416-4.071-1.747-2.491,2.332-7.43,1.488-10.213,3.451-1.479.141-2.292-.449-3.6-.5-1.371.723-2.337,3.035-4.185,1.313.228-1.325-.376-1.75-.146-3.075.7-1.019,1.9-1.391,3.657-1.034.7-.168.982-.873,1.348-1.468,3.406-.131,5.212-.821,8.282-.176a8.117,8.117,0,0,1,5.51-2.166c3.192-.158,7.084,1.195,9.1-1.36,1.821-.093,3.93-1.268,5.991-1.22,1.737.04,4.365.934,5.229-1.566a4.787,4.787,0,0,0,2.273,1.345c1.13.181.947-1.345,1.373-2.073,1.219-.663,2.29-1.526,3.444-2.277,2.229.223,2.9,2.136,4.272,3.3,2.047-1.4,4.473-.3,6.752-.873,1.912-.484,3.685-2.487,6.015-1.835.6-.63-.175-1.057.08-2.144,1.344-.5,3.2-.351,3.94-1.634a11.534,11.534,0,0,1,5.36,1.817c.942,0,.894-1.047,1.851-1.132.729-.063,1.665.851,2.556.75,1-.113,1.819-1.283,2.894-1.383.974-.09,1.8.673,2.816.763.771.068,1.346-.414,2.085-.5.9-.11,1.94.216,2.842.151,2.992-.218,6.011-1.807,9.087-1.054,1.173-.407,1.9-1.4,3.653-1.037,1.23-.979,2.339-2.108,3.48-3.2.769,1.089,2.043-.1,3.357.178.913.191,1.5,1.067,2.286,1.042a3.769,3.769,0,0,0,2.647-1.7c1.375,2.385,5.1,3.891,7.931,2.262.456-1.413-.758-1.787-.167-2.465A16.3,16.3,0,0,1,597.917,48.6c.209,1.049.579,1.923,1.468,2.229.8.188.756-.733,1.077-1.17.046-1.185-2.062-1.072-1.211-2.216,4.1,1.576,8.151-1.22,11.609.615m121.485,7.026c.934-.03,1.787.018,1.5,1.31-.515-.03-1.033-.055-1.546-.085.01-.407.027-.818.042-1.225m33.963,4.252a2.555,2.555,0,0,1,2.039.72c-.56.449-2.41,1.13-2.039-.72M694.813,70.3c-.089,1.632-2.223,1.26-2.858.462-.946-.266-.685,1.039-1.09,1.478-.784-.028-.978-.7-1.513-1-.332-3.256,4.728-2.879,5.461-.939M660.1,72.464a1.519,1.519,0,0,1-2.381,1.408,1.491,1.491,0,0,1,2.381-1.408M748.3,84.8c-.735.494-2.827.989-2.812-.766A2.535,2.535,0,0,0,744.4,85.2c-.213-1.039-1.063-1.388-1.2-2.518,1.538-.881,6.232-2.279,5.089,2.111m-16.768-.886c.051,1.564-1.069,1.6-2.13,1.732,0-1.506,1.116-1.551,2.13-1.732M460.335,71.136c-2.527,3.893-7.063,5.186-12.355,5.487-.7.168-.98.871-1.348,1.466-2.43.771-4.375-.723-5.708.62-1-.884-1.05-2.781-2.468-3.2a8.73,8.73,0,0,1,2.214-3.876c1.449.213,1,2.56.144,3.077,1.494.665,4.363,2.181,5.909.929-.186-.781-.659-1.247-.691-2.189,1.815-.64,4.192-.555,5.248-2.184.993.622,3.4.665,4.143-.088,1.077.462,2.17,1.2,2.6-.474,1.035.879,1.509.08,2.313.432M720.59,86.1c-1.01,1.581-3.89.733-5.732,1.23-.019-2.716,4.671-2.929,5.732-1.23M434.552,76.221c-.251,1.707-2.449.891-2.681,2.623-4.371,1.825-10.354,1.554-14.609,3.532a10.107,10.107,0,0,1-3.306-1.406c.129-1.242,1.517-1.273,2.39-1.717,1.044-.535,2.134-1.481,3.682-1.647,1.24-.136,2.8.773,3.856.51,1.128-.281,1.43-1.486,2.144-2.036,1-.607,1.817.462,2.827.457.661-.005,1.073-.745,1.838-.826a7.379,7.379,0,0,1,3.86.51M686.846,89.846c-.776,1.365-3.429,2.565-4.151.4.638-.939,3.313-1.762,4.151-.4M852.59,129.921c.044,1.559-.689,2.1-1.145,3.01-.427-.419-.991-.69-.976-1.586a1.789,1.789,0,0,1,2.121-1.423m-1.551,6.98c-.746.424-2,.186-2.863.464.423-.723,2.6-2.52,2.863-.464m-7.272,14.664c-.871,1.074-2.964,2.066-3.887.409-.059-2.385,3.279-1.431,3.887-.409m-6.283,2.126a9.166,9.166,0,0,1-4.1-.833c-3.068.628-5.685,1.835-9.613,1.335.154-2.9,3.175-2.086,4.272-3.765a6.033,6.033,0,0,1,3.592.8c2.32-.535,6.251-1.712,5.852,2.46m-19.884-.434c-.68,2.565-1.819.954-3.131.753.748-1.235,1.627-1.044,3.131-.753m-24.927,2.982c-.545.1-.676-.246-1.023-.361.065-.868,1.124-.532,1.023.361m94.422,4.982c-.112,1.662-2.542,1.724-3.659,1.034.017-.507.034-1.019.055-1.529.763-.384,3.273-.53,3.6.494M821,158.962c.659,2.329-2.706,4.729-3.951,1.94.659-1.5,1.927-2.211,3.951-1.94m56.466,3.9c.463-.015.528.4,1.018.364.063.542-1.464.467-1.018-.364M798.623,163c-1.7-1.072-1.756,1.17-3.154,1.368-1.04-1.652,2.953-3.351,3.154-1.368m-18.657,1.162a1.8,1.8,0,0,1-2.366,1.1c.08-1.293,1.42-.941,2.366-1.1m-13.462.517c-.37.911-1.255,1.16-2.366,1.1a1.44,1.44,0,0,1,2.366-1.1M912.776,193.29c-.055.356.036.547.234.625-.549,1.965-3.072,1.368-3.737,3.183-1.354-.193-1.975-1.185-1.963-2.869,1.331-.788,3.526-2,5.466-.939m-171.2-4.736a6.736,6.736,0,0,0-.349,2.44,8.841,8.841,0,0,0-4.384-.233c.025-.713.051-1.433.078-2.144,1.255-.858,3.587-1.586,4.654-.063M938.109,227.8c-.051.547.292.66.213,1.237a.839.839,0,0,0-.541.585,3.083,3.083,0,0,1-2.024-1.027c-.015-1.481,1.534-1.293,2.351-.8m-9.843,7.465c.944.251,2.02.351,2.548,1.057-.4,1.549-2.643.5-2.548-1.057m67.851,31.22c-.008.206-.017.409-.023.615-1.27.238-.412-1.657.023-.615m-22.242.361c.463-.013.526.407,1.02.361-.082.858-.5,1.28-1.335,1.16a2.248,2.248,0,0,1,.315-1.521m12.355,35.971a6.616,6.616,0,0,1-.351,2.435c-.94-.148-2.294.143-2.827-.457.025-.61.049-1.225.07-1.835.784-.545,2.369-1.4,3.108-.143m-1.154,10.075c-.545.1-.674-.248-1.023-.366.08-.884,1.257-.67,1.023.366M582.45,344.761c.824-1.094.835.981,0,0" transform="translate(0 -0.001)" fill="#8b8b8b" fill-rule="evenodd"/>
    </g>
  </g>
</svg>
