<svg id="Group_2888" data-name="Group 2888" xmlns="http://www.w3.org/2000/svg" xmlns:xlink="http://www.w3.org/1999/xlink" width="1005.812" height="303.693" viewBox="0 0 1005.812 303.693">
  <defs>
    <clipPath id="clip-path">
      <rect id="Rectangle_1750" data-name="Rectangle 1750" width="1005.812" height="303.693" fill="#c5c5c5"/>
    </clipPath>
  </defs>
  <g id="Group_2887" data-name="Group 2887" clip-path="url(#clip-path)">
    <path id="Path_3549" data-name="Path 3549" d="M851.155.518c-.872,1.774-5.13,3.117-6.776,1.615,1-.99,3.679-.519,3.978-2.128,1.272-.078,1.528.59,2.8.513M826.3,3.551c-2.243-.244-4.272-.548-6.17-.013-1.282-1.238-4.667-.148-6.441.184-.8-.212-1.1-.661-2.046-.278.044,2.006,2.668,2.123,5.012,2.448,1.966-.942,4.232-1.838,7-.99.948-.179,1.625-.592,2.613-.732,1.688,1.207,4.474,1.344,7.156.873a7.068,7.068,0,0,0,1.137-2.023c-2.42-.727-4.991.017-7.417-.676a2,2,0,0,1-.841,1.207m22.882.2c.456-.03,1.274.253,1.047-.376a1.247,1.247,0,0,0-1.047.376m-43.219.111c-.238.765.956.484.971,1.066-1.045.391.414,1.779.9,2.3a5.9,5.9,0,0,0,2.6-.526c.084-1.575-1.446-1.968-1.884-3.161a5.378,5.378,0,0,0-2.59.32m-4.882-.175c-1.057.507-1.667,1.415-2.92,1.753-.872-.764-1.421-.239-2.558-.3-.658-.034-1.331-.474-1.774-.475-1.091-.005-2.134.376-3.37.5-1.728.172-4.192-.351-4.934.855C788.637,7.036,794.334,8,797.78,7.486c.719.2,1.018.7,2.02.693,1.2-.246,1.362-1.4,2.414-1.772a3.161,3.161,0,0,0,3.421-1.324,5.783,5.783,0,0,0-4.558-1.4M679.005,1.811c.734.069,1.305-.005,1.562-.357-.336-.3-1.537-.251-1.562.357M697.975,2.9c.334.3,1.772.457,1.812-.142-.328-.293-1.77-.454-1.812.142m78.244,3.819a5.593,5.593,0,0,0-3.582-.334c-.439.393-.91,1.47-.37,2.05,3.555-.995,6.059,1.576,10.482,1.2.038-2.123,3.725-1.052,4.51-2.521-3.757-.7-7.726-1.851-11.039-.395M690.5,3.251c.343.012.683.025,1.026.039.011-.138.017-.275.025-.411q-.514-.02-1.028-.037c-.008.137-.015.273-.023.41m173.75,7.015c-1.711-1.558-5.525-1.138-7.947-.489.307,1.227,2.086,1.146,3.3.737,1.924.9,6.116,1.034,7.726-.138-.856-.593-1.936.064-3.082-.11M762.812,7.272c-.883.305-1.158,1.141-2.378,1.153-2.75-.988-7.125-.583-9.029.5-2.237-1.791-6.183.563-8.987-.32-1.772.319-2.563,1.494-4.219,1.912-1.312-.029-1.385-.959-2.777-.924-1.007-.089-1,.71-2.09.545a23.754,23.754,0,0,0-7.447-.266c-.927.164-1.654.838-2.622.939a14.266,14.266,0,0,1-1.785-.27c-3.086-.121-5.281.575-7.505.764-5.29.448-11.025.147-15.992.873-1.142.167-2.563.89-3.908.892-.534-.2-.725-.652-1.505-.673a5.515,5.515,0,0,1-4.4.462c-3.29.951-8.121.546-11.655,1.443a5,5,0,0,0-2.01-.9c-2.092,1.758-4.89.391-7.489.56-2.371.15-4.282,1.907-7.528,1.173-.933.258-1.421.914-2.376,1.155a2.066,2.066,0,0,0-1.764-.683c-.906,0-1.179.548-2.088.545-2.477-.592-4.747.84-7.224.359-.458,1.856.515,2.655,2.153,2.966a4.939,4.939,0,0,1,.628-2.04c.618.4,2.035.217,2.26.907.765.309-.818,1.214.448,1.253,1.337.309.8-1.023,1.854-.964,1.751.3,5.081,1.315,6.4.641-.736-.912-2.262-1.241-2.432-2.563,1.165-.88,2.355.384,3.828.55,1.106.121,2.659-.339,4.129-.265,2.189.1,4.8.4,6.7-.175.719-.523.3-2.037,1.9-1.789.765.558.221,2.074,1.411,2.32,1.966-.01,1.114-1.428,2.918-1.548.833-.056,1.472.937,2.51,1.119,2.146.384,4.692-.346,6.685.032.9-.437.648-1.878,1.667-2.209a25.538,25.538,0,0,1,6.955-.165c.513.416.351,1.322,1.472,1.291,1.854-.1,1.8-1.878,3.954-1.715.805.2.28,1.371,1.472,1.29,1.249-.275,1.133-1.742,2.424-1.976,2.971.818,4.823-.019,7.211-.157,3-.175,4.518.787,6.418.229.841.04.948.619,2.029.484.509-.2.412-.936.839-1.207,2.939.545,4.737-.772,7.27-1.185,1.253.2.952,1.538,2.218,1.73,2.123-.2,3.437-1.747,5.7-.624,3.46-2.49,8.4.219,13.415-.759.664,0,.414-.791,1.072-.787,4.062-.593,7.285-2.805,12.166-1.423,1.173-.558,2.222-1.221,3.444-1.733a4.048,4.048,0,0,0,2.79.718c.179-2.758-3.675-1.209-7.12-1.492m82.861,3.984a2.443,2.443,0,0,0-2.544-.5c1.2,1.1.618,2.58.322,3.517.652-.292,1.993.02,2.592-.32.139-.454-.736-1.145-.191-1.243,1.423.1,1.461,1.482,3.248,1.765a11.433,11.433,0,0,0,2.333-.33c1.423-.123,3.675.416,3.906-.892-1.581.238-1.474-.762-2.249-1.111a23.7,23.7,0,0,1-4.1-.352c-.675-.479-.04-.686-.448-1.254a3.269,3.269,0,0,0-2.874.723M723.7,7.528c.208-.631-1.423-.909-1.774-.475a2.237,2.237,0,0,0,1.774.475m134.506,5-1.022-.035c-.248.784,1.179.836,1.022.035m-25.493.536c-.5.057-1.331-.292-2.043-.28-1.648.029-2.649.46-4.106-.145-.561.371-1.388.513-1.365,1.394,1.68.89,4.308.047,6.183-.192,1.947.9,3.408.091,5.159-.228,1.3-.239,2.745.244,3.126-.715-2.54-1.856-5.214-.032-6.955.165M625.287,5.674c.34.078.475.309,1.015.241.01-.206.021-.411.034-.617-.582-.079-.967.015-1.049.376m24.891,1.093c.17.005.341.012.511.019.01-.138.017-.275.027-.411-.172-.007-.345-.013-.515-.019-.01.137-.017.275-.023.411M821.618,13.7a1.823,1.823,0,0,0,2.279.7c.017-1.308-1.814-2.377-2.279-.7M644.5,7.183l.515.017c.006-.137.015-.275.021-.411-.17-.007-.341-.012-.513-.017-.008.137-.015.275-.023.411M611.368,6.21c-.008.806,1.116.641,1.774.474.288-.828-1.352-.762-1.774-.474M638.813,7.6c.109-.54-.317-.69-.992-.654-.107.54.322.688.992.654m174.475,7.867c.8.31,2.374-.3,3.616-.285.4.169-.114,1.007.727.851,1.078-.418,2.7-.369,2.668-1.762-2.228-.609-7.06-1.824-7.011,1.2m23.966-.8c.326.28.942.305,1.036-.169-.326-.28-.94-.307-1.036.169M627.228,7.8c.437.357,1.865.366,1.818-.349-.809-.062-1.547-.062-1.818.349m-26.735-.334a1.147,1.147,0,0,0,1.32-.572c-.732-.067-1.4-.076-1.32.572m204.315,7.9c-2.315-1.064-4-.73-7.163-.668-1.377,1.148-3.494.772-5.952.614a16.508,16.508,0,0,1-2.367.948,24.1,24.1,0,0,0-8.476-.3c-1.432.226-2.815,1.059-4.184,1.293-1.278.221-2.6-.187-3.631.491-.79-.877-1.259-.462-2.31-.081-.717-.395-.881-1.2-1.713-1.507a8.829,8.829,0,0,1-2.123,1.165c-4.835-.261-8.971,1.556-13.209,1.59-1.661.013-2.426-.671-4.108-.147-.437.137-.387.529-.8.592-.633.094-.94-.315-1.543-.056-.78-.034-.3,1.027-1.081.993-1.419-1.411-3.872.325-4.388.256-.975-.13-.565-1.5-2-1.1-.74,0-.494.862-1.331.779-1.48-1.354-2.855.455-5.123-.389-.883.229-1.036,1.106-2.121,1.162-2.432-1.485-6.992-.389-9.521.074.154.809-1,1.032-.345,1.637,3.008.312,6.921-.851,10.03-.054-.076.939-1.394.791-1.631,1.59.729.061,1.051.415,1.779.479,1.5-1.131,2.76-2.473,5.046-2.917,1.8.74,4.053,2.136,6.6,1.679.229-1.028-.982-.993-.658-2.086,2.237-.555,3.042,1.386,5.321,1.426.818-.465.322-.959.362-1.843.767-.779,1.776-.226,3.1-.3,2.672-.155,5.958-1.02,7.469-.147,2.468-.283,4.442-1,6.763-1.409,1.432.771,2.346-.039,4.61.371.7-.1.685-.838,1.587-.771,1.547.572,3.439.025,4.865.381-.023.411-.044.823-.067,1.236,1.547-.061,1.814.636,3.067.315a2.8,2.8,0,0,0,.641-2.247c2.741-.617,6.536-.312,9.063-1.121.814-.069.549.652,1.516.467.858.032.919-.639,1.833-.551,1.654.081,3.406.25,4.146-.472,1.165.577,3.008.116,4.114-.059.284.45.214,1.158.694,1.467,2.987.681,4.823-.754,6.53-1.829.677-.128,1.516-.11,1.831-.555-.757-1.162-4.558-2.47-5.121-.388M594.055,7.655l1.024.037c.01-.138.017-.277.027-.413l-1.03-.037c-.006.138-.015.277-.021.413M684.923,11.1c.549.46,1.678.207,1.814-.347a1.366,1.366,0,0,0-1.814.347M588.616,8.285c.013-.206.025-.411.036-.617l-.772-.027c-.069.447.174.661.736.644m25.135,1.308c.084-.587.095-1.123-.713-1.057-.523.379-.338,1.251.713,1.057m65.474,2.126c.179.177,1.747.615,1.552-.15-.206-.506-1.444-.14-1.552.15M583.464,8.515l.509.019c.006-.137.015-.275.023-.413-.17-.005-.343-.01-.511-.017-.006.137-.015.275-.021.411M577.3,8.3c-.164.727,1.709.971,1.541.056A2.2,2.2,0,0,0,577.3,8.3m188.1,7.939c.109-.54-.319-.69-.992-.654-.107.54.32.688.992.654m-193.3-7.093c.831.658.822-.735,0,0m-11.1.636c.011.878,1.291.6,1.539.056a1.511,1.511,0,0,0-1.539-.056m17.142,1.642.515.019c.008-.138.015-.275.021-.411l-.511-.019-.025.411m162.74,6.21a.839.839,0,0,0,.217.629c.717.2.683-.268,1.3-.16.261-.771-1.112-.771-1.516-.469M714.4,17.513a1.047,1.047,0,0,0,1.566-.357c-.679-.022-1.505-.169-1.566.357m104.228,3.713c.256.01.513.019.769.027.006-.138.013-.275.021-.411-.256-.01-.509-.019-.765-.027-.01.137-.017.275-.025.411m-5.167.433c.736.071,1.308-.005,1.562-.356-.481-.1-.62-.467-1.259-.457-.1.277-.391.379-.3.813m-252.9-8.39c.423-.293.442-1.16-.46-1.049-.555.391-.053.88.46,1.049m168.181,5.373a.737.737,0,0,0,.795-.384c-.4.005-.891-.059-.795.384m-197.481-5.8a1.044,1.044,0,0,0,1.564-.357,1.152,1.152,0,0,0-1.564.357m90.376,3.013c.256.008.3.177.5.224.013-.206.223-.238.28-.4-.256-.01-.3-.177-.5-.224-.01.207-.223.238-.28.4M567.7,14.348l.513.019c.01-.138.017-.275.025-.411-.172-.007-.345-.013-.515-.019-.008.137-.015.273-.023.411M632.572,18.1a37.047,37.047,0,0,0,5.51,2.671c1.318-.646,1.484-2.3,4.213-1.7.729-.5,2.579-.958,2.155-1.78-2.079-.182-3.315-.821-4.89.032-1.474-1.141-6.111-1.047-6.988.782m-86.7-4.326c-.828-.656-.818.733,0,0M711.7,19.89c.669.241,1.949.459,2.319-.121-.4-.288-2.237-.526-2.319.121m45.948,1.637.774.029c.006-.138.015-.275.023-.411-.261-.01-.515-.02-.772-.029-.006.138-.015.275-.025.411m50.306,2c.048-.243.481-.45.036-.619-.05.244-.483.452-.036.619M541.974,14.463c.633.054,1.245.081,1.305-.366-.6-.143-1.175-.359-1.305.366m-22.612-.395c1.133-.155,3.343.629,3.372-.5-1.177.123-2.882-.223-3.372.5m99.816,4.382c-.364.956.059,1.442-.393,2.462,2.372.828,4.055-.543,5.96-.819a1.983,1.983,0,0,0,3.013,1.345c.162-.646-.418-.744-.174-1.45,1.917.061,3.809-.929,3.46-2.146a86.238,86.238,0,0,0-11.865.609M533.435,15.4c-1.194-.615-.66.654,0,0m79.781,3.874a3.057,3.057,0,0,0-1.776-.475c-1.97.792-5.239.41-7.455-.059-.763.622-2.256.612-3.393.91-.784.175-.761,1.059-1.854.966-1.238-.079-.78-1.4-1.972-1.514-1.688.856-4.081,1.922-5.962.819-3.027,1.49-8.466.234-11.655,1.438a2.645,2.645,0,0,0-1.764-.681c-1.65.9-2.891.565-4.89.034-.959.094-1.013.98-2.353.74-1.121-.167-.483-1.622-.9-2.3a38.513,38.513,0,0,1-4.121.061c-.879.668-1.181,1.841-2.924,1.752-.456.251-.076,1.231-.841,1.209-1.989-.019-3.105.732-5.178.641-1.078-.064-1.188-.841-2.266-.909-1.331,1.56-3.463,1.3-5.75,1.652-.677.351.975,1.391-.349,1.639-1.73-.376-2.165-1.7-4.27-1.8-.017-.646.254-1.5-.158-1.863-2.146-.083-4.486-.337-5.68.42a3.665,3.665,0,0,1-.359,1.841c-.883.809-2.8.711-3.685,1.519-3.107-1.214-6.565.745-10.324.664-2.918-.062-5.687.492-8.777.513-.114-.507-.969-.474-.7-1.264,1.066-.216,2.376-.219,2.88-.926-1.057-1.226-2.689-.327-3.614.282-.757.027-.765-.494-1.518-.467a19.41,19.41,0,0,0-2.346.536c-1.282.025-2.926-.26-3.372.5-1.171.745,1.352,1.494.4,2.079-.91-.056-.887-.8-2.02-.693-2.453,2.7-7.682,1.624-11.977,2.669.126-1.093.532-2.016-.1-2.891-1.638.008-3.212.066-3.91.892A2.983,2.983,0,0,0,486,26.5c-.868.029-.488,1.153-1.35,1.19-2.479-1.081-4.686.013-7.467.145-.538.025-1.083-.113-1.541-.054-1.4.179-2.561.892-3.921,1.1-3.515.533-7.209-.035-9.355,1.73,1.375.111,3.027.019,3.294.942-1.753,1.022-4.049.583-6.254,1.428-1.032-.754-.2-2-.612-2.91-2.769-.4-6.1,1.463-9.3.7-.975,1.086-4.3.121-4.48,1.9,1.305.759,1.848-.755,3.618-.282a3.282,3.282,0,0,1-.1,1.851,7.371,7.371,0,0,0-4.955,1.27c-1.348-1.264-3.006.246-4.377.049-1.789-.256-1.472-1.573-3.225-2.178-1.476.3.067,1.069-.6,1.629-1.293-.516-2.369-1.718-4.274-1.8a15.088,15.088,0,0,0-2.344.534c-3.62.521-8.985.248-10.65,1.89,2.643.715,6.113-.99,7.4,1.089-.549.818-2.813.126-4.131.265-1.533,1.062-5.313.565-5.334-1.221-1.177.484-1.957-.191-3.071-.315-.954.72-2.256.069-3.616.283-1.011.158-1.837.835-2.88.927-.841.078-1.945-.342-2.815-.307s-1.873.472-2.855.519c-.734.035-1.526-.164-2.056-.074-.65.108-.971.5-1.575.561-.622.066-1.179-.158-1.8-.062a35.312,35.312,0,0,0-4.186,1.295c-.246-.475-1.608-.137-2.3-.288-.921.061-1.23.652-2.1.75a10.368,10.368,0,0,0-6.214.809,8.663,8.663,0,0,0-3.841-.342c-1.274.164-2.681,1.155-4.186,1.3-1.869.17-3.16-.4-3.885.477-.488-.1-.622-.465-1.263-.455-.6.194-.759.774-1.339.985a3.014,3.014,0,0,0-1.772-.475,25.773,25.773,0,0,0-3.664,1.106c-1.943-.728-4.4.212-6.711.379-1.781.128-3.658-.083-5.411.219-.774.26-1.026.971-2.113.956-2.043.135-3.856.078-5.928.2-2.516.152-4.7,1.14-7.022,1.4-1.491.167-3.107-.342-4.621-.165-1.7.2-4.3,1.3-6,1.436-2.924.236-6.643-.177-7.755.755-2.085-.511-4.608.211-6.219.808a11.416,11.416,0,0,0-1.776-.474c-1.341.255-2.464.875-3.917,1.1-1.964.3-4.169.108-6.2.4-1.93.275-3.481.978-5.458,1.045-2.142.071-3.2.332-4.655.452-.891.076-1.713-.157-2.571-.091-.91.071-1.842.57-2.868.723-1.291.194-2.668.28-4.142.47-2.891.374-6.114.966-8.27.737-.828.283-1.3.872-2.369.948a12.522,12.522,0,0,0-2.26-.905c-1.345.513-2.809.1-4.133.266-1.1.133-1.947.661-3.139.917-2.582.555-5.7.465-7.266,1.185-2.775-1.381-5.891.034-8.765.307-1.442.138-2.945-.292-4.364-.155-1.474.143-2.979.754-4.423.873-2.71.231-4.35.263-6.46.6-1.486.233-3,.754-4.423.872-.374.034-.936-.248-1.272-.25-1.686-.008-3.326.651-4.921.649-.46.514.141,1.1-1.1,1.2-1.324.184-.984-.855-2.012-.9-3.795.1-7.087,1.629-10.612,1.273a71.954,71.954,0,0,1-13.747,1.986c-.7.174-1.034.674-1.84.757-6.2.071-12.32,1.7-18.633,2.02-.969.049-2.077-.162-3.08-.11-2.62.135-5.037,1.077-7.524,1.175-1.087.04-2.3-.221-3.338-.118-.959.091-1.848.651-2.87.722-2.35.162-3.5-.042-4.922.651-.931-.305-2.327-.27-3.313-.531-6.095,1.877-13.816,1.9-20.72,2.561-2.582.25-4.61,1.217-7.047,1.812-1.1.27-2.424-.1-3.605.078-.915.138-1.72.774-2.624.939-1.133.207-2.174-.219-3.1.3-.816.005-.828-.578-1.774-.477a32.831,32.831,0,0,1-12.706,1.817c-4.142.4-7.72,1.465-11.42,1.863-1.388.15-2.775-.076-4.118.059-2.874.29-5.224,1.35-7.57,2-1.919-.5-3.643.663-5.447.836-.536.056-1.259-.271-1.787-.268-1.434.008-2.691.769-4.177,1.091-1.385.3-3.124.58-4.678.862-1.684.31-3.4.629-4.932.856-5.13.76-9.969,1.871-15.284,1.932-.734.217-.221,1.534-1.364,1.4-.929.024-.652-.841-1.495-.88a9.994,9.994,0,0,1-2.868.725c-.172,1.721-3.408.752-3.242,2.772.261.663,1.308.752,2,1.1a10.113,10.113,0,0,0,1.158,2.31c1.509-.43,2.489.261,3.851.137C30.654,89.93,31.9,89,33.177,88.959s2.285.588,3.83.546c1.091-.9,2.472-.811,4.175-1.089,2.043-.33,4.392-1.539,6-1.64,1.123-.071,2.268.4,3.328.324,2.5-.167,4.43-1.286,6.532-1.833,1.1-.288,2.254.179,3.338.121,2.3-.121,4.322-1.251,6.763-1.408,1.215-.079,2.592.248,3.854.135.494-.04,1.139-.432,1.831-.551a22.8,22.8,0,0,0,3.652-.9,46.5,46.5,0,0,1,6.742-1c.8-.113,1.566-.526,2.088-.545.42-.015.664.416,1.261.455.713.051,1.339-.4,2.064-.13.7-.1.685-.838,1.585-.771a9.007,9.007,0,0,0,4.667-.659,6.73,6.73,0,0,0,2.3.288c2.107-1.635,6.42.1,9.275-.288.471-.378.372-1.254,1.352-1.19,1.436-.132,1.882.465,3.057.523,1-1.066,2.569-1.637,5.216-1.258.82-.217.872-1.108,1.865-1.172,7.924-.427,13.865-2,21.645-.674.267-.374-.734-.713.046-.823.973-.123,1.211.3,2.039.28,2.924-1.644,6.639-.959,10.35-1.077,2.214-.067,4.356-.953,6.717-.585,1.545-.309,2.952-1.391,4.472-1.694.214-.046.849.288,1.272.25.654-.057.818-.381,1.308-.364,2.83.089,6.019,1.664,8.983.319.479-.433.04-1.332.332-1.431a5.1,5.1,0,0,1,1.787.268c1.186-1.172,3.593-.6,5.708-.828,2.678-.292,5.336-1.194,7.747-.548.843-.266.973-1.163,2.121-1.163,2.252.84,4.322.039,6.2-.6,3.639.814,6.074-.718,8.823-1.335,1.192-.084,1.453.514,2.546.5,1.943-1.551,6.5-1.659,9.843-1.3.774-.187.645-1.16,1.61-1.18.828-.017,1.066.4,2.046.278,4.446-1.253,9.353-.779,13.741-1.988,1.287.11,1.4,1.084,3.034.936.866-.032.793-.887,1.6-.974a63.8,63.8,0,0,0,12.437-1.62c1.633,1.359,2.664-.759,4.341.568.908-1.5,3.927-1.445,5.962-.819.727-.3.936-1.05,1.867-1.173,4.07.349,6.82-1.421,10.581-.654,1.36-1.086,3.259-.418,5.193-.845.448-.111.032-.978.57-1.013.91.057.889.8,2.018.693,2.971-.359,5.479.2,7.514-.969a3.064,3.064,0,0,0,1.774.475c.847-.047.578-1.077,1.6-.976,2.132.357,2.861-.514,4.165-.882,2.26.212,4.182-.211,7.455.059,1.478-1.108,3.78-.634,5.975-1.023.469-.083.864-.472,1.318-.573.75-.165,1.539,0,2.323-.123,2.416-.389,4.282-1.045,6.429.024.837-.059.86-.828,1.6-.976,2.582.794,4.722-.9,7.27-1.184,1.491-.172,3.1.3,4.619.165,1.322-.12,2.416-.946,3.664-1.109,2.407-.31,5.062.725,6.732-.791,2.842.317,5.363-1.329,8.506-.315,1.976-1.758,4.989-.378,7.524-1.177.1-1.022-.492-1.684.626-2.04A1.2,1.2,0,0,1,365.719,48c1.728.212,3.214-.427,4.623.165.826-.067.948-.75,1.844-.759,4.713.337,8.468-1.669,13.694-1.163.811-.443.763-1.635,1.9-1.787a11.343,11.343,0,0,0,3.551.951,9.56,9.56,0,0,0,1.829-.555c.919-.2,2.05-.04,3.105-.3.622-.155,1.224-.609,1.842-.76,1.8-.44,3.893.238,5.657,0,.408-.056.7-.484,1.062-.582,1.808-.484,3.378-.206,4.926-.651.742-.8-.017-1.595,1.385-1.806,1.5-.226,1.543.969,3.023,1.138,3-.27,5.416-1.155,9.566-.9.61-.042.517-.7,1.318-.572,3.055.875,4.556-1.125,6.509-1.42,1.476-.221,2.945.364,4.623.164.09-.357-.664-1.052.067-1.232,2-.216,1.934,1.081,3.269,1.354,3-.791,6.433-.349,8.788-.72,1.032-.162,2.31-.083,3.1-.3.719-.2,1.1-.641,1.844-.76,1.436-.231,2.735-.182,3.618-.285.769-.089,1.739.174,2.31.084,1.114-.179,2.63-.98,4.4-.464.86-.325,1.188-1.118,2.134-1.367,2.174.177,5.6.907,6.206-.605,2.893.88,4.539-1,6.278-1.838a24.08,24.08,0,0,0,5.445-.836,5.189,5.189,0,0,1,1.747-3.654,7.487,7.487,0,0,1,3.851.138,2.349,2.349,0,0,1-1.118,1.61,4.3,4.3,0,0,0-2.546-.5c-.353.867-.832,2.06-.149,2.676.7.695,1.543-.452,2.056.074.2.776,1.28.907,2.256,1.114,1.251-1.035,3.147-.393,4.652-.455,1.339-.054,2.453-1.028,3.618-.283.633-.238.643-1.017,1.6-.975a4.586,4.586,0,0,0,2.823.1c.839-.464-.526-1.514.6-1.63,1.968-.189,2.481.686,4.074.765,1.02-.03-.151-.644.559-.806.87-.091,1.2.4,2.031.484,6.481.624,12.261-1.236,18.343-1.409.685-.187.908-.786,1.6-.973,2.428.145,3.681-1.605,5.754-1.652,1.856-.042,3.191,1.13,5.6,1.023.841-.268.685-1.413,1.142-2.022,1.686.781,5.083-.995,5.613.819-.439.727-1.846-.2-2.357.74,2.662.568,5.645-1.388,9.532-.278,1.238-.486,1.98-1.349,3.408-1.116.893-1.971,2.729-4.016,6.051-2.467.717.4.6,1.4,1.448,1.7,2.558.226,3.612-.865,4.98-1.679,4.362-.106,7.2.9,10.993,1.216-.58-2.342,2.636-2.16,4.7-1.275,1.3-.157,1.812-1.007,3.151-1.128.963.02.727.917,2.022.693,2.773-.673,5.9-.283,7.827-1.991.971,1.128,4.53.361,5.577,1.436.5-1.758,3.1.042,4.631-.04,1-.2,1.039-1.251,1.89-1.581a6.466,6.466,0,0,0,5.329,1.221c.9-.509.933-1.777.942-3.063a4.076,4.076,0,0,0-4.642.248m29.279.838c.311.293,1.516.411,1.549-.152-.311-.293-1.516-.413-1.549.152m48,1.71c.584.078.969-.015,1.051-.374-.582-.079-.967.013-1.051.374M667.1,21.6c.343.012.685.025,1.03.035.015-.273.029-.55.048-.821q-1.2-.19-1.079.786m-85.2-3.45c-.181.843,1.329,1.1,2.02.693-.063-.668-1.28-1.136-2.02-.693M878.137,28.915c.343.076.473.312,1.013.243l.038-.617c-.585-.079-.969.015-1.051.374M523.354,16.275c-.168-.169-1.4-.511-1.539-.056.568.27,1.093.636,1.539.056m10.47,1.4c-.833-.658-.822.732,0,0m-41.615-1.071c-.261.651,2.506.749,2.31.083-.374-.526-1.785-.148-2.31-.083m184.314,6.773c.444-.556-1.076-.607-1.015-.243.341.079.477.312,1.015.243m41.6,1.276c-.027.636,1.318.784,1.774.477.284-.83-1.354-.764-1.774-.477M521.679,18.691a1.184,1.184,0,0,0,1.526.26c.174-.851-1.419-1.175-1.526-.26m-21.061-.546c-.263.9,2.552,1.394,2.552.3-.713-.182-1.9-.676-2.552-.3M706.235,25.68c.324.28.94.305,1.034-.172-.328-.278-.935-.3-1.034.172M480.8,18.265c.971-.01,2.3.292,2.344-.534-.616-.524-2.239-.106-2.344.534m218.208,7.776c.982,1.037-.158,1.568-.9,2.236,1.81.821,3.944-.148,5.939-.4-.069-.742-.622-1.125-.4-2.077-1.537-.593-3.357-.047-4.644.246M476.17,18.307c.378.794,2.4.8,2.826.1a4.3,4.3,0,0,0-2.826-.1m14.577,1.551,2.054.074c.431-1.3-2.172-.969-2.054-.074m-7.5.764c.732.067,1.4.074,1.318-.572-.49.029-.557-.253-1.017-.243-.1.275-.385.381-.3.814m50.874.986c-1.2.02-2.659.9-3.921,1.1-1.758.275-3.5-.064-4.924.651-.9-.062-1.112-.629-2.018-.691-.915,1.141-4.5-.059-4.968,1.472,4.018,1.669,7.663-1.595,11.327-.214a3.039,3.039,0,0,1,2.849-.314c.807-.152,1.236-.642,2.1-.749.334-.5,2.22.359,1.842-.759-.814.162-1.423-.507-2.285-.5m-57.841-.615a2.586,2.586,0,0,1,1.8.064c.158-1.037-1.64-.6-1.8-.064m203.763,8.5c.263,1.039,3.105.794,3.349-.088-.849-.7-2.931-1.431-3.349.088m-229.28-7.552c.294-.678-.317-.688-.994-.652-.107.538.317.688.994.652m2.956,2.376a3.6,3.6,0,0,0,2.626-.937c-.591-.926-3-.352-2.626.937m48.854.3c-1.282.89-4.041.486-4.98,1.679,2.462-.073,5.245.135,7.226-.362-.24-.813-1.226-1.076-2.245-1.317M573.9,27.772c.357.922,1.9.216,2.077-.341-.484-.361-2.014-.327-2.077.341m72.372,2.989c.482.064.58-.211,1.036-.167.154-.641-.511-.678-1.247-.666a.982.982,0,0,0,.21.833M436.8,23.3a.945.945,0,0,0,1.293-.158c-.311-.3-1.24-.366-1.293.158m13.034,1.5c.256.008.513.017.769.027-.025-.243.078-.582-.221-.626-.044.322-.664.138-.549.6m-2.321.123.513.02c.006-.14.015-.277.023-.413l-.513-.019c-.008.137-.017.275-.023.411M440.8,25.3c.549.373,2.336.447,2.09-.545-.713-.518-1.543.248-2.09.545m8.462.507c.549.46,1.686.206,1.818-.349a1.372,1.372,0,0,0-1.818.349m168.349,7.027c.98.534,2.857.287,2.867-.722-.841-.411-3.17-.555-2.867.722m-200.5-7.142c.555.037,2.765.479,2.857-.518-1.083.059-2.519-.192-2.857.518m212,8.378c1.854.4,3.015-.735,4.644-.246-1.049-.8-4.1-1.45-4.644.246M433.253,26.887c.433-.609-1.3-.59-1.272-.253a2,2,0,0,0,1.272.253m166.505,7.788c.809-.012,1.877.207,2.321-.123.021-.344.04-.686.059-1.028-1.148-.681-3.378-.091-2.38,1.152M403.152,27.052c.328.373,1.2.873,1.77.475.225-1.138-1.409-1.248-1.77-.475m9.952,1.384c.313.3,1.1.244,1.783.27.349-.833-1.737-.89-1.783-.27m453.08,16.555c-2.687,1.878-7.291.781-10.907,1.883,2.855,2.431,7.434-.855,10.8-.029.633-2.541,6.82-.209,8.094-2.188-3.132-1.1-5.176,1.15-7.991.334M459.267,30.908a2.008,2.008,0,0,0,1.272.251.862.862,0,0,0,.069-1.238c-1-.16-1.163.421-1.341.986m-68.834-1.833c1.448.044,3,.177,2.893-1.136-1.232.143-2.893-.091-2.893,1.136M516.27,32.732c-.141,1.084,2.474.745,2.321-.125a6.9,6.9,0,0,0-2.321.125M384.52,29.07c-.263.894,2.554,1.391,2.554.3-.32-.627-1.833-.5-2.554-.3m18.214.853c-.156.836,2.47,1.062,2.06-.133-.736,0-1.671-.17-2.06.133m106.524,4c.256.008.515.017.771.027.006-.137.015-.275.021-.411-.259-.008-.515-.019-.767-.029l-.025.413M380.1,29.944c.334.479,2,.754,2.067-.133-.929.125-1.728-.7-2.067.133M848.568,47.251c.824,1.576,4.436.624,6.149.427-.343-2.365-4.2-.482-6.149-.427M372.581,30.912c1.314-.432,4.209.909,4.425-.872-1.783.022-3.954-.3-4.425.872m18.742.668c1.127.123,2.121.132,1.852-.964-1.026-.037-1.921.04-1.852.964m48.519,1.73a10.672,10.672,0,0,0,4.152-.678c-1.148.1-4.259-1-4.152.678m425.647,14.96c.328.022.341.275.759.233a.576.576,0,0,0-.479-.636c-.01.207-.223.236-.28.4M491.151,35.755c.635.33,2.146,1.047,3.059.523-.347-.669-2.519-1.782-3.059-.523M839.725,49c1.928.374,4.232-.543,5.973-1.025-2.083.26-5-.211-5.973,1.025M381.755,32.478c.652.344,3.334.624,3.362-.292-.769-.347-3.172-.558-3.362.292M363.8,31.63c.248,1.222,3.692.617,4.118-.059a31.845,31.845,0,0,1-4.118.059m495.917,18.7c.872-.025,2.071.233,2.578-.116-.044-1.315-2.687-1.411-2.578.116m-29.3-.425c1.57-.759,2.611.413,4.388-.258-.244-1.576-5.4-1.855-4.388.258m21.292.963c1.282.587,4.783.622,5.687-.415-2.395.892-6.1-3.025-5.687.415M357.545,33.058c1.686.5,4.583.31,5.2-.846-1.711-.437-4.366-.17-5.2.846M375,33.68c.639.452,2.111.253,2.336-.329-.8-.336-2.008-.327-2.336.329m-5.947.614c.36.337,1.131.27,1.047-.374-.582-.079-.967.013-1.047.374m11.294.4c.254.008.513.019.77.029.008-.138.017-.277.021-.413-.252-.01-.511-.019-.767-.027-.01.137-.017.273-.023.411m496.51,17.278-1.285-.046c-.5.966,1.6.8,1.285.046M362.576,35.095c1.257.732,2.779-.15,4.118-.059-.248-.912-3.727-.84-4.118.059m-5.962.818c1.348-.18,3.042.315,3.654-.9-1.171-.45-3.654-.379-3.654.9M883.127,54.878c.8.03,1.646.546,2.308.084.332-1.425-2.081-.688-2.308-.084M352.987,36.4c.973.133,1.608-.03,1.833-.553-.732-.293-1.726-.261-1.833.553m3.54,1.157a1.9,1.9,0,0,0,1.583-.767c-.832-.012-1.4.214-1.583.767m152.237,5.22c.038-.354-.166-.534-.477-.636-.383.287-.418.782.477.636M346.781,37.008c.362.29,2.012.494,2.065-.133-.36-.29-2.01-.494-2.065.133m-6.755,1.2c2.043.064,3.9-.037,4.934-.856-.87-1.3-4.087.069-4.934.856m5.718-1.035a.731.731,0,0,0,.79-.383c-.4,0-.887-.061-.79.383m441.494,16.76a2.643,2.643,0,0,0-1.531-.26c-.33.794,1.48.88,1.531.26M332.288,38.554c.83.1,2.958,1.1,3.095-.1-1.366.179-2.426-.7-3.095.1m11,1.216a5.161,5.161,0,0,0,1.806-.142c.21-1.015-2.123-.823-1.806.142m-14.4-.1c.154-.637-.511-.678-1.249-.664-.153.641.513.678,1.249.664m98.851,3.316c-.391.02-.948-.108-1.043.169.33.278.942.3,1.043-.169m-107.369-2.8,1.028.037c.25-.784-1.186-.836-1.028-.037m-1.585.771c.616-.432.456-.671.069-1.236l-1.026-.039c-.446.646-.032,1.172.957,1.275m12.837.455c.259.008.513.02.769.029.01-.206.023-.413.036-.617-.17-.008-.343-.012-.515-.02-.025.263-.345.273-.29.609m-17.334,1.858c.645.244,2.281-.221,2.13-1.366-1.148.071-2.285.155-2.13,1.366m78.471,4.24c.917.008,2.062.223,2.088-.546-.864.035-2.207-.352-2.088.546M297.971,45.17c.793-.123.736.381,1.53.26,1.051-.858-1.745-2.113-1.53-.26m-24.233.993c.946.238,3.16.344,3.626-.491-.868-.845-3.4-.538-3.626.491m-2.323.123c.254.008.515.017.767.027.01-.138.017-.273.025-.41l-.772-.029c0,.135-.015.275-.021.411m-6.975.578c.526.378,2.9.534,2.844-.314-.864.179-2.767-.553-2.844.314m-8.285.941c1.221-.266,2.491.851,2.59-.32-.992-.005-2.245-.241-2.59.32m13.594.691c.015.693,1.549.846,1.543.056-.084-.462-1.354-.211-1.543-.056m-4.406.669c.4-.007.885.057.791-.386l-.513-.019c-.011.207-.219.239-.278.4M243.5,48.8c.618.153,1.3.462,1.306-.366-.635-.054-1.245-.083-1.306.366m3.58.336a1.248,1.248,0,0,0,1.051-.378c-.456.034-1.274-.253-1.051.378m11.006,1.01c.343.012.687.024,1.028.039,0-.14.013-.277.021-.415-.343-.01-.683-.024-1.026-.035-.006.137-.015.275-.023.411m-23.908-.233c-.927.11-2.348-.361-2.6.524,2.081-.189,4.6.007,5.96-.818-.816-.349-2.109.142-3.359.293m-1.165,2.433c.532.4,1.747.093,1.587-.769-.811.008-1.539.089-1.587.769m-3.385.7c.694.174.542-.391,1.049-.376-.057-.481-.109-.969-.978-.86a.861.861,0,0,0-.072,1.236m-4.129.266a1.99,1.99,0,0,0,1.287.046c.021-.411.044-.823.065-1.236-.83.062-1.507.26-1.352,1.19m-4.911.443c1.484-.138,2.31-.855,3.416-1.322-1.049-.167-3.437-.121-3.416,1.322m-12.311-.646c.5.46,1.018-.02,1.554-.15a.579.579,0,0,0-.481-.636c-.25.354-.961.305-1.072.786m-8.06,1.57a8.973,8.973,0,0,0,4.688-1.071c-1.4-.319-4.137-.069-4.688,1.071m13.615.28c.814-.008,1.541-.091,1.589-.771-.812.008-1.541.091-1.589.771m-15.671-.354c.582.079.969-.015,1.051-.374-.345-.076-.473-.309-1.015-.243-.01.207-.023.413-.036.617m-7.512.971a3.053,3.053,0,0,0,2.056.072c.04-.91-1.959-.8-2.056-.072m2.313.083a1.257,1.257,0,0,0,1.049-.376c-.362-.337-1.133-.268-1.049.376m7.911,1.106c.778.179.776-.327,1.552-.148.158-.644-.322-.819-.446-1.254-.425-.015-.854-.03-1.282-.047-.029.548-.164,1.173.177,1.45m5.445-.836a.733.733,0,0,0,.795-.384c-.4.005-.887-.059-.795.384m-24.456.366c-.738.182-1.608-.184-1.573.565,1.52.469,2.992-.123,4.131-.266-.021-1.31-1.455-.57-2.559-.3m5.931-.2c-.315-.3-1.1-.244-1.789-.27-.181.978,1.31.513,1.789.27m4.821,1.2c.49.626,3.709.924,3.616-.283-.578-.631-4.432-.872-3.616.283m-15.7.266c.872.115,1.463-.012,1.329-.779-.837-.083-1.251.2-1.329.779m12.32.437c.191.362,1.85.2,1.823-.346-.044-.228-1.9-.241-1.823.346m-15.158-.33c.17,0,.347.01.515.017,0-.138.013-.277.021-.413-.17-.005-.341-.012-.513-.019-.008.138-.015.273-.023.415M186.1,58.717c.637.054,1.247.084,1.308-.366a.851.851,0,0,0-1.308.366m-1.562.357c.732.067,1.4.078,1.318-.572a.808.808,0,0,0-1.318.572m-9.778.064c-1.787.241-3.963-.1-4.43,1.081,2.115,1.114,5.241-.369,6.753-1.2,2.1-.357,2.384,1.216,4.083.556-.2-2.5-4.182-.732-6.406-.435m-11.363.835c.008.651.111,1.234.959,1.271.393-.312.62-1.617-.433-1.46-.067.158-.229.233-.526.189m4.829,1c.656,0,1.015-.265,1.074-.787-.673-.666-1.837.192-1.074.787m-7.957-.283c.019.582.4.892,1.238.87-.151-.637.473-.592.326-1.227-.8-.126-1.017.258-1.564.357m-5.4.012c-.223.769,1.915.572,1.551-.148a2.677,2.677,0,0,0-1.551.148m2.308.084c-.011.206-.023.41-.034.617.879.5,2.533.15,2.859-.516a4.284,4.284,0,0,0-2.826-.1M150.41,62.19c1.137,1,3.467.27,3.408-1.114a6.8,6.8,0,0,0-3.408,1.114m-6.183.194c.942.7,3.662,1.238,3.383-.706-1.209.167-3.032-.211-3.383.706m-3.662,1.108c1.648.474,1.751-1.389.057-1.032-.017.344-.038.686-.057,1.032m-4.655.452c1.783.2,2.868-.219,3.158-1.332-1.737-.155-3.013.094-3.158,1.332m-1.015-.243c-.217-.368-.778-.482-1.52-.465-1.026.791,1.453,1.686,1.52.465m-13.43.966c.17.836,1.371.256,2.556.3,2.561.086,4.612.555,4.955-1.27-2.559-.086-5.609-.118-7.512.971m-3.65.9c1.036-.314,2.7-.079,3.137-.919-1.213.16-2.653.12-3.137.919M105.633,67.2c1.1.059,1.861.481,2.826.1.168-1.647-2.735-1.526-2.826-.1m-5.447.84c.845.022,1.812.148,1.831-.556-.5-.374-2.17-.465-1.831.556m3.629-.489c-.429-.017-.856-.034-1.282-.047-.429.619,1.64.693,1.282.047M86.477,69.4c1.245.01,2.716.219,2.872-.723a2.6,2.6,0,0,0-2.872.723M889.754,97.815c1.108.123,1.432-.111,1.072-.786q-.984,0-1.072.786m-8,.541c1.375.1,5.069,1.013,5.67-.211-1.476-.782-4.747-1.087-5.67.211M83.876,69.929c.174.007.343.013.513.019.013-.207.223-.236.28-.4-.328-.024-.341-.276-.759-.233-.01.2-.023.411-.034.617M898.413,99.365c-1.2.167-1.419,1.2-2.649,1.347-1.3-.573-3.309.263-4.575-.988-1.89.147-4.2-.088-4.211,1.708.786.03,1.491.62,2.279.7,1.535.15,4.854-.6,5.691-.622,1.831-.042,3.69.7,5.159-.229.606.019.734.381,1.526.261.355-.408,1.268-.33,1.1-1.2-1.758-.093-2.62-.843-4.318-.976M76.619,70.908l.772.027c.006-.137.015-.275.023-.413-.256-.008-.513-.015-.772-.025-.006.133-.015.275-.023.411M64.173,72.733c.17.005.343.012.513.02.027-.265.343-.275.29-.609-.172-.005-.343-.012-.513-.019-.029.261-.345.271-.29.607m-13.5,2.2c.635.052,1.245.083,1.308-.364a.849.849,0,0,0-1.308.364m-5.462,1.044a4.661,4.661,0,0,0,2.882-.929c-1.293.015-2.809-.164-2.882.929M40.07,76c-1.808.155-4.8.578-4.98,1.679,3.83.555,4.938-1.281,8.294-1.146-.153-.946-2.287-.617-3.313-.533M27.05,78.838A18.351,18.351,0,0,0,32,77.775c-1.516-.346-4.585-.312-4.947,1.062m856.428,39.383a5.656,5.656,0,0,0,1.762.683c.252-.43.816-.582.841-1.209-.847.19-2.361-.194-2.6.526M873.385,119.3a1.128,1.128,0,0,0,1.844-.757c-.948-.04-1.772.027-1.844.757M78.734,181.346a6.851,6.851,0,0,0,3.618-.285c.057-1.758-4.011-1.743-3.618.285m886.983,40.268c-4.657-.966-10.676.351-15.223.9-.864.246-.488,1.587-1.631,1.592a47.411,47.411,0,0,0-9.429-1.573c-1.4,1.946-5.024,1.927-8.846,1.747-.721-.282,1.285-1.232-.177-1.45-3.841.339-8.8,1.307-13.964,1.361a23.9,23.9,0,0,0-2.567-.093c-2.563.309-4.419,2.207-6.8,2.028-.91-.846-2.245-1.383-4.566-1.2-1.1.233-.166.9-1.093,1.2-.816.071-.04-1.027-.984-.86-5.1-.106-10.749,1.61-14.933.292-2.21,1.374-6.086,1.283-9.362,1.728-.786.5.605,1.027-.078,1.443-1.591-.62-2.779.283-4.373.049-1.047-.155-1.682-1-2.765-1.133-2.609-.309-5.2,1.467-8,.337a12.276,12.276,0,0,1-7.011,1.194c-.032.545.076,1.219-.58,1.221-3.227-2.5-8.4.29-11.8-.625-1.863.968-4.871.344-7.024,1.4-1.188-.813-2.054-.747-3.807-.963-.5.352-.378,1.256-1.106,1.406-2.718-.351-4.425-.12-5.849-1.239a14.427,14.427,0,0,1-3.624.489c-1.144,1.372-3.256,1.9-5.041,2.713-1.057-.083-.734-1.172-1.993-1.106-1.638.565-3.017-.3-4.61-.371-1.444.762-2.212,1.7-4.224,1.912-1.6.165-3.492-.543-4.913.443a5.956,5.956,0,0,0-3.635.695c-.221-.366-.778-.48-1.522-.464-1-.091-.992.712-2.086.543-1.423-.074-.952-1.539-2.489-1.533-2.035.324-3.065,1.339-5.447.838-1.806,1.475-4.724,1.278-7.289,1.595-1.165.147-1.844.639-3.114.509-1.034-.1-1.737-.835-2.783-.924-1.814-.157-3.452.959-5.153.231-1.228.368-1.72,2.193-3.218,2.359-1.606.182-2.125-.644-3.526-1.364a10.962,10.962,0,0,0-4.68.865c-1.255-.428-2.039.02-3.593-.128-1.9.851-4,1.533-5.8,2.477a7.449,7.449,0,0,1-.946-1.479,10.8,10.8,0,0,0-5.2,1.052c-3.154-1.1-5.809.752-8.491.11-1.087.946-2.7.568-4.415.669-2.2.131-4.282,1.224-6.484,1.008-1.055.368-1.2,1.539-2.655,1.551-1.07.126-.431-1-1.5-.875-1,.889-2.014-.148-3.334-.12-1.753.039-3.723,1.442-5.17.435-2.245.477-3.13,2.153-6.032,2.054-1.36-.464-1.213-1.15-2.5-1.327-2.025-.277-4.4,1.693-6.45.389-3.1,1.666-8.687.207-12.158,1.214-.666.369.477,1.093-.58,1.221-2.321-1.436-5.9-.025-8.706-.723-1.774.961-5.086-.147-6.755,1.2-.605-.214-.633-.853-1.766-.683-2.033.787-4.491.61-6.99.782-1.476.1-2.947.668-4.406.669-.614,0-1.188-.31-1.785-.27-.362.025-.856.329-1.306.368-.568.042-1.1-.123-1.543-.056-2.926.442-3.736,1.964-6.05,2.462-1.823-.619-3.788-1.428-5.87-.826-.742.217-.309,1.458-1.364,1.394-1.873-2.038-5.05-.567-6.719.588-2.535-.824-3.561,1.072-6.465.593-.9-.2-.589-1.278-1.728-1.3-1.68.184-2.5,1.121-3.7,1.726-1-.126-.639-1.246-2-1.1-3.288.862-7.724.713-11.388,1.243-1.28,1.324-4.146,1.259-5.535,2.483-3.971-1.177-8.258-.443-11.844.2-1.108-.11-1.1-1.044-2.521-.915a5.336,5.336,0,0,1-5.2,1.052c-1.621,1.474-4.524.61-7,.986-.677.1-1.139.526-1.833.556-1.768.072-3.757-.8-5.157.228-.925-1.017-2-.744-4.064-.968-2.346,1.576-6.414,3.1-9.845,1.3-1.366.659-2.8,1.71-4.732,1.892-1.533.145-3.126-.226-4.623-.162-2.329.1-4.358.931-6.5,1.211-.669.091-1.409-.143-2.05-.074a16.188,16.188,0,0,0-2.615.733,2.852,2.852,0,0,0-2.767-1.13c-1.417.28-.307,1.445-1.888,1.585-1.516.125-1.564-.829-2.777-.926a22.58,22.58,0,0,1-7.488.56c-4.062-.157-6.685,2.1-9.124,2.15-1.308.025-2.456-.846-3.818-.755-1.028.069-1.146.617-2.357.74-5.245-1.027-9.275.759-12.715,2.023-1.02-.238-1.137-1.141-2.508-1.118-1.312.214-1.68,1.261-3.162,1.33-1.123-.238-1.316-.622-2.275-.7-1.894-.158-3.706,1.433-5.418.219-2,.646-5.243,1.688-7.5.767-1.06.447-1.583,1.732-3.193,1.949-1.968.265-3.109-.516-4.562-1.194-3.162,1.167-7.734.2-10.863,1.055-1.015.277-1.6,1.184-2.647,1.352-2.18.341-4.177-.513-5.952.612-.98-.072-.33-1.342-1.467-1.293-2.849.747-7.137.226-10.083.88-.736,2.408-4.179,1.317-5.674.211a11.319,11.319,0,0,1-5.7.826c-.753.276-.614,1.332-1.863,1.172-2.069-1.379-4.833-.28-7.961-.283-.866,1.222-3.822,2.183-4.385.258-3.231.762-7.7.445-10.383,1.693-2.485-1.511-5.058.546-7.5.764-.587.054-1.518-.273-2.046-.28-3.368-.044-6.334,1.517-9.366,1.936-1.081,0-.738-1.039-2.01-.9a10.164,10.164,0,0,0-3.673,1.315c-2.407-1.666-5.624.706-8.458-.507-1.078-.084-1.127.742-2.1.749a13.639,13.639,0,0,0-3.582-.336,5.788,5.788,0,0,1-2.1.75c-1.7-.489-3.193.541-5.178.641-2.252.113-4.831-.479-7.188-.255-1.457.138-2.435,1.081-3.9.685-.933.4-1.343,1.266-2.645,1.352-1.038-.359-1.417-1.071-2.512-1.121-.944-.049-1.621.772-2.878.929-1.776.221-3.328-.332-5.392-.192a5.824,5.824,0,0,1-2.1.75c-3.536-.511-5.134.679-7.28,1.391-4.133-1.765-8.073.927-12.891.57-2.34,2.967-6.99.349-11.109.845-.927.752-.717,1.613-2.167,1.986-1.35.344-3.418-.54-4.642.243-1.085-.961-3.748-.737-5.628-.61-.929.261-1.089,1.2-1.886,1.583-3.044.039-4.127.56-7.472.147-1.673,1.3-4.741,1.162-7,.986-1.343,1.337-5.561.966-7.732.346-3,1.7-8.552.246-11.916,1.431-1.427.5-1.545,1.9-3.183,1.742-.845-.1-.231-1.276-1.484-1.082-2.552,1.121-5.262.251-7.779,1.165-.446-.2-.282-.846-1.251-.663-2.178.25-2.977,1.706-5,2.091-1.15-.62-1.966-1.352-3.542-1.158-1.257.153-1.209,1.281-2.388,1.361-1.139.177-.805-.727-1.762-.681a5.39,5.39,0,0,1-2.918,1.544c-1.886-1.035-3.235-.287-5.4.017-.513.125,0,1.148-.587,1.216-1.829-.167-4.43-.794-6.406-.435-1.463.266-1.81,1.361-2.914,1.544-3.883-.62-6.927,1.034-9.5-.337a30.078,30.078,0,0,0-3.708,1.93,9.267,9.267,0,0,0-7.257.981c-.6-.022-1.2-.046-1.793-.064-2.769,1.583-6.595,1.067-10.644,1.683-2.237.341-4.369,1.688-6.017,1.848-2.306.223-5.359-1-6.252,1.428,3.919.454,8.163-.59,11.643-1.236,6.877,1.553,12.738-1.3,19.123-1.588,1.192-1.612,2.8-.8,4.936-.855,1.755-.046,3.654-.779,5.7-.829.715-.017,1.606.167,2.308.084.814-.094,1.562-.6,2.359-.742,1.43-.26,3.225-.433,4.924-.649,3.267-.416,7.11-.423,9.835-1.1.858-.211,1.331-.691,2.1-.75a23.035,23.035,0,0,1,2.3.288,35.268,35.268,0,0,0,5.434-.631c.584-.072,1.194.126,1.8.064,3.685-.395,7.554-1.052,11.142-1.458,3.549-.4,7.215-.362,10.591-.862a20.859,20.859,0,0,1,4.415-.664c.875.046.214-1.251,1.091-1.2a3.164,3.164,0,0,1,1.236.87c2.5-.7,5.144-.379,8.018-.749.624-.079,1.207-.44,1.831-.551,1.964-.352,4.139-.575,6.219-.809.666-.079,1.4.121,2.054.072,2.281-.175,4.568-1.076,7.009-1.2,4.932-.239,9.21-1.072,13.72-1.57,1.61-.182,2.405-.413,3.372-.5.406-.039,1.123.273,1.53.26,1.812-.054,3.572-.627,5.447-.838,2.662-.3,5.72-.177,8.516-.523.91-.11,1.709-.482,2.6-.526.866-.039,1.722.167,2.567.093.793-.069,1.594-.457,2.344-.536,2.71-.282,5.373-.106,7.783-1.167,3.967,1.131,8.538-1.071,12.635-.582,1.015-.688,1.337-1.581,2.928-1.75,1.734-.184,3.261.7,4.564,1.192,3.153-.84,6.6-.381,9.811-.679,1.732-.164,3.481-.755,5.191-.846,3.95-.211,6.587-.678,9.824-.889,6.549-.423,12.866-1.12,19.379-1.578,1.783-1.035,4.871-.74,6.729-.791,3.147-.093,6.391-1.023,9.593-1.31,2.75-.25,5.559-.015,8.249-.325,1.688-.2,3.24-.679,4.934-.855.49-.051,1.177.132,1.8.064.444-.049.872-.349,1.3-.364.465-.024,1.114.249,1.53.256,2.357.051,4.65-.642,6.99-.781,1.661-.1,3.189-.172,4.385-.256,4.192-.3,7.913-.57,11.609-.617a37.955,37.955,0,0,0,5.182-.641c4.127-.438,8.5-.157,12.645-.787.557-.088,1.055-.477,1.577-.563,2.275-.379,4.48.012,6.706-.379.7-.1.685-.836,1.587-.769,2.226,1.162,4.234-.108,6.452-.391,1.652-.209,3.608-.029,5.411-.219,1.3-.131,2.451-.583,3.641-.7,1.432-.131,3,.073,4.377-.049,1.98-.172,3.782-.765,5.7-.828,4.369-.14,7.219-.888,10.861-1.054,3.793-.179,6.061-.873,9.065-1.125,1.934-.162,4.024.25,5.918.005.532-.067.986-.454,1.573-.561,1.673-.31,3.509-.007,5.159-.229,1.362-.185,2.582-1.2,3.885-.48,1.356-.824,2.872-.536,4.922-.651,3.053-.17,5.512-.9,8.552-1.141,3.687-.285,6.887-.664,9.568-.892a79.369,79.369,0,0,1,9.553-.693c1.682-.971,5.506-.071,6.767-1.411,1.842.572,4.322.273,6.685.034,1.928-.2,3.98-.737,5.96-.816,2.847-.123,4.589-.479,6.723-.588,2.466-.13,3.456-.024,4.678-.865,1.707.607,3.3-.13,4.9-.239,5.1-.335,10.179-.494,15.223-.9.809-.066,1.558-.273,2.334-.329,3.465-.246,5.969-.636,8.794-.924,4.888-.5,9.967-.477,14.258-1.969,8.662.093,16.335-1.221,25.293-1.575.574-.782-.364-1.853,1.633-1.592,1.259.212-.99,1.222.7,1.263,1.547.282.738-1.506,2.132-1.369,6.378.285,9.82-.717,14.758-1.743.91-.01.452.986,1.493.88,1.423-.042,4.133,1.074,6.406.437.753-.3-.477-.983.324-1.229,1.177-.071.629,1.121,1.743,1.092,3.736-.251,7.434-.534,10.867-1.055.86-.18.862-1.113,2.1-.956.91.056.894.794,2.02.691,2.884-.506,6.549-.878,8.807-1.13,1.686-.189,3.553-.005,5.157-.231,1.015-.143,1.884-.607,2.874-.72,1.348-.16,2.8.093,4.121-.062,2.062-.241,4.179-1.032,6.238-1.221,2.09-.194,4.245.074,6.183-.192.576-.079,1.015-.433,1.573-.563,2.611-.6,5.363.13,7.772-.961a2.6,2.6,0,0,1,1.526.26c1.636-.841,4.062-.58,5.443-.629,2.731-.1,5.367-1.131,8.046-1.364.9-.081,1.835.172,2.826.1a110.04,110.04,0,0,0,11.14-1.46,12.747,12.747,0,0,0,3.606-.079c2.954-.223,5.617-.273,8.262-.531,3.294-.319,6.683-1.349,9.341-1.523,1.991-.131,3.894.239,5.662-.005.465-.064.971-.44,1.577-.565.465-.094,1.16-.039,1.549-.15a9.39,9.39,0,0,1,2.1-.749c1.232-.108,2.693.494,3.841.344a3.914,3.914,0,0,0,2.392-1.361c.721.061.265.99,1.236.872,2.17-.966,5.088-.116,7.734-.346,1.076-.093,2.212-.573,3.385-.7,3.154-.356,7.383-.462,10.07-.674.868.046.45-1.042,1.339-.983.7.207.887.8,1.751.889,4.518-.937,10.718-.395,14.76-1.747,6.463.339,12.637-1.438,19.621-1.362a19.742,19.742,0,0,1,2.359-.74c2.678.425,6.24-.395,9.809-.683,3.242-.26,6.814.344,7.789-1.371.685.288.864.944,2.012.894a24.154,24.154,0,0,1,6.708-.378c1.329.019,2.67-.374,4.142-.472.917-.061,1.884.143,2.828.1,4.362-.19,9.154-1.013,13.182-1.184.887-.034,1.758.2,2.567.093.86-.115,1.728-.683,2.611-.735,1.053-.054,2.68.592,3.839.347.767.022.9-.5,1.577-.563,2.55.76,5.313-.209,7.993-.336,1.179-.054,2.447.162,3.593.128,1.707-.052,3.257-.509,4.924-.647,2.266-.192,4.482.128,6.685.029,2-.086,4.07-.663,5.96-.816,1.074-.093,2.172.457,3.105-.3-.275-.894.076-1.018.114-2.055-1.915-.634-4.4-.008-5.941.406M788.553,243.763c.872-.022,2.071.236,2.577-.113-.044-1.234-1.966-.121-2.577.113m-84.093,8.973c-.328-.025-.343-.277-.761-.234-.427.489.839.636.761.234m-12.137.8q-.64-.02-1.28-.044c-.5.969,1.594.809,1.28.044m-55.314,4.839c.492-.071,1.533.337,1.31-.366-.637-.052-1.247-.081-1.31.366m-16.823,1.875c-.828-.652-.82.733,0,0M333.681,287.385c.5-.071,1.112-.039,1.062-.583-.343-.012-.683-.024-1.028-.037-.01.207-.021.413-.034.62m-299.773-2.64c.841,1.791,4.518.4,5.426-.423a15.89,15.89,0,0,0-5.426.423m814.035-263.3c-.65.73-.862,1.836-2.418,1.77-1.181.013-1.1-.905-2-1.1-1.678.572-3.179-.035-4.663.659a3.071,3.071,0,0,0-1.777-.475c-1.8.341-3.2,1.007-5.422.425-.982.007-1.024.83-2.1.752a8.381,8.381,0,0,0-4.367-.157c-.9-.324-1.312-1.01-2.237-1.318-.383,1.2-1.394.02-2.315-.083-.828.067-.763.91-1.6.976a13.048,13.048,0,0,1-3.269-1.354c-.177.42.242,1.362-.334,1.431a14.43,14.43,0,0,0-4.623-.165,1.777,1.777,0,0,1-1.665,2.21,6.075,6.075,0,0,0-3.849-.137,7.616,7.616,0,0,0-6.118-1.044c-1.076-.064-1.186-.841-2.266-.907-3.517.524-6.181.049-8.737-.1.008.851,1.917.309,1.461,1.5-1.19.494-1.734-.356-2.8-.511a22.319,22.319,0,0,0-5.928.2c-1.16.15-2.941-.206-3.383.7.654.688,2.474-.543,2.8.513-1.432.216-1.114,1.738-1.669,2.209-1.144.052-.263-1.386-1.467-1.288a22.1,22.1,0,0,1-3.864.067c-.5-.794-2.874-2.693-3.547-.953-.065.772,1.812.118,1.749.887a11.1,11.1,0,0,1-3.662,1.109c-2.8-1.445-7.135.774-9.952-1.388-1.7.674-5.184-.339-5.956.614.147.553,1.417.283,1.23,1.076a18.932,18.932,0,0,0-4.877-.174c-1.028.18-1.934,1.017-2.891,1.135a7.445,7.445,0,0,1-5.075-1.212,9.888,9.888,0,0,1-3.118.507c-.595.533.768,2.126-.16,2.883-.717-.991-1.64-1.826-2.418-2.767-2.2.386-4.24-1.956-4.9.236-.631.226,1.188.293.978.86a12.7,12.7,0,0,1-6.216.811c-1.24-.187-2.147-1.15-3.534-1.158-.767,0-1.07.531-2.081.339-.057.649.618,1.251-.578,1.217-.851-.034-.2-1.173-.692-1.469a25.31,25.31,0,0,0-3.107.3c-.019.41-.04.823-.065,1.236a32.628,32.628,0,0,1-6.753,1.2c-.221-.631-.456-1.244-.671-1.88-1.938.5-2.47,0-4.619-.165-1.135.528-.544,1.738-.639,2.247a13.8,13.8,0,0,1-4.877-.174c-1.772,1.037-4.8.971-7.522,1.175-1.066-.931-3.029-1.2-4.535-1.809-.578.639-2.075.481-2.386,1.357-1.327-.317-3.229.587-5.17.435-.441.26-.252,1.072-1.085.993-2.05.056-2.231-1.264-3.233-1.973-1.066-.069-1.606.322-1.61,1.179.217.57,2.138-.118,2.02.693a18.728,18.728,0,0,1-3.675,1.312c-1.646-1.544-4.326.887-5.333-1.221a6,6,0,0,0,1.573-.563c-.315-1.359.618-1.62.908-2.443a7.306,7.306,0,0,0-4.375.051c-.483.669.078.919-.105,1.851-.58.282-1.718.079-2.083.545-.052.841.364,2-1.411,2.22-1.1-.18-.936-1.291-2.243-1.318-1.158-.152-1.56.359-2.344.538-.532-.14-.7-.536-1.516-.469-2.2.811-4.648-.015-6.952.164-2.178.17-4.207,1.148-6.221.811-2.167-2.7-4.2,1.489-7.737.344-.843.486-1.148,1.442-1.911,2a12.376,12.376,0,0,0-7.791,1.371c-.572-.438-1.337-.733-1.461-1.5.45-1.259,2.523-1.1,2.468-2.8-.767-.754-3.2-.282-4.331-.774-.793.022-.49,1.012-1.583.769-1.078-.2-2.1-.433-2.508-1.119.551-1.205-.706-2.107-.378-2.489.816-.072.885.4,1.783.27A.991.991,0,0,1,617,29.927c5.046,2.252,10.531-.72,16.43.585.807-1.239,3.082-1.229,4.152-.679.2,1.042-1.192.686-1.364,1.4,1.877,1.625,4.2.226,5.952-.614.309-.518-.727-1.008.069-1.234a48.257,48.257,0,0,1,8.037-1.158,11.193,11.193,0,0,1,1.238.87c3.629-.5,7.823-1.937,11.878-.814a8.911,8.911,0,0,1,5.7-.828c2.092-1.332,6.671-.484,8.594-1.963.767.361.795,1.261,1.989,1.307a27.133,27.133,0,0,1,6.486-1c.914-.133.725-1.234,1.865-1.172.128.629.336,1.2,1.215,1.281a5.4,5.4,0,0,1,3.607-.078,36.178,36.178,0,0,1,14.72-1.126c1.093-1.106,2.884-.293,4.421-.873-.113.84-1.1,1.047-.616,1.833,2.855.13,2.142-2.873,5.527-2.278.719-1.091,2.325-1.806.946-3.06-1.549.273-3.141,1.057-4.957,1.268-1.718.2-3.715-.007-5.43.425-1.238.314-2.018,1.013-3.143,1.125-1.667.167-3.025-.408-4.345-.566a17.9,17.9,0,0,1-6.206.605c-1.413.921-4.127.7-5.983,1.231-.286-.317-.172-.927-.98-.862a26.669,26.669,0,0,1-8.231-.086c-1.055.081-1.083,1.062-2.365.946-4.289-.814-7.816.73-10.9,1.674a6.706,6.706,0,0,0-4.055-.968c-.862.069-1.457.585-2.361.74-1.747.3-3.845-.072-5.178.641-2.046-1.244-4.322.6-7.19-.256-.45.11-.032.976-.568,1.012a30.522,30.522,0,0,0-4.1-.352c-.795.059-1.512.561-2.346.536a16.484,16.484,0,0,1-1.776-.475c-3.105-.59-4.009.887-6,1.64a4.3,4.3,0,0,0-3.069-.317c-.82-.319-.612-1.393-1.985-1.307a25.776,25.776,0,0,1-10.654,1.89c-.6.118-.723.659-1.327.779-.666-.3-.717-1.057-1.739-1.094-1.516.833-3.849.443-5.659,0-1.163.133-1.474,1.013-2.634,1.145a22.234,22.234,0,0,0-10.341.87c-.816-.322-.61-1.394-1.987-1.308-1-.015-.511,1.276-1.36,1.394-1.695.258-3.294-.277-4.877-.174-1.718.111-3.023.824-4.409.668-1.186-.133-1.924-.976-3.036-.934-1.339.052-2.359,1.067-3.183,1.745a7.457,7.457,0,0,0-2.266-.907c-1.909.484-5.012-.076-6.229,1.017-3.387-2.261-5.207,2.059-10.091,1.084-1.724-1.883-4.652.174-6.372-1.052a13.735,13.735,0,0,1-6.565,2.448c-1.68-.32-2.155-.968-3.6-.128a1.816,1.816,0,0,0-1.495-.878c-1.947.334-3.593.091-5.437.631-.961.282-1.566.961-2.636,1.145-2.226.379-4.575-.174-6.944-.04-1.7.1-3.587,1.283-5.424.425-.5.066-.246.791-1.062.582-1.146-.872-4.411-.187-5.6-1.025-.944.3-2.189,1.32-3.158,1.332-4.112.046-9.254,1.63-12.66.991-1.238.786-3.835.383-5.451.838-1.032.167-.736-.642-1.772-.477-.988,1.219-3.807.835-4.743,2.1a24.249,24.249,0,0,0-3.12.506c-.132-.361-1.219-.027-1.257-.457-1.583.988-3.528.12-5.67.211-2.662.115-6.267,1.528-8.294,1.15-.727.155-.669,1-1.6.975-.172-.73-1.018-.966-2-1.1-2.559.991-6,1.207-9.589,1.307a6.568,6.568,0,0,1-4.15.678c-.793.315-1.022,1.123-1.88,1.379-.719-.064-.267-.991-1.236-.872-.929.194-.917,1.214-2.121,1.163-1-.325-2-.642-3.038-.932a20.816,20.816,0,0,1-3.38.7,30.518,30.518,0,0,1-3.631.491c-.368,0-.856-.3-1.27-.251-1.417.17-2.756.959-4.175,1.091-.593.052-1.463-.307-2.043-.28-.809.032-1.684.472-2.6.524-3.658.214-6.122.986-9.545.487-2.006,1.12-5.107,1.278-8.306,1.352-1.606,1.917-4.261,1.109-7.011,1.2-.362.012-.458.322-.793.383-.475.091-1.165-.135-1.539-.052-.507.108-.961.6-1.587.767-1.625.432-3.025-.143-4.631.042-1.512.174-2.63,1.239-3.929,1.3-1.69-.819-3.969-.191-6.162-.219-.542.3-.641,1.7-1.6.975-.8-.4,1.718-1.266-.174-1.452a7.841,7.841,0,0,1-2.7,2.381c-2-1.779-5.167-.111-8.218-.293-.416.282-.259,1.067-1.083.995-3.107-1.458-5,1-8.5.108-1.577.991-4.781.556-6.509,1.418-.9.135-.969-.341-1.785-.268-.551.164-.492.86-1.329.777-1.15.121-1.526-.33-2.556-.3-7.642,1-15.677,1.657-23.052,2.891-.948-.226-1.291-.9-2.79-.717-.515.123,0,1.15-.584,1.216a52.305,52.305,0,0,0-9.32,1.113c-.849.187-1.577-.18-2.308-.079-.425.052-.864.482-1.318.568-.7.133-1.211.025-1.808.143-1.711-.853-4.245-.774-6.652-.649-.729.942-1.858,1.536-2.46,2.593-.851-.1-1.108-.639-2.289-.494-1.663.04-2.783.727-4.409.668-1.116-.042-2.3-.728-3.559-.747-2.38-.03-4.493,1.639-7.318,2.01-1.261.167-3.027-.1-4.373.051-1.7.189-2.588.8-3.862.069a5.964,5.964,0,0,1-5.68.416c-1.844,1.386-3.936,1.028-6.5,1.212-2.409.17-5.071.86-8,.54-1.072-.118-2.075-.7-3.313-.531-.322.44-.126,1.33-.854,1.415a17.039,17.039,0,0,0-5.447.836c-2.933-.339-6.732.43-9.566.9-2.483-1.472-5.79-.872-7,.988-2.14-.776-4.306.32-6.465.6-3.1.391-6.351.206-8.817,1.334-1.083-.777-3.927-.26-5.874-.826-2.3,1.7-6.324.593-9.589,1.307-.494.433-.328,1.442-1.121,1.613-1.821.669-3.191.03-4.6-.578-1.314.395-2.7.133-4.144.472-.948.223-1.587.872-2.624.937-.883.056-2.292-.489-3.568-.54-.347-.012-.988.207-1.3.16-.563-.086-.894-.443-1.52-.467-3.605-.137-6.7.963-10.345,1.076-1.245,2.18-4.165,2.959-7.337,2.419-.208-.814.635-1.175.093-1.646-6.515.1-12.765,1.524-18.366,1.819a14.665,14.665,0,0,0-2.308-.083c-1.324.3-2.212,1.607-3.454,1.941-1.259.341-2.479-.024-3.616.283-1.3,1.954-5.744,1.153-9.322,1.113-.872.2-1.587.99-2.634,1.143-1.694.251-3.612-.435-5.4.015-1.669.416-2.857,1.812-4.978,1.679-1.329-.738-3.446-.9-5.336-1.222-.431.342-.2,1.271-.849,1.415-3.633-1.517-5.792,1.467-9.547.486-1.772,1.307-4.131,1.775-7.522,1.175-3.2,2.308-9.349,2.023-15.038,2.146-.706.244-.973.875-1.608,1.182-1.362-.187-2.569.7-3.908.889-2.895.413-6.074-.359-9.008.094-.721.11-1.247.617-1.844.759-.429.1-.992-.142-1.539-.054-1.121.177-2.321,1-3.9.685a4.19,4.19,0,0,1-3.9.686c-3.479,1.125-8.809.626-12.191,1.834-.332.9.376,1.042.423,1.667-1.568.713-4,.669-5.483,1.453-1.024.029-1.263-.523-2.289-.494-.961,1.534-3.948,1.288-5.771,2.064-.3.813.732.649.433,1.458-.637.379-1.829.268-2.111.956,1.409.472.13,1.081.143,2.069,1.167,2.418,6.126-.2,7.6,2.128-.906.5-2.382.5-3.4.912-2.258,1.759-1.646,5.073-3.715,6.673.05.978-.534,1.4-.393,2.463-.805,1.162-2.767,1.313-3.73,2.342,2-.231,2.882.035,3.269,1.352-2.243,1.13-6.034.9-6.624,3.48a11.84,11.84,0,0,0-1.821.344c1.753,2.65,4.732.059,7.234-.565a31.409,31.409,0,0,1,3.362-.292c.5.563,1.457,1.593,1.169,2.1-2.157,1.777-5.55,2.473-7.7,4.266.7.211.7.931.948,1.475.9.327,2.554.1,2.241,1.317-.952,1.359-3.769,1.007-5.493,1.662-.536.2-.643.814-1.329.777a6,6,0,0,0-2.613.732c-.637.878-.082,1.839-.16,2.885-.969.516-2.458.578-2.916,1.544,2.1,1.561,5.014-1.162,7.247-.772a2.984,2.984,0,0,1,2.407,2.971,6.1,6.1,0,0,1-3.08-.11,10.429,10.429,0,0,0-2.693,2.175c1.949,2.384,5.493-.379,8.214.293a1.821,1.821,0,0,1-.86,1.619C6.856,145.76,2.811,146.959,0,149.25a4.482,4.482,0,0,0,2.161,2.757c4.573.371,6.591-2.276,10.4-1.9,2.72-2.436,8.994-1.758,12.292-3.687.687.024,1.369.047,2.056.073,1.909-.511,5.407-1.608,7-.99-1.886,1.659-4.409,2.76-8.378,2.59-1.688,1.541-5.716,1.034-7.591,2.413-2.355-.049-3.488.971-5.47,1.248.042.722-.141.764-.372,2.052-.673.427-2.359.843-1.89,1.583.952.158,2.733-.293,2.533.708.25.732-1.5,1.356-2.165,1.986-.7,1.758-2.519,2.541-3.566,4-.582-.081-.969.015-1.049.373,3.011-.29,6.845-.87,9.5.341.561.312.444,1.121,1.215,1.281,1.57.3,1.869-.523,3.359-.293.212.371.589.622.715,1.057a2,2,0,0,0-.942,3.06,10.487,10.487,0,0,1-2.437,2.182c.938,1.833,5.357,1.571,6.921.455.559.575,2.447.175,2.779.924.807,2.022-2.54,2.794-1.465,3.246,1.318.074,2.3.637,3.559.747,3.975.349,6.921-.809,9.845-1.3,1.48-.25,2.941-.046,4.131-.268,1.867-.347,3.261-.894,4.945-1.062a17.293,17.293,0,0,1,2.836-.1,11.029,11.029,0,0,1,1.844-.757c7.875-.293,13.411-2.639,21.256-2.957,1.989-.845,4.97-.824,7.768-.961.62-.755,3.055-1.061,4.4-.464-.05.529-1.11.18-.826,1.007,2.365.27,4.886-.464,6.931.246-1.051.946-2.441.418-3.906.892-1.259.4-1.982,1.463-3.185,1.743-1.436.33-3.011-.11-4.388.255a17.158,17.158,0,0,0-1.854.964c-2.121.824-4.221,1.089-6.273,1.841-.8,1.775-1.85,3.249-1.068,5.324,3.721.754,8.449-2.072,11.565.2,0,.641-.673,1.145-.092,1.649-1.837.056-1.478,1.615-2.178,2.192-2.474-.41-5.319.017-8.249.324.05,1.484-.872,2.118-1.947,2.615.174,1.229-.61,2.037-.158,2.88,1.842.491,3.254,1.3,5.043,1.833-.772.617-2.643.275-3.641.693.53,2.553-2.294,2.163-2.294,4.249.259.8,1.982.519,2.243,1.322-1.167.415-1.5,1.565-2.191,2.4,1.562,1.78.862,4.159,1.978,6.053-.877.309-2.268.17-2.132,1.367a9.581,9.581,0,0,1,4.8,1.615c-1.028.605-.675,2.43-1.465,3.246,2.331,1.29,2.582,5.087-1.078,5.532-.219,1.219-.017,2.676-.73,3.895.614,1,2.529,1.042,2.43,2.563-.465,1.032-3,.246-3.66,1.108.2,2.087,3.587,1.843,4.972,3.068,1.4-.435,4.285-1.372,5.683-.42-.62,1.329-3.05,1.066-4.711,1.482-.24,1.662-2.727,1.352-3.732,2.344.608,1.167.217,1.834.332,3.311-1.139,1.02-4.457.121-4.982,1.681.433.868,1.964.931,2.746,1.539a15.232,15.232,0,0,0-1.421,2.424,30.257,30.257,0,0,0,2.174,2.553c-1.621.74-4.663.231-5.739,1.447-1.554-.695-4.526.47-6.229,1.017-1.808-.245-4.47.123-4.734,1.893a.311.311,0,0,1,.235.421c3.732.572,6.8-1.2,10.615-1.273.212.373.927.374.982.863-.595.843-.172,2.581-1.444,2.834-2.556-.224-3.549.919-4.734,1.893-1.2.172-2.937-.126-3.383.7.145,1.75,2.611.86,3.233,1.974-.5,1.632-2.75,2.639-4.791,2.922-.759.106-1.5-.125-2.31-.083-3.65.2-6.982,2.18-10.16,2.32.8,1.646-.828,1.807.332,3.313-3.494.894-7.568,1.281-10.686,2.505-.469-.253-2.132-.11-2.1.752,6.351.524,11-2.295,17.369-2.475.683,1.145,2.195,1.683,2.935,2.784a17.227,17.227,0,0,1-6.545,2.038c-.851.691-1.406,1.644-2.437,2.18-1.127.152-2.878-.189-4.121.061-1.018.207-2.7.975-1.873,1.377a6.376,6.376,0,0,1,3.347-.083c1.827-.56,3.145-1.566,5.985-1.234a6.415,6.415,0,0,1,4.688-1.071c1.322-.607,5.769-1.966,6.7-.174-.66.572-2.081.477-3.372.5-2.38,1.013-5.445,1.415-8.34,1.971a12.69,12.69,0,0,1-8.645,2.787c-1.385,1.089-3.679,1.381-5.514,2.074.034,1.755-2.046,1.662-2.237,3.22,6.748-.224,12.351-2.229,18.444-3.264,1.72-.288,3.624-.125,5.424-.42,1.915-.32,3.936-1.662,6.244-1.226a9.472,9.472,0,0,1,5.2-1.054c1.209-.964,2.868-.462,4.409-.668,1.728-.226,3.368-.978,5.214-1.258.469-.071,1.018.118,1.541.057,2.1-.244,4.27-.86,6.484-1.007,1.392-.091,3.317-.256,4.61.366-4.068,2.411-9.933,1.907-15.338,2.964-2.533.494-5.083,1.549-7.56,1.794-.759.071-1.371-.18-2.054-.073-2.5.391-4.671,1.587-7.057,2.016-1.47.263-3.109,0-4.385.258-1.228.25-1.854.958-3.139.919-1.259,1.846-5.14,1.393-5.863,3.709,2.338.8,3.631-.915,5.96-.819a2.326,2.326,0,0,1,1.2,1.487c-.929,1.347-3.626,1.136-5.493,1.662-.742.5-.984,1.44-1.655,2-2.9.985-7.133.8-8.163,3.423,1.678.516,2.821-.619,4.631-.04.849-.047.58-1.077,1.6-.974,3.141-.121,5.031-1.5,8.035-1.158.8.99,2.26,1.5,3.481,2.185,1.369.216,2.128-.342,3.08.111.406.491,0,1.583.669,1.882,1.43.546,3.875-.2,5.1.8-1.032,1.039-2.241,1.919-3.252,2.977-2.3.357-5.029.341-6.019,1.85,5.882,2.188,10.339-.7,15.984-.669,1.415-1.146,4.8-.931,7.236-.57a14.529,14.529,0,0,1,7.278-1.391c.412.425,1.268.521.946,1.48-1.785.98-4.493-.324-6.484,1.007-.843.533.761.907-.082,1.44a24.623,24.623,0,0,1-9.032.5c-.24.939-1.1,1.34-1.652,2,3.376-.7,6.343.519,9.5.339.957-.057,2.17-.374,3.372-.5a41.163,41.163,0,0,0,7-.986c.765-.244,1.018-.683,1.844-.762,1.255-.12,2.54.437,3.839.342a26.618,26.618,0,0,0,5.214-1.254c3.141,1.145,6.011-.037,9.019-.3,3.439-.3,6.986-.28,9.589-1.31,1.1.629,2.073-.26,3.1-.3,1.089-.044,2.2.374,3.328.324,1.207-.049,2.4-.71,3.65-.9,1.406-.216,3.067-.4,4.4-.46,2.779-.128,4.116-.371,6.2-.605,1.413-.157,2.836-.044,4.129-.265.469-.078.862-.472,1.32-.57a50.431,50.431,0,0,1,9.042-.711c5.121-1.556,12.393-1.222,17.149-3.1a5.254,5.254,0,0,0,1.785.271c1.814-.914,4.06-.438,6.219-.814.94-.158,1.892-.754,2.88-.927.511-.086,1.276.111,1.8.064,1.337-.116,2.617-.722,3.906-.894,5.107-.659,10.631.022,15.015-1.733a26.166,26.166,0,0,0,8.542-.934c2.91.936,5.569-1.028,8.5-.108a5.51,5.51,0,0,1,3.883-.482c1.4-1.168,3.87-.438,6.206-.6,1.1-.079,2.214-.577,3.385-.706,3.067-.344,6.294-.3,9.3-.7,1.434-1.1,4.764-1.506,7.257-.976.963-.1,1.1-.912,2.111-.958l3.08.106c1.583-1.63,4.285-.244,6.452-.386,1.537-.1,1.921-.7,3.147-1.125,2.741.256,4.909-1.362,7.549-1.59,2.84-.244,6.124,1.18,8.514-.521a11.572,11.572,0,0,0,4.11.145c1.661-.059,2.048-.406,3.37-.5,2.916-.2,4.4-1.7,7.48-.352,2.338-.668,5.241-1.56,8.283-.941,1.133-1.163,3.618-.346,5.693-.624,1.427-.189,1.751-.966,2.893-1.135,6.523.71,11.3-2.027,16.766-.845,3.074-.568,6.912-1.3,10.337-.87.828-.067.95-.755,1.844-.762,3.933-.292,7.985-.484,11.632-1.03.53.14.7.538,1.518.469,2.039-.927,3.885-.282,6.2-.4,1.015-.052,2.172-.555,3.383-.7,1.93-.239,3.294-.359,4.655-.455.772-.054,1.577.133,2.313.083,1.419-.093,3.784-.75,4.676-.862,2.159-.288,4.127.1,5.916,0,1.1-.059,2.195-.62,3.38-.7,2.05-.14,4.64.309,6.7-.175.807-.189,1.217-.83,2.113-.958a7.053,7.053,0,0,0,1.247.668c2.361-1.246,7.272-.25,9.849-1.3.6.015.734.381,1.531.261,1.354-1.187,4.808-.536,6.753-1.2,3.969,1.413,7.364-.86,11.573,0,.681-.271,1.139-.73,1.854-.966,2.533.214,4.215-1.008,6.7-.175,4.4-2.008,10.873-.936,17.058-1.455.948-.175,1.234-.927,2.121-1.162,1.814-.4,2.973.475,4.6.575,3.084.2,5.863-1.566,9.345-1.522,1.186.015,2.13.5,3.587.334,2.134-2.074,5.834-1.032,8.819-1.337,1.394-.14,2.807-.685,4.419-.872,1.667-.192,3.559-.172,5.168-.437,3.875-.641,10.24-.524,13.465-1.58,2.657.282,5.363-.455,8.27-.74,4.594-.452,9.57-.922,13.966-1.357a13.148,13.148,0,0,1,4.364.155c.45-.9,2.434-.457,3.887-.48,1.8-1.268,4.1-.575,6.214-.806.616-.071,1.23-.443,1.831-.558,3.088-.59,6.761-.722,10.1-1.082,1.463-.162,2.941-.288,4.394-.465a43.873,43.873,0,0,1,6.723-.583c2.9.133,4.831-.7,7.512-.969,4.268-.428,8.619-.541,12.914-.986.795-.083,1.469-.435,2.35-.534,1.882-.216,4.076.078,5.922-.2.723-.11,1.335-.477,2.09-.545,4.15-.363,8.435-.258,12.391-.8,1.152-.158,2.231-.615,3.381-.706,1.8-.143,3.3-.175,4.387-.251,3.435-.246,7.148.069,10.3-.255.795-.079,1.463-.592,2.359-.74,1.076-.18,2.283.066,3.349-.088.776-.111,1.36-.474,2.086-.546,3.315-.33,6.4-.273,9.568-.9.875.086,1.2.563,2.287.5a4.883,4.883,0,0,1,1.854-.968c17.1-1.919,35.388-2.8,53.214-4.085.608-.044.517-.7,1.32-.573,2.121.529,3.795-.516,5.939-.408a13.692,13.692,0,0,0,2.832-.106c1.9-.211,4.181-.138,6.2-.4,2.367-.305,4.707-.848,7-.988a13.849,13.849,0,0,0,4.663-.661c.622-.061.538.4,1.272.251,1.44-.713,3.109-.5,4.926-.649,3.448-.277,7.125-1.155,10.625-1.479,2.708-.248,5.712-.646,7.734-.341a15.831,15.831,0,0,0,1.774.475c1.995.029,4.011-1.259,5.941-.406,1.339-.939,2.487-.344,4.131-.265,3.841.18,5.9-1.347,8.573-1.553.994-.076,1.823.351,2.811.3,2.132-.086,3.246-1.16,4.993-1.883,2.088.145,2.731-.508,4.152-.674a78.191,78.191,0,0,1,8.51-.319,51.6,51.6,0,0,0,5.165-.435c.345-.027.973.258,1.274.251,2.521-.032,4.9-.782,7.5-.762a54.749,54.749,0,0,0,5.9.211c3.683-1.619,8.72-1.576,13.474-1.791.446-.113.458-.609.82-.8,3.572,1.769,7.507-1.187,11.817.214.988-.636,2.189-.393,3.629-.489,1.644-.11,3.549-.848,4.932-.855.486,0,.8.287,1.274.249.313-.024.759-.346,1.049-.373,2.184-.211,4.427-.26,6.721-.585,3.444-2.822,9.254-1.052,15-1.531,2.611-1.666,6.261-1.425,10.125-1.7,6-.43,14.2-2.121,19.882-1.356,1.661-1.43,4.629-.577,7.516-.971,4.03-.553,9.774-.936,13.648-.339,1.644-1.509,5.966-.671,9.3-.7,1.24-.786,2.786-.5,4.665-.659,1.913-.167,4.19-.747,5.706-.83,1.564-.084,3.456.255,5.136.184,3.62-.157,7.35-.448,11.092-.639,4.484-.228,9.023-1,13.444-1.168,1.331-.054,2.565.228,3.849.137.744-.052,1.5-.455,2.344-.536,2.144-.207,5.165-.28,6.454-.388,1.507-.13,3.612.094,4.632-.039.7-.1,1.15-.5,1.833-.556.841-.067,1.629.111,2.565.089,2.763-.061,6.126-.976,8.025-.951a12.65,12.65,0,0,0,2.041.282c1.541-.285,2.178-1.479,3.233-2.569a2.346,2.346,0,0,1-.534-4.352c1.793-.3,4.207-.054,5.693-.62-.063-.678-.7-.936-.946-1.477-3.252.2-6.423-.892-9.463-.956-.639-.015-1.15.3-1.818.347a41.55,41.55,0,0,1-5.4.013c2.579-3,10.091-.661,11.067-4.763-.568-1.507-3.183-1.2-2.935-2.787.269-1.728,4.541-1.5,6.563-2.448,1.232.551,3.75,1.666,4.379-.047-1.61-1.9-5.35-.074-7.922-.905a10.483,10.483,0,0,1-2.613.733c-1.482-.293-1.985-1.45-3.5-1.777a21.762,21.762,0,0,0-2.836.108c-3.143,0-5.315.386-7.722.137-2.2-.229-5.054.418-6.643-.856.3-.024.3-.315.292-.605.589-.438,1.036.238,2.054.072,2.014-1.207,4.8-.438,7.232-.568,2.165-.115,4.3-.661,6.477-.8,1.2-.079,2.752.509,3.629-.491-1.833-.511-3.706-.61-5.849-1.239-.5-.42-.469-1.234-1.472-1.29-1.167-.27-2.2.395-3.372.5-2.306.207-4.816-.3-7.2-.051-.751.076-1.448.445-2.088.543a50.981,50.981,0,0,1-8.235.118c-1.016.189-1.427.91-2.626.939a5.075,5.075,0,0,1-2.264-.905c-4.278.443-8.218.091-12.393.8-.513-.413-1.322-.61-1.2-1.489.767-.733,1.188.042,2.31.083.732-.6,1.957-.5,3.116-.508,3.795,0,8.777.005,12.145-1.012,3.137.531,7.463-.062,9.786-.268.587-.052,1.259.14,1.8.066.658-.1,1.39-.5,2.088-.546,2.06-.155,4.175.271,6.172.014.9-.118,1.737-.685,2.613-.733,1.217-.066,2.588.346,3.841.342,3.237-.007,6.24-.76,9.32-1.109.034-1.34-1.654-1.418-2.184-2.347.191-.555,1.1-.477,1.093-1.2-.893-.332-2.289-.29-2.241-1.318-.055-1.271,1.724-.936,1.667-2.207-.469-.644-1.77-.676-2.775-.924-.938-1.787-1.787-1.725-4.289-1.6-3.174.164-6.427.207-9.006.093-3.445-.157-6.881,1.337-9.265.079.246-2.561,3.919-1.074,6.511-1.416.805-.1,1.352-.609,2.1-.75,2.163-.408,4.253-.2,5.962-.816,1.356,1.022,3.721.277,5.647.2,1.8-.071,3.776.494,4.411-.668-1.589-1.138-3.7-.942-5.359-.809-3.008.239-3.618-1.02-5.577-1.436-.782-.169-1.947.388-2.556-.3A2.209,2.209,0,0,1,982.5,169.4c-2.584-.248-2.754-4.083-.482-5.173,1.56-.115,2.872.4,3.847.137.5-.779-.818-1.713-1.415-2.322a45.222,45.222,0,0,0-9.061,1.123c-.725-.062-.267-.993-1.242-.872-1.531.029-2.926-.212-4.36-.157-2.233.089-4.409.853-6.49,1.007-1.625.123-3.273-.48-4.865-.376-.755.047-1.537.534-2.344.533-.847.005-1.6-.41-2.542-.5-2-.2-4.82.738-6.4-.639.021-.77-.256-.6.069-1.234,1.4.108,2.687-.772,4.167-.885.7-.052,1.627.285,2.3.288,1.8.01,3.727-.511,5.691-.62,2.354-.137,4.842-.216,7.228-.364,2.279-.137,4.591-.3,6.706-.376,1.083-.04,2.308.228,3.334.116.679-.074,1.413-.5,2.092-.546.408-.027.839.255,1.27.253a78.45,78.45,0,0,0,8.79-.718c.963.855,3.444.824,4.125-.265-.746-2.011-3.444-.782-5.868-.829-1.583-1.75-6.767-1.153-8.985-.32-1.423-.862-3.278-1.411-4.495-2.426-2.676.529-4-1.366-5.823-1.654-1.346-.211-3.034.718-4.356-.361.033-.55.063-1.1.09-1.647.637-.882,3.246-.034,3.91-.892-1.4-1.221-3.7-.521-5.344-1.017-1.808-.546-2.872-2.367-5.022-2.241-.292,1.089,1.915,1.113,1.182,1.9a2.616,2.616,0,0,1-3.036-.934c-.513-1.581,1.461-2.868,1.268-4.289-.16-1.167-1.827-1.622-2.42-2.763-1.812.275-1.972-.663-3.034-.936-1.579.1-2.39-.354-3.841-.344-2.287,1.066-5.668.467-8.5.113-1.1.187-1.39,1.082-2.878.927-.774-1.079-1.985-1.839-2.4-3.18.4-.293,1.463-.007,1.329-.779-3.383.711-7.352-.3-10.829.442-1.062-.472-1.589-.83-2.813-.305-.124-2.013-1.69-2.976-2.586-4.424-1.617-.2-3.172-.438-4.045-1.18.645-1.162,2.43-1.1,2.689-2.172.214-.873-.652-2.057-1.646-2.741-.589-.4-1.7-.477-2.266-.905-.715-.541-.633-1.445-1.448-1.7-4.032,1.329-9.332.9-13.442,1.17-1.066-1.06-3.267-1.286-3.164-3.205-2.689-.226-4.9.361-7.467.145-3.08-.253-6.124-1.431-9.223-.74-1.364.307-2.249,1.671-3.961,1.922-1.753.256-2.622-.342-4.366-.155-1.24-1.131-1.966-2.642-5.008-2.448.162-.644-.425-.742-.179-1.453-1.625.531-3.229-.251-4.652.455.168.336,1.257,0,.992.658-1.518.276-3.353-.8-5.357-.813-.786,1.113-4.354-.218-4.7,1.276a18.872,18.872,0,0,0,3.092-.1c-1.16,1.438.7,1.85.868,2.918-2.094,1.678-6.021-1.372-4.194-3.242-2.4-1.792-4.1-.02-5.941.408-2.661.615-5.7.293-8.773.514-2.106.147-4.118.573-6.208.6-1.264.019-2.645-.233-3.849-.138-2.342.182-4.5,1.113-6.736.792-.967.185-.7-.54-1.512-.467a17.3,17.3,0,0,1-9.065,1.121c-.706.246-1.394.5-2.1.75-6.736.013-11.458.7-18.061,1.007-.818-.125-.86-.816-1.751-.889-.915-.25-3,.362-3.057-.519,1.1-.185,2.338-.875,3.139-.919,1.507-.088,3.3.641,4.856.582,1.394-.056,3.053-.784,4.932-.855.875-.032,1.749.2,2.567.091.543-.069.862-.45,1.318-.573,2.905-.769,6.467.256,9.532-.277.648-.111,1.213-.511,1.833-.553,1.032-.073,1.928.342,3.067.317.822-.02,1.816-.445,2.6-.528,1.934-.207,3.935-.573,5.439-.632,2.159-.086,3.982.708,5.191-.846.551.256.816.718,1.493.877a44.411,44.411,0,0,1,6.725-.583c1.35.019,2.59-.619,3.893-.686.772-.042,1.505.327,2.3.288,1.018-.054,2.054-.654,3.124-.717,3.877-.218,8.451.946,11.388-1.243a6.414,6.414,0,0,0,3.057.523c.767.024.9-.506,1.577-.563,6.275,1.163,13.533.056,19.305-.346,3.82-.261,7.928.118,11.588-.2,1.066-.1,2.092-.625,3.126-.715,2.788-.243,5.59.155,8.029-.949,1.419.975,3.137.56,4.865.378,2-.207,4.9.177,5.46-1.042a4.868,4.868,0,0,0-4.339-.57c-1.892-1.179-4.966.194-6.677-.238-.442-1.583-1.863-2.45-4.762-2.231-.744-.312-.9-1.05-1.73-1.3-3.095.076-9.742,1.8-10.48-1.2a7.724,7.724,0,0,1,2.918-1.544c-.013-.587-.427-.875-.435-1.46-.984-.427-1.545.31-2.847.312-2.546,0-4.814-1-6.193.4-1.77-.9-4.972.126-6.9-.867-1.816,1.694-4.676,1.19-7.56,1.792-2.384-1.356-7.253.469-9.965-1.179-1.758.732-3.679-.015-5.191.846-.532-.138-.706-.536-1.52-.467-.74,2.229-5.483.951-8.3,1.354a4.5,4.5,0,0,0-3.038-.934c-1.56,1.871-5.4,1.743-8.853,1.957-.282-2.333,2.477-2.31,4.776-2.721a60.121,60.121,0,0,1,6.467-.592c3.16-.3,5.975-.339,8-.541a56.076,56.076,0,0,1,6.957-.165c1.6.054,3.08-.536,4.665-.658.877-.069,1.928.2,2.823.1,1.531-.164,3.027-.671,4.631-.04.887-.975,2.7-.524,3.631-.489,3.49.13,7.812-.666,11.352-.626.778-1.114,3.139-.848,4.453-1.492-1.89-1.976-4.432-.6-7.676-.686-1.108-.03-1.923-.378-2.815-.307-.978.078-1.943.654-2.865.722-.786.059-1.549-.327-2.3-.287-.921.047-1.749.482-2.6.526-.559.027-1.287-.261-1.785-.27-.7-.013-1.364.3-2.081.337-1.232.078-2.456-.169-3.593-.128-3.326.118-6.406.964-10.064.674-.408-.691-1.76-.686-1.442-1.909,1.779-.8,3.3.545,4.9-.238.694.152.6.883,1.495.878.536-.469,1.886-.219,2.6-.528.784-.42-.582-1.472.606-1.627,1.617.46,2.18,1.691,4.808,1.408.736-.506.488-1.873,1.654-2,1.062.012,1.587.416,2.815.307,1.375-2.106,4.209-1.109,6.7-.381,1,.013.515-1.276,1.367-1.394A8.02,8.02,0,0,1,877.7,97.18c2.3-1.239,5.018.046,7.472-.145,1.617-.126,3.273-.858,4.934-.858a11.688,11.688,0,0,1,2.039.282c2.146-1.141,5.821-.942,8.573-1.551.231-.894-.372-1.179-.143-2.069-1.7-1.573-5.811-1.632-8.18-.91-2.323-1.3-4.223.5-6.95.164-5.661-3.023-13.772-.89-21.29-1.168-.973-1.984-7-.26-7.305-2.736a10.36,10.36,0,0,1,5.926-.2c1.114-.389,1.648-1.288,3.652-.9.555-.305.566-1.087,1.6-.973,1.566.034,1.783,1.064,3.284,1.146,1.171-.158,1.154-.868,2.107-.954,1.276-.116,2.527.976,3.807.961.753-.01,1.709-.678,2.878-.931,3.093-.663,5.229-1.764,8.332-1.765.319-.438.124-1.329.849-1.413,3.812,0,6.248-.545,9.763.14a6.1,6.1,0,0,0,1.68-2.414c-1.757-.683-2.849-1.858-4.213-2.832-1.823-.047-3.122-.475-3.248-1.765a4.716,4.716,0,0,1-2.5-1.327c-1.219-.032-2.533.015-2.8-.718a39.216,39.216,0,0,0,.788-4.921c.288-.612,1.383-.518,1.364-1.4-1.266-.125-2.706-.12-2.767-1.131.28-1.339,2.092-1.335,2.95-2.161-1.375-1.231-3.862-.078-6.177-.015-.69.017-1.568-.137-2.308-.083-1.646.118-3.429.767-4.419.873-.82.086-2.683.16-3.072-.315-.076-1.222,2.016-.538,2.392-1.359-.3-1.32-2.077-.678-3.067-.317-2.872-.094-5.056.268-8.5.111-.818.148-1.125.738-2.1.75-.046-.558-1.06-.41-1.238-.87,2.323-1.3,6.149-1.082,8.586-1.757.482.1.433.6,1.261.457.963-.309,2.006-.545,2.88-.929.086.465,1.257.13,1.787.27,1.606-.534,3.65-.683,4.97-1.472,1.137-.01,2.218-.071,2.365-.948-1.463.078-2.044-.914-3.292-.944-1.9-.04-3.807,1.519-5.983,1.232-1.057-.14-1.9-1.17-3.013-1.345-1.917-.3-5.01.691-7.5.764-2.714.081-4.4.863-6.406-.433,2.209-1.533,5.46-1.032,8.563-1.345,1.789-.18,3.629-.816,5.462-1.042,2.237-.28,4.886-.5,6.976-.577,1.192-.047,3.084.647,3.637-.7-1.207-.658-2.02-.133-3.593-.126-1.5-1.055-2.943-1.045-5.062-1.42-.776-.135-1.348-.617-2.024-.69-4.688-.5-9.715,1.75-14.439.722-2.382,1.436-6.5.7-9.828.89-.791.042-1.377.486-2.088.545-2.075.169-3.324-.668-4.831-1a1.476,1.476,0,0,1,1.108-1.4c2.363.27,3.469-.56,5.926-.2.65-.87,3.309.024,3.664-1.108-.944-.179-1.125.314-2.067.135-.4-.169.113-1.007-.725-.853-1.745.395-2.022.543-3.6-.128a7.691,7.691,0,0,1-1.829.555c-3.353-.3-5.06.607-7.76.754-.557.032-1.242-.11-1.8-.064-2.2.182-4.108.787-5.706.828-1.65.046-3.319-.865-4.888.032.08,1.028-1.167,1.179-2.649,1.35-1.6-1.059-3.511-3.94-5.767-2.679.225,1.543,1.814,2.089,2.922,2.991-1.4.573-2.123,1.737-4.7,1.278-2.155-3.493-8.2,0-11.773-1.039-1.114-.239-.75-1.558-1.966-1.721-.965.16-2.27.02-2.855.516-.929.433.776.936-.067,1.236a6.769,6.769,0,0,1-4.636.04c-1.6.54-2.952,1.3-4.474,1.905-3.8-1.73-9.069,1.605-12.828-.664a14.229,14.229,0,0,0-2.1.752c-.027-1.1-.961-1.533-2.487-1.534-.313.853-.925,1.113-1.9,1.789a2.167,2.167,0,0,0-2.315-.084c-.767-.909-2.043-.427-3.547-.949a2.039,2.039,0,0,1-2.146,1.575c-.942-.162-1.129-.885-2.533-.708-.849.116-.359,1.408-1.362,1.394-1.024-.169-2.744.17-3.324-.325-.738-1.012.793-1.13.343-1.639-.219.4-1.657.054-1.516-.467,1.732-1.347,4.558-1.571,6.992-.781,3.6-1.313,8.176-1.113,12.423-1.413.5-.035,1.087-.352,1.562-.359.551-.008.959.327,1.528.261,3.225-.368,6.128-1.492,9.313-.905a7.456,7.456,0,0,1,3.629-.491c1.055-1.089,3.038-1.366,5.224-1.463,2.363,1.544,5.088.1,8.5-.11,1.228-.076,2.537.2,3.593.128.5-.037,1.1-.477,1.833-.553,1.886-.2,2.743-.172,3.639-.7,3.837.27,7.5.389,9.076-1.325.345.538,1.312.619,2.006.9,3.881-1.059,10.73.481,13.219-1.8,1.591-.523,3.429-.121,5.146-.022,3.78.219,6.946-.838,9.322-1.113,1.669-.194,3.219-.162,4.129-.265,4.6-.524,10.749-.175,13.463-1.585,2.14.685,4.1-.55,6.452-.388.5-.5.778-1.192,1.867-1.172,2.613,1.806,6.858.406,10.024.15.332-1.165-.826-1.234-.915-2.094.517-.565.99-1.934.139-2.47-2.63.592-6.248.511-9.568.9-2.174.251-4.745.956-6.664-.445,1.915-.553,3.568-1.335,6.486-1.007,1.259-1.7,4.6-1.575,5.842-3.3-3.034-.808-7.036.74-10.594.86-1.013-.179-.532-1.455-1.715-1.506-2.886-.3-3.839,1.1-5.752,1.651-.187-.389-.284-.843-.713-1.055-1.831-.167-3.341.545-5.17.433-.923-.054-1.661-.659-2.533-.71-1.238-.067-2.937.57-4.922.651-5.489.224-9.956.369-12.975,2.015-1.69-1.27-3.954-.386-6.16-.219-.473.034-.9-.256-1.27-.253-1,.008-1.671.578-2.613.732a42.057,42.057,0,0,1-8.25.327,6.736,6.736,0,0,1-2.437,2.182c-.65-1.354-1.953-.626-3.292-.942-.225-1.939,1.289-1.465,2.937-1.959.267-.079.681-.523.805-.59,1.728-.926,5.277.164,7-.99,2.594.4,6-.327,8-.536,4.072-.435,7.47-.1,9.6-1.516,3.708.851,9.572.111,12.658-.993.2.314.811.329,1.261.457,3.8-.283,8.405-1.187,11.4-1.452,1.381-.121,3.09.217,4.377-.049.788-.165,1.154-.789,2.1-.75a7.924,7.924,0,0,0,4.119-.059c.231-.894-1.941-.022-1.482-1.084.286-.469.921-.634,1.831-.555.721-.067-.263,1.116.456,1.047.795-.455,2.17-.4,2.146-1.573-5.26-1.775-8.725,2.644-13.974,1.565-.061-.7,1.152-.285.835-1.207a14.48,14.48,0,0,1-1.448-1.7c-1.015-.287-1.909.477-2.044-.278-.828-1.44,1.23-2.043,2.2-2.6.969-.046,1.39.9,2.3.29-.1-2.188-5.327-2.224-6.885-1.071a12.1,12.1,0,0,0-5.167.435c-.147-.764.694-1.123.092-1.647-1.52.54-4.215.052-5.937.406m-3.1,4.84c2.2.711,4.97.7,7.669.894-.557.663-1.415,1.062-1.657,2-1.814.271-4.036-.774-5.426.425-2.14-.44-1.808-2.269-.587-3.321m8.649,11.035c-.008,1.445-2.765.877-2.05-.073a2.428,2.428,0,0,1,2.05.073m-47.842-.054c-2.905.241-5.115,1.957-7.734.344.177-.919,1.591-1.064,3.406-1.116,1.848-.056,4.678-.816,4.329.772M684.516,32.331c-.433.27-.374.968-1.333.777.013-.206.025-.411.036-.617.616.106.58-.357,1.3-.16m194.531,7.963c-.046,1.013-2.083.588-3.124.715-.8.093-1.249.312-1.821.346,0-.2-.3-.17-.5-.223-.057-.489-.364-.789-.177-1.452.557-.428.721.128,1.539.054,1.245-1.273,2.224.577,4.083.56M607.865,32.282c-.078,1.082-2.268.314-2.88.929a3.437,3.437,0,0,0-.875,1.826c1.221.685,4.526-.16,5.361.809-.37,1.047-1.592,1.342-2.18,2.19-3.109-.89-6.368-1.251-9.006.091-1.039.17-.742-.642-1.776-.474-1.137-.062-.864,1.116-1.621,1.386-.694.45-1.165-.46-1.764-.683-1.657-.165-3.158-.447-3.782-1.371,1.629-.8,4.484-.529,6.488-1.007-.515-2.475-5.3-.91-7.165-.668-.786.18-.431-.475-.471-.843a3.156,3.156,0,0,0-1.6.973c.517,1.138,1.829,1.691,1.884,3.163-3.231.054-5.857.543-7.655-1.1-1.19-.073-1.024,1.045-2.134,1.367a10.186,10.186,0,0,1-7.634-1.511c-3.164.465-6.633.661-10.081.88-1.247.921-1.949,2.322-4.245,2.325-.807-.15-1.348-.809-2.264-.907-1.148-.121-1.72.533-2.87.723-.608.1-1.16-.165-1.8-.064a5.624,5.624,0,0,0-2.38,1.153c-4.249.167-8.426,1.526-12.9.777-1.356.467-2.416,1.192-4.68.865-.7-.115-.284.759-.818.8-.971.057-1.179-.448-1.762-.679-1.074-.083-.954.887-1.606,1.18-1.533-.324-2.447-1.1-3.769-1.58-2.834.686-6.841.337-8.6,1.962A12.573,12.573,0,0,0,503.7,46.1c-.563-.44-.448-1.384-.925-1.888-1.976.352-4.039.632-4.255,2.529-2.544-.649-1.812,1.578-3.929,1.3a3.908,3.908,0,0,0-.389-2.283c-1.911,1.42-5.195,1.632-8.094,2.187a33.621,33.621,0,0,0-4.051-1.173c-2.479,1.566-7.394,1-10.163,2.318a29.918,29.918,0,0,1-3.578-.336c-1.364.486-2.325,2.038-4.165.882.227-.89-.374-1.175-.145-2.065.7-.685,1.894-.934,3.639-.695.7-.113.978-.587,1.341-.986,3.389-.088,5.186-.551,8.241-.118a10.458,10.458,0,0,1,5.483-1.455c3.177-.106,7.049.8,9.051-.914,1.812-.062,3.91-.851,5.962-.819,1.728.027,4.343.627,5.2-1.052a5.553,5.553,0,0,0,2.262.9c1.125.121.942-.9,1.366-1.393,1.213-.445,2.279-1.025,3.427-1.529,2.218.15,2.889,1.435,4.251,2.215,2.037-.937,4.451-.2,6.719-.587,1.9-.325,3.667-1.671,5.985-1.232.6-.423-.175-.71.08-1.44,1.337-.339,3.181-.236,3.921-1.1a15.431,15.431,0,0,1,5.334,1.221c.938,0,.889-.7,1.842-.76.725-.042,1.657.572,2.544.5,1-.076,1.81-.862,2.88-.929.969-.061,1.8.452,2.8.513a13.423,13.423,0,0,0,2.075-.339c.894-.074,1.93.145,2.828.1,2.977-.147,5.981-1.214,9.042-.708,1.167-.273,1.888-.937,3.635-.7,1.224-.658,2.327-1.416,3.463-2.148.765.732,2.033-.064,3.341.12.908.128,1.493.717,2.275.7a4.216,4.216,0,0,0,2.634-1.143c1.369,1.6,5.077,2.613,7.892,1.519.454-.949-.755-1.2-.166-1.656a23.253,23.253,0,0,1,11.632-1.032,1.9,1.9,0,0,0,1.461,1.5c.8.126.753-.492,1.072-.786.046-.8-2.052-.72-1.2-1.489,4.083,1.059,8.111-.819,11.552.413M728.755,37c.929-.02,1.779.012,1.5.88-.513-.02-1.028-.037-1.539-.057.01-.273.027-.55.042-.823m33.8,2.856a3.324,3.324,0,0,1,2.029.484c-.557.3-2.4.759-2.029-.484M691.4,47.224c-.088,1.1-2.212.846-2.844.31-.942-.179-.681.7-1.085.993-.78-.019-.973-.47-1.505-.673-.33-2.187,4.705-1.934,5.435-.631m-34.543,1.45c.12,1.062-1.585,1.366-2.369.946-.1-1.035,1.484-1.452,2.369-.946m87.763,8.285c-.732.332-2.813.664-2.8-.514a2.208,2.208,0,0,0-1.074.787c-.212-.7-1.057-.932-1.192-1.691,1.531-.592,6.2-1.531,5.064,1.418m-16.686-.6c.051,1.05-1.064,1.077-2.119,1.163,0-1.012,1.11-1.042,2.119-1.163M458.077,47.782c-2.514,2.615-7.028,3.483-12.294,3.686-.7.113-.976.585-1.341.985-2.418.518-4.354-.486-5.68.416-.99-.593-1.045-1.868-2.456-2.15a5.872,5.872,0,0,1,2.2-2.6c1.442.143.992,1.72.143,2.067,1.486.447,4.341,1.465,5.88.624-.185-.524-.656-.838-.687-1.47,1.806-.43,4.171-.373,5.222-1.467a6.273,6.273,0,0,0,4.123-.059c1.072.31,2.159.809,2.586-.319,1.03.59,1.5.054,2.3.29m258.978,10.05c-1,1.062-3.87.492-5.7.826-.019-1.824,4.648-1.968,5.7-.826M432.421,51.2c-.25,1.146-2.437.6-2.668,1.762-4.35,1.226-10.3,1.044-14.538,2.372a13.008,13.008,0,0,1-3.29-.944c.128-.835,1.509-.855,2.378-1.153a12.759,12.759,0,0,1,3.664-1.106c1.234-.091,2.783.519,3.837.342,1.123-.189,1.423-1,2.134-1.367.994-.408,1.808.31,2.813.307.658,0,1.068-.5,1.829-.555a10.612,10.612,0,0,1,3.841.342m251.056,9.152c-.772.917-3.412,1.723-4.131.266.635-.631,3.3-1.184,4.131-.266M848.408,87.268c.044,1.047-.685,1.411-1.139,2.022-.425-.282-.986-.464-.971-1.066.246-.72,1-1,2.111-.956m-1.543,4.689a24.991,24.991,0,0,1-2.849.312c.42-.486,2.588-1.693,2.849-.312m-7.236,9.85c-.866.722-2.95,1.388-3.868.275-.059-1.6,3.263-.961,3.868-.275m-6.252,1.428a12.987,12.987,0,0,1-4.083-.56c-3.053.421-5.657,1.232-9.566.9.154-1.951,3.16-1.4,4.251-2.529a8.414,8.414,0,0,1,3.574.54c2.308-.359,6.221-1.15,5.823,1.652m-19.787-.292c-.677,1.723-1.81.641-3.116.506.744-.83,1.619-.7,3.116-.506m-24.805,2c-.542.069-.673-.165-1.018-.243.065-.583,1.118-.357,1.018.243m93.959,3.347c-.111,1.116-2.529,1.158-3.641.695.017-.341.034-.685.055-1.027.759-.258,3.257-.356,3.587.332m-65.767-1.517c.656,1.565-2.693,3.176-3.931,1.3.656-1.008,1.917-1.485,3.931-1.3m56.189,2.622c.46-.01.526.27,1.013.244.063.364-1.457.314-1.013-.244m-78.458.093c-1.692-.72-1.747.786-3.139.919-1.034-1.109,2.939-2.251,3.139-.919m-18.566.781c-.374.605-1.06.942-2.354.742.08-.868,1.413-.632,2.354-.742m-13.4.347c-.368.612-1.249.779-2.355.742.141-.905,1.35-1.211,2.355-.742M908.3,129.832a.3.3,0,0,0,.233.42c-.547,1.32-3.057.919-3.719,2.138-1.348-.13-1.966-.8-1.953-1.927,1.324-.529,3.509-1.342,5.439-.631m-170.363-3.181a3.2,3.2,0,0,0-.347,1.639,12.894,12.894,0,0,0-4.362-.157c.025-.479.05-.963.078-1.44,1.249-.577,3.57-1.066,4.631-.042M933.507,153.01c-.05.368.29.443.212.831-.233.083-.469.165-.538.393a3.726,3.726,0,0,1-2.014-.69c-.015-.995,1.526-.868,2.34-.534m-9.795,5.014a5.729,5.729,0,0,1,2.535.71c-.4,1.04-2.63.337-2.535-.71m67.518,20.97c-.008.138-.017.275-.023.413-1.264.16-.41-1.113.023-.413m-22.133.243c.461-.008.523.273,1.015.243-.082.577-.5.86-1.329.779a1.139,1.139,0,0,1,.313-1.022M981.392,203.4a3.147,3.147,0,0,1-.349,1.635c-.935-.1-2.283.1-2.813-.307.025-.41.048-.823.069-1.232.78-.366,2.357-.939,3.092-.1m-1.148,6.768c-.542.066-.671-.167-1.017-.246.08-.593,1.251-.45,1.017.246M579.593,231.575c.82-.735.831.659,0,0" transform="translate(0 0)" fill="#c5c5c5" fill-rule="evenodd"/>
  </g>
</svg>
