<svg id="Group_2888" data-name="Group 2888" xmlns="http://www.w3.org/2000/svg" xmlns:xlink="http://www.w3.org/1999/xlink" width="1640.884" height="617.785" viewBox="0 0 1640.884 617.785">
  <defs>
    <clipPath id="clip-path">
      <rect id="Rectangle_1750" data-name="Rectangle 1750" width="1640.884" height="617.785" fill="#657c49"/>
    </clipPath>
  </defs>
  <g id="Group_2887" data-name="Group 2887" clip-path="url(#clip-path)">
    <path id="Path_3549" data-name="Path 3549" d="M1388.577,1.055c-1.423,3.608-8.368,6.342-11.054,3.286,1.636-2.013,6-1.056,6.489-4.328,2.075-.158,2.493,1.2,4.565,1.043m-40.556,6.17c-3.66-.5-6.969-1.115-10.066-.027-2.092-2.517-7.614-.3-10.509.374-1.307-.432-1.787-1.344-3.337-.566.072,4.081,4.352,4.318,8.177,4.98,3.207-1.917,6.9-3.738,11.414-2.013,1.547-.364,2.651-1.2,4.263-1.488,2.754,2.456,7.3,2.733,11.675,1.777.926-1.036,1.252-2.733,1.855-4.116-3.948-1.478-8.142.034-12.1-1.375a4.174,4.174,0,0,1-1.372,2.456m37.329.4c.744-.062,2.078.514,1.708-.765a1.836,1.836,0,0,0-1.708.765m-70.508.226c-.388,1.557,1.56.984,1.584,2.168-1.7.8.676,3.618,1.471,4.682,1.9.182,2.953-.576,4.243-1.07.137-3.2-2.36-4-3.073-6.431a7.193,7.193,0,0,0-4.225.652m-7.964-.357c-1.725,1.032-2.72,2.878-4.764,3.567-1.423-1.554-2.318-.487-4.174-.607-1.073-.069-2.171-.964-2.895-.967-1.78-.01-3.481.765-5.5,1.015-2.819.35-6.839-.713-8.05,1.739,5.086,2.072,14.381,4.026,20,2.987,1.173.412,1.66,1.43,3.3,1.41,1.958-.5,2.222-2.843,3.937-3.6a4.793,4.793,0,0,0,5.58-2.692,8.33,8.33,0,0,0-7.436-2.847m-199.147-3.81c1.2.141,2.13-.01,2.548-.727-.549-.607-2.507-.511-2.548.727M1138.677,5.9c.545.6,2.891.929,2.956-.288-.535-.6-2.888-.923-2.956.288m127.647,7.768c-1.441-.782-3.979-1.464-5.844-.679-.717.8-1.485,2.991-.6,4.171,5.8-2.024,9.885,3.207,17.1,2.439.062-4.318,6.078-2.14,7.357-5.127-6.129-1.434-12.6-3.766-18.009-.8M1126.481,6.614c.559.024,1.115.051,1.674.079.017-.281.027-.559.041-.837-.559-.027-1.118-.051-1.677-.075-.014.278-.024.556-.038.833m283.456,14.271c-2.792-3.169-9.013-2.315-12.964-.995.5,2.5,3.4,2.332,5.388,1.5,3.138,1.821,9.977,2.1,12.6-.281-1.4-1.207-3.159.13-5.028-.223m-165.484-6.091c-1.44.621-1.89,2.322-3.879,2.346-4.486-2.01-11.623-1.187-14.731,1.025-3.649-3.642-10.087,1.146-14.662-.652-2.891.648-4.181,3.039-6.884,3.889-2.14-.058-2.26-1.952-4.531-1.879-1.643-.182-1.633,1.444-3.409,1.108-3.886-.645-7.871-1.475-12.148-.542-1.512.333-2.7,1.7-4.277,1.91-.851.113-2.092-.511-2.912-.549-5.035-.247-8.616,1.17-12.244,1.554-8.629.912-17.986.3-26.09,1.777-1.862.34-4.181,1.811-6.376,1.814-.871-.412-1.183-1.327-2.456-1.368-1.615,1.543-4.476,1.759-7.178.94-5.368,1.934-13.249,1.111-19.014,2.936a7.509,7.509,0,0,0-3.279-1.825c-3.413,3.577-7.978.8-12.217,1.139-3.869.305-6.986,3.879-12.282,2.387-1.523.525-2.319,1.859-3.876,2.349-.731-.676-1.214-1.567-2.877-1.389-1.478-.007-1.924,1.115-3.406,1.108-4.04-1.2-7.744,1.708-11.785.731-.748,3.776.84,5.4,3.512,6.033.278-1.451.329-3.152,1.025-4.15,1.009.82,3.32.442,3.687,1.845,1.248.628-1.334,2.469.731,2.548,2.181.628,1.31-2.082,3.025-1.962,2.857.6,8.29,2.675,10.437,1.3-1.2-1.855-3.69-2.524-3.968-5.213,1.9-1.79,3.841.782,6.246,1.118,1.8.247,4.339-.689,6.736-.538,3.57.213,7.823.809,10.927-.357,1.173-1.063.5-4.143,3.1-3.639,1.249,1.135.36,4.219,2.3,4.719,3.207-.021,1.818-2.9,4.76-3.148,1.358-.113,2.4,1.907,4.1,2.277,3.5.782,7.655-.7,10.907.065,1.468-.888,1.056-3.821,2.72-4.493,3.913-.779,6.163-.8,11.346-.336.837.847.573,2.689,2.4,2.627,3.025-.206,2.929-3.821,6.451-3.488,1.314.4.456,2.788,2.4,2.624,2.037-.559,1.849-3.543,3.955-4.02,4.846,1.663,7.868-.038,11.764-.319,4.891-.357,7.37,1.6,10.471.466,1.372.082,1.547,1.259,3.31.984.83-.408.672-1.9,1.368-2.456,4.795,1.108,7.727-1.571,11.86-2.411,2.044.4,1.554,3.128,3.618,3.519,3.464-.415,5.608-3.553,9.291-1.269,5.645-5.066,13.708.446,21.885-1.543,1.084.007.676-1.609,1.749-1.6,6.626-1.207,11.884-5.707,19.848-2.895,1.914-1.135,3.625-2.483,5.618-3.526a5.689,5.689,0,0,0,4.551,1.461c.292-5.611-6-2.459-11.616-3.035m135.179,8.1c-.669-.936-2.8-1.969-4.15-1.022,1.955,2.229,1.008,5.247.525,7.154,1.063-.593,3.251.041,4.229-.652.226-.923-1.2-2.329-.312-2.528,2.322.2,2.384,3.015,5.3,3.591,1.166.226,2.387-.521,3.807-.672,2.322-.25,6,.847,6.372-1.814-2.579.484-2.4-1.55-3.67-2.26a31.239,31.239,0,0,1-6.681-.717c-1.1-.974-.065-1.4-.731-2.552-2.576-.621-3.488.586-4.688,1.471m-198.985-7.583c.339-1.283-2.322-1.849-2.895-.967a3.177,3.177,0,0,0,2.895.967M1400.08,25.485l-1.667-.072a.893.893,0,1,0,1.667.072m-41.589,1.091c-.816.117-2.171-.593-3.334-.569-2.689.058-4.321.936-6.7-.295-.916.755-2.264,1.043-2.226,2.836,2.74,1.811,7.027.1,10.087-.391,3.176,1.835,5.559.185,8.417-.463,2.126-.487,4.479.5,5.1-1.454-4.143-3.776-8.506-.065-11.346.336m-338.4-15.032c.555.158.775.628,1.657.49.017-.418.034-.837.055-1.255-.95-.161-1.578.031-1.711.765m40.608,2.222c.278.01.556.024.833.038.017-.281.028-.559.045-.837-.281-.014-.562-.027-.84-.038-.017.278-.027.559-.038.837m279.687,14.1c.521,1.074,2.229,2.487,3.718,1.427.027-2.661-2.96-4.836-3.718-1.427M1051.432,14.612c.278.01.559.024.84.034.01-.278.024-.559.034-.837-.278-.014-.556-.024-.837-.034-.014.278-.024.559-.038.837m-54.045-1.979c-.014,1.639,1.821,1.3,2.895.964.47-1.684-2.205-1.55-2.895-.964m44.775,2.826c.178-1.1-.518-1.4-1.619-1.331-.175,1.1.525,1.4,1.619,1.331m284.639,16c1.3.631,3.872-.6,5.9-.58.655.343-.185,2.048,1.187,1.732,1.759-.851,4.4-.751,4.352-3.584-3.635-1.238-11.517-3.711-11.438,2.432m39.1-1.622c.532.569,1.536.621,1.691-.343-.532-.569-1.533-.624-1.691.343M1023.26,15.878c.713.727,3.042.744,2.967-.71-1.32-.127-2.524-.127-2.967.71M979.645,15.2c1.313.257,1.739-.442,2.154-1.163-1.193-.137-2.284-.154-2.154,1.163m333.321,16.068c-3.776-2.164-6.523-1.485-11.685-1.358-2.246,2.336-5.7,1.571-9.71,1.248a24.149,24.149,0,0,1-3.862,1.928,31.706,31.706,0,0,0-13.828-.617c-2.336.46-4.593,2.154-6.825,2.631-2.085.449-4.236-.381-5.923,1-1.29-1.783-2.054-.94-3.769-.165-1.17-.8-1.437-2.439-2.8-3.066-1.176.768-2,1.921-3.464,2.37-7.888-.532-14.635,3.166-21.549,3.234-2.709.027-3.958-1.365-6.7-.3-.713.278-.631,1.077-1.31,1.2-1.032.192-1.533-.641-2.517-.113-1.272-.069-.5,2.089-1.763,2.02-2.315-2.871-6.317.662-7.158.521-1.591-.264-.922-3.042-3.258-2.243-1.207-.007-.806,1.753-2.171,1.585-2.415-2.754-4.657.926-8.358-.792-1.44.466-1.691,2.25-3.46,2.363-3.968-3.022-11.407-.792-15.533.151.25,1.646-1.639,2.1-.562,3.33,4.908.635,11.291-1.732,16.363-.11-.123,1.91-2.274,1.609-2.661,3.234,1.19.123,1.715.844,2.9.974,2.452-2.3,4.5-5.031,8.231-5.933,2.943,1.506,6.613,4.345,10.766,3.416.374-2.092-1.6-2.02-1.073-4.243,3.649-1.128,4.963,2.819,8.681,2.9,1.334-.947.525-1.952.59-3.749,1.252-1.585,2.9-.46,5.059-.614,4.359-.316,9.72-2.075,12.186-.3,4.027-.576,7.247-2.041,11.033-2.867,2.336,1.567,3.828-.079,7.521.755,1.149-.213,1.118-1.7,2.589-1.567,2.524,1.163,5.611.051,7.936.775-.038.837-.072,1.674-.11,2.514,2.524-.123,2.96,1.293,5,.641.878-.943,1.084-2.624,1.046-4.572,4.472-1.255,10.663-.634,14.786-2.281,1.327-.141.9,1.327,2.473.95,1.4.065,1.5-1.3,2.991-1.122,2.7.165,5.556.508,6.763-.96,1.9,1.173,4.908.237,6.712-.12.463.916.35,2.356,1.132,2.984,4.874,1.386,7.868-1.533,10.653-3.721,1.1-.261,2.473-.223,2.987-1.128-1.235-2.363-7.436-5.025-8.355-.789M969.143,15.573c.556.024,1.115.051,1.67.075.017-.281.027-.562.045-.84-.562-.024-1.121-.051-1.681-.075-.01.281-.024.562-.034.84m148.243,7a1.83,1.83,0,0,0,2.96-.707,1.962,1.962,0,0,0-2.96.707M960.27,16.855c.021-.418.041-.837.058-1.255-.422-.017-.84-.038-1.259-.055-.113.909.285,1.344,1.2,1.31m41.006,2.661c.137-1.194.154-2.284-1.163-2.15-.854.772-.552,2.545,1.163,2.15m106.815,4.325c.292.36,2.85,1.252,2.531-.305-.336-1.029-2.356-.285-2.531.305m-156.227-6.52c.278.014.556.024.83.038.01-.278.024-.559.038-.84-.278-.01-.559-.021-.833-.034-.01.278-.024.559-.034.837m-10.056-.446c-.268,1.478,2.788,1.976,2.514.113a2.937,2.937,0,0,0-2.514-.113m306.871,16.151c.178-1.1-.521-1.4-1.619-1.331-.175,1.1.521,1.4,1.619,1.331M933.336,18.6c1.355,1.338,1.341-1.5,0,0m-18.1,1.293c.017,1.787,2.106,1.228,2.511.113a2.056,2.056,0,0,0-2.511-.113M943.2,23.231c.278.014.562.024.84.038.014-.281.024-.559.034-.837-.278-.014-.556-.024-.833-.038l-.041.837m265.495,12.632a1.977,1.977,0,0,0,.353,1.279c1.17.4,1.115-.545,2.12-.326.425-1.567-1.814-1.567-2.473-.953m-43.221-.237a1.55,1.55,0,0,0,2.555-.727c-1.108-.045-2.456-.343-2.555.727m170.039,7.552c.418.021.837.038,1.255.055.01-.281.021-.559.034-.837-.418-.021-.83-.038-1.248-.055-.017.278-.027.559-.041.837m-8.43.881c1.2.144,2.133-.01,2.548-.724-.785-.213-1.012-.95-2.054-.929-.158.562-.638.772-.494,1.653M914.5,26.994c.689-.6.72-2.36-.751-2.133-.905.8-.086,1.79.751,2.133m274.371,10.931a1.163,1.163,0,0,0,1.3-.782c-.658.01-1.454-.12-1.3.782M866.7,26.129a1.546,1.546,0,0,0,2.552-.727c-.751-.83-2.171-.147-2.552.727m147.44,6.129c.418.017.484.36.816.456.021-.418.364-.484.456-.82-.418-.021-.484-.36-.816-.456-.017.422-.364.484-.456.82m-87.99-3.07c.285.014.559.024.837.038.017-.281.027-.559.041-.837-.281-.014-.562-.027-.84-.038-.014.278-.024.556-.038.837m105.827,7.638c2.6,2.178,5.9,3.718,8.989,5.433,2.15-1.314,2.421-4.671,6.873-3.467,1.19-1.025,4.208-1.948,3.515-3.622-3.392-.37-5.409-1.67-7.978.065-2.4-2.322-9.97-2.13-11.4,1.591m-141.448-8.8c-1.351-1.334-1.334,1.492,0,0m270.54,12.436c1.091.49,3.179.933,3.783-.247-.645-.586-3.649-1.07-3.783.247m74.96,3.33c.418.021.837.038,1.262.058.01-.281.024-.559.038-.837-.425-.021-.84-.041-1.259-.058-.01.281-.024.559-.041.837m82.07,4.068c.079-.494.785-.916.058-1.259-.082.5-.789.919-.058,1.259M884.178,29.422c1.032.11,2.03.165,2.13-.744-.984-.292-1.917-.731-2.13.744m-36.89-.8c1.849-.316,5.453,1.279,5.5-1.012-1.921.25-4.7-.453-5.5,1.012m162.84,8.914c-.593,1.945.1,2.932-.641,5.007,3.869,1.684,6.616-1.1,9.723-1.667.343,2.439,2.545,4.39,4.915,2.737.264-1.314-.683-1.513-.285-2.95,3.128.123,6.215-1.89,5.645-4.366-5.56-.364-13.5.47-19.357,1.238M870.247,31.319c-1.948-1.252-1.077,1.331,0,0M1000.4,39.2c-.888-.391-1.379-1.149-2.9-.967-3.214,1.612-8.547.833-12.162-.12-1.245,1.266-3.68,1.245-5.536,1.852-1.279.357-1.242,2.154-3.025,1.965-2.02-.161-1.272-2.854-3.217-3.08-2.754,1.742-6.657,3.91-9.727,1.667-4.939,3.032-13.812.477-19.014,2.926a3.91,3.91,0,0,0-2.877-1.386c-2.692,1.835-4.716,1.149-7.977.069-1.564.192-1.653,1.993-3.838,1.506-1.828-.34-.789-3.3-1.471-4.682-2.8.4-4.071.027-6.722.123-1.434,1.358-1.927,3.745-4.771,3.563-.744.511-.123,2.5-1.372,2.459-3.244-.038-5.066,1.489-8.447,1.3-1.759-.13-1.938-1.711-3.7-1.849-2.171,3.172-5.649,2.648-9.38,3.361-1.1.713,1.591,2.83-.569,3.334-2.823-.765-3.533-3.464-6.966-3.666-.027-1.314.415-3.059-.257-3.79-3.5-.168-7.319-.686-9.267.854a9.048,9.048,0,0,1-.587,3.745c-1.44,1.646-4.572,1.447-6.012,3.09-5.069-2.469-10.711,1.516-16.843,1.351-4.76-.127-9.277,1-14.319,1.043-.185-1.032-1.581-.964-1.142-2.572,1.739-.439,3.876-.446,4.7-1.883-1.725-2.493-4.387-.665-5.9.573-1.235.055-1.248-1-2.476-.95a26.467,26.467,0,0,0-3.828,1.091c-2.092.051-4.774-.528-5.5,1.012-1.91,1.516,2.205,3.039.652,4.229-1.485-.113-1.447-1.619-3.3-1.41-4,5.484-12.532,3.3-19.539,5.429.206-2.222.868-4.1-.158-5.882-2.672.017-5.241.134-6.379,1.814a4.29,4.29,0,0,0-3.714-1.423c-1.416.058-.8,2.346-2.2,2.421-4.044-2.2-7.645.027-12.182.295-.878.051-1.766-.23-2.514-.11-2.284.364-4.177,1.814-6.4,2.233-5.734,1.084-11.761-.072-15.262,3.519,2.243.226,4.939.038,5.374,1.917-2.86,2.078-6.606,1.187-10.2,2.9-1.684-1.533-.329-4.071-1-5.92-4.517-.823-9.946,2.977-15.166,1.427-1.591,2.209-7.007.247-7.309,3.869,2.13,1.543,3.015-1.537,5.9-.573a8.251,8.251,0,0,1-.168,3.766,10.309,10.309,0,0,0-8.084,2.583c-2.2-2.572-4.9.5-7.141.1-2.919-.521-2.4-3.2-5.261-4.431-2.408.61.11,2.174-.984,3.313-2.109-1.049-3.865-3.495-6.973-3.666-1.183-.065-2.541.857-3.824,1.087-5.906,1.06-14.659.5-17.375,3.845,4.311,1.454,9.974-2.013,12.073,2.216-.9,1.663-4.589.257-6.739.538-2.5,2.161-8.667,1.149-8.7-2.483-1.921.984-3.193-.388-5.011-.641-1.557,1.464-3.68.141-5.9.576-1.65.322-3,1.7-4.7,1.886-1.372.158-3.172-.7-4.592-.624-1.44.082-3.056.96-4.658,1.056-1.2.072-2.49-.333-3.354-.151-1.06.22-1.585,1.022-2.569,1.142-1.015.134-1.924-.322-2.932-.127-2.565.5-4.561,1.859-6.829,2.634-.4-.967-2.624-.278-3.745-.586-1.5.123-2.006,1.327-3.433,1.526a13.94,13.94,0,0,0-10.138,1.646,11.487,11.487,0,0,0-6.266-.7c-2.078.333-4.373,2.349-6.829,2.637-3.049.346-5.155-.809-6.338.971-.8-.213-1.015-.947-2.061-.926-.978.394-1.238,1.574-2.185,2-.888-.4-1.379-1.152-2.891-.967a36.118,36.118,0,0,0-5.978,2.25c-3.169-1.482-7.175.432-10.948.772-2.9.261-5.968-.168-8.828.446-1.262.528-1.674,1.976-3.447,1.945-3.334.274-6.29.158-9.672.408-4.105.309-7.672,2.318-11.455,2.854-2.432.34-5.069-.7-7.539-.336-2.768.4-7.017,2.641-9.781,2.922-4.771.48-10.838-.36-12.652,1.537-3.4-1.039-7.518.429-10.145,1.643a15.785,15.785,0,0,0-2.9-.964c-2.188.518-4.02,1.78-6.39,2.233-3.2.607-6.8.219-10.111.806-3.148.559-5.68,1.989-8.9,2.126-3.495.144-5.227.676-7.593.919-1.454.154-2.8-.319-4.195-.185-1.485.144-3,1.159-4.678,1.471-2.106.394-4.352.569-6.757.957-4.716.761-9.974,1.965-13.492,1.5-1.351.576-2.126,1.773-3.865,1.928-1.3-.556-2.15-1.513-3.687-1.842-2.2,1.043-4.582.209-6.743.542-1.787.271-3.176,1.344-5.121,1.866-4.212,1.128-9.295.947-11.853,2.411-4.527-2.809-9.61.069-14.3.624-2.353.281-4.805-.593-7.12-.316-2.4.292-4.86,1.533-7.216,1.777-4.421.47-7.1.535-10.54,1.214-2.425.473-4.887,1.533-7.216,1.773-.61.069-1.526-.5-2.075-.508-2.751-.017-5.426,1.324-8.029,1.32-.751,1.046.23,2.236-1.787,2.435-2.161.374-1.605-1.739-3.282-1.821-6.191.213-11.562,3.313-17.313,2.589-6.654,1.965-15.471,3.862-22.427,4.04-1.142.353-1.687,1.372-3,1.54-10.121.144-20.1,3.45-30.4,4.109-1.581.1-3.389-.329-5.025-.223-4.273.274-8.218,2.192-12.275,2.391-1.773.082-3.752-.449-5.446-.24-1.564.185-3.015,1.324-4.682,1.468-3.834.329-5.71-.086-8.029,1.324-1.519-.621-3.8-.549-5.405-1.08-9.943,3.817-22.54,3.858-33.8,5.21-4.212.508-7.521,2.476-11.5,3.687-1.8.549-3.954-.2-5.882.158-1.492.281-2.806,1.574-4.28,1.91-1.849.422-3.546-.446-5.062.614-1.331.01-1.351-1.176-2.895-.971-5.872,2.36-13.187,4.5-20.729,3.7-6.757.806-12.594,2.98-18.63,3.79-2.264.305-4.527-.154-6.719.12-4.688.59-8.523,2.747-12.35,4.064-3.131-1.022-5.944,1.348-8.886,1.7-.875.113-2.054-.552-2.915-.545-2.339.017-4.39,1.564-6.815,2.219-2.26.607-5.1,1.18-7.631,1.753-2.747.631-5.549,1.279-8.046,1.742-8.369,1.547-16.264,3.807-24.934,3.93-1.2.442-.36,3.121-2.226,2.84-1.516.048-1.063-1.711-2.439-1.79-1.567.484-2.675,1.468-4.678,1.475-.281,3.5-5.56,1.53-5.289,5.638.425,1.348,2.133,1.53,3.258,2.24.3,1.873,1.3,3.1,1.89,4.7,2.463-.875,4.061.532,6.283.278,2.274-.25,4.308-2.14,6.39-2.226s3.728,1.2,6.249,1.111c1.78-1.821,4.033-1.65,6.811-2.216,3.334-.672,7.165-3.131,9.8-3.337,1.831-.144,3.7.806,5.429.659,4.075-.34,7.226-2.617,10.656-3.728,1.794-.586,3.677.364,5.446.247,3.745-.247,7.052-2.545,11.033-2.864,1.982-.161,4.229.5,6.287.274.806-.082,1.859-.878,2.987-1.122a31.331,31.331,0,0,0,5.957-1.835c3.052-1.2,7.34-1.4,11-2.027,1.3-.23,2.555-1.07,3.406-1.108.686-.031,1.084.847,2.058.926,1.163.1,2.185-.82,3.368-.264,1.146-.213,1.118-1.7,2.586-1.567,3.557.665,5.4-.545,7.614-1.341a8.963,8.963,0,0,0,3.752.586c3.437-3.327,10.474.2,15.132-.586.768-.768.607-2.552,2.205-2.421,2.342-.268,3.07.947,4.987,1.063,1.636-2.168,4.191-3.33,8.509-2.559,1.338-.442,1.423-2.253,3.042-2.384,12.927-.868,22.619-4.075,35.312-1.372.436-.761-1.2-1.451.075-1.674,1.588-.25,1.976.6,3.327.569,4.771-3.344,10.831-1.952,16.884-2.192,3.612-.137,7.106-1.938,10.958-1.19,2.521-.628,4.815-2.83,7.3-3.447.35-.093,1.386.586,2.075.508,1.067-.117,1.334-.775,2.133-.741,4.616.182,9.819,3.385,14.655.648.782-.881.065-2.709.542-2.912,1.379-.185,1.941.367,2.915.545,1.934-2.384,5.861-1.211,9.312-1.684,4.369-.593,8.7-2.428,12.639-1.115,1.375-.542,1.588-2.367,3.461-2.367,3.673,1.708,7.051.079,10.121-1.228,5.937,1.657,9.908-1.461,14.395-2.716,1.945-.171,2.37,1.046,4.153,1.022,3.169-3.155,10.6-3.375,16.058-2.641,1.262-.381,1.053-2.36,2.627-2.4,1.351-.034,1.739.82,3.337.566,7.254-2.548,15.259-1.585,22.417-4.044,2.1.223,2.281,2.205,4.949,1.9,1.413-.065,1.293-1.8,2.6-1.982a84.772,84.772,0,0,0,20.29-3.3c2.665,2.764,4.345-1.543,7.082,1.156,1.482-3.056,6.407-2.939,9.727-1.667,1.187-.607,1.526-2.137,3.046-2.387,6.64.71,11.126-2.891,17.262-1.331,2.219-2.209,5.316-.851,8.471-1.718.731-.226.051-1.989.929-2.061,1.485.117,1.451,1.619,3.293,1.41,4.846-.731,8.938.415,12.258-1.972.888.391,1.386,1.149,2.895.967,1.382-.1.943-2.192,2.6-1.986,3.478.727,4.668-1.046,6.794-1.794,3.687.432,6.822-.429,12.162.12,2.411-2.253,6.167-1.29,9.747-2.082.765-.168,1.41-.96,2.15-1.166,1.224-.336,2.51,0,3.79-.25,3.941-.792,6.986-2.126,10.488.048,1.365-.12,1.4-1.684,2.6-1.986,4.212,1.615,7.7-1.821,11.86-2.408,2.432-.35,5.062.614,7.535.336,2.157-.244,3.941-1.924,5.978-2.257,3.927-.631,8.259,1.475,10.982-1.609,4.637.645,8.749-2.7,13.877-.641,3.224-3.577,8.139-.768,12.275-2.394.165-2.078-.8-3.426,1.022-4.15,1.694-.83,2.661.556,2.836,2.222,2.819.432,5.244-.868,7.542.336,1.348-.137,1.547-1.526,3.008-1.543,7.689.686,13.815-3.4,22.341-2.367,1.324-.9,1.245-3.327,3.1-3.635,1.9.731,3.6,1.948,5.793,1.934,1.053-.01,1.941-.851,2.984-1.128,1.5-.4,3.344-.082,5.066-.614,1.015-.316,2-1.238,3-1.547,2.943-.9,6.352.484,9.229-.007.665-.113,1.135-.984,1.732-1.183,2.95-.984,5.512-.418,8.036-1.324,1.211-1.633-.027-3.245,2.26-3.673,2.452-.46,2.517,1.972,4.932,2.315,4.891-.549,8.835-2.349,15.605-1.821.995-.086.844-1.42,2.15-1.163,4.983,1.78,7.432-2.288,10.618-2.888,2.408-.449,4.805.741,7.542.333.147-.727-1.084-2.14.11-2.507,3.255-.439,3.155,2.2,5.333,2.754,4.887-1.609,10.495-.71,14.336-1.464,1.684-.329,3.769-.168,5.055-.61,1.173-.4,1.8-1.3,3.008-1.547,2.342-.47,4.462-.37,5.9-.58,1.255-.182,2.836.353,3.769.171,1.818-.364,4.291-1.993,7.175-.943,1.4-.662,1.938-2.274,3.481-2.782,3.546.36,9.133,1.845,10.124-1.231,4.719,1.79,7.4-2.044,10.241-3.738,2.49.244,6.026-1.008,8.883-1.7.271-3.224,1.187-5.734,2.85-7.432,1.262-.542,5.11-.542,6.283.281a4.895,4.895,0,0,1-1.825,3.275,5.889,5.889,0,0,0-4.153-1.025c-.576,1.763-1.358,4.191-.244,5.443,1.149,1.413,2.517-.919,3.354.151.326,1.578,2.089,1.845,3.68,2.267,2.041-2.106,5.134-.8,7.59-.926,2.185-.11,4-2.092,5.9-.576,1.032-.484,1.049-2.068,2.6-1.982.981.854,3.485.556,4.606.206,1.368-.943-.857-3.08.984-3.317,3.21-.384,4.047,1.4,6.647,1.557,1.663-.062-.247-1.31.912-1.639,1.42-.185,1.958.823,3.313.984,10.574,1.269,20-2.514,29.924-2.867,1.118-.381,1.482-1.6,2.6-1.979,3.961.295,6.005-3.265,9.387-3.361,3.029-.086,5.206,2.3,9.137,2.082,1.372-.545,1.118-2.874,1.862-4.112,2.751,1.588,8.293-2.024,9.157,1.667-.717,1.478-3.011-.408-3.845,1.506,4.342,1.156,9.209-2.823,15.55-.566,2.02-.988,3.231-2.744,5.56-2.27,1.458-4.009,4.452-8.17,9.871-5.018,1.169.809.977,2.857,2.363,3.464,4.174.46,5.892-1.759,8.125-3.416,7.117-.216,11.75,1.838,17.934,2.473-.947-4.764,4.3-4.393,7.665-2.593,2.126-.319,2.956-2.048,5.141-2.294,1.571.041,1.187,1.866,3.3,1.41,4.524-1.368,9.624-.576,12.769-4.051,1.585,2.294,7.391.734,9.1,2.922.809-3.577,5.052.086,7.556-.082,1.639-.4,1.694-2.545,3.083-3.217,1.79,1.722,5.179,3.611,8.694,2.483,1.471-1.036,1.523-3.615,1.536-6.232-2.216-2.075-5.885-1.334-7.573.5m47.766,1.7c.508.6,2.473.837,2.528-.309-.508-.6-2.473-.84-2.528.309m78.314,3.478c.954.158,1.581-.031,1.715-.761-.95-.161-1.578.027-1.715.761m-38.169-.436c.559.024,1.118.051,1.681.072.024-.556.048-1.118.079-1.67q-1.96-.386-1.76,1.6m-139-7.017c-.295,1.715,2.168,2.236,3.3,1.41a2.175,2.175,0,0,0-3.3-1.41m483.285,21.892c.559.154.772.634,1.653.494l.062-1.255c-.954-.161-1.581.031-1.715.761M853.8,33.109c-.274-.343-2.291-1.039-2.511-.113.926.549,1.783,1.293,2.511.113m17.08,2.857c-1.358-1.338-1.341,1.488,0,0M802.99,33.788c-.425,1.324,4.088,1.523,3.769.168-.61-1.07-2.912-.3-3.769-.168m300.69,13.777c.724-1.132-1.756-1.235-1.657-.494.556.161.779.634,1.657.494m67.871,2.6c-.045,1.293,2.15,1.595,2.895.971.463-1.687-2.209-1.554-2.895-.971M851.068,38.024a1.686,1.686,0,0,0,2.49.528c.285-1.732-2.315-2.391-2.49-.528m-34.359-1.111c-.429,1.825,4.164,2.836,4.164.607-1.163-.37-3.107-1.375-4.164-.607M1152.152,52.24c.528.569,1.533.621,1.688-.35-.535-.566-1.526-.617-1.687.35M784.384,37.156c1.585-.021,3.756.593,3.824-1.087-1-1.067-3.653-.216-3.824,1.087m355.984,15.818c1.6,2.109-.257,3.19-1.461,4.548,2.953,1.67,6.434-.3,9.689-.823-.113-1.509-1.015-2.288-.652-4.225-2.507-1.207-5.477-.1-7.576.5M776.825,37.242c.617,1.615,3.92,1.633,4.61.2a5.712,5.712,0,0,0-4.61-.2M800.606,40.4c1.111.048,2.233.1,3.351.151.7-2.644-3.543-1.972-3.351-.151m-12.237,1.554c1.194.137,2.281.151,2.15-1.163-.8.058-.909-.514-1.66-.494-.161.559-.628.775-.491,1.657m83,2.006c-1.965.041-4.339,1.835-6.4,2.236-2.867.559-5.7-.13-8.032,1.324-1.471-.127-1.814-1.279-3.292-1.406-1.492,2.322-7.343-.12-8.1,2.994,6.554,3.4,12.5-3.245,18.479-.436a4.151,4.151,0,0,1,4.647-.638c1.317-.309,2.017-1.307,3.423-1.523.545-1.015,3.622.731,3-1.543-1.327.329-2.322-1.032-3.728-1.008M777,42.705a3.445,3.445,0,0,1,2.932.13c.257-2.109-2.675-1.214-2.932-.13m332.419,17.286c.429,2.113,5.066,1.615,5.464-.178-1.386-1.434-4.781-2.912-5.464.178M735.373,44.629c.48-1.379-.518-1.4-1.622-1.327-.175,1.094.518,1.4,1.622,1.327m4.822,4.832a5.262,5.262,0,0,0,4.284-1.907c-.964-1.883-4.9-.717-4.284,1.907m79.7.6c-2.092,1.811-6.592.988-8.125,3.416,4.016-.147,8.557.274,11.788-.737-.391-1.653-2-2.188-3.663-2.679M936.269,56.5c.583,1.876,3.1.439,3.389-.693-.789-.734-3.286-.665-3.389.693m118.068,6.081c.786.13.947-.429,1.691-.34.25-1.3-.833-1.379-2.034-1.355a2.364,2.364,0,0,0,.343,1.694M712.593,47.4a1.343,1.343,0,0,0,2.109-.322c-.508-.6-2.024-.744-2.109.322m21.264,3.042c.418.017.837.034,1.255.055-.041-.494.127-1.183-.36-1.272-.072.655-1.084.281-.9,1.218m-3.786.25.837.041c.01-.285.024-.562.038-.84-.278-.014-.559-.024-.837-.038-.014.278-.027.559-.038.837m-10.948.775c.9.758,3.81.909,3.409-1.108-1.163-1.053-2.517.5-3.409,1.108m13.8,1.032a1.837,1.837,0,0,0,2.967-.71,1.971,1.971,0,0,0-2.967.71m274.645,14.3c1.6,1.087,4.661.583,4.678-1.468-1.372-.837-5.172-1.128-4.678,1.468M680.484,52.264c.905.075,4.51.974,4.661-1.053-1.766.12-4.109-.391-4.661,1.053M1026.34,69.306c3.025.82,4.918-1.5,7.576-.5-1.711-1.626-6.685-2.95-7.576.5M706.81,54.7c.706-1.238-2.12-1.2-2.075-.514a2.743,2.743,0,0,0,2.075.514M978.448,70.537c1.32-.024,3.063.422,3.786-.25q.051-1.049.1-2.092c-1.873-1.386-5.512-.185-3.882,2.343M657.7,55.032c.535.758,1.952,1.777,2.888.967a1.523,1.523,0,0,0-2.888-.967m16.236,2.816c.511.6,1.8.5,2.909.549.569-1.694-2.833-1.811-2.909-.549M1413.1,91.524c-4.383,3.821-11.894,1.588-17.794,3.831,4.658,4.946,12.128-1.739,17.625-.058,1.032-5.169,11.126-.425,13.2-4.452-5.11-2.229-8.444,2.339-13.036.679M749.25,62.875a2.758,2.758,0,0,0,2.075.511,2.066,2.066,0,0,0,.113-2.517c-1.639-.326-1.9.857-2.188,2.006m-112.3-3.728c2.363.089,4.887.36,4.719-2.312-2.01.292-4.719-.185-4.719,2.312m205.289,7.439c-.23,2.205,4.037,1.516,3.786-.254a9.088,9.088,0,0,0-3.786.254M627.306,59.137c-.429,1.818,4.167,2.83,4.167.6-.521-1.276-2.991-1.008-4.167-.6m29.715,1.735c-.254,1.7,4.03,2.161,3.361-.271-1.2,0-2.727-.346-3.361.271M830.8,69.015c.418.017.84.034,1.259.055.01-.278.024-.559.034-.837-.422-.017-.84-.038-1.252-.058l-.041.84m-210.715-8.1c.545.974,3.258,1.533,3.371-.271-1.516.254-2.819-1.427-3.371.271M1384.355,96.12c1.344,3.207,7.237,1.269,10.032.868-.559-4.812-6.849-.981-10.032-.868M607.829,62.882c2.143-.878,6.866,1.849,7.22-1.773-2.908.045-6.451-.614-7.22,1.773M638.4,64.24c1.838.25,3.461.268,3.022-1.962-1.674-.075-3.135.082-3.022,1.962m79.154,3.519a14.356,14.356,0,0,0,6.774-1.379c-1.873.209-6.949-2.044-6.774,1.379m694.4,30.432c.535.045.556.559,1.238.473a1.157,1.157,0,0,0-.782-1.293c-.017.422-.364.48-.456.82m-610.7-25.455c1.036.672,3.5,2.13,4.99,1.063-.566-1.362-4.109-3.625-4.99-1.063M1369.929,99.68c3.145.761,6.9-1.1,9.744-2.085-3.4.528-8.159-.429-9.744,2.085M622.8,66.068c1.063.7,5.44,1.269,5.484-.593-1.255-.707-5.175-1.135-5.484.593M593.5,64.343c.4,2.487,6.023,1.255,6.719-.12-2.349.432-3.646.034-6.719.12m809.04,38.046c1.423-.051,3.378.473,4.2-.237-.072-2.675-4.383-2.871-4.2.237m-47.8-.864c2.562-1.543,4.26.84,7.158-.525-.4-3.207-8.8-3.773-7.158.525m34.736,1.958c2.092,1.194,7.8,1.266,9.277-.844-3.906,1.814-9.957-6.153-9.277.844M583.3,67.248c2.751,1.008,7.477.631,8.478-1.722-2.792-.888-7.123-.346-8.478,1.722m28.48,1.266c1.043.919,3.443.514,3.81-.669-1.3-.683-3.275-.665-3.81.669m-9.7,1.248c.587.686,1.845.549,1.708-.761-.95-.161-1.578.027-1.708.761m18.424.82c.415.017.837.038,1.255.058.014-.281.027-.562.034-.84-.412-.021-.833-.038-1.252-.055-.017.278-.027.556-.038.837m810.007,35.148-2.1-.093c-.813,1.965,2.6,1.636,2.1.093m-839-34.338c2.051,1.488,4.534-.305,6.719-.12-.4-1.855-6.081-1.708-6.719.12m-9.727,1.663c2.2-.367,4.963.641,5.961-1.828-1.91-.916-5.961-.772-5.961,1.828m858.956,38.581c1.307.062,2.685,1.111,3.766.171.542-2.9-3.4-1.4-3.766-.171M575.864,74.053c1.588.271,2.624-.062,2.991-1.125-1.194-.6-2.816-.532-2.991,1.125m5.776,2.353a2.955,2.955,0,0,0,2.583-1.561c-1.358-.024-2.281.436-2.583,1.561M830,87.024a1.145,1.145,0,0,0-.779-1.293c-.624.583-.682,1.591.779,1.293m-264.26-11.74c.59.59,3.282,1,3.368-.271-.587-.59-3.279-1-3.368.271m-11.02,2.449c3.334.13,6.359-.075,8.05-1.742-1.42-2.637-6.667.141-8.05,1.742m9.329-2.106a1.153,1.153,0,0,0,1.29-.779c-.658.007-1.447-.123-1.29.779M1284.3,109.722a3.591,3.591,0,0,0-2.5-.528c-.538,1.615,2.415,1.79,2.5.528M542.095,78.429c1.355.2,4.826,2.236,5.049-.2-2.229.364-3.958-1.427-5.049.2M560.035,80.9c1.344.305,1.958-.2,2.946-.288.343-2.065-3.464-1.674-2.946.288m-23.494-.2c.25-1.3-.833-1.379-2.037-1.351-.25,1.3.837,1.379,2.037,1.351m161.265,6.746c-.638.041-1.547-.22-1.7.343.538.566,1.537.617,1.7-.343M522.645,81.759c.559.024,1.118.051,1.677.075a.9.9,0,1,0-1.677-.075m-2.586,1.567c1-.878.744-1.365.113-2.514-.562-.027-1.115-.051-1.674-.079-.727,1.314-.051,2.384,1.561,2.593M541,84.253c.422.017.837.041,1.255.058.017-.418.038-.84.058-1.255-.278-.017-.559-.024-.84-.041-.041.535-.562.556-.473,1.238m-28.278,3.78a2.731,2.731,0,0,0,3.474-2.778c-1.873.144-3.728.316-3.474,2.778M640.74,96.658c1.5.017,3.365.453,3.406-1.111-1.41.072-3.6-.717-3.406,1.111M486.111,91.887c1.293-.25,1.2.775,2.5.528,1.715-1.746-2.847-4.3-2.5-.528m-39.534,2.02c1.543.484,5.155.7,5.916-1-1.416-1.718-5.542-1.094-5.916,1m-3.79.25c.415.017.84.034,1.252.055.017-.281.027-.556.041-.833-.418-.021-.84-.038-1.259-.058-.007.274-.024.559-.034.837m-11.38,1.176c.857.768,4.733,1.087,4.64-.638-1.41.364-4.514-1.125-4.64.638m-13.517,1.914c1.993-.542,4.064,1.732,4.225-.652-1.619-.01-3.663-.49-4.225.652m22.177,1.406c.024,1.41,2.528,1.722,2.517.113-.137-.94-2.209-.429-2.517-.113m-7.189,1.362c.655-.014,1.444.117,1.29-.785-.278-.014-.556-.024-.837-.038-.017.422-.357.487-.453.823m-35.638-.748c1.008.312,2.113.94,2.13-.744-1.036-.11-2.03-.168-2.13.744m5.841.683a1.84,1.84,0,0,0,1.715-.768c-.744.069-2.078-.514-1.715.768m17.955,2.054c.559.024,1.121.048,1.677.079.007-.285.021-.562.034-.844-.559-.021-1.115-.048-1.674-.072-.01.278-.024.559-.038.837m-39-.473c-1.513.223-3.831-.734-4.243,1.067,3.4-.384,7.5.014,9.723-1.663-1.331-.71-3.44.288-5.481.6m-1.9,4.949a1.614,1.614,0,0,0,2.589-1.564c-1.324.017-2.51.182-2.589,1.564m-5.522,1.434c1.132.353.885-.8,1.711-.765-.093-.977-.178-1.972-1.595-1.749a2.061,2.061,0,0,0-.117,2.514m-6.736.542a2.645,2.645,0,0,0,2.1.093c.034-.837.072-1.674.106-2.514-1.355.127-2.459.528-2.205,2.421m-8.012.9c2.421-.281,3.769-1.739,5.573-2.689-1.711-.34-5.608-.247-5.573,2.689m-20.084-1.314c.813.936,1.66-.041,2.535-.305a1.163,1.163,0,0,0-.785-1.293c-.408.72-1.567.621-1.749,1.6m-13.15,3.193c3.169-.055,5.8-.689,7.648-2.178-2.291-.648-6.75-.141-7.648,2.178m22.211.569c1.327-.017,2.514-.185,2.593-1.567-1.324.017-2.514.185-2.593,1.567m-25.565-.72c.95.161,1.581-.031,1.715-.761-.562-.154-.772-.628-1.657-.494-.017.422-.038.84-.058,1.255m-12.254,1.976a4.063,4.063,0,0,0,3.354.147c.065-1.852-3.2-1.633-3.354-.147m3.773.168a1.85,1.85,0,0,0,1.711-.765c-.59-.686-1.849-.545-1.711.765m12.906,2.25c1.269.364,1.266-.665,2.531-.3.257-1.31-.525-1.667-.727-2.552-.693-.031-1.392-.062-2.092-.1-.048,1.115-.267,2.387.288,2.95m8.883-1.7a1.156,1.156,0,0,0,1.3-.782c-.652.01-1.447-.12-1.3.782m-39.9.744c-1.2.37-2.624-.374-2.565,1.149,2.48.953,4.881-.25,6.739-.542-.034-2.665-2.373-1.159-4.174-.607m9.675-.408c-.514-.6-1.8-.5-2.919-.549-.295,1.989,2.137,1.043,2.919.549m7.864,2.449c.8,1.272,6.05,1.879,5.9-.576-.943-1.283-7.23-1.773-5.9.576m-25.62.542c1.423.233,2.387-.024,2.168-1.585-1.365-.168-2.041.4-2.168,1.585m20.1.888c.312.737,3.018.4,2.974-.7-.072-.463-3.1-.49-2.974.7m-24.728-.672c.278.007.566.021.84.034.007-.281.021-.562.034-.84-.278-.01-.556-.024-.837-.038-.014.281-.024.556-.038.844m19.628,2.123c1.039.11,2.034.171,2.133-.744-.8-.909-1.79-.093-2.133.744m-2.548.727c1.194.137,2.281.158,2.15-1.163-.823-.905-2.123-.093-2.15,1.163m-15.952.13c-2.915.49-6.465-.2-7.226,2.2,3.45,2.267,8.55-.751,11.016-2.445,3.43-.727,3.889,2.473,6.661,1.132-.333-5.093-6.822-1.488-10.45-.885M266.565,122c.014,1.324.182,2.511,1.564,2.586.641-.634,1.012-3.289-.707-2.97-.11.322-.374.473-.857.384m7.878,2.027a1.575,1.575,0,0,0,1.753-1.6,1.192,1.192,0,1,0-1.753,1.6m-12.982-.576c.031,1.183.648,1.814,2.02,1.77-.247-1.3.772-1.2.532-2.5-1.307-.257-1.66.525-2.552.727m-8.811.024c-.364,1.564,3.124,1.163,2.531-.3a3.578,3.578,0,0,0-2.531.3m3.766.171c-.017.418-.038.833-.055,1.255,1.434,1.019,4.133.305,4.664-1.05a5.7,5.7,0,0,0-4.61-.206m-11.037,2.864a3.279,3.279,0,0,0,5.56-2.267,9.712,9.712,0,0,0-5.56,2.267m-10.087.394c1.537,1.416,5.975,2.517,5.518-1.437-1.972.34-4.946-.429-5.518,1.437m-5.975,2.253c2.689.964,2.857-2.826.093-2.1-.027.7-.062,1.4-.093,2.1m-7.593.919c2.908.4,4.678-.446,5.151-2.709-2.833-.316-4.915.192-5.151,2.709m-1.657-.494c-.353-.748-1.269-.981-2.48-.947-1.674,1.609,2.37,3.43,2.48.947m-21.909,1.965c.278,1.7,2.236.521,4.171.607,4.177.175,7.525,1.128,8.084-2.583-4.174-.175-9.15-.24-12.254,1.976m-5.954,1.835c1.691-.638,4.4-.161,5.117-1.869-1.979.326-4.328.243-5.117,1.869m-19.875,3.31c1.794.12,3.035.977,4.61.206.274-3.351-4.462-3.1-4.61-.206m-8.886,1.708c1.379.045,2.956.3,2.987-1.132-.813-.761-3.539-.947-2.987,1.132m5.92-.995c-.7-.034-1.4-.069-2.092-.1-.7,1.259,2.675,1.41,2.092.1m-28.285,3.776c2.03.021,4.431.446,4.685-1.471-1.845-.6-3.852-.185-4.685,1.471m1310.468,57.8c1.807.25,2.336-.226,1.749-1.6a1.57,1.57,0,0,0-1.749,1.6m-13.057,1.1c2.243.206,8.269,2.061,9.25-.429-2.408-1.591-7.744-2.212-9.25.429M136.836,142.253c.285.014.559.027.837.038.021-.422.364-.48.456-.82-.535-.048-.556-.562-1.238-.473-.017.415-.038.837-.055,1.255m1328.838,59.879c-1.958.34-2.315,2.449-4.322,2.74-2.12-1.166-5.4.535-7.463-2.01-3.083.3-6.859-.178-6.87,3.474,1.283.062,2.432,1.262,3.718,1.42,2.5.305,7.919-1.224,9.284-1.266,2.987-.086,6.019,1.427,8.417-.466.988.038,1.2.775,2.49.532.58-.83,2.068-.672,1.79-2.439-2.867-.189-4.273-1.715-7.045-1.986M125,144.245c.418.017.84.038,1.259.055.01-.278.024-.559.038-.84-.418-.017-.837-.031-1.259-.051-.01.271-.024.559-.038.837m-20.3,3.711c.278.01.559.024.837.041.045-.538.559-.559.473-1.238-.281-.01-.559-.024-.837-.038-.048.532-.562.552-.473,1.235M82.67,152.436c1.036.106,2.03.168,2.133-.741-.8-.912-1.79-.1-2.133.741m-8.91,2.123c2.229.086,3.437-.936,4.7-1.89-2.109.031-4.582-.333-4.7,1.89m-8.389.041c-2.95.316-7.823,1.176-8.125,3.416,6.249,1.128,8.056-2.607,13.53-2.332-.25-1.924-3.732-1.255-5.405-1.084m-21.24,5.776a24.97,24.97,0,0,0,8.07-2.161c-2.473-.7-7.48-.635-8.07,2.161M1441.309,240.49a8.252,8.252,0,0,0,2.874,1.389c.411-.875,1.331-1.183,1.372-2.459-1.382.388-3.852-.394-4.246,1.07m-16.466,2.205a1.806,1.806,0,0,0,3.008-1.54c-1.547-.082-2.891.055-3.008,1.54M128.446,368.9a9.1,9.1,0,0,0,5.9-.58c.093-3.577-6.544-3.546-5.9.58m1447.026,81.915c-7.6-1.965-17.416.713-24.835,1.828-1.41.5-.8,3.227-2.661,3.238-4.4-1.732-9.8-2.548-15.382-3.2-2.277,3.958-8.2,3.92-14.432,3.553-1.176-.573,2.1-2.507-.288-2.95-6.266.689-14.35,2.658-22.78,2.768a31.312,31.312,0,0,0-4.188-.189c-4.181.628-7.209,4.49-11.092,4.126-1.485-1.722-3.663-2.812-7.449-2.432-1.79.473-.271,1.838-1.783,2.442-1.331.144-.065-2.089-1.605-1.749-8.317-.216-17.536,3.275-24.361.593-3.6,2.8-9.929,2.61-15.272,3.515-1.283,1.012.988,2.089-.127,2.936-2.6-1.262-4.534.576-7.134.1-1.708-.316-2.744-2.034-4.51-2.3-4.256-.628-8.478,2.984-13.043.686a16.638,16.638,0,0,1-11.438,2.428c-.051,1.108.123,2.48-.947,2.483-5.265-5.093-13.7.59-19.244-1.272-3.039,1.969-7.947.7-11.459,2.84-1.938-1.653-3.351-1.519-6.211-1.958-.816.717-.617,2.555-1.8,2.86-4.435-.713-7.22-.243-9.542-2.521a19.2,19.2,0,0,1-5.913.995c-1.866,2.792-5.312,3.858-8.224,5.518-1.725-.168-1.2-2.384-3.251-2.25-2.672,1.149-4.922-.6-7.521-.755-2.356,1.55-3.608,3.467-6.89,3.889-2.61.336-5.7-1.1-8.015.9-2.857-.494-4.277.59-5.93,1.413-.36-.744-1.269-.977-2.483-.943-1.633-.185-1.619,1.447-3.4,1.1-2.322-.151-1.554-3.131-4.061-3.118-3.32.659-5,2.723-8.886,1.7-2.946,3-7.707,2.6-11.891,3.244-1.9.3-3.008,1.3-5.079,1.036-1.687-.209-2.833-1.7-4.541-1.879-2.96-.319-5.632,1.951-8.406.47-2,.748-2.805,4.462-5.251,4.8-2.62.37-3.468-1.31-5.752-2.775-3.361-.3-5.364.881-7.635,1.759-2.047-.871-3.327.041-5.861-.261-3.107,1.732-6.52,3.118-9.456,5.038a16.019,16.019,0,0,1-1.543-3.008c-3.344.093-5.9.408-8.489,2.14-5.145-2.233-9.476,1.53-13.853.223-1.773,1.924-4.407,1.156-7.2,1.362-3.591.268-6.986,2.49-10.577,2.051-1.722.748-1.955,3.131-4.332,3.155-1.746.257-.7-2.037-2.449-1.78-1.629,1.807-3.286-.3-5.439-.243-2.86.079-6.074,2.932-8.434.885-3.663.971-5.107,4.38-9.84,4.177-2.219-.943-1.979-2.339-4.074-2.7-3.3-.562-7.175,3.443-10.522.792-5.059,3.389-14.172.422-19.834,2.469-1.087.751.779,2.223-.947,2.483-3.786-2.922-9.62-.051-14.2-1.471-2.895,1.955-8.3-.3-11.02,2.449-.988-.436-1.032-1.735-2.881-1.389-3.316,1.6-7.326,1.242-11.4,1.591-2.408.209-4.808,1.358-7.189,1.362-1,0-1.938-.631-2.912-.549-.59.051-1.4.669-2.13.748-.926.086-1.8-.25-2.517-.113-4.774.9-6.094,4-9.871,5.007-2.974-1.259-6.18-2.9-9.576-1.681-1.211.442-.5,2.967-2.226,2.836-3.056-4.147-8.238-1.152-10.961,1.2-4.136-1.677-5.81,2.181-10.546,1.207-1.461-.4-.96-2.6-2.819-2.641-2.74.374-4.075,2.281-6.033,3.512-1.626-.257-1.043-2.534-3.258-2.246-5.364,1.753-12.6,1.451-18.579,2.528-2.089,2.692-6.763,2.562-9.03,5.052-6.479-2.394-13.472-.9-19.323.408-1.807-.223-1.787-2.123-4.112-1.862-2.047,1.9-4.445,3.6-8.489,2.14-2.644,3-7.381,1.242-11.418,2.006-1.1.213-1.859,1.07-2.991,1.132-2.884.147-6.129-1.633-8.413.463-1.509-2.068-3.258-1.513-6.63-1.969-3.828,3.207-10.464,6.307-16.061,2.641-2.229,1.341-4.561,3.478-7.72,3.848-2.5.295-5.1-.46-7.542-.329-3.8.2-7.11,1.893-10.6,2.463-1.091.185-2.3-.292-3.344-.151a22.5,22.5,0,0,0-4.267,1.492c-1.074-1.159-1.742-2.685-4.513-2.3-2.312.569-.5,2.939-3.08,3.224-2.473.254-2.552-1.687-4.531-1.883-4.407,1.526-8.015,1.341-12.217,1.139-6.626-.319-10.906,4.277-14.885,4.373-2.133.052-4.006-1.722-6.228-1.536-1.677.141-1.869,1.255-3.845,1.506-8.557-2.089-15.132,1.543-20.743,4.116-1.663-.484-1.855-2.322-4.092-2.274-2.14.436-2.74,2.565-5.158,2.706-1.831-.484-2.147-1.266-3.711-1.43-3.09-.322-6.047,2.915-8.838.446-3.258,1.314-8.554,3.433-12.237,1.561-1.729.909-2.583,3.522-5.21,3.965-3.21.539-5.073-1.049-7.443-2.428-5.158,2.373-12.618.411-17.721,2.147-1.657.563-2.613,2.408-4.318,2.751-3.557.693-6.815-1.043-9.71,1.245-1.6-.147-.538-2.73-2.394-2.631-4.647,1.519-11.644.46-16.449,1.79-1.2,4.9-6.818,2.679-9.257.429-2.589,1.122-5.138,2.294-9.3,1.681-1.228.562-1,2.709-3.039,2.384-3.375-2.805-7.885-.569-12.988-.576-1.413,2.487-6.235,4.442-7.154.525-5.271,1.55-12.56.905-16.939,3.443-4.054-3.073-8.252,1.111-12.234,1.554-.957.11-2.476-.556-3.337-.569-5.494-.089-10.334,3.087-15.279,3.937-1.763,0-1.2-2.113-3.279-1.821-2.569.268-4.126,1.636-5.992,2.675-3.927-3.389-9.174,1.437-13.8-1.032-1.759-.172-1.838,1.509-3.43,1.523-1.416-.713-3.8-.542-5.844-.683-1.087.576-1.934,1.392-3.426,1.526-2.775-.995-5.21,1.1-8.447,1.3-3.673.23-7.882-.974-11.726-.518-2.377.281-3.972,2.2-6.362,1.392-1.523.823-2.192,2.576-4.315,2.751-1.694-.73-2.312-2.178-4.1-2.281-1.54-.1-2.644,1.571-4.7,1.89-2.9.449-5.429-.676-8.8-.391-1.084.569-1.938,1.4-3.423,1.526-5.769-1.039-8.375,1.382-11.877,2.83-6.743-3.591-13.17,1.886-21.031,1.159-3.817,6.036-11.4.71-18.123,1.718-1.512,1.53-1.17,3.282-3.536,4.04-2.2.7-5.577-1.1-7.573.494-1.77-1.955-6.115-1.5-9.181-1.242-1.516.532-1.777,2.445-3.076,3.22-4.966.079-6.733,1.139-12.189.3-2.73,2.651-7.734,2.363-11.414,2.006-2.192,2.72-9.072,1.965-12.615.7-4.891,3.467-13.952.5-19.44,2.912-2.329,1.022-2.521,3.855-5.193,3.543-1.379-.209-.377-2.6-2.421-2.2-4.164,2.281-8.585.511-12.69,2.37-.727-.408-.46-1.722-2.041-1.348-3.553.508-4.856,3.471-8.156,4.253-1.876-1.262-3.207-2.751-5.779-2.356-2.051.312-1.972,2.607-3.9,2.768-1.859.36-1.314-1.478-2.874-1.386-1.348,1.317-2.514,2.816-4.76,3.142-3.076-2.106-5.278-.583-8.808.034-.837.254,0,2.336-.957,2.473-2.984-.34-7.226-1.615-10.45-.885-2.387.542-2.953,2.768-4.754,3.142-6.335-1.262-11.3,2.1-15.5-.686-2.284,1.019-4.023,2.631-6.05,3.927a12.579,12.579,0,0,0-11.839,2c-.974-.045-1.952-.093-2.926-.13-4.517,3.22-10.759,2.171-17.365,3.423-3.649.693-7.127,3.433-9.816,3.759-3.762.453-8.742-2.044-10.2,2.9,6.393.923,13.318-1.2,18.994-2.514,11.219,3.159,20.781-2.641,31.2-3.231,1.945-3.279,4.572-1.629,8.053-1.739,2.864-.093,5.961-1.584,9.3-1.687a35.75,35.75,0,0,0,3.766.172c1.327-.192,2.548-1.218,3.848-1.509,2.332-.528,5.261-.881,8.032-1.32,5.33-.847,11.6-.861,16.044-2.229,1.4-.429,2.171-1.406,3.426-1.526,1.149-.11,2.593.535,3.752.586,2.932.134,5.913-.833,8.866-1.283.953-.147,1.948.257,2.932.13,6.012-.8,12.323-2.14,18.178-2.967,5.789-.82,11.771-.737,17.279-1.753,2.353-.432,4.548-1.519,7.2-1.351,1.427.093.35-2.545,1.78-2.445.964.326,1.392,1.135,2.017,1.77,4.085-1.423,8.393-.772,13.081-1.523,1.019-.161,1.969-.9,2.987-1.122,3.2-.717,6.753-1.17,10.145-1.646,1.087-.161,2.277.247,3.351.147,3.721-.357,7.453-2.188,11.435-2.432,8.046-.487,15.026-2.181,22.382-3.193,2.627-.37,3.924-.84,5.5-1.019.662-.079,1.831.556,2.5.528,2.956-.11,5.827-1.276,8.886-1.7,4.342-.607,9.332-.36,13.894-1.063,1.485-.223,2.788-.981,4.243-1.07,1.413-.079,2.809.34,4.188.189,1.293-.141,2.6-.929,3.824-1.091,4.421-.573,8.766-.216,12.7-2.373,6.472,2.3,13.928-2.178,20.613-1.183,1.657-1.4,2.181-3.217,4.778-3.56,2.83-.374,5.32,1.42,7.446,2.425,5.145-1.708,10.773-.775,16.006-1.382,2.826-.333,5.68-1.536,8.468-1.722,6.444-.429,10.745-1.379,16.027-1.807,10.684-.861,20.99-2.277,31.615-3.21,2.908-2.106,7.947-1.506,10.978-1.609,5.134-.189,10.426-2.082,15.65-2.665,4.486-.508,9.068-.031,13.458-.662,2.754-.4,5.285-1.382,8.05-1.739.8-.1,1.921.268,2.936.13.724-.1,1.423-.71,2.123-.741.758-.048,1.818.508,2.5.521,3.845.1,7.587-1.307,11.4-1.588,2.71-.2,5.2-.35,7.154-.521,6.839-.607,12.909-1.159,18.939-1.255,4.04-.072,5.611-.929,8.454-1.3,6.733-.892,13.87-.319,20.63-1.6.909-.178,1.722-.971,2.572-1.146,3.711-.772,7.309.024,10.941-.772,1.149-.213,1.118-1.7,2.589-1.564,3.632,2.363,6.907-.219,10.526-.8,2.7-.425,5.885-.058,8.828-.446,2.12-.267,4-1.187,5.94-1.416,2.336-.268,4.9.147,7.141-.1,3.231-.35,6.17-1.557,9.3-1.684,7.127-.285,11.778-1.807,17.718-2.143,6.187-.364,9.888-1.777,14.789-2.288,3.155-.329,6.564.508,9.655.01.868-.137,1.609-.923,2.565-1.142,2.73-.631,5.724-.014,8.417-.466,2.222-.377,4.212-2.445,6.338-.977,2.212-1.677,4.685-1.091,8.029-1.324,4.98-.346,8.993-1.835,13.952-2.322,6.016-.58,11.236-1.351,15.609-1.814,5.618-.607,10.07-1.6,15.585-1.41,2.744-1.976,8.982-.144,11.04-2.871,3,1.163,7.052.556,10.906.069,3.145-.4,6.493-1.5,9.723-1.66,4.644-.25,7.487-.974,10.968-1.2,4.023-.264,5.638-.048,7.631-1.759,2.785,1.235,5.378-.264,8-.487,8.317-.683,16.607-1,24.835-1.831,1.32-.134,2.541-.556,3.807-.669,5.652-.5,9.737-1.293,14.347-1.879,7.974-1.026,16.26-.971,23.26-4.006,14.13.189,26.649-2.483,41.263-3.2.936-1.591-.593-3.769,2.665-3.238,2.054.432-1.615,2.487,1.149,2.569,2.524.573,1.2-3.063,3.478-2.785,10.406.58,16.02-1.458,24.077-3.546,1.485-.021.737,2.006,2.435,1.79,2.322-.086,6.743,2.185,10.45.888,1.228-.6-.778-2,.528-2.5,1.921-.144,1.026,2.281,2.843,2.222a176,176,0,0,0,17.728-2.147c1.4-.367,1.406-2.264,3.433-1.945,1.485.113,1.458,1.615,3.3,1.406,4.706-1.029,10.684-1.787,14.367-2.3,2.751-.384,5.8-.01,8.413-.47,1.656-.292,3.073-1.235,4.688-1.465,2.2-.326,4.562.189,6.722-.127,3.365-.49,6.818-2.1,10.176-2.483,3.409-.394,6.925.151,10.087-.391.94-.161,1.656-.881,2.565-1.146,4.26-1.221,8.749.264,12.68-1.955a3.54,3.54,0,0,1,2.49.528c2.668-1.711,6.626-1.18,8.88-1.279,4.455-.213,8.756-2.3,13.125-2.775,1.475-.165,2.994.35,4.61.206a146.067,146.067,0,0,0,18.174-2.97c2.195.494,3.783.038,5.882-.161,4.819-.453,9.164-.556,13.479-1.08,5.374-.648,10.9-2.744,15.238-3.1,3.248-.267,6.352.487,9.236-.01.758-.13,1.584-.9,2.572-1.149.758-.192,1.893-.079,2.528-.305,1.259-.446,1.962-1.368,3.423-1.523,2.01-.22,4.393,1,6.266.7a6.235,6.235,0,0,0,3.9-2.768c1.176.124.432,2.013,2.017,1.773,3.539-1.965,8.3-.237,12.618-.7,1.756-.189,3.608-1.166,5.522-1.43,5.145-.724,12.045-.94,16.428-1.372,1.416.093.734-2.12,2.185-2,1.149.422,1.447,1.622,2.857,1.807,7.37-1.907,17.485-.8,24.08-3.553,10.543.689,20.616-2.926,32.01-2.771a27.784,27.784,0,0,1,3.848-1.506c4.369.864,10.179-.8,16-1.389,5.289-.528,11.116.7,12.707-2.788,1.118.586,1.409,1.921,3.282,1.818,3.608-1.224,7.439-.827,10.944-.768,2.168.038,4.356-.761,6.757-.96,1.5-.123,3.073.292,4.613.209,7.117-.388,14.933-2.061,21.5-2.408,1.447-.069,2.867.412,4.188.189,1.4-.233,2.819-1.389,4.26-1.5,1.718-.11,4.373,1.2,6.263.707,1.252.045,1.471-1.026,2.572-1.146,4.16,1.547,8.667-.425,13.04-.683,1.924-.11,3.992.329,5.861.261,2.785-.106,5.313-1.036,8.032-1.317,3.7-.391,7.312.261,10.906.058,3.262-.175,6.64-1.348,9.723-1.66,1.753-.189,3.543.929,5.066-.617-.449-1.818.123-2.072.185-4.181-3.125-1.29-7.175-.017-9.692.827m-289.026,45.056c1.423-.045,3.378.48,4.2-.23-.072-2.511-3.207-.247-4.2.23m-137.189,18.253c-.535-.051-.559-.562-1.241-.477-.7.995,1.368,1.293,1.241.477m-19.8,1.629q-1.044-.041-2.089-.089c-.823,1.972,2.6,1.646,2.089.089m-90.239,9.843c.8-.144,2.5.686,2.137-.744-1.039-.106-2.034-.165-2.137.744m-27.445,3.814c-1.351-1.327-1.338,1.492,0,0m-467.406,55.2c.813-.144,1.814-.079,1.732-1.187-.559-.024-1.115-.048-1.677-.075-.017.422-.034.84-.055,1.262M55.318,579.24c1.372,3.642,7.37.813,8.852-.861a20.976,20.976,0,0,0-8.852.861M1383.336,43.624c-1.06,1.485-1.406,3.735-3.944,3.6-1.927.027-1.79-1.842-3.258-2.243-2.737,1.163-5.186-.072-7.607,1.341-.9-.391-1.382-1.149-2.9-.967-2.943.693-5.227,2.048-8.845.864-1.6.014-1.67,1.687-3.43,1.53-2.744-.662-4.692-1.242-7.124-.319-1.471-.659-2.14-2.054-3.649-2.682-.624,2.439-2.274.041-3.776-.168-1.351.137-1.245,1.852-2.6,1.986a19.239,19.239,0,0,1-5.333-2.754c-.288.854.394,2.771-.545,2.912a18.963,18.963,0,0,0-7.542-.336c.226,2.737-.772,4.129-2.716,4.5-2.017-1.094-3.985-.871-6.28-.278-2.654-2.325-5.741-3.073-9.98-2.123-1.756-.13-1.934-1.711-3.7-1.845-5.738,1.067-10.083.1-14.254-.213.014,1.732,3.128.628,2.384,3.042-1.941,1-2.829-.724-4.572-1.039a29.311,29.311,0,0,0-9.672.408c-1.893.305-4.8-.418-5.518,1.434,1.067,1.4,4.037-1.1,4.572,1.043-2.336.439-1.818,3.536-2.723,4.493-1.866.106-.429-2.819-2.394-2.62a28.953,28.953,0,0,1-6.3.137c-.81-1.615-4.688-5.477-5.786-1.938-.106,1.571,2.956.24,2.854,1.8a15.624,15.624,0,0,1-5.974,2.257c-4.572-2.939-11.641,1.574-16.236-2.823-2.778,1.372-8.458-.689-9.716,1.248.24,1.125,2.312.576,2.006,2.188-2.963-.257-5.158-.96-7.957-.353-1.677.367-3.155,2.068-4.716,2.308a10.327,10.327,0,0,1-8.279-2.466,13.255,13.255,0,0,1-5.086,1.032c-.97,1.084,1.252,4.325-.26,5.865-1.17-2.017-2.675-3.714-3.944-5.628-3.584.785-6.918-3.978-7.995.48-1.029.46,1.938.6,1.595,1.749a17,17,0,0,1-10.142,1.65c-2.024-.381-3.5-2.339-5.765-2.356-1.252-.007-1.746,1.08-3.4.689-.093,1.32,1.008,2.545-.943,2.476-1.389-.069-.322-2.387-1.128-2.987a33.393,33.393,0,0,0-5.069.614c-.031.833-.065,1.674-.106,2.514-3.076,1.468-7.185,1.8-11.016,2.445-.36-1.283-.744-2.531-1.094-3.824-3.162,1.025-4.03-.007-7.535-.336-1.852,1.073-.888,3.536-1.042,4.572-2.236.744-5.662.086-7.957-.353-2.891,2.109-7.837,1.976-12.271,2.391-1.739-1.893-4.942-2.445-7.4-3.68-.943,1.3-3.385.977-3.893,2.761-2.164-.645-5.268,1.194-8.434.885-.72.528-.412,2.181-1.77,2.02-3.344.113-3.639-2.572-5.275-4.013-1.739-.141-2.62.655-2.627,2.4.353,1.159,3.488-.24,3.3,1.41a26.882,26.882,0,0,1-6,2.668c-2.685-3.142-7.058,1.8-8.7-2.483a8.624,8.624,0,0,0,2.565-1.146c-.515-2.764,1.008-3.3,1.482-4.97-1.811-.929-5.686-.779-7.137.1-.789,1.362.127,1.869-.172,3.766-.947.573-2.8.161-3.4,1.108-.086,1.711.593,4.061-2.3,4.517-1.794-.367-1.526-2.627-3.659-2.682-1.89-.309-2.545.731-3.824,1.094-.868-.285-1.149-1.091-2.473-.953-3.588,1.65-7.583-.031-11.342.333-3.553.346-6.863,2.336-10.149,1.65-3.536-5.488-6.856,3.028-12.621.7-1.375.988-1.873,2.932-3.118,4.061a16.877,16.877,0,0,0-12.71,2.788c-.933-.892-2.181-1.492-2.384-3.046.734-2.562,4.116-2.236,4.027-5.693-1.252-1.533-5.227-.573-7.065-1.574-1.293.045-.8,2.058-2.583,1.564-1.759-.4-3.43-.881-4.091-2.277.9-2.452-1.152-4.287-.617-5.062,1.331-.147,1.444.82,2.908.549a2.008,2.008,0,0,1,1.372-2.456c8.231,4.582,17.18-1.464,26.8,1.19,1.317-2.521,5.028-2.5,6.774-1.382.333,2.12-1.945,1.4-2.226,2.84,3.063,3.306,6.859.46,9.71-1.248.5-1.053-1.187-2.051.113-2.511a64.287,64.287,0,0,1,13.112-2.356,18.838,18.838,0,0,1,2.02,1.77c5.92-1.019,12.762-3.941,19.378-1.657,2.065-1.684,6.239-2.435,9.3-1.684,3.413-2.709,10.883-.984,14.021-3.992,1.252.734,1.3,2.565,3.245,2.658a36.256,36.256,0,0,1,10.581-2.044c1.492-.271,1.183-2.511,3.042-2.384.209,1.279.549,2.445,1.982,2.607,2.61-.816,3.117-1.022,5.885-.158a47.855,47.855,0,0,1,24.015-2.291c1.784-2.25,4.706-.6,7.213-1.777-.185,1.708-1.79,2.13-1,3.728,4.657.264,3.495-5.844,9.017-4.634,1.173-2.219,3.793-3.673,1.543-6.225-2.528.556-5.124,2.15-8.087,2.579-2.8.4-6.06-.014-8.859.864-2.02.638-3.292,2.061-5.127,2.288-2.72.34-4.935-.83-7.089-1.152-3.3,1.094-5.3,1.427-10.125,1.231-2.3,1.873-6.733,1.42-9.761,2.5-.467-.645-.281-1.886-1.6-1.753a35.011,35.011,0,0,1-13.427-.175c-1.722.165-1.766,2.161-3.858,1.924-7-1.657-12.752,1.485-17.78,3.406a9.29,9.29,0,0,0-6.616-1.969c-1.406.141-2.377,1.19-3.851,1.506-2.85.61-6.273-.147-8.448,1.3-3.337-2.531-7.052,1.221-11.73-.521-.734.223-.051,1.986-.926,2.058-1.975-.1-4.236-.943-6.684-.717-1.3.12-2.466,1.142-3.828,1.091a22.777,22.777,0,0,1-2.9-.967c-5.066-1.2-6.54,1.8-9.8,3.337a5.784,5.784,0,0,0-5.007-.645c-1.338-.648-1-2.833-3.238-2.658a34.8,34.8,0,0,1-17.382,3.845c-.981.24-1.18,1.341-2.164,1.585-1.087-.614-1.17-2.15-2.836-2.226-2.473,1.694-6.28.9-9.233.007-1.9.271-2.4,2.061-4.3,2.329-6.534-.95-12.131-.418-16.871,1.77-1.331-.655-.995-2.836-3.241-2.661-1.626-.031-.833,2.6-2.219,2.836-2.764.525-5.374-.562-7.957-.353-2.8.226-4.932,1.677-7.192,1.358-1.934-.271-3.138-1.986-4.953-1.9-2.185.106-3.848,2.171-5.193,3.55-1.259-.593-2.027-1.633-3.7-1.845-3.114.984-8.177-.154-10.162,2.068-5.525-4.6-8.5,4.188-16.463,2.205-2.812-3.831-7.59.353-10.4-2.14A19.994,19.994,0,0,1,887.4,70.27c-2.74-.652-3.516-1.969-5.865-.261a2.956,2.956,0,0,0-2.439-1.787c-3.176.679-5.861.185-8.869,1.283-1.567.573-2.555,1.955-4.3,2.329-3.632.772-7.463-.353-11.328-.082-2.778.2-5.851,2.61-8.849.864-.816.134-.4,1.609-1.732,1.183-1.869-1.773-7.2-.381-9.14-2.085-1.54.614-3.57,2.685-5.151,2.709-6.709.093-15.1,3.317-20.654,2.017-2.02,1.6-6.256.779-8.893,1.7-1.684.34-1.2-1.307-2.891-.971-1.612,2.48-6.211,1.7-7.737,4.277-1.969.045-3.334.744-5.09,1.029-.216-.734-1.989-.055-2.051-.929-2.583,2.01-5.755.244-9.25.429-4.342.233-10.224,3.107-13.53,2.339-1.187.316-1.091,2.034-2.61,1.982-.281-1.485-1.66-1.965-3.262-2.243-4.174,2.017-9.8,2.456-15.643,2.658-1.8.957-3.529,2-6.77,1.379-1.293.641-1.667,2.284-3.066,2.806-1.173-.13-.436-2.017-2.017-1.773-1.516.394-1.5,2.469-3.461,2.367-1.626-.662-3.268-1.307-4.956-1.9a28.2,28.2,0,0,1-5.515,1.427,40.543,40.543,0,0,1-5.923,1c-.6,0-1.4-.61-2.071-.511-2.312.346-4.5,1.952-6.811,2.219-.967.106-2.387-.624-3.334-.569-1.32.065-2.747.96-4.246,1.067-5.968.436-9.987,2.006-15.571.991-3.272,2.277-8.331,2.6-13.551,2.751-2.62,3.9-6.952,2.257-11.438,2.432-.59.024-.748.655-1.293.779-.775.185-1.9-.274-2.511-.106-.827.22-1.567,1.224-2.589,1.561-2.651.878-4.935-.292-7.556.086-2.466.353-4.291,2.521-6.41,2.651-2.758-1.667-6.475-.388-10.052-.446-.885.614-1.046,3.464-2.61,1.982-1.3-.806,2.8-2.576-.285-2.953a14.208,14.208,0,0,1-4.411,4.843c-3.268-3.618-8.43-.226-13.407-.6-.679.573-.422,2.171-1.766,2.024-5.069-2.967-8.159,2.037-13.859.219-2.572,2.017-7.8,1.132-10.618,2.884-1.468.274-1.581-.693-2.912-.545-.9.333-.8,1.749-2.168,1.581-1.876.247-2.49-.672-4.171-.607-12.467,2.034-25.575,3.371-37.607,5.882-1.547-.46-2.106-1.821-4.551-1.458-.84.25,0,2.339-.953,2.473a69.336,69.336,0,0,0-15.2,2.264c-1.386.381-2.572-.367-3.766-.161-.693.106-1.41.981-2.15,1.156-1.142.271-1.976.051-2.95.292-2.792-1.735-6.925-1.574-10.852-1.32-1.19,1.917-3.032,3.124-4.013,5.275-1.389-.206-1.807-1.3-3.735-1-2.713.082-4.541,1.478-7.192,1.358-1.821-.086-3.749-1.482-5.806-1.519-3.882-.062-7.329,3.334-11.939,4.088-2.058.34-4.939-.2-7.134.1-2.771.384-4.222,1.629-6.3.141-2.181,2.13-6.719,2.62-9.267.847-3.008,2.819-6.42,2.092-10.6,2.466-3.93.346-8.272,1.749-13.057,1.1-1.749-.24-3.385-1.43-5.405-1.08-.525.9-.206,2.706-1.392,2.878a22.8,22.8,0,0,0-8.886,1.7c-4.784-.689-10.982.875-15.605,1.825-4.05-2.994-9.445-1.773-11.418,2.01-3.491-1.578-7.024.652-10.546,1.214-5.052.8-10.361.418-14.384,2.713-1.766-1.581-6.407-.528-9.583-1.681-3.756,3.454-10.317,1.207-15.643,2.658-.806.881-.535,2.932-1.828,3.282-2.97,1.362-5.206.062-7.5-1.176-2.144.8-4.4.271-6.76.96-1.547.453-2.589,1.773-4.28,1.907-1.44.113-3.738-.995-5.82-1.1-.566-.024-1.612.422-2.116.326-.919-.175-1.458-.9-2.48-.95-5.882-.278-10.924,1.958-16.878,2.188-2.03,4.435-6.794,6.019-11.97,4.922-.34-1.657,1.036-2.391.151-3.347-10.629.206-20.825,3.1-29.962,3.7-1.29.086-2.548-.5-3.766-.168-2.161.6-3.608,3.269-5.635,3.948-2.054.693-4.044-.048-5.9.576-2.123,3.975-9.37,2.346-15.207,2.264-1.423.408-2.589,2.013-4.3,2.325-2.764.511-5.892-.885-8.814.031-2.723.847-4.661,3.687-8.122,3.416-2.168-1.5-5.621-1.821-8.7-2.487-.7.7-.319,2.586-1.386,2.878-5.927-3.087-9.449,2.984-15.574.988-2.891,2.658-6.739,3.611-12.272,2.391-5.213,4.7-15.252,4.116-24.533,4.366-1.152.5-1.588,1.78-2.624,2.4-2.222-.381-4.191,1.423-6.376,1.807-4.723.84-9.908-.731-14.7.192-1.176.223-2.034,1.255-3.008,1.543-.7.2-1.619-.288-2.511-.11-1.828.36-3.786,2.03-6.359,1.392a5.806,5.806,0,0,1-6.355,1.4c-5.676,2.288-14.371,1.272-19.889,3.732-.542,1.831.614,2.12.689,3.392-2.559,1.451-6.523,1.362-8.945,2.956-1.67.058-2.061-1.063-3.735-1-1.567,3.121-6.441,2.62-9.415,4.2-.49,1.653,1.194,1.32.707,2.967-1.039.772-2.984.545-3.443,1.945,2.3.96.213,2.2.233,4.208,1.9,4.918,9.994-.408,12.4,4.328-1.478,1.022-3.886,1.022-5.539,1.855-3.684,3.577-2.685,10.32-6.06,13.575.082,1.989-.871,2.85-.641,5.011-1.314,2.363-4.514,2.672-6.084,4.764,3.269-.47,4.7.072,5.333,2.751-3.66,2.3-9.843,1.831-10.807,7.079a15.955,15.955,0,0,0-2.97.7c2.86,5.392,7.72.12,11.8-1.149,1.777-.552,3.8-.3,5.484-.593.813,1.146,2.377,3.241,1.907,4.28-3.519,3.615-9.054,5.031-12.556,8.677,1.135.429,1.146,1.893,1.547,3,1.468.665,4.167.206,3.656,2.679-1.554,2.764-6.149,2.048-8.962,3.382-.875.415-1.049,1.657-2.168,1.581a8.388,8.388,0,0,0-4.263,1.488c-1.039,1.787-.134,3.742-.261,5.868-1.581,1.049-4.009,1.176-4.757,3.142,3.426,3.176,8.18-2.363,11.822-1.571,2.006.439,3.872,2.665,3.927,6.043-1.509.676-3.461.178-5.025-.223-1.578,1.355-3.3,2.548-4.393,4.424,3.179,4.85,8.962-.772,13.4.6a3.993,3.993,0,0,1-1.4,3.293c-7.655,1.3-14.254,3.738-18.839,8.4a9.073,9.073,0,0,0,3.526,5.608c7.46.755,10.752-4.63,16.96-3.862,4.438-4.956,14.672-3.577,20.054-7.5,1.122.048,2.233.1,3.354.147,3.114-1.039,8.821-3.272,11.421-2.013-3.076,3.375-7.192,5.614-13.667,5.268-2.754,3.135-9.325,2.1-12.385,4.908-3.841-.1-5.69,1.976-8.924,2.538.069,1.468-.23,1.554-.607,4.174-1.1.868-3.848,1.715-3.083,3.221,1.554.322,4.459-.6,4.133,1.44.408,1.488-2.452,2.757-3.533,4.04-1.149,3.577-4.109,5.169-5.817,8.135-.95-.165-1.581.031-1.711.758,4.911-.59,11.167-1.77,15.492.693.916.634.724,2.281,1.982,2.607,2.562.6,3.049-1.063,5.481-.6a10.772,10.772,0,0,1,1.166,2.15c-2.048,1.091-2.8,3.728-1.537,6.225a19.1,19.1,0,0,1-3.975,4.438c1.53,3.728,8.739,3.2,11.291.926.912,1.17,3.992.357,4.534,1.879,1.317,4.112-4.143,5.683-2.391,6.6,2.15.151,3.756,1.3,5.807,1.519,6.486.71,11.291-1.646,16.061-2.641,2.415-.508,4.8-.093,6.739-.545,3.046-.707,5.319-1.818,8.067-2.161a22.67,22.67,0,0,1,4.627-.213,16.208,16.208,0,0,1,3.008-1.54c12.848-.6,21.878-5.368,34.678-6.016,3.245-1.718,8.108-1.677,12.673-1.955,1.012-1.536,4.983-2.157,7.175-.943-.082,1.077-1.811.367-1.348,2.048,3.858.549,7.971-.943,11.308.5-1.715,1.924-3.982.851-6.372,1.814-2.054.816-3.234,2.977-5.2,3.546-2.343.672-4.911-.223-7.158.518-1.046.343-2.147,1.533-3.025,1.962-3.461,1.677-6.887,2.216-10.234,3.745-1.3,3.611-3.018,6.609-1.742,10.831,6.071,1.533,13.784-4.215,18.867.415.007,1.3-1.1,2.329-.151,3.354-3,.113-2.411,3.286-3.553,4.459-4.037-.833-8.677.034-13.458.659.082,3.018-1.423,4.308-3.176,5.32.285,2.5-.995,4.143-.257,5.858,3,1,5.309,2.648,8.228,3.728-1.259,1.255-4.311.559-5.94,1.41.864,5.193-3.742,4.4-3.742,8.643.422,1.629,3.234,1.056,3.66,2.689-1.9.844-2.442,3.183-3.574,4.874,2.548,3.622,1.406,8.461,3.227,12.313-1.43.628-3.7.346-3.478,2.782a13.709,13.709,0,0,1,7.823,3.286c-1.677,1.231-1.1,4.942-2.391,6.6,3.8,2.624,4.212,10.347-1.759,11.253-.357,2.48-.027,5.443-1.19,7.923,1,2.027,4.126,2.12,3.965,5.213-.758,2.1-4.9.5-5.971,2.253.333,4.246,5.851,3.749,8.111,6.242,2.281-.885,6.99-2.792,9.271-.854-1.012,2.7-4.977,2.168-7.686,3.015-.391,3.382-4.448,2.751-6.088,4.767.991,2.373.353,3.732.542,6.736-1.859,2.075-7.271.247-8.128,3.419.707,1.766,3.2,1.893,4.479,3.131-.72,1.7-1.818,3-2.318,4.932,1.279,1.643,2.109,3.708,3.546,5.193-2.644,1.506-7.607.47-9.363,2.943-2.535-1.413-7.384.957-10.162,2.068-2.95-.5-7.292.25-7.724,3.852.319.11.47.374.384.857,6.088,1.163,11.1-2.449,17.317-2.589.346.758,1.513.761,1.6,1.756-.971,1.715-.281,5.251-2.356,5.765-4.171-.456-5.789,1.869-7.724,3.851-1.958.35-4.791-.257-5.518,1.434.237,3.56,4.26,1.749,5.275,4.016-.809,3.32-4.486,5.367-7.816,5.944-1.238.216-2.449-.254-3.769-.168-5.954.4-11.39,4.435-16.576,4.719,1.307,3.347-1.351,3.677.542,6.739-5.7,1.818-12.347,2.607-17.433,5.1-.765-.514-3.478-.223-3.423,1.53,10.361,1.067,17.951-4.668,28.336-5.035,1.115,2.329,3.581,3.423,4.788,5.662-3.1,1.886-6.266,3.7-10.677,4.147C70,549.474,69.1,551.411,67.415,552.5c-1.838.309-4.7-.384-6.722.123-1.66.422-4.411,1.982-3.056,2.8,1.89-.408,3.478-.971,5.46-.168,2.98-1.139,5.131-3.186,9.764-2.511,1.931-1.4,3.865-2.8,7.648-2.178,2.157-1.235,9.411-4,10.927-.353-1.077,1.163-3.4.971-5.5,1.012-3.882,2.061-8.883,2.878-13.606,4.009-3.306,3.419-7.635,5.714-14.1,5.669-2.26,2.216-6,2.809-9,4.219.055,3.57-3.337,3.382-3.649,6.551,11.009-.456,20.15-4.534,30.089-6.64,2.806-.586,5.913-.254,8.849-.854,3.124-.652,6.42-3.382,10.186-2.493,2.3-1.286,4.634-2.541,8.489-2.144,1.972-1.962,4.678-.94,7.192-1.358,2.819-.46,5.494-1.989,8.506-2.559.765-.144,1.66.24,2.514.117,3.426-.5,6.966-1.749,10.577-2.048,2.27-.185,5.412-.521,7.521.744-6.637,4.9-16.205,3.879-25.023,6.029-4.133,1-8.293,3.152-12.333,3.649-1.238.144-2.236-.367-3.351-.147-4.078.8-7.621,3.227-11.514,4.1-2.4.535-5.073-.007-7.154.525-2,.508-3.025,1.948-5.121,1.869-2.054,3.755-8.386,2.833-9.565,7.545,3.814,1.622,5.923-1.862,9.723-1.667a4.665,4.665,0,0,1,1.965,3.025c-1.516,2.74-5.916,2.312-8.962,3.382-1.211,1.019-1.605,2.929-2.7,4.075-4.726,2-11.637,1.629-13.318,6.962,2.737,1.049,4.6-1.259,7.556-.082,1.386-.1.947-2.192,2.61-1.982,5.124-.247,8.207-3.056,13.108-2.356,1.31,2.013,3.687,3.052,5.68,4.445,2.233.439,3.471-.7,5.025.226.662,1,0,3.221,1.091,3.828,2.332,1.111,6.321-.415,8.321,1.629-1.684,2.113-3.656,3.9-5.306,6.057-3.756.727-8.2.693-9.819,3.762,9.6,4.452,16.867-1.42,26.076-1.362,2.308-2.332,7.833-1.893,11.805-1.159,2.95-2.034,6.942-2.95,11.874-2.83.672.864,2.068,1.06,1.543,3.011-2.912,1.993-7.329-.659-10.577,2.048-1.375,1.084,1.242,1.845-.134,2.929-4.52,1.6-8.88,1.6-14.734,1.025-.391,1.91-1.79,2.727-2.7,4.078,5.508-1.43,10.347,1.056,15.5.689,1.561-.117,3.539-.761,5.5-1.019,4.4-.576,8.509-.868,11.418-2.006,1.248-.5,1.66-1.389,3.008-1.55,2.048-.244,4.143.888,6.263.7,3.142-.271,5.618-1.6,8.506-2.552,5.124,2.329,9.806-.075,14.714-.607,5.611-.61,11.4-.569,15.643-2.665,1.8,1.279,3.382-.528,5.062-.614,1.777-.089,3.587.761,5.429.659,1.969-.1,3.917-1.444,5.954-1.835a58.749,58.749,0,0,1,7.182-.936,98.2,98.2,0,0,0,10.121-1.231c2.3-.319,4.627-.089,6.736-.538.765-.158,1.406-.96,2.154-1.159,4.74-1.262,9.867-1.283,14.751-1.447,8.355-3.166,20.218-2.487,27.976-6.307.974.178,1.54.724,2.912.552,2.96-1.859,6.623-.892,10.145-1.657,1.533-.322,3.087-1.533,4.7-1.886.833-.175,2.082.226,2.932.13,2.181-.237,4.27-1.468,6.372-1.818,8.331-1.341,17.344.045,24.5-3.526,5.271.052,10.221-.237,13.935-1.9,4.747,1.9,9.085-2.092,13.859-.219,1.948-.953,3.694-1.876,6.335-.981,2.281-2.377,6.314-.892,10.125-1.221,1.79-.161,3.611-1.173,5.522-1.437,5-.7,10.269-.6,15.17-1.427,2.339-2.233,7.772-3.063,11.839-1.986,1.571-.2,1.787-1.855,3.443-1.948l5.025.216c2.583-3.317,6.99-.5,10.526-.785,2.507-.206,3.135-1.416,5.134-2.288,4.472.521,8.008-2.771,12.316-3.234,4.634-.5,9.991,2.4,13.89-1.06,2.528.892,4.394.411,6.705.295,2.709-.12,3.341-.827,5.5-1.012,4.757-.4,7.175-3.461,12.2-.717,3.814-1.358,8.55-3.173,13.513-1.914,1.849-2.367,5.9-.7,9.288-1.269,2.329-.384,2.857-1.965,4.719-2.308,10.642,1.444,18.431-4.123,27.352-1.718,5.014-1.156,11.277-2.644,16.864-1.77,1.351-.137,1.55-1.536,3.008-1.55,6.417-.593,13.026-.984,18.977-2.1.864.285,1.149,1.094,2.476.953,3.327-1.886,6.338-.573,10.107-.809,1.657-.106,3.543-1.128,5.518-1.43,3.148-.487,5.374-.731,7.593-.926,1.259-.11,2.572.271,3.773.168,2.315-.189,6.173-1.526,7.628-1.753,3.522-.586,6.733.2,9.651,0,1.794-.12,3.581-1.262,5.515-1.43,3.344-.285,7.569.628,10.927-.357,1.317-.384,1.986-1.687,3.447-1.948.72.415,1.176,1.07,2.034,1.358,3.852-2.535,11.863-.508,16.068-2.644.984.031,1.2.775,2.5.532,2.209-2.415,7.844-1.091,11.016-2.449,6.475,2.874,12.014-1.749,18.881,0,1.111-.552,1.859-1.485,3.025-1.965,4.133.436,6.877-2.051,10.931-.357,7.185-4.085,17.739-1.9,27.829-2.96,1.547-.357,2.013-1.886,3.461-2.363,2.96-.806,4.85.967,7.5,1.17,5.031.4,9.566-3.186,15.245-3.1,1.934.031,3.474,1.019,5.851.679,3.481-4.219,9.517-2.1,14.388-2.72,2.274-.285,4.579-1.393,7.209-1.773,2.72-.391,5.807-.35,8.43-.888,6.321-1.3,16.706-1.067,21.967-3.214,4.335.573,8.749-.926,13.492-1.506,7.494-.919,15.612-1.876,22.784-2.761a17.285,17.285,0,0,1,7.12.315c.734-1.835,3.972-.929,6.342-.977,2.939-2.579,6.695-1.17,10.138-1.639,1-.144,2.006-.9,2.987-1.135,5.038-1.2,11.03-1.468,16.47-2.2,2.387-.329,4.8-.586,7.168-.947,3.464-.518,7.559-1.382,10.968-1.187,4.733.271,7.881-1.427,12.254-1.972,6.962-.871,14.062-1.1,21.069-2.006,1.3-.168,2.4-.885,3.834-1.087,3.07-.439,6.65.158,9.662-.408,1.18-.223,2.178-.971,3.409-1.108,6.77-.737,13.76-.525,20.215-1.622,1.879-.322,3.639-1.252,5.515-1.437,2.936-.292,5.385-.357,7.158-.511,5.6-.5,11.661.141,16.806-.518,1.3-.161,2.387-1.2,3.848-1.506,1.756-.367,3.725.134,5.464-.178,1.266-.226,2.219-.964,3.4-1.111,5.409-.672,10.443-.556,15.609-1.821,1.427.175,1.962,1.146,3.731,1.012.954-.724,1.677-1.681,3.025-1.969,27.9-3.9,57.732-5.7,86.813-8.31.991-.089.844-1.42,2.154-1.166,3.461,1.077,6.191-1.049,9.689-.83a17.961,17.961,0,0,0,4.62-.216c3.1-.429,6.822-.281,10.111-.806,3.862-.621,7.679-1.725,11.424-2.01,3.43-.261,5.268-.182,7.607-1.344,1.015-.123.878.809,2.075.511,2.349-1.451,5.073-1.019,8.036-1.32,5.625-.562,11.623-2.349,17.334-3.008,4.418-.5,9.319-1.314,12.618-.693,1.077.2,1.9.95,2.895.967,3.255.058,6.544-2.562,9.692-.827,2.185-1.91,4.057-.7,6.739-.538,6.266.367,9.62-2.74,13.986-3.159,1.622-.154,2.974.713,4.585.617,3.478-.175,5.3-2.36,8.146-3.831,3.406.295,4.455-1.032,6.774-1.372a102.464,102.464,0,0,1,13.884-.648,67.952,67.952,0,0,0,8.427-.885c.563-.055,1.588.525,2.079.511,4.112-.065,8-1.591,12.237-1.55,3.371.038,6.479.833,9.631.429,6.009-3.292,14.226-3.207,21.981-3.642.727-.23.748-1.238,1.338-1.619,5.827,3.6,12.248-2.415,19.278.436,1.612-1.293,3.571-.8,5.92-.995,2.682-.223,5.789-1.725,8.046-1.739.792-.007,1.3.583,2.078.508.511-.048,1.238-.7,1.711-.758,3.563-.429,7.223-.528,10.965-1.19,5.618-5.741,15.1-2.14,24.478-3.114,4.26-3.389,10.214-2.9,16.517-3.457,9.792-.875,23.171-4.315,32.435-2.758,2.71-2.908,7.552-1.173,12.261-1.976,6.575-1.125,15.945-1.9,22.266-.689,2.682-3.07,9.733-1.365,15.173-1.42,2.024-1.6,4.544-1.022,7.611-1.341,3.121-.34,6.835-1.519,9.308-1.687,2.552-.171,5.638.518,8.379.374,5.906-.319,11.99-.912,18.1-1.3,7.316-.463,14.72-2.027,21.933-2.377,2.171-.11,4.184.463,6.28.278,1.214-.106,2.449-.926,3.824-1.091,3.5-.422,8.427-.569,10.529-.789,2.459-.264,5.892.192,7.556-.079,1.142-.2,1.876-1.025,2.991-1.132,1.372-.137,2.658.226,4.184.182,4.507-.124,9.994-1.986,13.091-1.934,1.025.024,2.363.789,3.33.573,2.514-.58,3.553-3.008,5.275-5.227-3.546-1.108-3.848-6.767-.871-8.852,2.926-.6,6.863-.11,9.288-1.262-.1-1.379-1.142-1.9-1.543-3-5.306.412-10.478-1.814-15.437-1.945-1.043-.031-1.876.6-2.967.707a54.393,54.393,0,0,1-8.814.027c4.208-6.1,16.463-1.344,18.054-9.689-.926-3.066-5.193-2.442-4.788-5.669.439-3.515,7.408-3.059,10.708-4.98,2.01,1.122,6.119,3.389,7.144-.1-2.627-3.855-8.729-.151-12.923-1.842a14.594,14.594,0,0,1-4.263,1.492c-2.418-.6-3.238-2.95-5.717-3.615-1.08-.285-2.757.22-4.627.22-5.127,0-8.67.785-12.6.278-3.591-.466-8.245.851-10.838-1.742.49-.048.487-.641.477-1.231.96-.892,1.691.484,3.351.147,3.286-2.456,7.823-.892,11.8-1.156,3.533-.233,7.007-1.344,10.567-1.629,1.965-.161,4.49,1.036,5.92-1-2.991-1.039-6.047-1.242-9.541-2.521-.82-.854-.765-2.511-2.4-2.624-1.9-.549-3.594.8-5.5,1.019-3.762.422-7.857-.607-11.747-.1-1.224.154-2.363.905-3.406,1.1-4.98.929-9.494.23-13.434.24-1.657.384-2.329,1.852-4.284,1.91a7.473,7.473,0,0,1-3.694-1.842c-6.979.9-13.407.185-20.218,1.619-.837-.84-2.157-1.242-1.962-3.028,1.252-1.492,1.938.086,3.769.168,1.194-1.221,3.193-1.026,5.083-1.032,6.191,0,14.319.01,19.813-2.058,5.117,1.08,12.176-.127,15.965-.545.957-.106,2.054.285,2.936.134,1.073-.2,2.267-1.012,3.406-1.111,3.361-.316,6.811.552,10.07.027,1.475-.24,2.833-1.392,4.263-1.492,1.986-.134,4.222.7,6.266.7,5.282-.014,10.179-1.547,15.2-2.257.055-2.727-2.7-2.884-3.563-4.774.312-1.128,1.794-.971,1.783-2.442-1.458-.676-3.735-.59-3.656-2.682-.089-2.586,2.812-1.9,2.72-4.49-.765-1.31-2.888-1.375-4.527-1.879-1.53-3.635-2.915-3.509-7-3.251a129.853,129.853,0,0,1-14.693.189c-5.621-.319-11.225,2.72-15.115.161.4-5.21,6.393-2.185,10.622-2.881,1.313-.213,2.205-1.238,3.423-1.526,3.529-.83,6.938-.4,9.727-1.66,2.212,2.078,6.07.562,9.212.4,2.936-.144,6.16,1,7.2-1.358-2.593-2.315-6.036-1.917-8.742-1.646-4.908.487-5.9-2.075-9.1-2.922-1.276-.343-3.176.789-4.171-.607a3.439,3.439,0,0,1-3.886,2.346c-4.215-.5-4.493-8.307-.786-10.522,2.545-.233,4.685.809,6.276.278.823-1.585-1.334-3.485-2.308-4.723-5.631-.007-10.159,1.187-14.782,2.284-1.183-.127-.436-2.02-2.027-1.773-2.5.058-4.774-.432-7.113-.319-3.642.182-7.192,1.735-10.588,2.048-2.651.25-5.34-.977-7.936-.765-1.231.1-2.507,1.087-3.824,1.084-1.382.01-2.613-.833-4.146-1.022-3.265-.4-7.864,1.5-10.437-1.3.034-1.567-.418-1.214.113-2.511,2.284.22,4.383-1.571,6.8-1.8,1.142-.106,2.655.58,3.745.587,2.939.021,6.081-1.039,9.284-1.262,3.841-.278,7.9-.439,11.791-.741,3.718-.278,7.491-.614,10.941-.765,1.766-.082,3.766.463,5.439.237,1.108-.151,2.3-1.012,3.413-1.111.665-.055,1.368.518,2.072.514a103.248,103.248,0,0,0,14.34-1.461c1.571,1.739,5.618,1.677,6.729-.538-1.218-4.092-5.618-1.591-9.572-1.687-2.583-3.56-11.04-2.346-14.659-.652-2.322-1.753-5.347-2.871-7.333-4.935-4.366,1.077-6.527-2.778-9.5-3.365-2.195-.429-4.949,1.461-7.106-.734.055-1.118.1-2.233.147-3.351,1.039-1.794,5.3-.069,6.379-1.814-2.281-2.483-6.043-1.06-8.718-2.068-2.95-1.111-4.685-4.815-8.194-4.558-.477,2.216,3.125,2.264,1.928,3.862a3.85,3.85,0,0,1-4.953-1.9c-.837-3.217,2.384-5.834,2.068-8.725-.261-2.373-2.98-3.3-3.948-5.621-2.956.559-3.217-1.348-4.949-1.9-2.576.213-3.9-.72-6.266-.7-3.731,2.168-9.246.95-13.859.23-1.794.381-2.267,2.2-4.7,1.886-1.262-2.2-3.238-3.742-3.91-6.468.655-.6,2.387-.014,2.167-1.585-5.518,1.447-11.994-.61-17.667.9-1.732-.96-2.593-1.687-4.589-.621-.2-4.1-2.758-6.053-4.219-9-2.637-.4-5.175-.892-6.6-2.4,1.053-2.363,3.965-2.229,4.387-4.418.35-1.777-1.063-4.184-2.685-5.577-.96-.816-2.771-.971-3.7-1.842-1.166-1.1-1.032-2.939-2.363-3.461-6.578,2.7-15.224,1.831-21.93,2.38-1.739-2.157-5.33-2.617-5.162-6.52-4.387-.46-7.991.734-12.182.295-5.025-.514-9.991-2.912-15.046-1.506-2.226.624-3.67,3.4-6.462,3.91-2.86.521-4.277-.7-7.123-.316-2.024-2.3-3.207-5.374-8.17-4.98.264-1.31-.693-1.509-.292-2.956-2.651,1.08-5.268-.511-7.59.926.274.683,2.051,0,1.619,1.338-2.476.562-5.47-1.633-8.739-1.653-1.283,2.264-7.1-.442-7.669,2.6,2.082.377,3.258-.24,5.045-.2-1.893,2.926,1.145,3.762,1.416,5.937-3.416,3.413-9.823-2.792-6.842-6.6-3.913-3.646-6.681-.041-9.693.83-4.342,1.252-9.3.6-14.312,1.046-3.436.3-6.719,1.166-10.128,1.224-2.061.038-4.315-.473-6.28-.281-3.821.37-7.346,2.264-10.989,1.612-1.578.377-1.139-1.1-2.466-.95-3.653,1.938-9.607,3.45-14.789,2.281-1.152.5-2.274,1.022-3.43,1.526-10.989.027-18.692,1.423-29.465,2.048-1.334-.254-1.4-1.66-2.857-1.807-1.492-.508-4.9.737-4.987-1.056,1.787-.377,3.814-1.78,5.121-1.869,2.459-.178,5.388,1.3,7.923,1.183,2.274-.113,4.98-1.595,8.046-1.739,1.427-.065,2.854.408,4.188.185.885-.141,1.406-.916,2.15-1.166,4.74-1.564,10.55.521,15.55-.562,1.056-.226,1.979-1.039,2.991-1.125,1.684-.147,3.145.7,5,.645,1.341-.041,2.963-.905,4.243-1.073,3.155-.422,6.42-1.166,8.873-1.286,3.522-.175,6.5,1.44,8.468-1.722.9.521,1.331,1.461,2.435,1.783a58.5,58.5,0,0,1,10.972-1.187c2.2.038,4.225-1.259,6.352-1.4,1.259-.086,2.456.665,3.752.586,1.66-.11,3.351-1.331,5.1-1.458,6.324-.442,13.787,1.924,18.579-2.528a8.676,8.676,0,0,0,4.987,1.063c1.252.048,1.475-1.029,2.572-1.146,10.238,2.367,22.077.113,31.5-.7,6.232-.532,12.933.24,18.9-.415,1.739-.2,3.413-1.272,5.1-1.454,4.548-.494,9.12.316,13.1-1.931,2.315,1.982,5.117,1.139,7.936.768,3.262-.422,7.991.36,8.907-2.12-1.643-1.783-4.647-2.082-7.079-1.159-3.087-2.4-8.1.394-10.893-.484-.72-3.221-3.039-4.983-7.768-4.538-1.214-.635-1.471-2.137-2.823-2.648-5.049.154-15.893,3.653-17.1-2.439,1.464-1.176,2.668-2.644,4.76-3.142-.021-1.194-.7-1.78-.71-2.97-1.6-.868-2.521.631-4.644.635-4.153.007-7.854-2.03-10.1.813-2.888-1.825-8.111.257-11.253-1.763-2.963,3.447-7.628,2.421-12.333,3.646-3.889-2.757-11.832.953-16.257-2.4-2.867,1.488-6-.031-8.468,1.722-.868-.281-1.152-1.091-2.48-.95-1.207,4.534-8.945,1.934-13.547,2.754-1.334-.929-2.377-2.109-4.956-1.9-2.545,3.807-8.807,3.546-14.443,3.982-.46-4.747,4.04-4.7,7.792-5.536,4.534-1,7.432-.84,10.55-1.2,5.155-.6,9.747-.689,13.057-1.1a73.439,73.439,0,0,1,11.349-.336c2.6.11,5.025-1.091,7.61-1.338,1.43-.141,3.145.4,4.606.2,2.5-.333,4.939-1.365,7.556-.082,1.447-1.982,4.4-1.067,5.923-.995,5.693.264,12.745-1.355,18.521-1.272,1.269-2.267,5.12-1.725,7.264-3.035-3.083-4.02-7.23-1.224-12.522-1.4-1.807-.062-3.138-.768-4.592-.624-1.595.158-3.169,1.331-4.675,1.468-1.283.12-2.528-.665-3.752-.583-1.5.1-2.854.981-4.246,1.07-.912.055-2.1-.532-2.912-.549-1.149-.027-2.226.6-3.4.686-2.01.158-4.006-.343-5.861-.261-5.426.24-10.45,1.962-16.418,1.372-.665-1.406-2.871-1.4-2.353-3.882,2.9-1.636,5.378,1.108,7.991-.484,1.132.309.974,1.8,2.438,1.787.875-.953,3.077-.446,4.249-1.074,1.279-.854-.95-2.994.988-3.31,2.637.936,3.557,3.44,7.844,2.864,1.2-1.029.8-3.81,2.7-4.075,1.732.024,2.589.847,4.593.624,2.243-4.284,6.866-2.257,10.937-.775,1.639.027.84-2.6,2.229-2.836a13.076,13.076,0,0,1,2.836,2.222c3.752-2.521,8.187.093,12.189-.295,2.637-.257,5.34-1.746,8.049-1.746a15.547,15.547,0,0,1,3.327.573c3.5-2.322,9.5-1.917,13.986-3.155.377-1.818-.607-2.4-.233-4.208-2.775-3.2-9.48-3.32-13.345-1.852-3.79-2.648-6.89,1.012-11.339.333-9.236-6.149-22.468-1.811-34.733-2.377-1.588-4.037-11.428-.528-11.918-5.566,2.061-1.3,6.774-1.423,9.668-.412,1.818-.792,2.689-2.62,5.957-1.835.905-.621.923-2.212,2.607-1.979,2.555.069,2.908,2.164,5.357,2.332,1.91-.322,1.883-1.766,3.437-1.941,2.082-.237,4.122,1.986,6.211,1.955,1.228-.021,2.788-1.379,4.7-1.893,5.045-1.348,8.53-3.587,13.592-3.591.521-.892.2-2.7,1.385-2.874,6.218.007,10.193-1.108,15.928.285a12.813,12.813,0,0,0,2.74-4.911c-2.867-1.389-4.647-3.78-6.873-5.762-2.974-.1-5.093-.967-5.3-3.591-2.061-.254-2.854-1.681-4.071-2.7-1.989-.065-4.133.031-4.562-1.461A98.144,98.144,0,0,0,1449.921,141c.47-1.245,2.257-1.053,2.226-2.84-2.065-.254-4.414-.244-4.514-2.3.456-2.723,3.413-2.716,4.812-4.4-2.243-2.5-6.3-.158-10.077-.031-1.125.034-2.559-.278-3.766-.168-2.685.24-5.594,1.561-7.209,1.777-1.338.175-4.376.326-5.011-.641-.124-2.487,3.289-1.094,3.9-2.764-.49-2.685-3.389-1.379-5-.645-4.685-.192-8.248.545-13.863.226-1.334.3-1.835,1.5-3.423,1.526-.075-1.135-1.729-.833-2.02-1.77,3.79-2.641,10.032-2.2,14.007-3.574.786.213.707,1.228,2.058.929a43.442,43.442,0,0,0,4.7-1.89c.141.947,2.051.264,2.915.549,2.62-1.087,5.954-1.389,8.108-2.994,1.855-.021,3.618-.144,3.859-1.928-2.387.158-3.334-1.859-5.371-1.921-3.107-.082-6.211,3.09-9.761,2.507-1.725-.285-3.1-2.38-4.915-2.737-3.128-.617-8.173,1.406-12.241,1.554-4.428.165-7.185,1.756-10.45-.881,3.6-3.118,8.907-2.1,13.969-2.737,2.919-.367,5.92-1.66,8.91-2.12,3.649-.569,7.971-1.008,11.38-1.173,1.945-.1,5.031,1.317,5.933-1.42-1.969-1.338-3.3-.271-5.861-.257-2.449-2.147-4.8-2.126-8.259-2.888-1.265-.274-2.2-1.255-3.3-1.4-7.648-1.022-15.849,3.56-23.555,1.468-3.886,2.922-10.611,1.427-16.034,1.811-1.29.086-2.246.988-3.406,1.108-3.385.343-5.422-1.358-7.882-2.03a2.944,2.944,0,0,1,1.807-2.854c3.855.549,5.659-1.139,9.668-.415,1.06-1.77,5.4.048,5.978-2.253-1.54-.364-1.835.638-3.371.274-.655-.343.185-2.048-1.183-1.735-2.847.8-3.3,1.1-5.865-.261-1.06.3-1.694,1.077-2.984,1.128-5.47-.607-8.255,1.235-12.659,1.533-.909.065-2.027-.223-2.929-.13-3.591.37-6.7,1.6-9.308,1.684-2.692.093-5.415-1.759-7.974.065.13,2.092-1.9,2.4-4.321,2.747-2.61-2.154-5.728-8.015-9.408-5.45.367,3.138,2.96,4.249,4.767,6.084-2.281,1.166-3.464,3.533-7.672,2.6-3.516-7.106-13.383,0-19.207-2.113-1.818-.487-1.224-3.169-3.207-3.5-1.574.326-3.7.041-4.657,1.049-1.516.881,1.266,1.9-.11,2.514a9.005,9.005,0,0,1-7.562.082c-2.61,1.1-4.815,2.641-7.3,3.876-6.2-3.519-14.8,3.265-20.928-1.351a20.421,20.421,0,0,0-3.426,1.53c-.045-2.24-1.568-3.118-4.057-3.121-.511,1.735-1.509,2.264-3.094,3.639A2.96,2.96,0,0,0,1248,114.4c-1.252-1.849-3.334-.868-5.786-1.931a3.535,3.535,0,0,1-3.5,3.2c-1.537-.329-1.842-1.8-4.133-1.44-1.386.237-.586,2.864-2.223,2.836-1.67-.343-4.476.346-5.422-.662-1.2-2.058,1.293-2.3.559-3.334-.357.82-2.7.11-2.473-.95,2.826-2.74,7.436-3.2,11.407-1.588,5.875-2.672,13.338-2.264,20.266-2.874.816-.072,1.773-.717,2.548-.731.9-.017,1.564.665,2.493.532,5.261-.748,10-3.035,15.193-1.842,1.719-.607,3.221-1.461,5.92-1,1.722-2.216,4.956-2.778,8.523-2.977,3.855,3.142,8.3.2,13.86-.223,2-.154,4.14.415,5.861.261.813-.075,1.794-.971,2.991-1.125,3.077-.4,4.476-.35,5.937-1.42,6.259.549,12.237.792,14.806-2.7.563,1.094,2.14,1.259,3.272,1.821,6.331-2.154,17.505.977,21.566-3.656,2.6-1.063,5.594-.247,8.4-.045,6.167.446,11.332-1.7,15.207-2.264,2.723-.394,5.251-.329,6.736-.538,7.5-1.067,17.536-.357,21.964-3.224,3.491,1.392,6.691-1.118,10.526-.789.813-1.012,1.269-2.425,3.046-2.384,4.263,3.673,11.188.827,16.353.305.542-2.37-1.348-2.511-1.492-4.26.844-1.149,1.615-3.934.226-5.025-4.291,1.2-10.193,1.039-15.609,1.825-3.546.511-7.741,1.945-10.872-.905,3.124-1.125,5.82-2.716,10.581-2.048,2.054-3.461,7.511-3.2,9.531-6.709-4.949-1.643-11.479,1.506-17.282,1.749-1.653-.364-.868-2.96-2.8-3.063-4.709-.607-6.263,2.233-9.384,3.358-.305-.792-.463-1.715-1.163-2.147-2.987-.34-5.45,1.108-8.434.881-1.506-.11-2.709-1.341-4.133-1.444-2.02-.137-4.791,1.159-8.029,1.324-8.955.456-16.243.751-21.168,4.1-2.758-2.583-6.451-.785-10.049-.446-.772.069-1.461-.521-2.072-.514-1.629.017-2.727,1.176-4.263,1.488a55.175,55.175,0,0,1-13.458.665c-1.177,1.636-2.13,3.522-3.975,4.438-1.06-2.754-3.186-1.272-5.371-1.917-.367-3.944,2.1-2.98,4.791-3.985.435-.161,1.111-1.063,1.313-1.2,2.819-1.883,8.609.333,11.421-2.013,4.232.82,9.785-.665,13.057-1.091,6.643-.885,12.186-.2,15.664-3.083,6.05,1.732,15.615.226,20.65-2.02.326.638,1.324.669,2.058.929,6.194-.576,13.712-2.415,18.593-2.953,2.253-.247,5.042.442,7.141-.1,1.286-.336,1.883-1.605,3.423-1.526a10.468,10.468,0,0,0,6.719-.12c.377-1.818-3.166-.045-2.418-2.205.467-.953,1.5-1.29,2.987-1.128,1.177-.137-.429,2.27.744,2.13,1.3-.926,3.54-.813,3.5-3.2-8.581-3.611-14.233,5.378-22.8,3.183-.1-1.423,1.879-.58,1.362-2.456a28.784,28.784,0,0,1-2.363-3.464c-1.657-.583-3.114.971-3.334-.566-1.351-2.929,2.007-4.157,3.591-5.3,1.581-.093,2.267,1.828,3.752.59-.168-4.452-8.691-4.524-11.232-2.178-3.152-.755-5.632.147-8.43.885-.24-1.554,1.132-2.284.151-3.351-2.48,1.1-6.877.106-9.685.827m-5.059,9.847c3.591,1.447,8.108,1.434,12.511,1.818-.909,1.348-2.308,2.161-2.7,4.075-2.96.552-6.585-1.574-8.852.864-3.491-.9-2.95-4.616-.957-6.757m14.11,22.448c-.014,2.939-4.51,1.783-3.344-.147a3.262,3.262,0,0,1,3.344.147m-78.05-.11c-4.74.49-8.344,3.982-12.618.7.288-1.869,2.6-2.164,5.556-2.27,3.015-.113,7.631-1.66,7.062,1.571M1116.72,65.77c-.707.549-.611,1.969-2.174,1.581.021-.418.041-.837.058-1.255,1,.216.947-.727,2.116-.326m317.359,16.2c-.075,2.061-3.4,1.2-5.1,1.454-1.307.189-2.037.634-2.97.7.007-.408-.5-.346-.816-.453-.093-.995-.593-1.605-.288-2.953.909-.871,1.176.261,2.51.11,2.03-2.589,3.629,1.173,6.661,1.139m-442.406-16.3c-.127,2.2-3.7.638-4.7,1.89a7.8,7.8,0,0,0-1.427,3.714c1.993,1.392,7.384-.326,8.746,1.646-.6,2.13-2.6,2.73-3.557,4.455-5.073-1.811-10.389-2.545-14.693.185-1.694.346-1.211-1.307-2.9-.964-1.856-.127-1.41,2.27-2.644,2.819-1.132.916-1.9-.936-2.877-1.389-2.7-.336-5.151-.909-6.17-2.788,2.658-1.633,7.316-1.077,10.584-2.048-.84-5.035-8.646-1.852-11.688-1.358-1.283.367-.7-.967-.768-1.715-1.235.257-1.855,1.19-2.607,1.979.844,2.315,2.984,3.44,3.073,6.434-5.272.11-9.555,1.1-12.488-2.233-1.941-.147-1.67,2.126-3.481,2.781-4.153,1.5-10.282-.816-12.453-3.073-5.162.947-10.821,1.344-16.445,1.79-2.034,1.873-3.179,4.723-6.925,4.73-1.317-.305-2.2-1.646-3.694-1.845-1.873-.247-2.806,1.084-4.682,1.471-.991.2-1.893-.336-2.929-.13-1.986.394-2.613,1.44-3.882,2.346-6.932.34-13.746,3.1-21.052,1.581-2.212.95-3.941,2.425-7.635,1.759-1.149-.233-.463,1.543-1.334,1.619-1.585.117-1.924-.912-2.874-1.382-1.753-.168-1.557,1.8-2.62,2.4-2.5-.659-3.992-2.24-6.149-3.214-4.623,1.4-11.16.686-14.028,3.992-5.851-1.8-12.035-.429-15.646,2.661-.919-.9-.73-2.816-1.509-3.841-3.224.717-6.589,1.286-6.942,5.145-4.15-1.32-2.956,3.21-6.41,2.655a9.672,9.672,0,0,0-.635-4.644c-3.118,2.888-8.475,3.32-13.2,4.448-2.291-.724-4.033-1.934-6.609-2.387-4.044,3.186-12.062,2.034-16.579,4.716-2.4.192-3.721-.614-5.837-.683-2.226.988-3.793,4.147-6.794,1.794.37-1.811-.611-2.391-.237-4.2,1.139-1.392,3.09-1.9,5.937-1.413,1.135-.23,1.595-1.194,2.188-2.006,5.529-.178,8.461-1.122,13.445-.24,2.082-1.842,5.385-2.812,8.945-2.96,5.182-.216,11.5,1.633,14.765-1.859,2.956-.127,6.379-1.732,9.727-1.667,2.819.055,7.086,1.276,8.489-2.14a8.165,8.165,0,0,0,3.69,1.838c1.835.247,1.536-1.838,2.229-2.833,1.979-.905,3.718-2.085,5.59-3.111,3.618.305,4.712,2.919,6.935,4.507,3.323-1.907,7.261-.408,10.961-1.194,3.1-.662,5.981-3.4,9.764-2.507.981-.861-.285-1.444.13-2.929,2.181-.689,5.189-.48,6.4-2.233a21.141,21.141,0,0,1,8.7,2.483c1.53,0,1.451-1.43,3-1.547,1.183-.086,2.7,1.163,4.15,1.025,1.626-.154,2.953-1.753,4.7-1.89,1.581-.123,2.929.919,4.572,1.043,1.252.093,2.185-.566,3.385-.689,1.458-.151,3.149.295,4.613.206,4.857-.3,9.758-2.469,14.751-1.44,1.9-.556,3.08-1.907,5.93-1.416,2-1.338,3.8-2.881,5.649-4.369,1.248,1.489,3.317-.13,5.45.244,1.482.261,2.435,1.458,3.711,1.423,1.821-.045,3.073-1.115,4.3-2.325,2.233,3.258,8.283,5.316,12.875,3.09.741-1.931-1.231-2.442-.271-3.368,4.562-2.476,13.335-3.557,18.977-2.1.34,1.434.94,2.627,2.384,3.046,1.3.257,1.228-1,1.749-1.6.075-1.619-3.347-1.464-1.965-3.028,6.661,2.154,13.232-1.667,18.846.84m197.219,9.6c1.516-.041,2.9.024,2.442,1.79-.837-.041-1.677-.075-2.51-.117.017-.556.045-1.118.069-1.674m55.136,5.81a4.619,4.619,0,0,1,3.31.984c-.909.614-3.913,1.543-3.31-.984M1127.959,96.065c-.144,2.229-3.608,1.722-4.64.631-1.536-.364-1.111,1.42-1.77,2.02-1.272-.038-1.588-.957-2.456-1.368-.538-4.448,7.676-3.934,8.866-1.283m-56.354,2.95c.2,2.161-2.586,2.778-3.865,1.924-.158-2.106,2.421-2.953,3.865-1.924m143.177,16.854c-1.193.676-4.589,1.351-4.565-1.046a3.782,3.782,0,0,0-1.753,1.6c-.346-1.42-1.725-1.9-1.945-3.44,2.5-1.2,10.118-3.114,8.262,2.884m-27.222-1.211c.082,2.137-1.735,2.192-3.457,2.367-.007-2.058,1.811-2.12,3.457-2.367M747.308,97.2c-4.1,5.319-11.466,7.086-20.057,7.5-1.135.23-1.591,1.19-2.188,2-3.944,1.053-7.1-.988-9.267.847-1.615-1.207-1.7-3.8-4.006-4.373a11.654,11.654,0,0,1,3.594-5.3c2.353.292,1.619,3.5.233,4.2,2.425.909,7.082,2.98,9.593,1.269-.3-1.067-1.07-1.7-1.122-2.991,2.946-.875,6.8-.758,8.519-2.984,1.612.851,5.525.909,6.726-.12,1.749.631,3.522,1.646,4.219-.648,1.681,1.2,2.449.11,3.756.59m422.5,20.445c-1.639,2.161-6.314,1-9.3,1.681-.031-3.711,7.583-4,9.3-1.681m-464.353-13.5c-.408,2.332-3.975,1.218-4.352,3.584-7.1,2.493-16.809,2.123-23.716,4.826-2.2-.268-3.673-1.2-5.368-1.921.209-1.7,2.463-1.739,3.879-2.346,1.694-.731,3.464-2.024,5.978-2.25,2.013-.185,4.541,1.056,6.259.7,1.831-.384,2.322-2.03,3.481-2.782,1.622-.83,2.95.631,4.589.624,1.074-.007,1.742-1.019,2.984-1.128a14.047,14.047,0,0,1,6.266.7m409.574,18.617c-1.259,1.866-5.566,3.505-6.739.542,1.036-1.283,5.378-2.408,6.739-.542m269.068,54.759c.072,2.13-1.118,2.871-1.859,4.112-.693-.573-1.609-.943-1.585-2.168.4-1.464,1.629-2.034,3.443-1.945m-2.517,9.538c-1.211.58-3.251.254-4.647.634.686-.988,4.222-3.443,4.647-.634M1369.772,207.1c-1.413,1.468-4.812,2.823-6.311.559-.1-3.258,5.323-1.955,6.311-.559m-10.2,2.9a17.311,17.311,0,0,1-6.66-1.139c-4.98.857-9.229,2.507-15.605,1.825.25-3.968,5.155-2.85,6.935-5.145a11.3,11.3,0,0,1,5.831,1.1c3.766-.731,10.148-2.339,9.5,3.361m-32.28-.593c-1.1,3.505-2.953,1.3-5.083,1.029,1.214-1.687,2.641-1.427,5.083-1.029m-40.467,4.075c-.885.141-1.1-.336-1.66-.494.106-1.187,1.825-.727,1.66.494m153.284,6.808c-.182,2.27-4.126,2.356-5.94,1.413.027-.693.055-1.392.089-2.089,1.238-.525,5.313-.724,5.851.676m-107.292-3.087c1.07,3.183-4.394,6.462-6.414,2.651,1.07-2.051,3.128-3.022,6.414-2.651m91.666,5.333c.751-.021.858.549,1.653.5.1.741-2.377.638-1.653-.5m-128,.189c-2.761-1.464-2.85,1.6-5.12,1.869-1.687-2.257,4.795-4.579,5.12-1.869m-30.288,1.588c-.61,1.231-1.729,1.917-3.841,1.509.13-1.766,2.3-1.286,3.841-1.509m-21.854.707c-.6,1.245-2.037,1.585-3.841,1.509.23-1.842,2.2-2.463,3.841-1.509M1481.8,264.111c-.089.487.058.748.38.854-.892,2.685-4.987,1.869-6.067,4.349-2.2-.264-3.207-1.619-3.186-3.92,2.161-1.077,5.724-2.73,8.873-1.283m-277.931-6.472a7.876,7.876,0,0,0-.566,3.334,16.954,16.954,0,0,0-7.117-.319c.041-.974.082-1.958.127-2.929,2.037-1.173,5.824-2.168,7.556-.086m319.057,53.62c-.082.748.473.9.346,1.691-.381.168-.765.336-.878.8a5.37,5.37,0,0,1-3.286-1.4c-.024-2.024,2.49-1.766,3.817-1.087m-15.979,10.2c1.533.343,3.279.48,4.136,1.444-.645,2.116-4.291.686-4.136-1.444M1617.1,364.118c-.014.281-.027.559-.038.84-2.061.326-.669-2.264.038-.84m-36.108.494c.751-.017.854.556,1.656.494-.134,1.173-.813,1.749-2.168,1.585a2.692,2.692,0,0,1,.511-2.078m20.057,49.151a7.737,7.737,0,0,1-.569,3.327c-1.526-.2-3.725.2-4.589-.624.041-.833.079-1.674.113-2.507,1.272-.744,3.845-1.91,5.045-.2m-1.873,13.767c-.885.134-1.094-.34-1.66-.5a.876.876,0,1,1,1.66.5M945.55,471.081c1.338-1.5,1.355,1.341,0,0" transform="translate(0 -0.002)" fill="#657c49" fill-rule="evenodd"/>
  </g>
</svg>
