<?xml version="1.0" encoding="UTF-8" standalone="no"?>
<!DOCTYPE svg PUBLIC "-//W3C//DTD SVG 1.1//EN" "http://www.w3.org/Graphics/SVG/1.1/DTD/svg11.dtd">
<svg width="100%" height="100%" viewBox="0 0 177 32" version="1.1" xmlns="http://www.w3.org/2000/svg" xmlns:xlink="http://www.w3.org/1999/xlink" xml:space="preserve" xmlns:serif="http://www.serif.com/" style="fill-rule:evenodd;clip-rule:evenodd;stroke-linejoin:round;stroke-miterlimit:2;">
    <g transform="matrix(1,0,0,1,-0.00730971,0.132005)">
        <g transform="matrix(1.50022,0,0,1.50022,-1.50388,-2.93441)">
            <path d="M12.992,20.912L16.492,22.75C16.797,22.91 17.136,22.993 17.48,22.993C18.649,22.993 19.611,22.031 19.611,20.862C19.611,20.741 19.601,20.62 19.58,20.5L18.913,16.607C18.794,15.916 19.024,15.209 19.526,14.72L22.354,11.963C22.765,11.562 22.998,11.011 22.998,10.437C22.998,9.383 22.216,8.479 21.173,8.328L17.264,7.76C16.572,7.657 15.973,7.221 15.664,6.594L13.911,3.056C13.553,2.33 12.81,1.868 12,1.868C11.19,1.868 10.447,2.33 10.089,3.056L8.341,6.6C8.032,7.227 7.433,7.663 6.741,7.766L2.832,8.334C1.789,8.485 1.007,9.389 1.007,10.443C1.007,11.017 1.24,11.568 1.651,11.969L4.479,14.726C4.981,15.215 5.211,15.922 5.092,16.613L4.42,20.5C4.399,20.62 4.389,20.742 4.389,20.864C4.389,22.033 5.351,22.995 6.52,22.995C6.865,22.995 7.206,22.911 7.512,22.75L11.012,20.912C11.632,20.588 12.372,20.588 12.992,20.912Z" style="fill:rgb(191,86,43);fill-rule:nonzero;"/>
        </g>
        <g transform="matrix(1.50022,0,0,1.50022,34.4961,-2.93441)">
            <path d="M12.992,20.912L16.492,22.75C16.797,22.91 17.136,22.993 17.48,22.993C18.649,22.993 19.611,22.031 19.611,20.862C19.611,20.741 19.601,20.62 19.58,20.5L18.913,16.607C18.794,15.916 19.024,15.209 19.526,14.72L22.354,11.963C22.765,11.562 22.998,11.011 22.998,10.437C22.998,9.383 22.216,8.479 21.173,8.328L17.264,7.76C16.572,7.657 15.973,7.221 15.664,6.594L13.911,3.056C13.553,2.33 12.81,1.868 12,1.868C11.19,1.868 10.447,2.33 10.089,3.056L8.341,6.6C8.032,7.227 7.433,7.663 6.741,7.766L2.832,8.334C1.789,8.485 1.007,9.389 1.007,10.443C1.007,11.017 1.24,11.568 1.651,11.969L4.479,14.726C4.981,15.215 5.211,15.922 5.092,16.613L4.42,20.5C4.399,20.62 4.389,20.742 4.389,20.864C4.389,22.033 5.351,22.995 6.52,22.995C6.865,22.995 7.206,22.911 7.512,22.75L11.012,20.912C11.632,20.588 12.372,20.588 12.992,20.912Z" style="fill:rgb(191,86,43);fill-rule:nonzero;"/>
        </g>
        <g transform="matrix(1.50022,0,0,1.50022,70.4961,-2.93441)">
            <path d="M12.992,20.912L16.492,22.75C16.797,22.91 17.136,22.993 17.48,22.993C18.649,22.993 19.611,22.031 19.611,20.862C19.611,20.741 19.601,20.62 19.58,20.5L18.913,16.607C18.794,15.916 19.024,15.209 19.526,14.72L22.354,11.963C22.765,11.562 22.998,11.011 22.998,10.437C22.998,9.383 22.216,8.479 21.173,8.328L17.264,7.76C16.572,7.657 15.973,7.221 15.664,6.594L13.911,3.056C13.553,2.33 12.81,1.868 12,1.868C11.19,1.868 10.447,2.33 10.089,3.056L8.341,6.6C8.032,7.227 7.433,7.663 6.741,7.766L2.832,8.334C1.789,8.485 1.007,9.389 1.007,10.443C1.007,11.017 1.24,11.568 1.651,11.969L4.479,14.726C4.981,15.215 5.211,15.922 5.092,16.613L4.42,20.5C4.399,20.62 4.389,20.742 4.389,20.864C4.389,22.033 5.351,22.995 6.52,22.995C6.865,22.995 7.206,22.911 7.512,22.75L11.012,20.912C11.632,20.588 12.372,20.588 12.992,20.912Z" style="fill:rgb(191,86,43);fill-rule:nonzero;"/>
        </g>
        <g transform="matrix(1.50022,0,0,1.50022,106.496,-2.93441)">
            <path d="M12.992,20.912L16.492,22.75C16.797,22.91 17.136,22.993 17.48,22.993C18.649,22.993 19.611,22.031 19.611,20.862C19.611,20.741 19.601,20.62 19.58,20.5L18.913,16.607C18.794,15.916 19.024,15.209 19.526,14.72L22.354,11.963C22.765,11.562 22.998,11.011 22.998,10.437C22.998,9.383 22.216,8.479 21.173,8.328L17.264,7.76C16.572,7.657 15.973,7.221 15.664,6.594L13.911,3.056C13.553,2.33 12.81,1.868 12,1.868C11.19,1.868 10.447,2.33 10.089,3.056L8.341,6.6C8.032,7.227 7.433,7.663 6.741,7.766L2.832,8.334C1.789,8.485 1.007,9.389 1.007,10.443C1.007,11.017 1.24,11.568 1.651,11.969L4.479,14.726C4.981,15.215 5.211,15.922 5.092,16.613L4.42,20.5C4.399,20.62 4.389,20.742 4.389,20.864C4.389,22.033 5.351,22.995 6.52,22.995C6.865,22.995 7.206,22.911 7.512,22.75L11.012,20.912C11.632,20.588 12.372,20.588 12.992,20.912Z" style="fill:rgb(191,86,43);fill-rule:nonzero;"/>
        </g>
        <g transform="matrix(1.50022,0,0,1.50022,142.496,-2.93441)">
            <path d="M12.992,20.912L16.492,22.75C16.797,22.91 17.136,22.993 17.48,22.993C18.649,22.993 19.611,22.031 19.611,20.862C19.611,20.741 19.601,20.62 19.58,20.5L18.913,16.607C18.794,15.916 19.024,15.209 19.526,14.72L22.354,11.963C22.765,11.562 22.998,11.011 22.998,10.437C22.998,9.383 22.216,8.479 21.173,8.328L17.264,7.76C16.572,7.657 15.973,7.221 15.664,6.594L13.911,3.056C13.553,2.33 12.81,1.868 12,1.868C11.19,1.868 10.447,2.33 10.089,3.056L8.341,6.6C8.032,7.227 7.433,7.663 6.741,7.766L2.832,8.334C1.789,8.485 1.007,9.389 1.007,10.443C1.007,11.017 1.24,11.568 1.651,11.969L4.479,14.726C4.981,15.215 5.211,15.922 5.092,16.613L4.42,20.5C4.399,20.62 4.389,20.742 4.389,20.864C4.389,22.033 5.351,22.995 6.52,22.995C6.865,22.995 7.206,22.911 7.512,22.75L11.012,20.912C11.632,20.588 12.372,20.588 12.992,20.912Z" style="fill:rgb(191,86,43);fill-rule:nonzero;"/>
        </g>
    </g>
</svg>
