<svg viewBox="0 0 351.9 101.2" xmlns="http://www.w3.org/2000/svg"><switch><g fill="#c05630"><path d="M46.6.1c0 .1-.3.2-.6.2s-.6.1-.8.2c-.2.2-.4.2-1.3-.1l-1-.3.1.3c.1.2 0 .3-.4.3-.3 0-.5 0-.8.1-.6.1-1.2.1-1.8 0-.8-.1-1.7-.1-2.5 0-.3 0-.7.1-1 .2 0 0-.3.1-.6.1s-.6-.1-.6-.3-.1-.3-.3-.2c-.8.2-1.6.2-2.4.2-.3 0-.4-.1-.3-.1.4-.2-.7-.3-1.2 0-.5.2-.6.2-.9 0s-.4-.1-.8.1c-.6.2-1.2.2-1.8.1-.6 0-1.2 0-1.8.1-.3.1-.7.1-1-.1-.4-.2-.8-.3-1.2-.2-.5 0-.8 0-.8-.1s-.1-.1-.2 0c-.6.2-1.3.2-1.9 0-.7-.3-1.4-.2-2.1.1-.4.2-.9.2-1.3.1-1-.3-1 0 .1.4 1.2.4 1.4 1 .4.8-.3 0-.6 0-.6.1-.4 0-.8 0-1.2-.2l-1.5-.3h-1.2c-.5 0-1.1-.1-1.6-.3-.4-.1-.9-.2-1.3-.2s-.7 0-.7-.1S9.4.8 8 .9C6.9.7 6 .7 5.8.7c-.2.1-.4.2-.5.4-.2.2-.4.4-.7.4-.2 0-.3 0-.1.1s0 .2-.4.2-.6.2-.6.3-.3.1-.6.1-.6.1-.8.2c-.4.3-.3.4.4.2 1.2-.3 1.1 0 0 .3-1 .3-1.1.3-.3.3.8-.1.9 0 .9.5 0 .3-.2.6-.5.7-.7.1-2.4 1-2.1 1.1s.2 2.2-.1 3c-.2.4-.1.5.4.5.7 0 .9.2.2.3-.6 0-1.3 1.4-.8 1.7.3.1.3.4.1.6-.2.1-.2.3-.1.5 0 .1.1.1.2.1.4.7.6 1.7.6 2.6s.1 1.7.5 2.5c.3.1.7 0 1-.1.6-.2.6-.2.6 0 .1.6-.1 1.2-.5 1.4-.3.1-.4 0-.3-.1s-.1-.3-.3-.3c-.4-.2-1.1.8-1 1.4 0 .9.3 1.7.9 2.3.6 1 .9 2.1.8 3.2 0 .2-.1.4-.1.6s-.2.4-.4.4-.3.2-.1.6c.5 1 .4 2.5-.2 2.7-.4.1-.5 1.5-.4 6.7 0 3.6.3 18.6.5 20.3s.8 5.9.9 6.5c.5 3.4.7 6.9.7 10.3 0 6 1.8 17 3.2 20.4.2.3.3.6.3 1 0 .1 0 .1.1.2.2.3.3.6.4 1 0 .1.5.3 1.1.4l1.1.2-1-.1c-.7-.1-.9 0-.6.1.5.1.9.2 1.4.2s.9.1 1.4.2c.3.1.6.1.9 0 .8-.3 1.4-.2.9.1-.4.2-.2.2 1.5.2 1 0 2.3-.1 2.8-.1 1.1 0 1.1 0 .2.3-.9.2-1.8.2-2.7.2-.8 0-1.5 0-2.3.1-.3.1-.6.2-.8.2-.5.1-.4.1.1.1.9 0 .9.1-.1.4-.7.2-.7.2-.2.4.3.1.6.2.6.3s-.4 0-.8-.1c-.3-.1-.7-.2-1.1-.1h-.7c-.3-.1-.7-.1-1 0-.4.1-.4.1-.1.1s.5.1.5.2.4.3 1 .4c.7.2.9.3.6.4-.7.3-.4.5.6.5.3-.1.7 0 1 0 0 .1-.2.1-.4.1s-.4.1-.4.2.2.2.5.2c.9 0 .8.2-.1.4-.8.1-.5.1 2.2.1 1.2 0 2.3 0 3.5-.2.7-.1 1.4-.1 2.1.2.2.1.4.1.6 0 .4-.1.9-.2 1.3-.2 1-.1 1-.1.2.1s-.8.2.3.1c.6 0 2.6 0 4.2.1 3.5.1 17 0 16.7-.2-.3-.1-.7-.1-1-.1-.4 0-.8-.1-.8-.2s-.1-.1-.3 0c-.9.2-1.8.2-2.7.1l-2.4-.1 2.4-.2c3.2-.2 5.9-.3 8.6-.4.5 0 .8-.1.7-.1s-.1-.1.2-.1.4.1.4.1.4.1 1.2.1c.6 0 2.3-.1 3.7-.1s3.4-.3 4.4-.4c.9-.1 1.9-.1 2.8 0s1.8.2 2.8.1c1.3 0 1.5 0 .6-.1-1.2-.1-2.4-.3-2-.5.5-.1 1-.1 1.5.1.8.2 1.6.2 2.4.1 1.6-.1 2.8-.3 1.9-.3-1.9-.1-2.6-.1-4.2-.1-1 0-2.4-.1-3-.1-1.2-.2-2.5-.2-3.7-.3-.5 0-1 0-1.5-.1-.4-.1 5.3-.2 9.9-.1 6.8.1 8.5 0 8.5-.1s.2-.2.5-.2 0-.1-.5-.1-1.6 0-2.3-.1c-1-.1-1.3 0-1.3.1 0 .3-2.8.3-3.6.1-.4-.1-.6-.1-.7 0-.2.1-.4.1-.6.1s-2.2-.1-4.4-.2c-3.7-.1-4-.1-4 .1 0 .1-.2.2-.4.2s-.3-.1-.2-.2c.4-.3-3.2-.4-8-.3-.9.1-1.8.1-2.7 0 0-.1.2-.2.4-.2s4.4-.1 9.4-.1c10.7 0 10 0 9.7-.2-.1-.1.1-.1.5-.1.3 0 .6 0 .9-.1.4 0 .8 0 1.1.1.8.1.9.2.2.2-.4 0-.6 0-.5.1.4.1 9.5.1 9.5 0 0-.2-1.2-.4-3-.4h-2 1.9c.6 0 1.3 0 1.9-.2 0-.1-.4-.1-.8 0-.6.1-.8 0-.8-.1s-.1-.2-.5-.1c-1.1.2-2.3.2-3.3-.2l-1-.3h11.8c16.1 0 19.4 0 22.2.1 1.3 0 11.8.2 12.5.2.6 0 1.2 0 1.8-.1.3-.1.5-.1.8 0 .8.1 1.5.1 2.3 0 1.1 0 1.7-.1 1.3-.1s-.6-.1-.5-.2c.4-.1.7-.1 1.1-.1h1.9c.8-.1.4-.1-1.6-.2-4.1-.1-3.9-.3.2-.2 1.3 0 2.5 0 3.8.1.1.3 2.8.7 2.8.4.5-.1.9-.1 1.4 0 .9.1 1.4 0 1.4-.1s-.3-.1-.6-.1-.5-.1-.4-.1 0-.1-.4-.1-.6-.1-.6-.2.3-.2 1.7-.1c.9 0 2 .1 2.4.1s.6.1.6.1c1.8.2 3.6.2 5.4 0 .5-.1.7 0 .9.2.3.2.6.3 1 .2.7 0 .7 0-.1-.1s-.8-.1 0-.1c1 0 2 0 3 .1.1 0 0 .1-.3.2.9.1 1.8.2 2.7.1 6.1 0 6.5 0 6.5.2s3.7.4 4.9.2l.9-.2-1.2-.1c-1.1-.1-1-.1.9-.2s2.1-.1 2.1.1c0 .1-.4.2-.9.3s-.2.1.7.1c1.2 0 1.4 0 1-.1-1-.2.4-.4 2.1-.3 1 0 1.5 0 1.5-.1s-.5-.2-1.7-.1c-.9 0-1.4-.2-.7-.4 1-.1 2-.1 3 0 .9.2 1.8.2 2.6 0 0-.1.2-.1.4.1.3.2.7.2 1 .1 1-.1 2-.1 3-.1.9.1 1.7.1 2.6-.1.1-.1.3-.1.8 0 2 .2 4 .3 6 .2.2 0 0-.2-.3-.3-.7-.2-.6-.2 1.8-.2 2.7 0 3.8.1 3.5.3-.2.1-.4.1-.6 0-.2 0-.4 0-.4.1.5.1 1.1.1 1.6.1.6 0 1.2 0 1.8.1 1.4.2 2.8.1 4.2 0 0-.1.3-.1.6-.1.4 0 .6 0 .6-.1s.3-.2.6-.2.5 0 .4.1c-.4.2.8.3 2.6.3 1.3 0 1.6-.1 1.1-.2-1.5-.2-.2-.3 2.7-.2 1.2.1 2.5 0 3.7-.1.5-.1.6-.1.4 0s.6.2 3.9.1c2.3 0 4.4 0 4.7.1s2.2.1 4.4.1 4.8.1 5.9.1l5.8.2c2.1.1 4.1.1 4.5 0 .3-.1.6-.1.8 0s.8.1 6 .2c.9 0 1.8.1 2.8.2.2.2 1.7.1 1.7 0 .9-.2 1.8-.2 2.7 0 1 .1 1 .4-.1.3-.5 0-.7 0-.6.2s0 .3-1 .2c-.6 0-1.1 0-1.1.1s.3.1.7.1c.5-.1.6 0 .2.1s-.2.2 1.6.2c4.5.1 6.4.2 6.4.1-.3-.1-.6-.1-.9-.1-1.1 0-2.1-.1-3.2-.2-.2-.1-.4-.3-.5-.5l-.2-.4 2.6-.1h4.5s2.3.1 2.7 0c.7-.1.7 0 .2.1s-.3.1.7.1c1.9-.1 3.7 0 3.7.3 0 .1.2.1.5-.1.6-.3 1.2-.4 1.8-.3 1 0 1.3 0 1.1.1-.1.1 0 .2.2.2s.3.1.1.1c-.2.1-.5.1-.8.1-.4 0-.7 0-1.1.1s-.3.1.5.1c.5 0 1 0 1.4.1s.9.1 1.3 0l.9-.1-.9-.2c-1-.2-.3-.4.9-.2.5.1.7.1.5 0s.2-.1 1-.1c.7 0 1.1.1 1 .1s-.1.1.2.1.4.1.4.1-.4.1-1-.1c-1-.2-1-.2-1 0 0 .1.2.3.5.3l2.7.1c.6.1 1.3 0 1.9 0-.4-.1 1-.4 2-.4.4 0 .8 0 1.2.1.3.1.7.1 1 0 .5-.1.5-.1-.1-.1-.4 0-.6-.1-.5-.1s-.4-.1-1.4-.1c-.5 0-1.1 0-1.6-.1 1.3-.1 2.6-.1 3.9.1.6.2 1.3.2 1.9 0 .4-.2 1-.1 1 .1 0 .1-.4.2-1.2.2-1.7 0-1.5.2.4.3.7.1 1.4.1 2.1 0 1.8-.2 3.6-.2 5.4 0 .4.1.7 0 1.1 0 .8-.1 1.6-.1 2.5.1 1.4.2 2.8.2 4.2.1-.3-.1-.7-.2-1.1-.1-.6 0-.9 0-.7-.1 1.5-.1 2.9-.1 4.4 0 6.2.2 8 .2 8.1 0 .1-.1-.2-.2-.8-.2s.4-.1 2-.1c1 0 1.9 0 2.9-.1.8-.1 1.5-.2 2.3-.1 1.3 0 3.4 0 4.7-.1s2 0 1.5 0-.9.1-.9.2-.3.1-.6.1c-.7-.1-.8.1-.2.2.2 0 .4.1.4.2 0 .2-.6.2-3.8.2-1.1 0-2.7.1-3.6.2l-1.6.2h6.9c1.2-.1 2.5-.1 3.8 0 1.2.2 2.4.3 3.6.1-.4-.1-.7-.2-1.1-.2-.6 0 .3-.1 2-.1 1-.1 2 0 2.9.1-.1.1.2.1.7.2.9 0 .9 0-.2.2-.8.1-1.5.1-2.3.1-.9 0-1.7.1-2.6.2-.8.1-2.5.2-3.7.2-3.5 0-2.3.2 1.4.2 3.2 0 5.2.2 2.2.2-.7 0-1.5 0-2.2.1-.5.1-.2.1 1.1.1h1.7c1.6.1 3.3 0 4.9-.2.2-.1.5-.1.7 0h1.3c.5-.1 1.4-.2 2.2-.3.5 0 .9-.1 1.3-.3 0-.1.2-.2.4-.2.6 0 .5-.5-.1-.5-.3 0 0-.1.6-.1 1-.1 1.6-.5.7-.5-.2 0-.4 0-.4.1s-.3.1-.6.1-.6-.1-.6-.1c0-.2-1.2-.2-1.8-.1-.4.2-.8.2-1.2 0-.6-.1-1.1-.1-1.7-.1l-1.1.1 1.1-.3c.4-.1.8-.2 1.1-.4 0-.1.4-.1.9-.1 1.1 0 1.9-.2 1.6-.4-.1-.1.1-.2.9-.2 1 0 1.1 0 .4-.2-.4-.1-.5-.3-.4-.3s-.2-.1-.8-.1c-1.3 0-1.4-.3-.1-.4 1.6-.1 1.9-.1 2.7.3s.8.4.8.1c0-.2.4-.4.8-.5s.8-.3.8-.4c0-.4-.8-.8-1.3-.7-.3.1-.4-.1-.2-.4.1-.2.2-.5.3-.7 0-.4 2-.3 2.3 0 .2.2.4.3.6.3.4 0 .3-.5-.2-.6-.6-.1.2-.4.9-.3.5 0 .9 0 1.3-.1.4-.2.9-.2 1.3 0 .4.1.9.1 1.3.1.6 0 .7 0 .7.2s.2.3.6.2c.4 0 .6 0 .5.2s.1.2.4.2c.4 0 .7-.3.7-.7 0-.3-.3-.6-.6-.7-.3 0-.6 0-.9.1-.5.2-1.1.1-.8-.2.2-.2.1-.3-.3-.3s-.5-.1-.4-.4c.3-1.3.2-2.6-.2-3.9-.3-.7-.6-1.5-.8-2.2-.3-1-.6-1.5-1-1.7l-.7-.3.1.4c.1.2-.1.4-.4.5-.4.1-.4.2-.1.4.3.3.5.7.6 1.2s.3 1 .4 1.4c.2.5.1.6-.4.5h-.6s.3.1.6.1c.4 0 .6.1.6.4 0 .2.1.4.3.6s.2.2-.6 0c-.7-.2-.9-.2-.9 0 0 .1.4.3.8.4.6.1.8.4 1 1.2.3 1 .2 1.1-.5 1-.6 0-.7 0-.6.2.1.1-.1.3-.4.4-.5.1-.5.1-.4-.2.1-.2 0-.3-.4-.3-.3 0-.7-.1-1-.1-.5-.1-1-.2-1.5-.2-.8 0-1 0-1 .2 0 .1.2.3.4.4.3.1.3.2 0 .2-.2 0-.4 0-.4-.1s-.2-.2-.4-.2c-.3-.1-.5-.3-.5-.6-.1-.5 0-.6.6-.5.4 0 .7 0 .7-.1 0-.2.7-.1 1 .2s.3.3.6 0c.2-.1.2-.3.1-.4s0-.2.2-.2.5.1.7.2c.2.2.3.2 1-.1 1-.3 1-.4 0-.3-.7.1-.8 0-.8-.2.1-.5-.1-1.3-.3-1.2s-.3.2-.3.4-.3.3-.6.2c-.4 0-.7 0-1.1.1-.6.2-.8.1-.6-.4 0-.1-.1-.2-.4-.2-.5 0-.5.1-.4.7 0 .2-.1.4-.3.5-.4.2-.8-1.1-.6-1.7.2-.4.9-.4.9-.1 0 .1.2.2.4.2s.4-.2.4-.4v-.1c-.2-1.1.4-1 .7.1.2 1 1 1.3.9.4v-1.3l.1-.7.3.6c.2.3.2.6.2 1-.1.2 0 .3.2.4h.1c.2 0 .4-.4.3-1.1-.1-.9-.2-1.1-.6-1.1s-.5 0-.5-.2.1-.2.4-.1c.2.1.4.1.6.1.1-.1 0-.2-.2-.3s-.4-.1-.4-.1c0 .4-.8-.3-1-.9-.1-.4-.4-.7-.6-.8s-.1-.2.1-.4c.3-.2.3-.4 0-.6-.4-.2-.4-.2-.4.1 0 .2-.3.4-.6.4-.6.1-1.2 1.7-.6 1.7.1 0 .2.3.2.7-.1 1.1-.1 1.1-.6 1-.2-.1-.5-.7-.6-1.5-.3-2.3-.2-3 .3-3 .4 0 .2-2.6-.2-3-.1-.1 0-.3.4-.3.5-.1.6-.1.6.1 0 .1.2.3.4.4s.4.5.4 1.1c0 .5.1.9.4 1.3.3.3.2-3.6-.2-4.3-.2-.4-.6-.4-.9 0-.4.6-1.1.5-2-.3-1-.9-1.3-4-.4-4.3.4-.1.6-.5.5-1.4 0-1.9-.5-2.9-1.5-3.2s-1.1-.7-.3-.9c.4-.1.4-.1 0-.1h-.5s.2-.1.4-.1.4-.1.4-.2c-.2-.4.1-.5.8-.4s.8 0 .8-.4c.1-.5-.3-.9-.7-1h-.3c-.7.1-.7-.1 0-.3.4-.2.7-.5.8-1 .1-.4.4-.8.7-.8.5-.1.5-.4 0-.4-.2 0-.4-.1-.4-.3v-.3l-.3.3c-.3.3-.3.3-.9.1-.5-.2-.7-.7-.5-1.2.1-.3.4-.5.7-.6.4-.1.6-.1.6 0 0 .3.7.1 1.1-.3.6-.5.6-.9 0-1-.4 0-.4-.1 0-.1.3 0 .5-.2.5-.7 0-.6-.1-.7-.6-.5-.4.1-.8.1-1.3.1-.5-.1-.6 0-.4.2.1.2 0 .3-.3.3-.4 0-.5-.2-.4-.7.1-.4.2-.8.4-.8s.2-.1 0-.2 0-.2.2-.2c.6 0 .5-.6-.1-.7-.4 0-.4-.1.1-.2.3-.1.5-.2.3-.3s-.1-.2.1-.3.3-.4.2-.8c0-.4-.3-.8-.8-.8-.6-.1-.6-.2-.1-.3.4-.1.7-.4.9-.7.2-.4.4-.5 1-.4.4 0 .8.1.8.2s-.2.2-.6.1h-.6s.3.1.6.1.6.1.6.2c0 .2.1.2.7 0s.6-.1.4.2c-.1.2-.1.4.1.5h.1c.3.2.4.2.4 0 0-.1.1-.3.2-.5.1-.3.2-.7.2-1 0-.4.2-.7.5-.8.7-.2 1.2 1.5.6 1.8-.3.1-.3.2-.1.2s.3.2.3.5c-.1.3 0 .6.2.6s.4-.3.4-.6c0-.4.1-.9.2-1.3.3-1 .2-1.4-.2-1.5-.3-.1-.3-.2 0-.3.3-.2.6-4.2.3-4.6-.2-.3.5-.5 1.3-.5.5 0 .8 0 .8-.1s-.2-.2-.6-.1h-.8c-.1-.1 0-.1.3-.1s.1 0-.5-.1c-.8-.1-1-.2-1.1-.5-.1-.2-.3-.4-.7-.4-.5 0-.6.2-.5 1.1 0 .6.2 1.1.4 1.2s.3.4.3.7.1.7.2.8.2.2.1.3 0 .2.2.2c.3.1.3.1-.1.2-.3.1-.4.2-.2.3.4.2.2 1.8-.2 2.1-.3.1-.4.1-.6-.2-.1-.3-.5-.4-.7-.2-.2.1-.3.2-.3.4-.1.2-.4.4-.7.3-.5 0-.9 0-1.4.1-.8.1-.8.1-.2 0s.6-.2 0-.3c-.4 0-.8 0-1.2.1-.6.1-.7-.1-.6-.8 0-.2.1-1 .2-1.8.1-1.1.3-2.1.6-3.1.2-.7.4-1.4.4-2.2 0-.4 0-.7.2-1 .3-.6.5-1.1.7-1.7.1-.5.3-.9.6-1.3.2-.1 0 1.8-.5 3.5-.2.7-.1.7.5.6.6-.2.7-.1.6.2 0 .2-.1.4 0 .6.1.4.8-.1.8-.5 0-.2.1-.4.3-.5.9-.4.6-2.4-.3-2.3-.3.1-.3 0 0-.1s.5-.4.4-.7c-.1-.5.3-.8 1.1-.7.3 0 .5 0 .7-.1.1-.1.2.1.3.3.1.8.2.8.6.8.2 0 .5.1.7.2.3.1.3.1.3 0s.4-.3.8-.3c.7-.1.8-.1.8 0s.2.2.4.2.3-.1.2-.2 0-.2.2-.2.4 0 .4.1.4.1.8.2c1.1.1 1.1-.3 0-.7-.7-.2-.8-.3-1-.1-.2.1-.4.2-.6.1-.2 0-.4 0-.4.1s-.2.1-.4.1-.4-.2-.4-.4c0-.3-.1-.4-.6-.2s-.6.1-.6-.3c0-.7-.4-1.3-1.1-1.5-.3 0-.5 0-.5.2 0 .1-.1.2-.5.1-.5-.1-1-.1-1.4-.1-.8 0-.9 0-.3.2.8.3.5.9-.6 1.2-.7.2-.8.2-.8-.2 0-.2.2-.4.5-.5.4-.1.4-.2 0-.3-.5-.2-.2-.6.5-.7.3-.1.2-.1-.3-.1-.6 0-.7-.1-.5-1 .5-2.4 1.2-3.5 1.1-1.6 0 .8 0 .8.7.8.6 0 .7-.2.8-1l.1-1-1.4-.2c-1.7-.2-1.9-.4-.3-.3.9.1 1.2 0 1.6-.2.4-.3.5-.3.5.1 0 .2.1 1.1.1 1.8s.2 1.4.4 1.4.5.1.7.2c.3.1.3.1.3-.1s.1-.2.5-.1c.3.1.5.6.5 1.5s.2 1.4.5 1.4.5-.1.5-.3c0-.4.8-.5.8-.1 0 .2.1.3.2.1.3-.2.6-.2.8-.2.8 0 .9-.5.2-.6-.3 0-.4 0-.3.1s0 .2-.2.3c-.2 0-.4 0-.4-.2s-.3-.3-.6-.3c-.5 0-.5-.2-.4-1.1.2-1.3.6-1.5.6-.3 0 .8.1.9.6.9.3 0 .6.1.6.1s.4 0 .8-.1c.6-.2.7-.3.2-.4-.3-.1-.4-.2-.3-.3s.2-.3.2-.5c-.1-.2 0-.4.2-.5.2 0 .2-.4.1-.8-.2-.6-.3-.8-.9-.8-.4 0-.7 0-.7-.1v-.6c0-.5.1-.5.6.1.3.5.9.3 1.1-.3.1-.4.1-.5-.8-.5-.5 0-.9-.1-.9-.1s.4-.1.8-.1c.6 0 .8 0 .8-.3v-.3l.4.3c.3.2.3.2.1-.2-.2-.3-.3-.7-.4-1-.1-.2-.1-.4-.2-.6v-.4c.1-.2.1-.2.3-.1s.5.3.7.3c.4.1.6 0 .8-.5.3-.8-.1-1.1-.9-.7-.3.1-.5.2-.5.1s-.3-.1-.6-.1c-.4 0-.6-.1-.4-.2s0-.2-.4-.2c-.3 0-.6-.1-.6-.2s.2-.2.6-.1c.6.1.6-.1.4-1.3-.1-1-.1-1.4.2-1.3.3 0 .3 0 .1-.1-.3-.1-.6-.1-.9-.1s-.6-.1-.6-.1.3-.1.6-.1.6-.1.6-.1c0-.2-1-.4-1.3-.3-.2.1-.3 0-.3 0s.3-.2.7-.2c.8-.2 2.1.1 2.1.4 0 .1.2.2.4.3.5.1.5-.2.1-1-.2-.4-.4-.6-.8-.5-.3 0-.5 0-.5-.1s.2-.1.4-.1c.7.1.4-.1-.5-.3-.7-.2-.8-.2-.3-.3.3-.1.6-.1.9-.1.2 0 .3-.1.3-.2 0-.2-.1-.2-.4-.1-.5.2-1.1.1-1.4-.3-.3-.3-.7-.4-1-.4-.6-.1-.8-.2-.8-.5 0-.4 1.1-.7 1.7-.4.2.1.2 0 .1-.2-.2-.2-.1-.4.5-.5.7-.1.7-.1 0-.1-.4 0-.7-.1-.7-.1s-.2-.1-.4-.1-.3.1-.2.2 0 .3-.4.5c-.5.2-.6.2-.7-.3 0-.3-.1-.7-.1-.8s.2-.2.8-.2c1.3 0 1.8-.3 1.3-.8-.3-.3-.7-.4-1.1-.5-.5 0-.4-.1.2-.3s.6-.3.3-.4c-.6-.2-.6-.3-.1-.3.4.1.7.3 1 .5.6.5.6.5.6.2.1-.6-.9-2.4-1.2-2.4-.2 0-.2.2-.1.3.2.2.1.3-.2.2-.3-.2-.5-.5-.6-.8-.1-.6-.3-.7-.8-.7-1.1 0-.8-.1.5-.3 1.1-.1 1.7-.4.8-.4-.2 0-.4-.1-.4-.2s-.1-.2-.3-.1-.3-.2-.3-.6.2-.8.4-.8c.3-.1.2-.2-.1-.3-.4-.2-.4-.2.3-.2.5 0 .8-.1.8-.2s-.2-.2-.4-.2c-.4 0-.8-.7-.4-.8.2 0 .4.1.5.2.1.2.2.2.2-.1 0-.2-.2-.5-.4-.7-.3-.2-.3-.3-.1-.4.3-.1.8-1.9.6-2.7-.2-1.2-.6-2.1-.9-2.1-.2 0-.3.2-.3.4.1.2-.1.4-.4.4-.7.1-.6.3.1.5s.8.6.2.6c-.2 0-.4.1-.2.2s.4.1.6.1c.8-.1.5.7-.4.9-.6.1-.8.3-.8.7 0 .7-.7.8-.9.1-.1-.3 0-.5.2-.6s.1-.1-.1-.3c-.4-.2-.1-.9.4-1 .2 0 .1-.3-.1-.6-.2-.2-.3-.6-.2-.8s0-.4-.4-.6-.6-.3-.6-.5c0-.3-.5-.6-1.4-1.1-.5-.3-.5-.3-1.2.2-.6.4-1.5.6-1.5.3 0-.1-.3-.1-.6-.1s-.6-.1-.6-.2c0-.3-.6-.3-1-.1-.2.1-.4.1-.6.1s-.4.1-.4.3c-.2.6-.9.8-2.5.5-.7-.1-1.2-.2-1-.3s0-.2-.2-.2c-.4-.1-.1-.2 1.2-.2 1.4 0 1.6 0 1.4-.2-.3-.2 1.4-.8 2.4-.8 1.3 0 .1-.2-2-.4-4.5-.3-11.3-.6-10.6-.4.6.1.6.2 0 .2.9-.1.9-.1 1.6-.1 1.3 0 1.1.2-.2.3s-2.6.1-4 0c-.4 0-.8-.1-1.2 0-.6 0-1.2 0-1.8-.2-.4-.1-.8-.2-1.2-.1-3.3.2-6.6.2-9.9.1-.7-.1-1.3-.1-2 0-.3.1-.5.1-.8 0h-2.6c-.7.1-1.4.1-2.2 0-.1-.1-2.7-.1-6.6 0-3.5.1-7 .1-7.6.1s-3.1.1-5.4.1c-1.6.1-3.1.1-4.7 0-.8-.2-4.1-.2-16.7-.3-6.6 0-12.1 0-12.2-.1s-10.8-.1-23.7 0c-15.3 0-23.7 0-24.2-.1s-.7-.1-.5 0c-.9.2-1.8.2-2.7.2-4.7.1-22.8.1-26.1 0-3.4-.1-5.2-.1-5.9.2-.3.1-.7.2-1 0-1.3-.1-2.6-.2-3.9-.1-2 0-5-.1-7.1-.2-2-.1-4.2-.2-4.9-.2-1.2 0-2.8.4-2.3.5-.8.1-1.5.1-2.3 0-1.4 0-5.3-.1-8.5-.1s-6.1-.1-6.2-.1c-2.1-.1-4.3-.1-6.4.1-1.5.2-8.5.2-9.7.1-.5-.1-5.8-.1-11.7-.2C90.4 1 88.7 1 86.9.8c-.4-.1-.7 0-1.1.1-.1.1 0 .1.3.1.7 0-1.3.4-2 .4-.3 0-.5-.1-.5-.2S83.3 1 83 1s-.5.1-.4.1c.4.2-1.8.1-2.5-.1-.5-.2-2.1-.2-8.5-.2-9.7 0-9.1 0-9.9-.2-.6-.1-.7-.1-.7.1s0 .2-.6 0c-.2-.1-.5-.2-.8-.1-.6.1-1.1.2-1.7.1-1.1 0-1.4 0-1.2-.2.1-.1 0-.2-.2-.3-.2 0-.3-.1-.2-.2s.2 0 0 0c-.5 0-.9.3-.6.6.2.2.1.2-.6 0-.6-.1-1.1-.1-1.7 0-1 .2-2.1 0-1.7-.3.1-.1 0-.2-.2-.2s-.5.1-.5.2-.2.2-.6.1c-.3 0-.6 0-.6.1 0 .2-1.5.1-1.7 0-.1-.1-.3-.1-.6 0s-.5.1-.6-.2-.3-.4-.3-.2m29.3 1.2c-1 .1-2.1.1-3.1.1-1.7 0-2.8 0-2.4-.1 1.9-.2 3.7-.2 5.5 0m255.2.4c0 .1-.2.2-.5.1s-1.1-.1-1.9-.2c-1.4-.1-1.4-.1.5-.1 1.5 0 1.9 0 1.9.2m8.1 2c0 .1-.2.3-.4.4-.3.1-.5.1-1-.2-.6-.4-.6-.4.4-.4.6 0 1 .1 1 .2M186.1 5.3c.5 0 .8.1.7.1-1.1.2-2.1.2-3.2.1-.9-.1-.3-.3.7-.2zm6.4.1h-.8c-.3 0-.2-.1.2-.1.5 0 .8 0 .6.1m8.3 0h-1.2c-.4 0-.2-.1.5-.1s1 .1.7.1m10 .2c-.4.1-1.2 0-1.2-.2.3-.1.6-.1.8 0 .5 0 .7.1.4.2m56.3-.2s-.2.1-.4.1-.4 0-.4-.1.2-.1.4-.1.4 0 .4.1m-6.8.4c0 .1-.2.1-.4.1s-.3-.1-.2-.1c.1-.1.3-.1.4-.1s.2 0 .2.1m6.6.1c-.2.1-.4.1-.6.1s-.3 0-.2-.1c.2-.1.4-.1.6-.1.3 0 .4 0 .2.1m-18.3.3c-.3.1-.5.2-.8.2-.7.1-.7 0-.4-.1.6-.3 1.2-.3 1.2-.1m3.6 0c-.3.1-.4.2-.1.3.6.1.7.4.2.4-.2 0-.4 0-.4-.1s-.3-.1-.6-.1-.6.1-.6.1-.2.1-.4 0c-.3-.1-.3-.1.1-.2s.5-.1.1-.2c-.8-.3-.6-.3.9-.3 1.1 0 1.2 0 .8.1m4.7.1c.1.1.1.2-.2.3s-.4.1-.4-.1c0-.3-.5-.3-1.2.1-.4.3-.9.3-1.4.1-.4-.1-.6-.2-.3-.2s.4-.1.3-.2c-.2-.1.1-.2 1.3-.2.7 0 1.3.1 1.9.2m-72.1.1c-.2.1-.1.1.4.1h.9c.1.1-.1.1-.6.1s-.7.1-.6.1c.9.1 1.8.2 2.7.1 2.3 0 2.4 0 1.8.2-.5.2-1 .2-1.5.1-.9-.2-1.8-.2-2.6 0-.3.1-.7.1-1 0-.6-.1-1.3-.1-1.9 0s-1.4.1-1.7.1h-1.8c-1.1 0-1.1 0-.4-.1.8-.1 1.7-.1 2.5-.1h1.7l.2-.2c.2-.1-.1-.2-1.1-.1-.9 0-1.2 0-1-.1.5-.1 1-.2 1.5-.1.9 0 1.2.1 1.2.2s.2.2.4.2c.6 0 .8-.3.3-.5-.3-.1-.3-.1.3-.1.3 0 .5 0 .3.1m7.2 0c.1.1-.2.2-1.2.2-2.1 0-2.6-.1-.7-.2.9 0 1.6-.1 1.7-.1 0 0 .1.1.2.1m1.6 0c.7.1 1.4.1 2 0 1.2 0 1.8 0 1.8.1-1.6.2-3.2.2-4.7-.1-.1-.1.6-.2.9 0m32.7 0c.5 0 .9.1.8.1-.3.1-.7.1-1 0-.4 0-.8 0-.8.1.8.2 1.7.2 2.5 0 .4 0 .9.1 1.3.2.8.3 1 .4.5.4-.4 0-.6-.1-.6-.1s-.3-.1-.5-.1-.3.1-.2.1.1.1-.1.1H227c-.7 0-.9 0-.7-.2s-.1-.2-2.1-.2h-6.6c-.4 0-.6 0-.5-.1 1.5-.2 3-.2 4.5-.1 2.5 0 2.9 0 2.7-.2s-.1-.2.5-.1c.2.1 1 .1 1.5.1m-20 .1c0 .1-.3.1-.8.1-.3 0-.7 0-1-.1-.1-.1.2-.1.8-.1.4 0 .7 0 1 .1m25 0c-.5.1-.9.1-1.4.1-1.9 0-1.9-.2 0-.2.5 0 .9 0 1.4.1m6.4 0c.1 0-.1.1-.3.2-.3.1-.3.2-.1.2s.4 0 .6-.1c.5-.1.9-.1 1.4 0 2.1.2 1 .3-3.9.2-4.8-.1-8-.3-3.7-.2 2.4 0 3.3-.1 2.3-.3-.4-.1 0-.1 1.4-.1 1.3.1 2.2.1 2.3.1m2.5.1c0 .1-.5.1-1.2 0-.5-.1-.4-.1.3-.1.3-.1.6 0 .9.1m25.3 0c-.2 0-.4.1-.6 0-.3 0-.6-.1-.6-.1s.3-.1.6 0c.2 0 .4 0 .6.1m2.2-.1c-.3.1-.6.1-.8.1-.3 0-.5-.1-.4-.1.3-.1.6-.1.8-.1.4 0 .6.1.4.1m71.2.1h-1c-.3 0-.1-.1.5-.1s.8.1.5.1m-123 .1h-1.4c-.4 0-.1-.1.7-.1s1.1.1.7.1m-40.3.3c-.1.1 0 .2.3.2s.2.1-.2.1c-.9 0-1.4-.2-.7-.4s.8-.2.6.1m16.5-.1c-.1.1.1.2.5.2.6.1.5.1-.4.1-1.2 0-1.4-.1-.6-.3.5-.1.8-.2.5 0m54.4.2c-.2.1-.5.1-.7.1-.3 0-1-.1-1.6-.1-2-.1-2.2-.1-.8-.2 1.8-.1 3.3 0 3.1.2m-49.2 0c.1.1-.4.1-1.2.1s-1.3 0-1.2-.1c.8-.1 1.6-.1 2.4 0m5.3 0h-.8c-.3 0-.2-.1.2-.1.5 0 .7.1.6.1m2.7 0c-.4.1-.8.1-1.2.1-.3 0-.7 0-1-.1.4-.1.8-.2 1.2-.1.8 0 1.2.1 1 .1m17.2 0h-1c-.3 0-.1-.1.5-.1s.8.1.5.1m33.6.1c.1.1-.7.1-2.6.1h-4.2c-.5 0-1 0-1.5-.1 2.8-.2 5.6-.1 8.3 0m-95.6.1c0 .1-.2.1-.4.1s-.4 0-.4-.1.2-.1.4-.1.4 0 .4.1m3.2-.1c0 .1-.8.2-1 .1-.1-.1 0-.1.4-.1.2-.1.4-.1.6 0m1.2.2c0 .1-.2.1-.4.1s-.3-.1-.2-.1c.1-.1.3-.1.4-.1s.2 0 .2.1m52.5 0c-.2.1-.4.1-.6.1s-.3 0-.2-.1c.2-.1.4-.1.6-.1.3 0 .4 0 .2.1m1.4 0c0 .1-.2.1-.4.2s-.4 0-.4-.1.2-.2.4-.2.4 0 .4.1m7.4.3c-.4-.3.5-.3 1.1 0 .3.1.7.2 1 .2s.5.1.5.1c-2.4.1-4.7.1-7.1-.1-.6-.1-.5-.1.6-.1.5 0 1 0 1.4-.1.1-.1.2-.3.4-.4.3-.2.4-.2 1.3.1.7.4 1 .5.8.3m9.8-.3h-.8c-.3 0-.2-.1.2-.1.5 0 .7 0 .6.1m-35.7.3c-.8.1-1.6.1-2.4.1s-1.6 0-2.4-.1c.5-.1 1.1-.1 1.6-.1h1.8c.3-.2 1.4-.1 1.4.1m45.4-.2h-.8c-.3 0-.2-.1.2-.1s.7 0 .6.1m-72.3.1h-1.2c-.4 0-.2-.1.5-.1s1 .1.7.1m13.6 0c0 .1-.1.1-.2.1s-.3-.1-.4-.1c-.1-.1-.1-.1.2-.1s.4.1.4.1m4.5 0c-.4.1-.8.1-1.1 0-.9-.1-.6-.2.6-.2.7.1.9.1.5.2m57.5.2c0 .2-.1.2-.9.1-.7-.1-.7-.2-.3-.2.9-.2 1.2-.2 1.2.1m5.5-.1c.6.2-.9.3-3 .3-2.2 0-3-.2-.9-.2.4 0 .8 0 1.2-.1.9-.2 1.8-.2 2.7 0m-70.3.1c0 .1-.1.1-.2.1s-.3-.1-.4-.1c-.1-.1-.1-.1.2-.1s.4 0 .4.1m21.7 0c0 .1-.4.1-.9.1-.7 0-.8 0-.3-.1.8-.2 1.2-.2 1.2 0m31.3 0c.3.1.7.1 1 .1.4 0 .7.1.6.2s-.4.2-.8.2h-2.3c-1.8 0-2.2-.2-.7-.5.7-.1 1.5-.1 2.2 0m9 0c0 .1-.1.1-.2.1s-.3-.1-.4-.1c-.1-.1-.1-.1.2-.1s.4 0 .4.1m-27.1.1c-1.1.1-2.2.1-3.3.1s-2.2 0-3.3-.1c2.2-.1 4.4-.1 6.6 0m26.2.2c.8.1 1.6.2 2.4.1.6-.1 1.2 0 1.8.1.8.1 1.6.2 2.4.1.8.1 1.6 0 2.4-.2 0-.1.1-.1.4 0 .6.3.5.4-1 .4-1.2 0-1.3 0-.9.2.3.1.7.1 1 .1.8-.2 1.6 0 1.5.3-.1.4-.1.4-.7.3-.3-.1-1.9-.1-3.7-.1-3.2 0-4.1-.1-3.1-.3.4-.1.4-.1-.1-.2h-1.1c-.4.1-.4.1 0 .1 1 0 .4.3-.8.3l-1.2.1 1.1.1c.6.1 1.2.1 1.8.1.3 0 .1.1-.5.2s-1 .3-.8.3h-.7c-.7-.1-1.4-.1-2.1-.1-.8 0-1.1 0-1.2-.2s0-.3.4-.4.5-.2.3-.2c-.2-.1-.4-.1-.6-.1s-1.4.1-2.8.1-2.2 0-1.9-.1.3-.1-.2-.1c-.9 0-1.6.3-1.6.7-.1.5-.6.5-.7-.1 0-.2-.2-.4-.3-.6-.1-.1.1-.1.5-.1.3 0 .6 0 .9-.1.1-.1 0-.1-.4-.1h-.9c-.9-.1-1.8-.1-2.7.1-.7.1-1.4.2-2.1.2-1.1.1-1.5 0-1.7-.1-.5-.2-1-.3-1.6-.1-.1.1 0 .1.4 0s.6 0 .6.1c-1.6.1-3.3.1-4.9-.2-.4-.1-.9-.1-1.3 0s-.8.1-1.3 0c-.9-.2-1.9-.1-2.8 0-.3.1-.7.1-1 0-1.2-.2-2.4-.3-3.6-.1-.8.1-1.7.1-2.5 0-.9-.1-4.2-.1-7.2-.1-6.3 0-9.7-.1-9.5-.2.1-.1 0-.1-.3-.2-.3 0-.2-.1.2-.1s.7 0 .7.1.2.1.4.1.3-.1.2-.1 0-.1.4-.1.5.1.4.1-.1.1.2.2.4 0 .4-.1.4-.2.8-.2c.3 0 .5 0 .8.1.6.1 1.3.1 1.9 0 .4 0 .9 0 1.3.1.6.1 1.2.1 1.9 0 .6-.1.9-.1.8 0-.3.2 1.2.2 4 .1 2.9-.1 2.5-.1 6.8-.1 2.8 0 3.7.1 3.9.2.2.2.3.2.3 0s.4-.2 4.1-.2c3.1 0 4.1.1 4.4.2.2.1.4.1.4 0s2.3-.1 9.7-.1c5.3 0 9.9.1 10.1.1h.4c-1.2-.2-2.4-.3-3.5-.2-.9 0-1.3 0-1.3-.1s-.2-.2-.9-.1c-1.6.2-2.5.1-2.6-.1s.2-.2 2.6-.2c.9.2 2 .2 3.1.4m-13 0c-.4.1-.9.1-1.3.1h-1.1l1-.1c1.4-.1 1.7-.1 1.4 0m-45.1.1c.1.1-.2.1-.6 0-.7-.1-.8 0-.6.1s-.1.2-1.9.2c-2.5 0-2.9-.1-2.2-.3 1.7-.1 3.5-.1 5.3 0m-6.5.3h-1c-.3 0-.1-.1.5-.1s.7 0 .5.1m7.4.1h-.8c-.3 0-.2-.1.2-.1.5 0 .7 0 .6.1m35.9.9c0 .1-.2.1-.4.1s-.3-.1-.2-.1c.1-.1.3-.1.4-.1.2 0 .2 0 .2.1m3.7 0c0 .1.3.2.6.2s.6.1.6.2c0 .2-.1.2-.6 0-.3-.1-.7-.1-1-.1-.2 0-.4 0-.4-.1s-.4-.2-1.1-.2h-1.1l1.2-.1c1.7 0 1.7 0 1.8.1m-7.4.1h-.8c-.3 0-.2-.1.2-.1.5 0 .7 0 .6.1m19.2 0c.3.1.6.1.8 0 .6-.1.8.1.3.2-.7 0-1.5-.1-2.2-.3.1 0 .8 0 1.1.1m11.4.1c.1.1.3.1.7-.1.5-.2.6-.2.8 0s.4.3.7.3c.6.1-2.3.1-2.9-.1-.4-.1-.5-.1-.3.1s0 .2-1 .1c-.8 0-1.1-.1-1-.2s.2-.2.2-.3c1 0 1.9 0 2.8.2m-19.3.1c-.7 0-1 .1-.8.2s-.1.1-.5 0l-.9-.2h2.2m23.4.2c0 .1-.2.1-.4.1s-.4 0-.4-.1.2-.1.4-.1.4 0 .4.1m-15.4.2h-.8c-.3 0-.2-.1.2-.1.5 0 .7 0 .6.1m2.7.4c-.2.1-.4.1-.6.1s-.4 0-.4-.1.3-.1.6-.1.6 0 .4.1m2.6 0h-1.4c-.4 0-.1-.1.7-.1s1 0 .7.1m3.5.2c0 .1-.1.2-.3.3-.1 0-.3 0-.4-.2v-.1c.1-.4.5-.4.7 0m1.6-.2c.1.1.1.1-.2.1s-.4-.1-.4-.1.1-.1.2-.1.2 0 .4.1m4.2 0c-.5.1-1.1.1-1.6.1-1 0-1.5 0-1.1-.1.8-.2 1.8-.2 2.7 0m-16.2.2h-1.4c-.4 0-.1-.1.7-.1s1.1.1.7.1m12 .4c.7.1.7.1-.3.1-.4 0-.8 0-1.1-.1 0-.1.3-.1 1.4 0m-15.1.3c-.5.1-1 .1-1.5.1-1.2 0-1.3 0-.4-.1.4 0 .8 0 1.1-.2 0-.1.2-.1.4 0s.4.1.4.2m111.4.1c-.1.1-.2.1-.2-.1 0-.1.1-.2.2-.2s.1.2 0 .3m-107.5-.1h-.8c-.3 0-.2-.1.2-.1.5.1.8.1.6.1m3.6.1c.3.1-.8.1-2.2 0-.9-.1-.8-.1.5-.1.5-.1 1.1 0 1.7.1m4 .1c.2.1-.2.1-1.3 0-2.1-.1-2.2-.2-.4-.2.6 0 1.2.1 1.7.2m6.9.1h-.8c-.3 0-.2-.1.2-.1.5 0 .7 0 .6.1m1.8 0c0 .1-.1.1-.2.1s-.3-.1-.4-.1c-.1-.1-.1-.1.2-.1s.4 0 .4.1m91.2.9c-.1.1-.2.1-.2-.1 0-.1.1-.2.2-.2s.1.2 0 .3m-104.5 1s-.2.1-.4.1-.4 0-.4-.1.2-.1.4-.1.4.1.4.1m11.5 0h-.8c-.3 0-.2-.1.2-.1.5.1.7.1.6.1m.7.5c-.9.1-2.3 0-2-.1.5-.1 1-.1 1.5 0 1.1 0 1.2 0 .5.1m-3 .7c0 .1-.2.1-.4.1s-.3-.1-.2-.1c.1-.1.3-.1.4-.1s.2 0 .2.1m1.6.1c0 .1-.2.1-.4.1s-.4 0-.4-.1.2-.1.4-.1.4 0 .4.1m2.2 0c.1.1 0 .1-.4.1-.3 0-.6 0-.8-.1-.1-.1 0-.1.4-.1.3 0 .6 0 .8.1m-2.6.5c-.3.1-.5.1-.8 0-.1 0 0-.1.4-.2.3-.1.5-.1.8 0 .1.1 0 .1-.4.2m2.8 0c-.3.1-.5.1-.8 0-.5 0-.8 0-.8.1s-.1.1-.2.1-.1-.1 0-.2c.3-.2 1.9-.2 1.8 0m-79.2.4c0 .1-.1.1-.2.1s-.3-.1-.4-.1c-.1-.1-.1-.1.2-.1s.4 0 .4.1m77.4.5c.8.1.8.1 0 .1-.5 0-.9 0-1.4-.1s-.5-.1 0-.1 1 0 1.4.1m-91.9.9c0 .1-.8.2-1 .1-.1-.1 0-.1.4-.1.1-.1.4-.1.6 0m180.7.8c0 .1-.1.1-.2.1s-.3-.1-.4-.1c-.1-.1-.1-.1.2-.1s.4 0 .4.1m-177.5.6c0 .1-.3.1-.6 0-.2 0-.4 0-.6-.1.2 0 .4-.1.6 0 .3 0 .6 0 .6.1m176.3.5c0 .5.8.6.8.2.1-.7.7.1.7.8 0 .5-.1.7-.6.8-.7.1-1.9 0-1.6-.2.2-.1.3-1 .1-1.6-.1-.2 0-.4.2-.4s.4.2.4.4m-177.3.2c1.3.2.6.4-1 .3-1.7 0-2.7-.2-1.2-.2.4 0 .7 0 1.1-.1.2-.1.2-.1 1.1 0m3.4.1c-.4.1-.8.1-1.2.1s-.8 0-1.2-.1c.4-.1.8-.2 1.2-.1.4 0 .8 0 1.2.1m42.8.6c.2.3 0 .3-.9.1-.4-.1-.5-.1-.1-.1.3 0 .4-.1.3-.1s-.1-.1.1-.1c.2-.1.4 0 .6.2m-2.8.1c.8.1.8.1-.1.1-.4 0-.8 0-1.1-.1-.3-.2.1-.2 1.2 0M348 21.8c-.3.1-.4 0-.4-.3 0-.4 0-.4.4-.1.3.2.3.3 0 .4m-6.8-.4c0 .1-.2.1-.4.1s-.3-.1-.2-.1c.1-.1.3-.1.4-.1s.2 0 .2.1M81 22c-.2.2-.3.2-.6 0-.2-.1-.1-.3.1-.3.6-.2.8 0 .5.3m14.5-.4c.1.1 0 .1-.4.1s-.5-.1-.4-.1c.2-.1.5-.1.8 0m245.7.5c-.4.2-.4.2-.4-.1s.1-.3.4-.2c.3 0 .3.1 0 .3m7.2 0c0 .1-.1.1-.2.1s-.3-.1-.4-.1c-.1-.1-.1-.1.2-.1s.4.1.4.1m-6.8.6c0 .4-.5.6-1 .6-.4 0-.4-.1-.2-.4.2-.2.2-.4.1-.4s.1-.1.4-.1c.4.1.7.2.7.3m7.3.4c-.6.2-.7.1-1-.3l-.3-.4.9.3c.7.2.8.3.4.4m-6.2-.1c-.1.1-.2 0-.2-.2s.1-.2.2-.2c.1.2.1.3 0 .4zM4.9 25.4c0 .2-.3.4-.5.4s-.3-.2-.4-.4c0-.3.1-.4.4-.4s.5.2.5.4m336.8.1c-.4.2-.4.2-.4-.1s.1-.3.4-.2c.2.1.3.2 0 .3m-1 .6c.1.2 0 .3-.3.3-.2 0-.4-.2-.4-.4 0-.4.5-.3.7.1m1.1-.1c.1.1.1.1-.2.1s-.4-.1-.4-.1.1-.1.2-.1c.1-.1.3 0 .4.1m5.4.3c0 .1-.8.2-1 .1-.1-.1 0-.1.4-.1.2-.1.4-.1.6 0m-2.2.9c.1.4.1.5-.2.3-.4-.3-.6-1-.2-.9.2.2.3.4.4.6m2.2-.3c0 .1-.2.2-.4.2s-.4-.1-.4-.3.2-.3.4-.2.4.2.4.3m-4.1.2c-.1.1-.2 0-.2-.2s.1-.2.2-.2c.1.1.1.3 0 .4zm5.9-.2c.1.1.1.2-.2.2s-.4 0-.4-.2.3-.3.6 0m-8.1 1.8c.2.9.2 1-.3.9s-.6-.3-.5-1.3c0-1.3.4-1.1.8.4m6.3-1.1c0 .2-.1.3-.3.3s-.3-.1-.3-.3.1-.3.3-.3.3.1.3.3zm-3.7 1.1c0 .3-.2.5-.5.4-.7 0-1.2-.3-.7-.4.2-.1.4-.1.6-.3.4-.2.6-.2.6.3m5.3.4c0 .1-.1.2-.4.1-.2-.1-.4-.3-.4-.5 0-.4.1-.4.4-.1.2.1.3.3.4.5M5.5 28.5c0 .1-.2.1-.4.1s-.3-.1-.2-.1c.1-.1.3-.1.4-.1s.2.1.2.1m341.6.3c-.1.1-.2 0-.2-.2s.1-.2.2-.2c.1.2.1.3 0 .4zm3.8.2c.4.2.4.2-.4.1-.5-.1-.8-.2-.8-.3-.1-.1.7 0 1.2.2m-3.8.7c-.1.1-.2.1-.2-.2s.1-.3.2-.2.1.3 0 .4zm2.1.8c0 .1-.1.2-.3.2-.4 0-.7-.7-.5-1.1.1-.3.2-.2.5.2.1.2.2.5.3.7m-5.8-.4c.2.2.3.4.1.5s-.1.3.1.4c.3.1.2.2-.1.3-.6.2-1.6.1-1.6-.1 0-.1-.2-.2-.4-.2s-.4-.1-.4-.2-.3-.2-.7-.2c-.5 0-.7-.1-.8-.3s0-.3.2-.2c.4.1.9.2 1.3.2.8 0 1 0 .9-.2 0-.4.9-.4 1.4 0m3.9.7c-.3.1-.4 0-.4-.3 0-.4 0-.4.4-.1.2.2.2.3 0 .4m-2 0c.3.6.1.8-.5.5-.5-.2-.5-1-.1-1 .3 0 .5.2.6.5m-341.9.3c-.1.1-.2.1-.2-.1 0-.1.1-.2.2-.2s.1.3 0 .3m346 .4c-.3.1-1.3.1-1.3 0s.1-.2.2-.3c.2-.2.3-.2.8 0 .2.1.4.3.3.3m-2.1 0c-.4.1-.5.1-.5-.1s.1-.3.5-.1c.4 0 .4.1 0 .2m-343.2.9c.3.6.4 1.3.3 2 0 .9 0 1.8.2 2.6.3 2.2.3 2.1-.1 2.6s-.4.7-.1 2.9c.1 1 .1 1.8 0 1.7-.2-.1-.4-.1-.5-.1-.5.1-.4.3.2.3.9 0 1.1.7.3 1.1-.6.3-.6.4-.1.5.4.1.4.2.1.4-.4.2-.4.3-.2.4s.4 1 .3 2.6c-.1 2.3-.1 2.6-.8 2.7s-.7 0-.8-2.8v-4.2c.4-4.2.4-13 .1-13.1-.3-.2.1-.5.5-.4.3.2.5.5.6.8m343.2.7c.1.1 0 .2-.2.2s-.4-.1-.4-.2c.1-.3.4-.3.6 0m1.6 2.1c.1.3 0 .6-.2.7s-.3-.2-.3-.6c0-.9.3-.9.5-.1M7.4 38.5c-.1.1-.2 0-.2-.2s.1-.2.2-.2c.1.2.1.3 0 .4zm338.6.7c-.2.1-.4.2-.6.2-.5.1-.6.1-.6 0s.3-.2.6-.2c.2-.1.4-.1.6 0m-13.9.6c.1.1.1.1-.2.1s-.4-.1-.4-.1.1-.1.2-.1c.2 0 .3.1.4.1m4.2 1.6c-.2.1-.3.1-.5.1s-.4 0-.5-.1.2-.1.5-.1.6.1.5.1m-6.1.5c-.1.1-.2.1-.2-.2s.1-.3.2-.2.1.3 0 .4zm10.9-.2c-.1.1-.2.1-.2-.1 0-.1.1-.2.2-.2s.1.2 0 .3m-29.8 1.9c-.1.1-.2.1-.2-.1 0-.1.1-.2.2-.2s.1.2 0 .3m32.6 1.3c-.1.1-.2 0-.2-.2s.1-.2.2-.2c.1.2.1.3 0 .4zm-13.6.4c0 .1-.2.1-.4.1s-.4-.1-.4-.3.1-.2.4-.1c.2.1.4.2.4.3m-13.9 2.5c.1.1.1.1-.2.1s-.4-.1-.4-.1.1-.1.2-.1c.2 0 .3.1.4.1m15 1.2c-.1.1-.2.1-.2-.1 0-.1.1-.2.2-.2s.1.2 0 .3m-4.3-.1c0 .1-.3.1-.7.1-.6 0-.6 0-.1-.1.8-.1.8-.1.8 0m-1.6 1c0 .1-.2.1-.4.1s-.4-.1-.4-.2.2-.2.4-.1l.4.2m-8.3 1.1c-.1.1 0 .2.2.2.3 0 .3.1-.1.2-.3.2-.7.1-1-.1-.6-.3-.7-.5-.1-.4.2 0 .4 0 .4-.1s.2-.2.4-.1c.3.1.4.2.2.3m22.1.1c.9.1.8.3-.2.2-.4 0-.8-.1-.8-.2.1-.1.2-.1 1 0m-7.1 1.3c-.1.1-.2 0-.2-.2s.1-.2.2-.2c.1.1.1.3 0 .4zm-12.7.2c-.4.1-.5.1-.5-.1s.1-.3.5-.1c.4.1.4.1 0 .2m-315.2 0c0 .1-.3.1-.6.1s-.5-.1-.4-.1c.2-.1.4-.1.6-.1s.4 0 .4.1m323.6.1c0 .1-.2.2-.4.2s-.4-.1-.4-.2.2-.2.4-.2.4.1.4.2m-5.6.2c0 .1-.2.1-.4.1s-.3-.1-.2-.1c.1-.1.3-.1.4-.1.1-.1.2 0 .2.1m2.4.1c0 .1-.2.1-.4.1s-.4-.1-.4-.2.2-.2.4-.1.4.1.4.2m4.5 0c-.3.1-.5.1-.5 0s.1-.2.3-.2.3-.1.5 0c.1 0 0 .1-.3.2m3.2 0c-.3.1-.5.1-.5 0s.1-.2.3-.2.3-.1.5 0c.1 0 0 .1-.3.2m-12.1 0c0 .1-.2.1-.4.1s-.3-.1-.2-.1c.1-.1.3-.1.4-.1s.2 0 .2.1m6.3.1c-.1.1-.2.1-.2-.1 0-.1.1-.2.2-.2s.1.3 0 .3m8.7 0c.1.1 0 .3-.2.3s-.4-.1-.4-.2c0-.4.3-.4.6-.1m-7.4.2c0 .1-.2.1-.4 0s-.4-.1-.4-.2.2-.1.4 0 .4.1.4.2m-323.1 0c.4.1.5.3.3.4s-.3.4-.1.8.1.6-.3.7c-1 .2-1.1.1-1.1-.4 0-.2-.1-.5-.3-.6-.1-.1 0-.2.3-.4.4-.2.4-.3 0-.4-.3-.1-.5-.2-.5-.2 0-.2 1-.1 1.7.1m325.9.2c0 .1-.1.1-.2.1s-.3-.1-.4-.1c-.1-.1-.1-.1.2-.1s.4 0 .4.1m-19.9.3c.3.1-.5.3-1 .2s-.2-.3.4-.3c.2 0 .4.1.6.1m6.6 0c-.5.1-.5.2-.1.4.5.2.4.3-.3.3-.6 0-.8-.1-.6-.2.1-.1.2-.2.2-.4 0-.1.3-.2.7-.2.6 0 .7 0 .1.1m9.4.1c0 .1.1.2.4.3.4.1.2.2-1.1.1-1.8-.1-2.4-.2-2-.4.9-.2 1.8-.2 2.7 0m7.9.3c0 .1-.2.1-.4.1s-.3-.1-.2-.1c.1-.1.3-.1.4-.1.2 0 .2 0 .2.1m1.3 0c0 .1-.1.1-.2.1s-.3-.1-.4-.1c-.1-.1-.1-.1.2-.1s.4 0 .4.1m-25.2.1c.1.1.1.1-.2.1s-.4-.1-.4-.1.1-.1.2-.1.3.1.4.1m14 .3c-.2.2-.9.3-.9.1 0-.1.4-.3.8-.3.2.1.2.1.1.2m-10.5.4c-.3.1-.5.1-.5 0s.1-.2.3-.2.3-.1.5 0c.1 0 0 .1-.3.2m9.1.7c-.1.1-.2 0-.2-.2s.1-.2.2-.2c0 .2.1.3 0 .4zm-317.6.6c.2.3 0 .7-.3.9-.7.4-.5 1.7.3 1.7.4 0 .5.1.3.6-.2.4-.1.5.2.4.8-.3 1 0 .2.3l-.7.3-.2-.3c-.2-.3-.3-.3-.7-.1-.2.1-.3.3-.2.4 0 0 0 .1.1.1.1.3.2.4.3.2.1-.1.2-.2.4-.2.4 0 .5.1.6 1.5.2 2 .2 2 .9 2 .3 0 .6.1.6.2s-.1.2-.3.1c-.6-.2-1.3.6-.9.8.2.1.3.4.2.6s-.1.4.1.4.3.3.2.6-.2.6-.2.7c-.3.1-.5.1-.8.1-1.2.1-1.6-.2-1.2-.7.2-.2.3-.4.3-.7-.1-.4.1-.5.4-.2.3.2.3.2.4-.3 0-.6 0-.6-.5-.5-.7.2-.9-.2-1.2-2.2-.4-3.2-.3-6.4.2-6.9.7-.8 1.1-.7 1.5.2m310.8-.5c0 .1-.1.1-.2.1s-.3-.1-.4-.1c-.1-.1-.1-.1.2-.1s.4 0 .4.1m0 .4c0 .1-1.1.1-1.4 0-.1-.1.1-.1.6-.1.3 0 .6 0 .8.1m17.5.8c.1.1 0 .2-.2.2s-.4-.1-.4-.2.1-.2.2-.2.3.1.4.2m4.9.7c-.4.2-.5.3-.6.1s.5-.4 1-.4c.1 0-.1.2-.4.3m-4.7.1s-.2.1-.4.1-.4 0-.4-.1.2-.1.4-.1.4.1.4.1m-.5 1.2c-.1.1-.2.1-.2-.2s.1-.3.2-.2.1.2 0 .4zm-1.2.2c-.1.1-.2 0-.2-.2s.1-.2.2-.2c.1.1.1.2 0 .4 0-.1 0-.1 0 0m-8.1.6c0 .4-.1.8-.3.8-.4-.1-.6-.5-.6-.9v-.1c.7-.8.9-.8.9.2m6.6.4c0 .1-.1.1-.2.1s-.3-.1-.4-.1c-.1-.1-.1-.1.2-.1s.4.1.4.1m-114.8.7c.1 0-.1.1-.4.1-.4.1-.9 0-1.3-.1-.8-.2-.8-.2.4-.1.7 0 1.2.1 1.3.1m108 .1c0 .1-.1.1-.2.1s-.3-.1-.4-.1c-.1-.1-.1-.1.2-.1s.4 0 .4.1m-315.6.5c0 .1-.2.1-.4.1s-.3-.1-.2-.1c.1-.1.3-.1.4-.1.1-.1.2 0 .2.1m297.5 0c0 .1-.1.1-.2.1s-.3-.1-.4-.1c-.1-.1-.1-.1.2-.1s.4 0 .4.1m-100.8 0h-.8c-.3 0-.2-.1.2-.1.5.1.7.1.6.1m120.5.1c0 .1-.2.1-.4.1s-.4 0-.4-.1.2-.1.4-.1.4 0 .4.1m-316.8.9c0 .2-.2.4-.4.4s-.4-.3-.4-.5c0-.3.2-.5.4-.4s.4.3.4.5m-2.1.1c-.1.1-.2.1-.2-.1 0-.1.1-.2.2-.2s.1.2 0 .3m295.1.1c-.3.2-1.1.3-1.1 0 0-.1.3-.2.6-.2s.6.1.5.2m-122.3.7c0 .1-.2.1-.4.1s-.4 0-.4-.1.2-.1.4-.1.4.1.4.1m122.1 0c.1.1.1.1-.2.1s-.4-.1-.4-.1.1-.1.2-.1c.2 0 .3.1.4.1m-292.6.9c.2.4.2.6.1.6-.3-.1-.6-.5-.6-.8 0-.2-.3-.3-.7-.3-.6 0-.6 0 .1-.1.4-.1.8-.1.8-.1.1.2.2.5.3.7m303.9.5c-.3.1-.9-.5-.7-.6.1-.1.4 0 .5.2s.3.3.2.4m21.4-.2c-.1.1-.3.2-.4.1-.1 0-.1-.2 0-.3s.3-.2.4-.1.1.2 0 .3m3.5.4c.1.1.1.1-.2.2-.2 0-.4 0-.4-.1.1-.2.3-.2.6-.1m-9.9.1h-.8c-.3 0-.2-.1.2-.1.5 0 .7.1.6.1m-3.1.5c0 .1-.2.1-.4.1s-.4-.1-.4-.3.1-.2.4-.1c.2.1.4.2.4.3M7.4 65.5c-.1.1-.2.1-.2-.1 0-.1.1-.2.2-.2s.1.3 0 .3m308.4.2c0 .1-.2.2-.4.1s-.4-.2-.4-.3.2-.2.4-.1.4.2.4.3m-306.1.5c.2.7.2 1.5.2 2.2 0 1-.2 1.4-.3 1-.1-.3-.4-.5-.8-.5-.6 0-.6-.3 0-.4.3-.1.3-.1 0-.2s-.3-.2.1-.4.4-.3.1-.3c-.3-.1-.3-.3-.1-.8.2-.4.2-.8.1-1s0-.2.2-.2.3.2.5.6m317.2-.3c.1.1.1.1-.2.1s-.4.1-.4.3-.1.2-.3.2c-.3 0-.3-.5-.1-.7.3-.1.7 0 1 .1m1.4 0c0 .1-.1.1-.2.1s-.3-.1-.4-.1c-.1-.1-.1-.1.2-.1s.4 0 .4.1m-14.5.1c0 .1-.2.1-.4.1s-.4 0-.4-.1.2-.1.4-.1.4 0 .4.1m10.8.2c-.1.1-.2.1-.2-.1 0-.1.1-.2.2-.2s.1.2 0 .3m-8.8.1c0 .2-.1.2-.4.1-.2-.1-.3-.2-.2-.3.4-.2.6-.1.6.2m15.2 0c-.2 0-.4 0-.5-.2-.2-.2-.1-.2.2-.1.4.2.5.3.3.3m-2.1.1c.6.1.5.1-.5.1-.4 0-.9 0-1.3-.1 0-.2.7-.2 1.8 0m-2.3.5-.6.3c-.2-.1.6-.6.9-.6.1 0 0 .2-.3.3m-314.9 0c.1.1.1.2-.2.2s-.4 0-.4-.2.3-.2.6 0m312.9 1c-.1.1-.2.1-.2-.1 0-.1.1-.2.2-.2s.1.2 0 .3m-311.5 0c0 .1-.4.2-1.1.2h-1.1l1-.2c.6-.1 1.1-.2 1.1-.2s.1.1.1.2m148.9-.1h-.8c-.3 0-.2-.1.2-.1s.7.1.6.1m171.9.1c0 .1-.2.1-.4.1s-.4 0-.4-.1.2-.1.4-.1.4 0 .4.1m-327.1.9c-.5.3-1 0-.6-.4.3-.3.3-.3.6-.1.2.2.2.4 0 .5m-1.4-.1c.1.2 0 .3-.3.3-.2 0-.4-.2-.4-.4 0-.5.5-.4.7.1m328.8-.3c.1.1.1.1-.2.1s-.4-.1-.4-.1.1-.1.2-.1c.1-.1.2 0 .4.1m-21.8.9c.1.1.1.1-.2.1s-.4-.1-.4-.1.1-.1.2-.1.3.1.4.1m-305.7.6v.4c0 .3-.1.3-.9.2s-.8-.2-.2-.3c.5 0 .6-.1.5-.3s-.1-.2.2-.2c.3.1.5.1.4.2m327.5.1c-.1.1-.2.1-.2-.1 0-.1.1-.2.2-.2s.1.2 0 .3m-156.4.7c0 .1-.4.1-.8.1s-.7-.1-.6-.1c.3-.1.5-.1.8-.1s.6 0 .6.1m19.5.1c.1.1.1.1-.2.1s-.4-.1-.4-.1.1-.1.2-.1.3 0 .4.1M7 71.8c0 .5.1.9.3 1.4.1.3.1.5-.2.5-.2 0-.3.1-.3.3v.1c.1.4-.5.8-1 .8-.2 0-.2-.1-.1-.3s0-.3-.2-.4c-.3-.1-.3-.2.1-.3.4-.3.7-.7.8-1.2.2-.8.2-.9-.7-1-.7-.2-.7-.2-.1-.3.4-.1.7-.3.7-.4s.2-.2.3-.1.4.4.4.9m3.5.4c.3.3 1.2.3 3.2.1.2 0 .5.1.5.2s-.1.2-.2.2-.2.5-.2 1.2c.1.8-.1 1.2-.4 1.1-.3 0-.4-.3-.4-.8 0-.4-.1-.8-.3-.8-.3-.1-.3-.2.1-.7.1-.1-.1-.2-.3-.2-1.5 0-1.6.1-1.4.3.1.2 0 .3-.3.4s-.4.3-.4.5c0 .4 0 .4-.8.2-.4-.1-.7-.3-.6-.4s0-.2-.2-.3c-.5.1-.3 0 .2-.2.7-.2.7-.3.2-.5s-.5-.3-.2-.3c.3-.1.5-.4.5-.7l.1-.6.3.6c.2.2.4.5.6.7m302.5-.7c0 .1-.2.2-.4.2s-.4-.1-.4-.2.2-.2.4-.2.4.1.4.2m1.2-.1c0 .1-.1.1-.2.1s-.3-.1-.4-.1c-.1-.1-.1-.1.2-.1s.4 0 .4.1m23.9.1c.1.1 0 .2-.2.2s-.4-.1-.4-.2.1-.2.2-.2c.2 0 .3.1.4.2m-332.2.7c0 .1-.2.2-.4.1-.2 0-.3-.1-.2-.2.4-.1.6-.1.6.1m127.1-.1h-.8c-.3 0-.2-.1.2-.1.5 0 .7.1.6.1m3.5 1.9c-.2.1-.4.1-.6.1s-.3 0-.2-.1c.2-.1.4-.1.6-.1.3 0 .4 0 .2.1m34.6.2c-.2.1-.4.1-.6.1s-.4 0-.4-.1.3-.1.6-.1.6.1.4.1m-38.3.5c.3.2-1.2.3-1.8.1-.4-.1-.3-.2.2-.1.4 0 .7 0 .7-.1 0-.2.7-.1.9.1m2.8-.1c.1.1.3.1 1.1 0 .5-.1 1-.1 1.5 0 .4.1.8.1 1.2.1.8-.1 1.2.1.6.4-.4.1-.6.1-1.4-.2-.6-.2-1-.3-1-.1s-2.7.3-3.5.1c-.5-.1-.4-.2.2-.2 1.1-.2 1.1-.2 1.3-.1m-125.2.5c.2 1.2 0 2.2-.4 2.4s-.4.2-.5 0v-.3s.1-.6.1-1.3.2-1.2.4-1.2.4.2.4.4m114-.4c.1.1.1.1-.2.2-.2 0-.4 0-.4-.1 0-.2.3-.2.6-.1m47.3.2c.3 0-.1.1-.9.1-1.3 0-1.5 0-1-.2.3-.1.6-.1.9-.1.3.1.7.2 1 .2m-29.8.1c0 .1-.2.1-.4 0s-.4-.1-.4-.2.2-.1.4 0 .4.1.4.2m2.3 0c-.2 0-.5 0-.7-.1-.4-.1-.3-.1.2-.1.4.1.6.1.5.2m10.2-.1c-.5.2-1 .3-1.5.2-.1 0 0-.1.4-.2.7-.2 1.1-.2 1.1 0m7.9 0c.1.1 0 .1-.4.1-.7-.1-.8-.2-.2-.2.2-.1.4 0 .6.1m-155.6.7c0 .2.2.3.4.3s.4 0 .4.1-.2.2-.5.2c-.4 0-.6.3-.6.7 0 .3.2.6.6.6.8.1.8.3-.1.3-.6 0-.8-.1-1.1-.5-.3-.6-.3-2 0-2.2.3-.1.8.1.9.5zm128.3-.2h-.8c-.3 0-.2-.1.2-.1.5.1.7.1.6.1M14.3 76.5s-.2.1-.4.1-.4 0-.4-.1.2-.1.4-.1.4.1.4.1m-6.9.7c-.1.1-.2.1-.2-.1-.1-.1 0-.1.1-.1s.2.1.1.2m307.4-.1c-.3.1-1.4.1-1.4 0s.3-.1.8-.1.7 0 .6.1m.8.4c.4.3.1.3-.5.1-.3-.1-.3-.2-.1-.2.2-.1.4 0 .6.1m-303.1.3c.1.1 0 .2-.2.2s-.4-.1-.4-.2.1-.2.2-.2.3.1.4.2m307.1.1c.1.1 0 .2-.2.2s-.4-.1-.4-.2.1-.2.2-.2c.2 0 .3.1.4.2m-311.3.3c0 .1-.1.1-.2.1s-.3-.1-.4-.1c-.1-.1-.1-.1.2-.1.2 0 .4 0 .4.1m2.1.8c-.2.3-.4.2-.7-.2-.3-.5.3-.8.6-.4.1.1.2.4.1.6m3.4-.7c-.1.1-.2.1-.2-.1 0-.1.1-.2.2-.2s.1.2 0 .3m304.4 0c0 .2-.1.2-.6.1-.3-.1-.6-.2-.6-.3s.3-.1.6-.1c.4.1.6.2.6.3m-4.2.1c-.3.3 1 .3 1.4.1.3-.2.4-.1.4.1s-.1.3-.8.3c-.6-.1-.8 0-.7.1s0 .2-.2.2c-.9 0-1.1 0-.9-.2.1-.1 0-.2-.2-.2s-.4-.1-.4-.1.2-.1.4-.1.4 0 .4-.2.2-.3.4-.3.3.2.2.3m-4.2.2c0 .1-.2.1-.4.1s-.4 0-.4-.1.2-.1.4-.1.4 0 .4.1m-302.2.8c0 .4.2.8.3.8s.2.2 0 .4c-.2.3-.2.6 0 .8.4.7.2 1.5-.5 1.7-1 .2-1.3.1-.6-.1.4-.1.5-.2.2-.3-.5-.1-.5-.5-.2-1.3.2-.5.2-.5-.4-.5s-.6 0-.6-.6c0-.5.2-.7.6-.7s.5-.2.4-.3c-.2-.3.2-.8.5-.7.2 0 .3.4.3.8m303.5-.7c.1.1.1.2-.1.3s-.4.1-.6-.1l-.3-.3c.1-.1.8-.1 1 .1m-162.4.1h-.8c-.3 0-.2-.1.2-.1s.7 0 .6.1m5.5 0c.1.1.1.1-.2.1-.2 0-.4 0-.6-.1-.1-.1-.1-.1.2-.1.2 0 .4 0 .6.1m-6.2.4c0 .1-.3.1-.6 0-.2 0-.4 0-.6-.1.2 0 .4-.1.6 0 .3-.1.6 0 .6.1m7.4 0c.7.1.7.1-.3.1-.4 0-.8 0-1.1-.1 0-.2.3-.2 1.4 0m25 0c.1.1-.2.1-.8.1-.3 0-.7 0-1-.1 0-.1.3-.1.8-.1.3-.1.7 0 1 .1m-170.2.9c-.3.4-.5.5-.6.3s-.3-.3-.5-.4c-.3-.1-.3-.2 0-.2s.5-.1.7-.3c.4-.5.8 0 .4.6m324.3-.4c-.2.1-.4.1-.6.1s-.4 0-.4-.1.3-.1.6-.1.6 0 .4.1m-179.8.3c-.5.1-.6.2-.3.3s.2.2-.6.2c-.9 0-.9 0-.5-.2.5-.2 1.1-.4 1.7-.4.2 0 .1.1-.3.1m22.3 0c0 .1-.2.1-.4.1s-.4 0-.4-.1.2-.1.4-.1.4 0 .4.1m4 0c.5.1.4.1-.3.1-.5 0-.9-.1-.9-.1 0-.1.4-.1 1.2 0m3.2 0c0 .1-.4.1-.9.1-.7 0-.8 0-.3-.1.8-.1 1.2-.1 1.2 0m5.2.1c-.8.1-1.6.1-2.4 0l-1.8-.1h2.4c1.5 0 2.2.1 1.8.1m2.3 0h-.8c-.3 0-.2-.1.2-.1.5 0 .8.1.6.1m-78.9.1h-.8c-.3 0-.2-.1.2-.1.5.1.8.1.6.1m1.4.1c0 .1-.1.2-.2.2s-.3-.1-.4-.2 0-.2.2-.2.4.1.4.2m24.5 0c0 .1-.2.2-.4.2s-.3-.1-.2-.1-.2-.1-.7-.2c-.8 0-.8-.1.2-.1.7.1 1.1.1 1.1.2m1 0c.1.1.1.1-.2.1s-.4-.1-.4-.1.1-.1.2-.1c.2 0 .3 0 .4.1m4.7 0c-.1.1-.6.1-.8 0-.1-.1 0-.1.3-.1s.5 0 .5.1m-10.5.1c0 .1-.1.1-.2.1s-.3-.1-.4-.1c-.1-.1-.1-.1.2-.1s.4 0 .4.1m14.9 0c0 .1-.2.1-.4.1s-.3-.1-.2-.1c.1-.1.3-.1.4-.1s.2 0 .2.1m36.1.2c0 .1-.1.2-.3.2-.4 0-.5-.2-.1-.3s.4-.1.4.1m35.7 0c-.4.2-1.8.1-1.6-.1.3-.1.7-.2 1-.1.5.1.7.2.6.2m-61.9.2c.3 0 .5.1.3.1s-.1.2.2.2c.4.1.3.1-.3.2h-1.3c-.4-.1-.4-.1.1-.1.8 0 1-.2.3-.3-.2 0-.4-.1-.4-.2s.1-.1.2 0c.4 0 .6.1.9.1m49-.2h-1.2c-.4 0-.2-.1.5-.1s.9.1.7.1m4.1.4h-1.2c-.8-.1-1-.1-.6-.2s.8-.1 1.2 0l.6.2m1.3-.4h-.8c-.3 0-.2-.1.2-.1s.7 0 .6.1m-62.5.2c.3.2.3.2-1.1.3-1.1.1-1.6-.1-.6-.2h-.5c-.4 0-.8.1-1.1.2-.4.1-.9.1-1.3.1-.7 0-1.1-.1-.9-.1.3-.1.7-.1 1-.1.4 0 .8 0 .7-.1-.1-.2.1-.2 1.8-.3 1.3 0 1.8.1 2 .2m3.4 0c.3.1.6.1.9 0s.4-.1.4.1 0 .2.6 0c.7-.3 1.2 0 .6.3-.6.2-1.1.3-1.7.2-.7 0-1.7-.1-2.4-.1-1.3 0-1.5-.2-.3-.3.4 0 .7-.1.6-.2-.4-.2.7-.2 1.3 0m6.6 0c.3.3-.1.4-.6.2s-.5-.4 0-.4c.2 0 .4.1.6.2m28.2.1c.9.3.9.5 0 .5-.6 0-.6 0-.1-.1s.5-.1-.1-.2c-.7-.1-1.3-.4-.8-.4.3 0 .6.1 1 .2m3.3.1c-.2.3-.1.3 1 .2.4-.1.8 0 1.2 0-1 .2-2 .2-3-.1-.2-.1-.3-.3-.5-.4s.1-.2.6-.2c.8.1.9.2.7.5m31-.3h-.8c-.3 0-.2-.1.2-.1.5 0 .7.1.6.1m-82.2.2c-.3.1-.7.1-1 .1-.4 0-.8-.1-.8-.1.3-.1.7-.2 1-.1.6 0 1 0 .8.1m94 0c0 .1-.8.2-1 .1-.1-.1 0-.1.4-.1zm-96.6.2s-.2.1-.4.1-.4 0-.4-.1.2-.1.4-.1.4 0 .4.1m68.3.1c.8.1 1.6.2 2.5.1 1.5-.1 1.7-.1.3.1-1.4.1-2.8.1-4.1-.2-.3-.2-.1-.2 1.3 0m22.9-.1c-.3.1-.5.1-.8.1-.8-.1-.7-.2.2-.2.5 0 .7.1.6.1m7.2.1c-.1.1.2.1.8.1s1 0 .8.1c-.7.1-1.4.1-2.1 0-.4-.1-.4-.2 0-.2.7-.1.8-.1.5 0m-223.3.3c-.2 0-.5 0-.7-.1-.4-.1-.3-.1.2-.1.4.1.6.1.5.2m205.4-.2s-.2.1-.4.1-.4 0-.4-.1.2-.1.4-.1.4.1.4.1m2.3.2c-.3.1-.6.1-1 .1-.6 0-.6 0 .1-.2.8-.2 1.3-.1.9.1m3.3-.1c-.4 0-.9.1-1.3 0-.5 0-1 0-1.5-.1 1 0 1.9 0 2.8.1m20.1 0c.3.1.2.2-.5.1-1.7-.1-1.7-.1-.9-.2.4-.1.8-.1.9-.1.2.1.4.1.5.2m14.8 0c.1.1.1.1-.2.1s-.4-.1-.4-.1.1-.1.2-.1.2 0 .4.1m1.9.2c-.3.1-.7.2-1.1.2-.8 0-.8 0-.1-.2.8-.4 1.6-.3 1.2 0m-31.7-.1c.1.1.1.1-.2.1s-.4-.1-.4-.1.1-.1.2-.1.3 0 .4.1m4.5.3c.4 0 .9 0 1.3.1-.8.1-1.7.2-2.5 0-2.5-.1-3.3-.2-2.4-.3.3 0 .4-.1.2-.2s.2 0 .9.1c.8.2 1.7.3 2.5.3m20.5-.1c-.5 0-1 0-1.5-.1-.2-.1.3-.1 1.1 0 1.5.1 1.5.1.4.1m-63.4 0c.5.1.4.1-.3.1-.5 0-.9-.1-.9-.1-.1-.1.4-.1 1.2 0m-1.9.2c-.1.1.2.1.7.1s.7 0 .4.1c-.7.1-1.8-.1-1.5-.2.1-.1.3-.1.4-.1.2-.1.2 0 0 .1m49.8 0c-.9.1-1.8.1-2.7 0-.3-.1.2-.1 1.1-.1.5-.1 1 0 1.6.1m5 0c.1.1 0 .1-.4.1s-.6-.1-.6-.1.2-.1.4-.1c.2-.1.4 0 .6.1m-229.2.4c0 .2-.7.2-1 0-.3-.3.1-.5.6-.3.2.1.4.2.4.3m233.5-.3c-.5.1-.9.1-1.4 0-.9-.1-.8-.1.5-.1 1 0 1.3 0 .9.1m3.1 0c-.4.1-.8.1-1.2.1-1.6 0-1.6-.2 0-.2.4 0 .8 0 1.2.1m2.6 0c-.2.1-.4.1-.6.1s-.4 0-.4-.1.3-.1.6-.1.5.1.4.1m-244 .8c-.1.4 0 .7.2.7s.3.1.2.2 0 .2.2.2.4.1.4.1-.4.1-.8 0-.6 0-.5-.1.1-.2 0-.2c-.2-.1-.3-.4-.2-1.4 0-.2.2-.3.3-.3.2.1.3.4.2.8m147.6-.6c0 .1-.3.2-.6.2-.5 0-.5 0-.1-.2.7-.2.7-.2.7 0m103.5 0c0 .1-.1.1-.2.1s-.3-.1-.4-.1c-.1-.1-.1-.1.2-.1s.4.1.4.1m-26.5.2c-.3.1-.7.1-1 0-.4-.1-.3-.1.5-.1s.9 0 .5.1m-63.3.1s-.2.1-.4.1-.4 0-.4-.1.2-.1.4-.1.4.1.4.1m-2.7.2h-1c-.3 0-.1-.1.5-.1s.8.1.5.1m16 0c0 .1-.2.1-.4.1s-.3-.1-.2-.1c.1-.1.3-.1.4-.1s.2.1.2.1m2 0c0 .1-.2.1-.4.1s-.4 0-.4-.1.2-.1.4-.1.4.1.4.1m2.1.2c-.5.2-1 0-.7-.1.2-.1.5-.1.7-.1.3 0 .3.1 0 .2m18 0c-.2.1-.4.2-.6.2-.1 0-.1-.1.1-.1.2-.1.1-.1-.4-.1h-.7c.3-.1.6-.2.9-.2.5 0 1-.1 1-.1s0 .1-.3.3m5.3-.2c.5.1.5.1-.1.1-.3 0-.6 0-.9-.1-.4-.1.2-.1 1 0m-8.1.1c0 .1-.2.1-.4.1s-.3-.1-.2-.1c.1-.1.3-.1.4-.1.2 0 .2.1.2.1m-52.1.3c-.2 0-.5 0-.7-.1-.4-.1-.3-.1.2-.1.4.1.6.1.5.2m71.9.2c0 .1.2.2.4.2s.3.1.1.1c-.2.1-.5 0-1.1-.2-.5-.2-1-.3-1.4-.3-.5 0-.5 0 .1-.1.9-.1 1.9 0 1.9.3m-63.2-.2c0 .1-.3.1-.6.1-.5-.1-.6 0-.4.2.1.1 0 .3-.2.3-.3 0-.4.2-.2.3s0 .2-.2.2-.3-.2-.3-.6c.1-.5.2-.6 1-.6.4 0 .9 0 .9.1m11.8 0c.2 0-.2.1-1 .1-1.1.1-2.2.1-3.2-.1 1.4-.1 2.8-.1 4.2 0m88.6.1c-.2 0-.5 0-.7-.1-.4-.1-.3-.1.2-.1.4.1.6.2.5.2m-114.2 0h-.8c-.3 0-.2-.1.2-.1s.7 0 .6.1m4.3 0c.1.1 0 .1-.4.1s-.6-.1-.6-.1.2-.1.4-.1.4 0 .6.1m16.4 0h-1c-.3 0-.1-.1.5-.1s.8 0 .5.1m7 0h-.8c-.3 0-.2-.1.2-.1.5 0 .8 0 .6.1m17.2 0c-1 .1-2.1.1-3.1 0 .4-.1.9-.1 1.3-.1.6 0 1.2 0 1.8.1m44.4 0h-.8c-.3 0-.2-.1.2-.1.5 0 .7 0 .6.1m-51 .1c0 .1-.8.2-1 .1-.1-.1 0-.1.4-.1.2-.1.4-.1.6 0m12.5.1c0 .1-.2.2-.4.2s-.4-.1-.4-.2.2-.2.4-.2.4.1.4.2m16.1.1c.5.1 1.4.3 1.9.4s.8.2.7.3c-1.3.2-2.6.2-3.9 0-.3-.1-.3-.1-.3 0s-.1.2-.4 0c-.3-.1-.4-.1-.4 0s-.3.2-.7.2c-.6 0-.6 0-.1.1.3.1.6.2.6.4s-.1.2-.7.1c-.3-.1-.7-.1-1.1 0-.8.3-1.6.4-2.5.4-.6-.1 0-.3.8-.3.4 0 .8-.1.8-.1s-.2-.1-.4 0c-.2 0-.5 0-.6-.2-.2-.2-.5-.3-.8-.3-.4 0-.5 0-.2-.2.2-.1.3-.2.2-.2 1.1-.1 2.3-.1 3.4.1.1.1.4.2.5 0 .5-.1 1.1-.2 1.6-.2 1.5 0 2-.3.8-.4-.5 0-.8-.1-.8-.2 0-.2.6-.2 1.6.1m-10.9 0c0 .1-.2.1-.4.1s-.4 0-.4-.1.2-.1.4-.1.4 0 .4.1m29 0c-.3.1-.6.2-.9.2-.2 0-.1-.1.4-.2.9-.2 1.1-.2.5 0m-224.6.3c0 .2-.2.3-.4.3s-.4-.1-.4-.3.2-.3.4-.3.4.1.4.3m215.3-.3s-.2.1-.4.1-.4 0-.4-.1.2-.1.4-.1.4.1.4.1m14.4 0h-.8c-.3 0-.2-.1.2-.1.5.1.7.1.6.1m15.6.2c.3.1.6.2.8.1.3 0 .6 0 .6.1-.7.1-1.5.1-2.2.1-2.2 0-3.2-.2-1.2-.2.6 0 1-.1 1-.1 0-.3.7-.3 1 0m-96.4.1c0 .2-.1.2-.6 0-.2 0-.4-.1-.6-.2.2 0 .4-.1.6 0 .4 0 .6.1.6.2m88.8-.1c.3.1.7.1 1 .1.4 0 .7 0 .6.1-.4.1-.7.1-1.1.1h-1.4c-.7 0-.6-.4.1-.4.2 0 .5 0 .8.1m14.5 0c.1.1-.2.1-.8.1-.3 0-.7 0-1-.1 0-.1.3-.1.8-.1.3 0 .6 0 1 .1m-101.9.1c.1.1.1.1-.2.1s-.4-.1-.4-.1.1-.1.2-.1c.2 0 .3.1.4.1m29.5 0h-.8c-.3 0-.2-.1.2-.1.5 0 .7 0 .6.1m68.9 0c0 .1-.2.1-.4.1s-.3-.1-.2-.1c.1-.1.3-.1.4-.1.2 0 .2.1.2.1m6.1.2c0 .2-.2.3-.7.3-.6 0-.6 0-.1-.1s.5-.1-.1-.1c-.3 0-.6 0-.9-.2-.2-.1 0-.2.8-.2s1 .1 1 .3m-111.5 0c0 .1-.4.1-.9.1-.7 0-.8 0-.3-.1.7-.2 1.2-.2 1.2 0m28.4 0c.1.1 0 .1-.4.1s-.6-.1-.4-.1c.2-.2.5-.2.8 0m-13.2 0h-.8c-.3 0-.2-.1.2-.1.4.1.7.1.6.1m5.6 0h-.8c-.3 0-.2-.1.2-.1.5.1.7.1.6.1m3.8.1c0 .1-.2.1-.4.1s-.4 0-.4-.1.2-.1.4-.1.4 0 .4.1m13 .1c.3.1 0 .1-.8 0-.5 0-1.1-.1-1.6-.2-.3-.1 0-.1.8 0 .6.1 1.1.1 1.6.2m10.4-.1c-.7.2-1.4.2-2.1.1.7-.2 1.5-.3 2.2-.2.2 0 .2 0-.1.1m-3.4.1h-1.6c-.5 0-.2-.1.7-.1s1.3 0 .9.1m4.9 0c0 .1-.2.1-.4.1s-.3-.1-.2-.1c.1-.1.3-.1.4-.1s.2 0 .2.1m1.2 0c0 .1-.1.1-.2.1s-.3-.1-.4-.1c-.1-.1-.1-.1.2-.1s.4 0 .4.1m17.7.1c-.3 0-.5.1-.8 0-.4 0-.8-.1-.8-.1s.4-.1.8 0c.3 0 .6 0 .8.1m6.2.2c.2.1-.2.1-1.9 0-1.4-.1-1.8-.1-1.3-.2 1.1-.1 2.1 0 3.2.2m2.7-.1c-.4.1-.8.1-1.2 0-.4 0-.8 0-1.2-.1.4-.1.8-.1 1.2 0 .4 0 .8 0 1.2.1m6.6-.1c-.4.1-.8.1-1.2.1s-.8 0-1.2.1c-.2.1-.4.1-.6.1-.8-.1-.4-.3.9-.3l1.9-.1c.2 0 .4.1.2.1m-13.8.1h-1c-.3 0-.1-.1.5-.1s.8.1.5.1m-20.1.2c-.2.2-.9.3-.9.1 0-.1.3-.2 1.1-.2l-.2.1m39 0c-.6.1-1.2.1-1.8 0-.1-.1.2-.1.8-.1.3-.1.6 0 1 .1m4.6.1c-.4.2-.9.1-.9-.1 0-.1.2-.1.5-.1.3.1.5.1.4.2m3.8-.1c.5.1.5.1-.1.1-.4 0-.7.1-.7.1s.2.1.5 0c.4-.1.4 0 .1.1-.4.1-.7.1-1.1.1-.5-.1-.6-.1-.2-.3.5-.3 1-.3 1.5-.1m3 0c.1.1 0 .1-.4.1s-.5-.1-.4-.1c.3-.2.6-.2.8 0m-73.4.1c0 .1-.2.1-.4.1s-.4 0-.4-.1.2-.1.4-.1.4 0 .4.1m24.6.1c-.3.1-.5.1-.5 0 0-.2.5-.3.8-.2.1.1 0 .2-.3.2m63.7-.1c.1.1.1.1-.2.1s-.4-.1-.4-.1.1-.1.2-.1.3 0 .4.1m-23.1 0c0 .1-.8.2-1 .1-.1-.1 0-.1.4-.1zm13.5.1c.1.1-.2.1-.7.1-.8 0-.8 0-.3-.1.7-.1.7-.1 1 0m-35.8.2c.2 0-.2.1-.8.1-.4 0-.7 0-1.1-.1.6-.2 1.3-.2 1.9 0m-211.6.5c-.3.1-.7.1-1 .1-.8-.1-.8-.3 0-.3.3 0 .6-.1.6-.2 0-.2 0-.2.4 0s.4.3 0 .4m223.2-.3c1 .3.8.3-.8.3-1.4 0-1.9-.1-.9-.2.3 0 .4-.1.2-.2-.4-.1-.9.1-1.2.4-.2.1-.4.1-.6 0-.3-.1-.4-.2-.2-.3 1.1-.3 2.3-.3 3.5 0m29.7-.2h-1c-.3 0-.1-.1.5-.1s.8.1.5.1m-19.3.3c-.3.1-.5.1-.8.1s-.6 0-.6-.1.3-.1.8-.1.7.1.6.1m6.9.2c-.2.2-.3.2-.6 0-.2-.1-.2-.2.1-.3.7 0 .9 0 .5.3m-14.3-.1s-.2.1-.4.1-.4 0-.4-.1.2-.1.4-.1.4 0 .4.1m18.1.1c0 .1.2.2.5.2s-.2.1-1 .1c-.6 0-1.2 0-1.7-.1-.1-.1 0-.1.4 0 .3.1.6 0 .9-.1.3-.3.9-.4.9-.1m-12.4 0c0 .2-1.1.3-1.4.1-.1-.1 0-.1.3-.2.7 0 1.1 0 1.1.1m20.2.1c-.1.1-.1.1-.1.2-.4.1-.9.1-1.3.1-.7 0-1.8-.1-2.4-.1s-1.1-.1-1.1-.2.7-.2 2.5-.1c.8 0 1.6 0 2.4.1m1.5 0c0 .1-.2.2-.4.1s-.4-.1-.4-.2.2-.1.4-.1.4.1.4.2m-19.7.1c0 .1-.3.1-.6.1s-.5-.1-.4-.1c.2-.1.4-.1.6-.1s.4 0 .4.1m-98.4.3h-.8c-.3 0-.2-.1.2-.1.5 0 .8.1.6.1m65.5.2c.9 0 1.1 0 .7.2-.8.2-.5.3.7.3.8 0 1.2 0 1.2.1s-.3.1-.7.1c-.8-.1-1.3.1-1.3.5 0 .3-.9.3-1 0s-.5-.4-1.9-.4c-4.1 0-4.1 0-3.4-.2.9-.2.9-.4-.1-.3h-.8c0-.2.5-.2 3.1-.2zm-42.1.2c0 .1-.1.2-.3.2-.4 0-.5-.2-.1-.3s.4-.1.4.1m173-.1c.1.1.1.1-.2.1s-.4-.1-.4-.1.1-.1.2-.1.3 0 .4.1m-119.2.2c.4.2.9.2 1.3.2 1.4.1 1.8.5.4.5-.7 0-.8 0-.4-.1.8-.1-.1-.3-1.2-.2-.6.1-.8 0-.8-.2 0-.1-.3-.3-.7-.3-.6 0-.5-.1.2-.1.5 0 .8 0 1.2.2m2.1-.1h-.8c-.3 0-.2-.1.2-.1.5 0 .8 0 .6.1m2.6 0c-.3 0-.6.1-.9.2-.4.2-.9 0-.6-.2.4-.1.8-.1 1.2-.1.6 0 .7 0 .3.1m.8.4h-.8c-.1 0 0-.1.3-.1s.5-.1.5-.3.1-.2.3 0c.3.3.2.3-.3.4m6.8-.3c0 .1.3.2.8.2s.7.1.6.2 0 .2.2.3c1 .2.4.4-1.1.4-2.1 0-2.1 0-2.1-.3 0-.1.2-.2.5-.1s.5.1.4.2.2.1.5-.1c.6-.2.6-.2-.1-.3-.4 0-.9-.1-1.3-.2-.3-.1-.5-.1-.3 0s.1.2-.1.3c-.3.1-.5.1-1 0-1-.3-.2-.7 1.6-.7 1-.1 1.4 0 1.4.1m2.2-.1c.1.1 0 .1-.4.1s-.5-.1-.4-.1c.3-.1.6-.1.8 0m-224.4.2c0 .1-.1.2-.2.2s-.3-.1-.4-.2 0-.2.2-.2.4.1.4.2m116.8-.1c-.2.1-.4.1-.6.1h-.6s.3-.1.6-.1c.2-.1.4-.1.6 0m3.1 0h-.8c-.3 0-.2-.1.2-.1s.7.1.6.1m3 0h-1c-.3 0-.1-.1.5-.1s.8.1.5.1m4.9 0c-.4 0-.8.1-1.2.2-.2.1-.4.1-.3.1s-.2-.1-.6-.2c-.6-.1-.5-.2 1.1-.2 1 0 1.5.1 1 .1m50.9 0c0 .1-.4.1-.8.1s-.7-.1-.6-.1c.3-.1.5-.1.8-.1.4 0 .6.1.6.1m10.1 0c0 .1-.2.1-.4.1s-.3-.1-.2-.1c.1-.1.3-.1.4-.1s.2.1.2.1m46.2 0c-1.4.1-.7.3 1 .2 1 0 1.7-.1 1.6-.2-.2-.3.6-.1 1 .3.5.4.5.4 2.8.4.9 0 1.7 0 2.6-.1.4-.1.9-.1 1.3-.1 1.3-.1 1.7.3.7.5-.9.2-1.4.2-1.2 0 .2-.3-1.9-.1-2.9.1s-1.7.3-1.4 0-.1-.3-.8 0c-.5.2-.5.2-.3 0s0-.2-.6-.2c-.5 0-.8.1-.8.1s-.4.1-.8.1-.7-.1-.6-.2c.2-.1 0-.1-.8 0-1 .1-1.9.1-2.9.1-2.1 0-2.4.1-.5.3.9.1 1.1.1.5.1h-1.1c-.2 0-.3 0-.3.1-.5 0-.9 0-1.4-.1-1.6-.2-1.7-.3-.6-.5.9-.2 1.1-.6.2-.6-.3 0-.6.1-.6.1-.3.1-.7 0-1 0-.7-.1-.8-.2-.5-.2 1.1-.1 2.2-.1 3.3.2.4.2 2.2.4 2.2.2 0-.1.2-.1.4 0 1 .1 2 .1 2.9 0-.4-.1-.7-.1-1.1-.1-1.8 0-2.6-.1-2.4-.4.1-.2.5-.2 1.5-.2.7 0 1 .1.6.1m7.1 0h-1c-.3 0-.1-.1.5-.1s.7.1.5.1m-141.3.2c-.3.1-.5.1-.8.1s-.6 0-.6.1-.3.1-.6.1h-.4c.4.2-.4.1-1 0-.6-.2-.4-.3 1.7-.3 1.3-.1 1.9-.1 1.7 0m8.3 0c.4.2.4.2-.2.1-.4 0-.7-.1-.7-.2.1-.1.4-.1.9.1m37.9 0c0 .1-.3.1-.6.1s-.6-.1-.6-.1.3-.1.6-.1.6 0 .6.1m11.8 0c-.6.1-1.2.2-1.8.2h-1l1-.2c.6-.1 1.2-.2 1.8-.2.8.1.8.1 0 .2m10.2-.1h-.8c-.3 0-.2-.1.2-.1s.7.1.6.1m13.1 0h-1c-.3 0-.1-.1.5-.1s.7.1.5.1m8.6 0h-.8c-.3 0-.2-.1.2-.1.5 0 .7.1.6.1m16.6.2c0 .1-.2.2-.4.2-.3 0-.3-.2-.1-.5.2-.1.5.1.5.3m44.2 0c.1.1 0 .1-.6 0-.9-.2-2.1-.1-2.1.1 0 .1-.2.1-.4 0-.3-.1-.2-.2.1-.3 1-.1 2-.1 3 .2m-98-.1h-1.2c-.4 0-.2-.1.5-.1s1 .1.7.1m64.3.1c0 .1-.3.1-.6.1s-.6-.1-.6-.1.3-.1.6-.1.6 0 .6.1m8.8 0c-.8.2-1.6.2-2.4 0 .8-.2 1.6-.2 2.4 0m-101.2.1c.1.1 0 .1-.4.1-.7-.1-.8-.2-.2-.2.2 0 .4 0 .6.1m15.4.2h-.9c-.7 0-.9-.1-.8-.2.2-.1.3-.1.9 0 .4.1.7.2.8.2m30.9.2c-.3 0-.6 0-.9-.1-.7-.2-.6-.2.2-.1.5 0 .9.1.7.2m13.9-.3c0 .1-.2.1-.4.1s-.3-.1-.2-.1c.1-.1.3-.1.4-.1s.2.1.2.1m64.6 0c.1.1 0 .1-.4.1s-.5.1-.4.1c.4.2-.2.4-.9.2-.5-.1-.6-.1-.8.2-.1.2-.4.4-.6.4-.7 0 .1-.7 1.2-1 1.2-.1 1.5-.2 1.9 0m-119.6.2c.1.1 0 .1-.4.1-.7-.1-.8-.2-.2-.2.2-.1.4 0 .6.1m49.7.2c-.4.1-1.2-.1-.9-.2.2-.1.5-.1.7 0 .2 0 .3.1.2.2m29.7-.2c.1.1.1.1 0 0-.3 0-.6 0-.9.1-.4.1-.5.1-.5-.1-.1-.2.9-.2 1.4 0m7 0c0 .1-.2.1-.4.1s-.4 0-.6-.1c-.1-.1 0-.1.4-.1s.6 0 .6.1m-41 0h-1.2c-.4 0-.2-.1.5-.1s1 .1.7.1m51.1.1c1.2.2 1.5.4.4.3-1.7-.1-2.5-.2-2.3-.3.3-.2.6-.2 1.9 0m25.9.2c-.4.1-.7-.1-.4-.2s.4-.1.5 0c.1 0 .1.1-.1.2m-45.9 0c-.4.1-.7.2-1.1.2-.2 0 0-.1.4-.2 1-.3 1.6-.3.7 0m17.9.4h-2.3c-.9 0-1.8 0-2.7-.1 1.6-.1 3.3-.1 5 .1m19.3 0c0 .5-1.7.8-2.2.3-.2-.2-.1-.3.4-.4 1.1-.2 1.8-.2 1.8.1m13.7 0c0 .1-.2.1-.4.1s-.3-.1-.2-.1c.1-.1.3-.1.4-.1s.2 0 .2.1m-66.2.1c.1.1.1.1-.2.1s-.4-.1-.4-.1.1-.1.2-.1.3 0 .4.1m54.1 0s-.2.1-.4.1-.4 0-.4-.1.2-.1.4-.1.4 0 .4.1m-40.1.1c.1.1.1.1 0 .2-.3.1-1.3 0-1.3-.2s1-.1 1.3 0m3.9.1c.4.2.4.2-.2.1-.4 0-.7-.1-.7-.2.1-.1.4-.1.9.1m11.2.3c-.3.1-.6.1-.9 0-.4 0-.9 0-1.3-.1.8-.1 1.5-.1 2.2.1m18.4-.1c.1.1.1.1-.2.1s-.4-.1-.4-.1.1-.1.2-.1.3 0 .4.1m15.3.2c.6.1.9.2.7.2h-.6c-.3-.1-.6-.1-.9-.1-.5 0-.5 0 .1.2.4.1.5.2.3.2-.4 0-.7-.1-1-.3-.5-.2-.5-.3-.1-.4.3 0 .5-.1.5-.1s.4.2 1 .3m-257 0s-.2.1-.4.1-.4 0-.4-.1.2-.1.4-.1.4 0 .4.1m105.3.5c.1.3-.1.4-.9.4-.7 0-.9-.1-.9-.3 0-.1-.2-.3-.5-.3s-.1-.1.3 0c.5 0 .8.1.7.2s.1.2.3.2.4-.1.4-.3c0-.5.5-.4.6.1m30.5-.3c-.4.2-.8.2-1.2-.1-.1-.1.2-.1.6-.1.5.1.7.1.6.2m4 0c0 .1-.2.1-.4.2s-.4 0-.4-.2.2-.2.4-.2.4.1.4.2m11.9 0c0 .2-.8.6-.8.4 0-.1-.2-.1-.4-.1s-.3.1-.2.1 0 .1-.4.1c-.3 0-.6 0-.8-.1s-.4-.1-.6-.1-.4 0-.6-.1-.1-.1.1-.1c.4 0 .8 0 1.2-.1.9-.2 2.6-.2 2.5 0m2.7-.1c.1.1 0 .2-.3.2-.3.1-.7.1-1-.1-.4-.2-.4-.2.3-.2.3 0 .6.1 1 .1m10.7.2c-.3 0-.6 0-.9-.1s-.2-.1.5 0c.5 0 .7 0 .4.1m68.8 0c0 .1-.1.1-.2.1s-.3-.1-.4-.1c-.1-.1-.1-.1.2-.1s.4 0 .4.1m-45.6.3c-.8.2-1.6.2-2.3.1.6-.2 1.3-.3 2-.2.2-.1.4 0 .3.1m-188.5 0c.1.1-.1.1-.4.1s-.6 0-.6-.1.2-.1.4-.1.4.1.6.1m147.5 0c0 .1-.3.1-.6.1s-.6-.1-.6-.1.3-.1.6-.1.6.1.6.1m14.5 0c1.1.1.7.2-1.9.2-.6 0-1.2 0-1.7-.1 0-.2 1.9-.2 3.6-.1m20 0h-.8c-.3 0-.2-.1.2-.1.5 0 .8.1.6.1m9.2.2c-.9.2-1.7.2-2.6 0 .8-.2 1.7-.2 2.5-.2.2 0 .2.1.1.2m17.2-.2h-1.2c-.4 0-.2-.1.5-.1s1 .1.7.1m11.4 0c.1.1.1.1-.2.1-.2 0-.4 0-.6-.1-.1-.1-.1-.1.2-.1.2 0 .4.1.6.1m112.1 0c0 .1-.2.1-.4.2s-.4 0-.4-.1.2-.2.4-.2.4.1.4.1m-102.3.2c.3-.1.6-.1.9 0s.5.1.8.1c.2 0 .4 0 .5.1-1.3.2-2.6.2-3.9.2-1.3-.1-1.7-.1-1.3-.3.5-.1 1-.1 1.5 0 .9 0 1.3 0 1.5-.1m-10.3.1c.4 0 .7 0 .7.1-.4.1-.9.1-1.3.1-.7 0-1.9 0-2.6.1-.4.1-.9.1-1.3 0 1.1-.3 2.1-.4 3.2-.3zm4.9 0c.1.1 0 .1-.4.1s-.6-.1-.6-.1.2-.1.4-.1.4 0 .6.1m11.6.1c-.8.2-1.6.2-2.3 0s-.6-.2.9-.2c1.1 0 1.5.1 1.4.2m2.3 0c0 .1-.2.1-.5.2s0 .1.6.1c1 .1 1 .1.5.4s-.5.3 0 .4c.3 0 .6.1.6.1 0 .2-.5.1-1.6-.1-1-.2-1-.2-.2-.4s.8-.2-.1-.4c-1.1-.2-1.1-.4-.1-.4.4 0 .8 0 .8.1m20.5.4c-1.1.1-2.1.1-3.2 0-.2 0-.4 0-.5.1s-.3.1-.7 0c-.5-.1-.9-.2-1.4-.2-.4 0 .3-.1 1.7-.1.9 0 1.8 0 2.7-.1.3-.2 1.4.1 1.4.3m-118.2-.1c.4 0 .9 0 1.3.1.1.1 0 .1-.3.1h-1.4c-.3 0-.6 0-.9-.1 0-.1-.3-.1-.6-.1s-.6-.1-.6-.2c0-.2 0-.2.7 0 .6.2 1.2.3 1.8.2m104.1-.1c0 .1-.2.2-.4.1s-.4-.1-.4-.2.2-.1.4-.1.4.1.4.2m7.2 0c-.4.1-.9.1-1.3.1-.7 0-1.3 0-2 .2-.4.2-.5.2-1.2-.1l-.7-.3 2.5.1c1.4-.1 2.6 0 2.7 0m-94.9.1c0 .1-.2.1-.4.1s-.4 0-.4-.1.2-.1.4-.1.4 0 .4.1m3.4 0c.1.1.1.2 0 .2-.3 0-.5-.1-.8-.2-.5-.2-.5-.2 0-.2.2 0 .5.1.8.2m102.2-.1h-1c-.3 0-.1-.1.5-.1s.7.1.5.1m-133.6.2c.7.1.6.1-.5.1-.5 0-1 0-1.5-.1-.3-.2.9-.2 2 0m29.8 0c.1.1 0 .1-.4.1s-.6-.1-.6-.1.2-.1.4-.1.4 0 .6.1m7.6 0h-1c-.3 0-.1-.1.5-.1s.7 0 .5.1m6.9 0c.1.1 0 .1-.4.1s-.6 0-.6-.1.2-.1.4-.1.4 0 .6.1m21.5 0c0 .1-.1.1-.2.1s-.3-.1-.4-.1c-.1-.1-.1-.1.2-.1s.4 0 .4.1m-88.6.2c.4.1-.2.1-1.4.1-.4 0-.9 0-1.3-.2.9-.1 1.8 0 2.7.1m28.4-.1c.1.1 0 .1-.4.1s-.5-.1-.4-.1c.3-.1.6-.1.8 0m9.3 0c.1.1-.2.1-.7.1-.7 0-.7 0-.3-.1.7-.1.7-.1 1 0m45.1 0c.1.1 0 .1-.4.1s-.6-.1-.6-.1.2-.1.4-.1.4 0 .6.1m8.6.1c0 .1-.2.2-.4.2s-.4-.1-.6-.2c-.1-.1 0-.2.4-.2s.6.1.6.2m22.4-.1c.1.1.1.1-.2.1-.2 0-.4 0-.6-.1-.1-.1-.1-.1.2-.1.2 0 .4 0 .6.1m1.7 0h-.8c-.3 0-.2-.1.2-.1s.7 0 .6.1m2.8 0h-.8c-.3 0-.2-.1.2-.1.5 0 .7 0 .6.1m3.2 0H235c-.4 0-.1-.1.7-.1s1.1 0 .7.1m2 .1c-.4.2-1.5.3-1.5.2 0-.2.6-.4 1.2-.4.7 0 .8 0 .3.2m7.5-.1c.1 0 0 .2-.4.3s-.5.2-.2.2c.2 0 .4.1.2.2s0 .1.2.1.4 0 .4.1c-.7.1-1.4.1-2.1 0-1.6 0-2.1 0-2.4.1-.5.3-1.1.3-1.1 0 0-.1-.4-.3-.8-.4-.9-.2-1.1-.4-.2-.3.4 0 .6 0 .6-.1s.4-.2 1-.2c.3 0 .7 0 1 .1 0 .1-.2.1-.6.1-.7-.1-1.1.1-.7.3.4.1.8.2 1.2.2.9.1.9.1.7-.3-.2-.3-.2-.4.3-.3.3 0 .5.2.5.4-.1.2.1.3.5.3.3 0 .5-.1.4-.1s0-.2.2-.4c.4-.4.9-.5 1.3-.3m14.7.1c0 .1-.3.2-.5.2s-.5.1-.5.1-.3.1-.6.1c-.5-.1-.6 0-.4.1s.1.2-.3.1c-.3 0-.5-.1-.6-.3-.1-.3 0-.3.9-.2.4.1.9 0 1.3-.1.1-.3.7-.3.7 0m-250.7 0c0 .1-.2.1-.4.1s-.4 0-.4-.1.2-.1.4-.1.4.1.4.1m256.4.1c1-.1 1.3 0 1 .1s-.6.1-.9.1-.6 0-.6.1c.3.1.6.2.9.1.7 0 .8 0 .2.1-.5 0-.6.1-.5.3s0 .2-.4.2-.6-.1-.4-.2c.1-.1 0-.3-.2-.3s-.4 0-.4.1-.2.1-.5-.1c-.3-.1-.7-.2-1-.2s-.3 0 0-.2c.3-.1.6-.1 1-.1zm-100.8.1c.1.1.1.1-.2.1s-.4-.1-.4-.1.1-.1.2-.1c.1-.1.3 0 .4.1m53.5 0c.1.1-.2.1-.7.1-.8 0-.8 0-.3-.1.7-.2.7-.2 1 0m37.6.1c-.2 0-.4 0-.5-.2-.2-.2-.1-.2.2-.1.3.2.4.3.3.3m5.7-.2c0 .1-.8.2-1 .1-.1-.1 0-.1.4-.1.2-.1.4-.1.6 0m8 .2c.8.4.3.4-.5 0-.4-.2-.5-.3-.4-.3.3.1.6.1.9.3m-45 .2c0 .1-.2.2-.4.1s-.4-.2-.4-.3.2-.2.4-.1.4.2.4.3m-110.9-.1c.1.1.1.1-.2.1-.2 0-.4 0-.6-.1-.1-.1-.1-.1.2-.1.2 0 .4 0 .6.1m42.7 0c.1.1 0 .1-.4.1s-.5-.1-.4-.1c.2-.2.5-.2.8 0m72.7 0c-.7 0-.8.1-.4.2.2.1.5.1.7.1.5 0 .9 0 1.4.1 1 .1.8.1-1 .1-2.3 0-3.4-.2-2.2-.5.5-.1 1-.1 1.5-.1.8 0 .8 0 0 .1m25.7 0c0 .1.3.2.6.2h.6s.1-.1.4-.1c.2 0 .4.2.4.4 0 .3-.2.4-1.1.4-2.7.1-3.1.1-2.9-.2.1-.1.1-.3.1-.5 0-.1.2-.2.6-.2s.6 0 .6-.1.2-.2.4-.2.3.2.3.3m5.8 0c.1.1 0 .1-.4.1s-.5-.1-.4-.1c.2-.2.6-.2.8 0m81.5 0c0 .1-.2.1-.4.1s-.4 0-.4-.1.2-.1.4-.1.4 0 .4.1m-226.3.1h-.8c-.3 0-.2-.1.2-.1s.7 0 .6.1m27.9 0c0 .1-.4.1-.8.1s-.7-.1-.6-.1c.3-.1.5-.1.8-.1s.6.1.6.1m1.9 0h-.8c-.3 0-.2-.1.2-.1s.7 0 .6.1m9.3-.1c0 .1-.8.2-1 .1-.1-.1 0-.1.4-.1zm17.1.2c-.1.1.1.2.4.3s.6.1.4.2.5.1 1.4 0 2.8 0 4.2 0c2 .1 2.6.1 2.4.3-.3.1-.7.2-1.1.1-.5 0-3.2-.1-6-.1s-5.3-.1-5.5-.1c-.7-.1-.5-.4.3-.4.6 0 .6 0-.1-.1-.8-.1-.8-.1.1-.1.8 0 1 0 .9.3.7.2 1.4.2 2.1.2.2 0 0-.1-.5-.3l-.8-.2.9-.1c.5 0 1-.1 1-.1l-.1.1m15.7-.1c.1.1 0 .1-.4.1s-.5-.1-.4-.1c.3-.1.6-.1.8 0m38.5.1c0 .1-.2.2-.4.1s-.4-.1-.4-.2.2-.1.4-.1.4.1.4.2m7.4-.1c.1.1.2.2.1.2-.6.1-1.3 0-1.9-.2.6-.1 1.2-.1 1.8 0m4.3.1c0 .2-.7.2-1.2 0-.4-.1-.3-.2.3-.2.5.1.9.1.9.2m30.8-.1h-.8c-.3 0-.2-.1.2-.1.5 0 .8 0 .6.1m-164.9.3c-.3 0-.7.1-1 0-.6 0-.9-.1-.8-.1.6 0 1.2 0 1.8.1m10.3 0c.1.1-.3.1-1 .1-.5 0-1 0-1.4-.1-.1-.1.3-.1 1-.1.4-.1.9 0 1.4.1m2.3.5c-.6 0-1.2-.2-1.7-.5 0-.1.4 0 .9.1s.9.3.8.4m30.3-.3c.4 0 .5 0 .3.1-.2.2 0 .2.7.1 2.5-.2 3.1-.2 3.3 0s-.4.2-4.8.3c-2.1 0-2.9-.2-1.9-.4.4-.1.6-.1.4 0s0 .2.3.3.6.1.8 0c.1-.1.1-.1-.1-.1s-.3-.1-.1-.3.3-.2.4-.1c.2.1.4.1.7.1m59.6-.3h-1.6c-.5 0-.2-.1.7-.1s1.3.1.9.1m4.6.1c0 .1-.4.2-1 .2-1.2 0-1.3-.2-.1-.2.5 0 .9-.1 1-.1s.1 0 .1.1m3.4 0c.1.1 0 .1-.4.1s-.5-.1-.4-.1c.2-.2.6-.2.8 0m2.8.1c-.3.2-1.8.2-1.8 0 0-.1.3-.1.6-.1s.6 0 .8-.1c.1-.1.3-.1.5-.1.1.1.1.2-.1.3m51.7-.2s-.2.1-.4.1-.4 0-.4-.1.2-.1.4-.1.4.1.4.1m-111.5.3c1.6.1 1.2.2-.6.2h-2.5c-.4 0-.9 0-1.3-.1.8-.2 1.6-.3 2.4-.2.4 0 1.3.1 2 .1m82.2-.1c0 .1-.8.3-1 .2s.2-.3.7-.3c.1 0 .3 0 .3.1m19 .1c-.4.1-.7.1-1.1 0-.5-.1-.6-.1-.2-.2.6 0 1.7.1 1.3.2m3.6.1c-.6 0-1.2 0-1.8-.1s-.5-.1.8-.2c1.7 0 2.6.2 1 .3m9.8-.2c-.6.3-1.3.4-1.9.2-.2-.1-.4-.2-.2-.2.3-.1 2.3-.1 2.1 0m-130.5.1c.3.1.5.1.8.1h.8c.2.1-1 .3-2.9.3-1 0-1.2-.2-.3-.3.3 0 .5-.1.4-.2s.1-.1.4-.1c.3.1.6.1.8.2m25.7 0c.2 0 .1.1-.1.3-.5.3-1.6.3-1.6.1 0-.1-.2-.1-.4-.1-.5.1-.5 0-.2-.2.4-.1.7-.2 1.1-.1zm21.9 0h-.8c-.3 0-.2-.1.2-.1.5 0 .8 0 .6.1m30.5 0c.1.1.1.1-.2.1-.2 0-.4 0-.6-.1-.1-.1-.1-.1.2-.1.2 0 .4 0 .6.1m24.4-.1c-.2.1-.4.1-.6.1h-.4c.2-.1 1-.2 1-.1m24.7.1c.7.1.6.1-.5.1-.4 0-.9 0-1.3-.1 0-.1.7-.1 1.8 0m-105 .2c.9.3.8.4-.4.4-.6 0-1-.1-1-.2s-.3-.2-.7-.3c-.6-.1-.5-.1.4-.1.6 0 1.1.1 1.7.2m28.9 0c.1.1 0 .2-.3.2s-.8 0-1.2.1c-.5 0-1.1 0-1.6-.1-.9-.1-.9-.1 1-.3.7-.2 1.4-.1 2.1.1m2.5-.1c.7.1 1.4.1 2.1.1 1 0 1.7 0 1.5.1-1.8.1-3.6.1-5.4 0-.1 0-.1-.1.1-.2.6-.1 1.2-.1 1.7 0m52.5.1c0 .1-.2.2-.8 0-.4-.1-.8-.1-1.3 0-.3.1-.3 0-.2-.1.5-.2 2.3-.1 2.3.1m3.1 0c-.2 0-.5 0-.7-.1-.4-.1-.3-.1.2-.1.4.1.6.2.5.2m-113.9 0h-.8c-.3 0-.2-.1.2-.1.5 0 .7.1.6.1m49.1 0 .4.4c.2.2.4.3.3.4-.8.2-1.6.2-2.3 0-.3-.1-.8-.2-1.3-.3-.8-.2-.8-.2.1-.2 1.3 0 1.1-.2-.2-.3-.6 0-.2-.1 1-.1.7 0 1.4.1 2 .1m24.5 0c.3.1-.2.5-.5.5-.2 0-.3-.2-.3-.3-.1-.3.3-.4.8-.2m-201.3.2c.1.1.1.1-.2.2-.2 0-.4 0-.4-.1 0-.3.3-.3.6-.1m204.7 0c0 .1-.2.1-.4.1s-.3-.1-.2-.1c.1-.1.3-.1.4-.1s.2 0 .2.1m6 .2c.5.2.5.2-.1.2s-.6 0-.2.2c.4.1.4.2-.1.2-.3 0-.6.1-.9.2-.2.2-.3.2-.8 0-.3-.1-.6-.2-.9-.2-.5 0-.9 0-1.4-.1-.6-.1-.8-.2-.5-.2s.5-.1.8-.3l.3-.3.2.3c.2.2 1 .4.9.2-.2-.4.1-.5 1.2-.5.4.1 1 .1 1.5.3m6.7-.2c.1.1 0 .1-.4.1s-.5-.1-.4-.1c.2-.2.5-.2.8 0m19.6.2c.6-.2 2 .1 1.5.3-.8.1-1.5.1-2.3 0-1.1-.1-2.4-.2-3-.2-.8 0-.8-.1.3-.1.4 0 .9 0 1.3-.2 0-.1.4 0 .8.1.5.2 1 .2 1.4.1m13.6-.1c-.6.2-.5.6.1.6 1.2 0 1.9 0 1.7.1-.3.1-.6.1-1 .1-1.6 0-2.2 0-1.9.2s-.1.6-.7.6c-.3 0-.3 0 0-.1.7-.2-1-.7-2.4-.7-.8 0-1.1-.1-1.1-.2 0-.3.7-.3 1.1 0 .2.2.3.2.6-.1.4-.2.9-.3 1.3-.3.3 0 .7 0 1-.1 0-.1.4-.1.8-.1.6-.1.8 0 .5 0m90.4 0c.1.1.1.1-.2.1s-.4-.1-.4-.1.1-.1.2-.1.2 0 .4.1M12 92.2c-.3.1-.9-.3-.6-.4.2-.1.4 0 .5.1.2.1.2.3.1.3m227.9-.4c-.4.1-.8.1-1.2 0-.7-.1-.6-.1.4-.1.9 0 1.1 0 .8.1m23 0c.1.1 0 .1-.4.1s-.6-.1-.6-.1.2-.1.4-.1.4 0 .6.1m-63 .1c0 .1-.2.1-.4.1s-.3-.1-.2-.1c.1-.1.3-.1.4-.1s.2.1.2.1m3.5.2c.3 0 .6 0 .6.1-.9.1-1.8.1-2.6-.1-.1-.1 0-.1.4 0s.6 0 .7-.1c0-.1.1-.1.2 0 .1 0 .4.1.7.1m8.4-.2c.1.1.1.1-.2.1s-.4-.1-.4-.1.1-.1.2-.1.3.1.4.1m1.4 0c0 .1-.2.1-.4.1s-.4 0-.4-.1.2-.1.4-.1.4.1.4.1m9 .1c.3.3.3.3-.4.3s-1.2-.2-.8-.4c.4-.1.8-.1 1.2.1m-212.1.1c-.3.2-.8.2-1.1 0-.2-.1 0-.2.5-.2s.7.1.6.2m124.6 0c0 .1-.3.1-.7.1-.6 0-.6 0-.1-.1.8-.2.8-.2.8 0m71.6 0c0 .1-.3.1-.6.1s-.6-.1-.6-.1.3-.1.6-.1.6 0 .6.1m1.6.1c-.6.1-1.3 0-.9-.1.3-.1.6-.1.8 0 .5 0 .5 0 .1.1m17.4.1c0 .1-.1.1-.3.1s-.3-.1-.3-.2.2-.2.3-.1.3.2.3.2m6.4-.1c-1 .1-2 .1-3.1 0 .5-.1 1-.1 1.4-.1.6 0 1.2 0 1.7.1m34.1.1c.4.2.2.2-1.1.2-.6 0-1.2 0-1.9-.1-.2-.1-.2 0 0 0 .5 0 1 0 1.4-.1.6-.1 1-.2 1-.1s.3 0 .6.1m3.6-.1c.5-.1 1.4.4 1 .5h-.9c-.5-.1-1-.1-1.5-.1-.4 0-.8 0-1.1-.1-.4-.2.8-.5 1.4-.4.4.1.8.2 1.1.1m-119.4.1c.8.1.1.1-1 0-.5-.1-.6-.1-.2-.1s.8 0 1.2.1m14.5 0c0 .1-1.1.2-1.4 0-.1-.1.1-.1.6-.1s.8.1.8.1m27.3.2c.2.3-.6.2-.8 0-.1-.2 0-.2.2-.2.2-.1.4 0 .6.2m80.4-.2c.1.1 0 .1-.4.1s-.6-.1-.6-.1.2-.1.4-.1.4 0 .6.1m9.4 0c0 .1-.3.1-.6 0-.2 0-.4 0-.6-.1.2 0 .4-.1.6 0 .3 0 .6 0 .6.1m-53.7.1c.1.1-.1.1-.6.1-.4 0-.7 0-1-.1-.1-.1.1-.1.6-.1.3 0 .6 0 1 .1m-217.8.2c.2.1 0 .2-.4.3-.6.2-.6.2-.6-.1 0-.4.6-.5 1-.2m137-.1h-.8c-.3 0-.2-.1.2-.1s.7.1.6.1m59.1.2c.1 0-.1.1-.5.1s-.7 0-1 .2c-.1.1 0 .2.2.2s.4-.1.4-.2.1-.1.2 0c.3.2.8.2 1.1-.1.4-.2.9-.3 1.4-.2.6 0 1.1 0 1 .1s.2.1.6.2c.5 0 .8 0 .9-.1s.3-.1.5.1c.3.4 1.4.5 1.4.1 0-.1.2-.2.4-.2s.4.1.4.2.5.2 1 .2 1 .1.9.2c-.2.1-.5.1-.7.1-.3 0-.6 0-.9.1-.2.1-.3.1-.3 0s-.3-.1-1-.1c-.3.1-.7.1-1 0 0-.1-2.3-.1-5.2-.1-1.9.1-3.8 0-5.7-.2-.4-.1-.3-.1.5-.1.5 0 .8 0 .7-.1s.1-.2.6-.3c1.3-.2 2.7-.2 4.1-.1m43 0c.1.1 0 .1-.4.1s-.5-.1-.4-.1c.3-.2.6-.2.8 0m8.7.1c.3.2.3.2-.1.3-.3 0-.5 0-.6-.2-.1-.4.1-.4.7-.1m-125 0c-.5.1-1 0-1.5 0-.8-.1-.7-.1.6-.1 1 0 1.3.1.9.1m33 .1c-.1.2-.3.2-1.4.2-.6 0 .4-.3 1-.3.3-.1.5 0 .4.1m7.4-.1c0 .1-.2.1-.4.1s-.4 0-.4-.1.2-.1.4-.1.4 0 .4.1m1.4.2c-.2.1-.4.2-.6.2-.4 0-.5-.3-.1-.4.4-.2 1 0 .7.2m9.5-.2c1.2 0 .4.3-.9.4-1.2.1-1.6-.1-.7-.2.3-.1.3-.1-.1-.2s-.4-.1.2 0zm42.9.2c.7-.1 1 0 1 .1 0 .2.1.2.9 0l1.2-.3c.2-.1.2 0 .1.1-.2.2 0 .3.9.3 1.9.1 2 .2.2.2-1.4 0-1.7.1-1.7.2 0 .2-.2.2-.6.2-.3 0-.6-.2-.6-.3s-.3-.2-.6-.2c-.7 0-.8.2-.2.3.2 0 .4.1.4.2 0 .2-1.4.1-2.2-.1-.4-.1-.6-.1-.6 0s-.2.1-.4.1c-.5 0-.8-.6-.3-.7.2-.1.3-.1.1-.1s0-.1.4-.2c.7-.2.8-.2.9 0s.4.2 1.1.2m-63.5.1c-.3.1-1.9-.1-1.7-.2.3-.1.7 0 1 0 .2.1.4.1.7.2m18.1-.1c-.3.1-.7.2-1.1.2-.8 0-.7 0 0 0 .4 0 .7-.1.6-.2s0-.1.2-.1c.3-.1.4 0 .3.1m4.9 0c.3-.1.7 0 1 0 .8.1 1 .1 1.2-.1.1-.1.2-.1.2.1 0 .3-.1.3-1 .3-.7-.1-1 0-1 .1s-.4 0-.8-.1-.7-.3-.5-.4.4 0 .6 0c.2.1.3.2.3.1m6.9.2c.3 0 0 .1-.7.1-.8 0-1.3 0-1.3-.1 0-.3.5-.4 1-.2.3.1.6.2 1 .2m24.9-.3c0 .1-.2.1-.4.1s-.4 0-.4-.1.2-.1.4-.1.4 0 .4.1m4.5.1c0 .1-.2.1-.4.1s-.4 0-.4-.1.2-.1.4-.1.4.1.4.1m42 .2c.2-.1.4-.1.6-.1.6.1 0 .3-.8.3s-1.4-.3-.9-.4c.2 0 .4 0 .5.1.2.2.4.2.6.1m2.5 0c.6 0 .9.1.7.1-.3.1-.7.1-1 .1-.4 0-.7.1-.6.1s.1.1-.2.1c-.6 0-.9-.2-.5-.3.2 0 .4-.1.3-.2s0-.1.1-.1c.4.1.8.2 1.2.2m-108.7-.1h-.8c-.3 0-.2-.1.2-.1.5.1.8.1.6.1m9.1 0h-1c-.3 0-.1-.1.5-.1s.8.1.5.1m2.6 0h-.8c-.3 0-.2-.1.2-.1.5.1.7.1.6.1m75 .1c0 .1-.2.1-.4.1s-.3-.1-.2-.1c.1-.1.3-.1.4-.1.1-.1.2 0 .2.1m25.3 0c-.1.2-.2.3-.3.4-.3.2-.3.2-.6 0-.3-.3 0-.5.6-.5.2-.1.3 0 .3.1m-52.9.2c.1.1.1.1-.2.1s-.4-.1-.4-.1.1-.1.2-.1.3 0 .4.1m-46.4.1c-.3 0-.5.2-.5.3s-.2.2-.3.2c-.2 0-.3-.1-.3-.3 0-.2.2-.3.8-.3.5 0 .6.1.3.1m18.8 0c0 .1-.2.1-.4.1s-.3-.1-.2-.1c.1-.1.3-.1.4-.1.2 0 .2.1.2.1m33.7 0c.3.2-.6.2-1.4 0-.5-.1-.4-.1.3-.1.3 0 .7 0 1.1.1m-75.2.4c-.6.1-.9-.1-.5-.2.2-.1.4-.1.6 0s.2.2-.1.2m86.2-.2c0 .1-.4.2-1.2.1-.5 0-.9-.1-1.4-.1-.1 0-.1 0 0 0 .8 0 1.7-.1 2.5-.2.1 0 .1.1.1.2m33.5.1c-1.4.2-1 .2 1 .2h2.7c.7.1.7.1-.2.2h-2.6c-.9 0-2.2 0-3-.1-.9 0-1.1 0-.6-.1.4 0 .8-.1 1.2-.2.6-.2 1.3-.3 2-.2.2.1 0 .1-.5.2m-116 .1c0 .1-.3.1-.6.1s-.6 0-.8-.1c-.1-.1.1-.1.6-.1s.8 0 .8.1m12 0h-.8c-.3 0-.2-.1.2-.1s.7 0 .6.1m8.5 0c0 .1-.1.1-.2.1s-.3-.1-.4-.1c-.1-.1-.1-.1.2-.1s.4 0 .4.1m3.9 0c.1.1-.1.1-.6.1-1.2-.1-1.6-.2-.5-.2.3 0 .7 0 1.1.1m54.1 0c0 .1-.2.1-.4.1s-.3-.1-.2-.1c.1-.1.3-.1.4-.1s.2 0 .2.1m-40.2.1c-.8.2-1.3.2-1 0 .3-.1.6-.1.9-.1.6 0 .6 0 .1.1m14.2.3c.4-.2 1-.1.8.1-.2.3.5.4 1.3.2.9-.2 1.9-.2 2.8 0 .1.1-.2.1-1.3.1-.5-.1-1-.1-1.5 0-.7.2-1.5.3-2.3.1-.5-.1-1-.1-1.4-.1-2.2.1-3.1 0-2.9-.2.2-.1.5-.2.7 0 .7.2 1.8.1 1.6-.1-.1-.1 0-.2.2-.2s.3-.1.1-.2.1 0 .6.1c.6.2 1 .2 1.3.2m34.1-.2c.6.2.4.2-.6.1-.4 0-.6-.1-.6-.2 0-.2.6-.1 1.2.1m-98.4 0c-1 .1-2 .1-3.1 0 .5 0 1.1-.1 1.6 0 .5-.1 1-.1 1.5 0m51.3.3c-.4.1-.8.1-1.2 0-.7-.1-.7-.1 0-.3 1-.1 2 .1 1.2.3m1.6-.2c0 .1.2.1.6.1s.7.1 1 .2c.4.2.3.2-.7.1-1.2-.1-2.1-.5-1.3-.5.2-.1.4 0 .4.1m21.1 0c1.6.2 1 .3-1 .2-1.2-.1-1.5-.1-1.1-.2.7-.2 1.4-.2 2.1 0m48.2-.1H261h1.8m20.2 0c.1.1-.1.1-.6.1s-.7-.1-.6-.1c.4-.1.9-.1 1.2 0m-123.9.2c.1.1 0 .1-.4.1s-.6-.1-.6-.1.2-.1.4-.1c.2-.1.4 0 .6.1m38.9 0c-.3.2-.8.2-1.1.1-.1-.1.1-.1.5-.2s.7-.1.8-.1 0 .1-.2.2m1.6-.1c-.3 0-.4.1-.3.2s-.1.1-.4.1c-.4 0-.5-.1-.4-.2.3-.1.6-.2.9-.2.5.1.6.1.2.1m10.7 0h-.8c-.3 0-.2-.1.2-.1.4.1.7.1.6.1m24.4.1c.1.1 0 .1-.4.1-.3 0-.6 0-.8-.1-.1-.1 0-.1.4-.1.3-.1.6 0 .8.1m-72.6.1c0 .2-.6.2-1.6.1l-1-.2h1.3c.4-.1.9 0 1.3.1m58.6 0c-.1.1.1.2.7.2.5 0 .8.1.8.2-.9.1-1.7.1-2.6.1h-3.4c-.5 0-.8-.1-.7-.1.5-.1.9-.1 1.4 0s.9 0 1.4-.1c.3-.1.7-.1 1.1-.1h.8c-.1-.2 0-.3.5-.3 0 0 .1 0 0 .1m1.4 0c0 .1-.2.1-.4.1s-.4 0-.4-.1.2-.1.4-.1.4 0 .4.1m9.5.4h1.1l-1.1.3c-1.3.3-3.3.2-2.7-.1.2-.1.4-.3.6-.5.3-.2.3-.2.6 0 .5.2 1 .3 1.5.3m-46-.3c.1.1.1.1-.2.2-.2 0-.4 0-.4-.1 0-.2.3-.2.6-.1m26.7.3c.3 0 .4-.1.2-.1-.4-.2.8-.1 1.7.1.7.2.6.2-1.5.2s-2.3 0-2.1-.3.3-.2.7-.1.7.2 1 .2m-30.8-.2h-1c-.3 0-.1-.1.5-.1s.8.1.5.1m5.9 0c0 .1-.1.1-.2.1s-.3-.1-.4-.1c-.1-.1-.1-.1.2-.1s.4.1.4.1m6.5 0c0 .1-.2.1-.4.1s-.3-.1-.2-.1c.1-.1.3-.1.4-.1s.2.1.2.1m30.6.4c.5.2.5.2-.2 0s-.9-.3-.5-.3c.3.1.5.2.7.3m12.4-.1c0-.1.1-.1.5 0s.9.1 1.3 0c.7-.1.7-.1.2.1-.3.1-.4.2-.1.2s.6-.1.8-.2c.2-.2.5-.2.8-.1s.6.1 1 .1c.3 0 .6 0 .9.1.6.2 1.3.2 1.9 0 .1-.1.4-.1 1 0s1.2.1 1.9.2c.6 0 1-.1 1-.2s.1-.1.4 0 .7.1 1.1.1h1.2c.4.1.6.1.7-.1.7-.3 1.5-.3 2.1 0 .2.2.4.2.6.2s.4.1.4.1-.4.1-.9.1c-.6 0-.9-.1-.8-.3s-.1-.2-.3-.2-.4.1-.4.3-.2.2-.8.2c-.7-.1-1.8-.1-11.5-.3-6.6-.1-8.7-.2-8.4-.3.6-.1 1.2-.1 1.8-.1.7 0 1.4 0 2.1-.1.3-.1.7-.1 1 0 .4.3.5.3.5.2m-9.1.3c-.3.1-.5.1-.5 0 0-.2.5-.3.8-.2.1 0-.1.1-.3.2M247 95s-.2.1-.4.1-.4 0-.4-.1.2-.1.4-.1.4 0 .4.1m66.4 0c0 .1-.3.1-1.4 0-.7-.1-.7-.1.3-.1.4 0 .8 0 1.1.1m-52.8.2c.4.1.9.1 1.3 0 .7 0 1.4 0 2.2.1.9.1 1.9.2 2.8.2 1.5 0 2.2.1 1.7.2-.3 0-.5 0-.8-.1-.4-.1-.7-.1-1.1 0s-.8.1-1.1 0c-.4 0-.5 0-.3.1s-.1.1-1.4.1c-1.6-.1-5.4-.1-7.4 0-1.1 0-1.6-.1-1-.2.3-.1.2-.1-.4-.2l-.9-.1.9-.1c1.8-.1 3.6-.2 5.5 0m-166.2.2c2.7-.1 2.9 0 2.3.1-2.6.2-5.2.2-7.8 0-1.5-.1-1.6-.1-1.1-.2.7-.1 1.4-.1 2.1 0 1.6.1 3.1.2 4.5.1m21.4-.1c-.9.2-1.8.2-2.6 0-.6-.1-.4-.1.9-.1.5-.1 1.1 0 1.7.1m63.1.2c-.4.1-1.2-.1-.9-.2.2-.1.5-.1.7 0 .2 0 .3.1.2.2m-57.5-.2c0 .1-.8.2-1 .1-.1-.1 0-.1.4-.1zm4 .1c-.4.1-.8.1-1.2.1-1.8-.1-2-.2-.2-.2.4-.1 1 0 1.4.1m28.1 0h-1.4c-.4 0-.1-.1.7-.1s1.1 0 .7.1m10.9-.1h-.8c-.3 0-.2-.1.2-.1.4.1.7.1.6.1m3.5.1c.1.1.1.2 0 .2-.2 0-.4 0-.5-.1-.4-.1-.7-.2-1.1-.2-.6 0-.6-.1.3-.1.4.1.9.1 1.3.2m2.5-.1h-.8c-.3 0-.2-.1.2-.1.5.1.7.1.6.1m-89.7.2h-1.4c-.4 0-.1-.1.7-.1s1 0 .7.1m20.4.1c.2.2-1.5.3-2.9.2-.6-.1-.9-.1-.6-.1s.4-.1.3-.1c-.2-.1.3-.1 1.4-.1.6-.1 1.2 0 1.8.1m5.6 0c1.2.2 2.4.2 3.6 0 1.1-.2 2.1-.1 3.2 0 .2.3.2.6-.1.6-.2 0-.3 0-.5-.1-1.9-.2-3.7-.2-5.6-.2-4.2 0-5.4-.1-5.4-.2s.5-.2 1.2-.2c.5 0 .9 0 1.4-.1.7-.1 1.4 0 2.2.2m39.7 0c.5.1 1.6.2 2.4.2 1.2.1 1.1.1-1.1.1-1.4 0-2.9-.1-3.3-.2s-.7-.1-1.1-.1c-.8 0-1.3 0-1.3-.1 1.4-.1 2.9-.1 4.4.1m127-.1h-.8c-.3 0-.2-.1.2-.1.5 0 .8 0 .6.1m-113.5.2c-.4 0-.8.1-1.1.2 0 .1-.3.1-.7.1-.6 0-.6 0-.1-.1s.4-.1-.4-.2-.6-.1 1.2-.1c2.1-.1 2.2 0 1.1.1m2.2-.1c0 .1-.2.1-.4.1s-.4 0-.4-.1.2-.1.4-.1.4.1.4.1m30 0h-.8c-.3 0-.2-.1.2-.1.5 0 .8.1.6.1m91.2.2c.2.2 0 .2-.6.2s-.7 0-.3-.2c.2-.1.4-.2.6-.2s.3.1.3.2m-130.1.1c.4.1.2.1-.8.1-.5 0-1 0-1.5-.2-.1-.1.1-.1.8-.1.5 0 1.2.1 1.5.2m2.4 0c0 .1-.4.1-.8.1s-.7-.1-.6-.1c.3-.1.5-.1.8-.1.4 0 .6 0 .6.1m115.6-.1h-1c-.3 0-.1-.1.5-.1s.8.1.5.1m3.8.1c.1.1-.3.1-1 .1-.5 0-1 0-1.4-.1-.1-.1.3-.1 1-.1.4-.1.9 0 1.4.1m-146.5.1c.1.1.1.1-.2.1s-.4-.1-.4-.1.1-.1.2-.1.2 0 .4.1m153 0h-.8c-.3 0-.2-.1.2-.1.5 0 .7 0 .6.1m-169.1.2h-.8c-.3 0-.2-.1.2-.1.5 0 .8.1.6.1m216.7.4c.4.2.4.2-.4.2-.5 0-.7 0-.4-.1s.4-.1.3-.2c-.5-.2 0-.1.5.1m-266.5.1c.4 0 .9 0 1.3-.1.5-.1.9-.1 1.4 0 .5.2.5.2 0 .3-.4.1-.8.1-1.2 0-1.4-.2-2.8-.3-4.2-.2-.8 0-.9 0-.4-.1 1-.1 2-.1 3.1.1m245.8 0c.1.1 0 .1-.4.1s-.5-.1-.4-.1c.2-.1.5-.1.8 0m-240.1.2c0 .1-.2.1-.4.1s-.4 0-.4-.1.2-.1.4-.1.4 0 .4.1m209.1 0c.1.1.1.1-.2.1-.2 0-.4 0-.6-.1-.1-.1-.1-.1.2-.1.2-.1.4 0 .6.1m-219 .2c-.2.1-.4.1-.6 0-.2 0-.3-.1-.2-.2.2-.1.4-.1.6 0 .3.1.3.1.2.2m270.5-.2c-.4 0-.8.1-1.2.2-.3.1-.7.1-1 .1-.5 0-.4 0 .2-.2.6-.1 1.2-.2 1.8-.2.8.1.9.1.2.1m-266.4.4h-.8c-.3 0-.2-.1.2-.1.5 0 .8.1.6.1m271 .3c-.3.1-.6.1-1 0-.2 0 0-.1.4-.2 1 0 1.4.1.6.2m-289 .3c0 .1-.8.2-3.2.1-3.3 0-4.4-.2-1.7-.2 3.7-.1 4.9-.1 4.9.1m290.7-.1c0 .1-.4.1-.8.1s-.7-.1-.6-.1c.3-.1.5-.1.8-.1s.6.1.6.1M19.4 98c.1.1-.2.1-.9.1-1 0-1 0-.3-.1.4-.1.8-.1.9-.1s.2 0 .3.1m7.2 0c.1.1.2.2.1.2-1.1 0-2.1 0-3.1-.2 1-.2 2-.2 3 0m-7 .6c1.6.1 3.8.1 4.8.1h1.1c-.8.1-.9.3-.1.3.3 0 .6.1.6.1 0 .1-.4.1-1.3.1-3.8-.2-4.3-.2-4.9 0-.4.2-.7.2-.8.1s-.5-.1-1.2 0c-.5.1-1.5.1-2.1.1-.5 0-1.1 0-1.6.1-.4.1-.8.1-1.1 0-.6-.2-.6-.2.2-.4.7-.2.7-.2.2-.2-.8 0-.8-.1.1-.3.6-.1 1.3-.1 1.9-.1.6-.1 2.5 0 4.2.1m34 .2c.4 0 .6.1.6.2s-.2 0-.5 0c-.2-.1-.5-.1-.8-.1s-.6 0-1-.1c-.7-.1-.7-.1.1-.1.5 0 1.2 0 1.6.1m3 .8c0 .1-.2.1-.4.1s-.4 0-.4-.1.2-.1.4-.1.4 0 .4.1"/><path d="M6.1 1.2h324v90H6.1z"/></g></switch></svg>