<svg xmlns="http://www.w3.org/2000/svg" width="736.842" height="324.229" viewBox="0 0 736.842 324.229">
  <path id="Path_63176" data-name="Path 63176" d="M604.661.428c-.62,1.465-3.644,2.576-4.813,1.334.712-.818,2.614-.429,2.826-1.758.9-.064,1.086.488,1.988.423M587,2.934a10.065,10.065,0,0,0-4.383-.011c-.911-1.022-3.315-.123-4.576.152-.569-.176-.778-.546-1.453-.23.031,1.658,1.9,1.754,3.56,2.023,1.4-.779,3.006-1.518,4.97-.818.674-.148,1.154-.489,1.856-.6,1.2,1,3.178,1.11,5.084.722a6.16,6.16,0,0,0,.808-1.672c-1.719-.6-3.546.014-5.269-.559a1.672,1.672,0,0,1-.6,1m16.255.163c.324-.025.9.209.744-.311a.822.822,0,0,0-.744.311m-30.7.092c-.169.632.68.4.69.88-.742.323.294,1.47.641,1.9a3.7,3.7,0,0,0,1.847-.435c.06-1.3-1.028-1.626-1.338-2.612a3.332,3.332,0,0,0-1.84.265m-3.468-.145c-.751.419-1.184,1.169-2.075,1.449-.62-.631-1.009-.2-1.818-.247-.467-.028-.945-.391-1.26-.393a22.626,22.626,0,0,0-2.394.412c-1.228.142-2.978-.29-3.505.706,2.215.841,6.262,1.635,8.71,1.213.511.167.723.581,1.435.573.853-.2.968-1.155,1.715-1.464a2.127,2.127,0,0,0,2.43-1.093,3.76,3.76,0,0,0-3.238-1.156M482.365,1.5c.521.057.927,0,1.11-.3-.239-.247-1.092-.208-1.11.3m13.476.9c.237.244,1.259.377,1.287-.117-.233-.242-1.258-.375-1.287.117M551.426,5.55a3.464,3.464,0,0,0-2.545-.276c-.312.325-.647,1.215-.263,1.694,2.526-.822,4.3,1.3,7.446.99.027-1.754,2.647-.869,3.2-2.083-2.669-.582-5.489-1.529-7.842-.326m-60.9-2.864.729.032c.007-.114.012-.227.018-.34l-.73-.031c-.006.113-.01.226-.016.338m123.432,5.8c-1.216-1.287-3.925-.94-5.645-.4.218,1.014,1.482.947,2.346.609,1.367.74,4.345.854,5.489-.114-.608-.49-1.376.053-2.19-.091M541.9,6.008c-.627.252-.823.943-1.689.953a8.175,8.175,0,0,0-6.414.417c-1.589-1.479-4.392.465-6.385-.265-1.259.263-1.82,1.234-3,1.58-.932-.024-.984-.793-1.973-.763-.715-.074-.711.586-1.484.45a14.552,14.552,0,0,0-5.29-.22c-.659.135-1.175.692-1.862.776a8.823,8.823,0,0,1-1.268-.223,29.3,29.3,0,0,0-5.332.631c-3.758.371-7.832.121-11.361.722a16.285,16.285,0,0,1-2.776.737c-.379-.167-.515-.539-1.069-.556a3.442,3.442,0,0,1-3.126.382c-2.337.786-5.769.451-8.28,1.192a3.34,3.34,0,0,0-1.428-.741c-1.486,1.453-3.474.323-5.32.462-1.685.124-3.042,1.575-5.348.97-.663.213-1.01.755-1.687.954-.318-.274-.529-.637-1.253-.564-.644,0-.838.453-1.483.45-1.759-.489-3.372.694-5.132.3a1.792,1.792,0,0,0,1.529,2.45,4.569,4.569,0,0,1,.447-1.686c.439.333,1.446.18,1.605.749.544.255-.581,1,.318,1.035.95.255.57-.846,1.317-.8,1.244.245,3.61,1.087,4.545.529-.523-.754-1.607-1.025-1.728-2.117.827-.727,1.673.318,2.72.454.786.1,1.889-.28,2.933-.219,1.555.086,3.407.329,4.758-.145.511-.432.217-1.683,1.35-1.478.544.461.157,1.713,1,1.917,1.4-.008.792-1.18,2.073-1.279.591-.046,1.045.774,1.783.925,1.525.318,3.334-.286,4.749.026.639-.361.46-1.552,1.184-1.825a15.631,15.631,0,0,1,4.94-.137c.364.344.249,1.092,1.045,1.067,1.317-.084,1.275-1.552,2.809-1.417.572.162.2,1.132,1.045,1.066.887-.227.805-1.439,1.722-1.633,2.11.676,3.426-.015,5.123-.13,2.13-.145,3.209.651,4.56.189.6.033.674.511,1.441.4.361-.166.293-.773.6-1,2.088.45,3.365-.638,5.165-.979.89.164.677,1.27,1.576,1.429,1.508-.169,2.442-1.443,4.046-.515,2.458-2.057,5.969.181,9.53-.627.472,0,.294-.653.762-.651,2.885-.49,5.175-2.318,8.643-1.176.833-.461,1.579-1.009,2.446-1.432a2.589,2.589,0,0,0,1.982.593c.127-2.279-2.611-1-5.058-1.233M600.766,9.3a1.561,1.561,0,0,0-1.807-.415c.851.905.439,2.131.229,2.906.463-.241,1.416.017,1.841-.265.1-.375-.523-.946-.136-1.027,1.011.081,1.038,1.224,2.307,1.458a7.061,7.061,0,0,0,1.658-.273c1.011-.1,2.611.344,2.775-.737-1.123.2-1.047-.63-1.6-.918a14.545,14.545,0,0,1-2.909-.291c-.479-.4-.028-.567-.318-1.036a2.1,2.1,0,0,0-2.042.6M514.117,6.22c.148-.521-1.011-.751-1.26-.393a1.441,1.441,0,0,0,1.26.393m95.553,4.13-.726-.029a.38.38,0,1,0,.726.029m-18.11.443c-.356.047-.945-.241-1.452-.231-1.171.024-1.882.38-2.917-.12-.4.306-.986.423-.969,1.152,1.193.735,3.06.039,4.392-.159,1.383.745,2.421.075,3.665-.188.926-.2,1.95.2,2.221-.591-1.8-1.534-3.7-.026-4.94.137M444.2,4.688c.242.064.337.255.721.2.008-.17.015-.34.024-.51-.414-.065-.687.013-.745.311m17.683.9.363.015c.007-.114.012-.227.019-.34L461.9,5.25c-.007.113-.012.227-.016.34m121.791,5.728c.227.436.971,1.01,1.619.579.012-1.081-1.289-1.964-1.619-.579M457.85,5.934l.366.014c0-.113.01-.227.015-.34l-.364-.014c-.006.113-.01.227-.016.34m-23.534-.8c-.006.666.793.529,1.26.391.2-.684-.96-.63-1.26-.391m19.5,1.148c.078-.446-.225-.57-.7-.54-.076.446.228.568.7.54m123.947,6.5c.566.256,1.686-.244,2.569-.235.285.139-.081.832.517.7.766-.345,1.915-.305,1.9-1.456-1.583-.5-5.015-1.507-4.981.988m17.026-.659c.231.231.669.252.736-.139-.231-.231-.668-.254-.736.139m-149.2-5.671c.311.3,1.325.3,1.292-.288-.575-.052-1.1-.052-1.292.288M426.59,6.173a.785.785,0,0,0,.938-.472c-.52-.056-.995-.063-.938.472M571.736,12.7c-1.644-.879-2.841-.6-5.088-.552-.978.949-2.482.638-4.228.507a10.84,10.84,0,0,1-1.682.783,14.774,14.774,0,0,0-6.022-.251c-1.017.187-2,.875-2.972,1.068-.908.182-1.844-.155-2.579.405-.562-.724-.895-.382-1.641-.067-.509-.326-.626-.99-1.217-1.245a6.071,6.071,0,0,1-1.508.963c-3.435-.216-6.373,1.286-9.384,1.314-1.18.011-1.723-.554-2.918-.121-.311.113-.275.437-.57.489-.449.078-.668-.26-1.1-.046-.554-.028-.217.848-.768.82-1.008-1.166-2.751.269-3.117.212-.693-.107-.4-1.236-1.419-.911-.526,0-.351.712-.945.644-1.051-1.119-2.028.376-3.64-.322-.627.189-.736.914-1.507.96-1.728-1.227-4.967-.322-6.764.061.109.669-.714.853-.245,1.353,2.137.258,4.917-.7,7.125-.045-.054.776-.99.653-1.159,1.314.518.05.747.343,1.264.4,1.068-.935,1.961-2.044,3.584-2.41,1.281.612,2.88,1.765,4.688,1.387.163-.85-.7-.82-.467-1.723,1.589-.458,2.161,1.145,3.78,1.178.581-.384.229-.793.257-1.523.545-.644,1.262-.187,2.2-.249,1.9-.128,4.233-.843,5.306-.121,1.753-.234,3.156-.829,4.8-1.165,1.017.637,1.667-.032,3.275.306.5-.086.487-.692,1.128-.637,1.1.472,2.443.021,3.456.315-.016.34-.031.68-.048,1.021,1.1-.05,1.289.525,2.179.26a2.573,2.573,0,0,0,.456-1.857c1.948-.51,4.643-.258,6.439-.926.578-.057.39.539,1.077.386.609.026.653-.528,1.3-.456,1.175.067,2.419.206,2.945-.39.827.476,2.137.1,2.923-.049.2.372.152.957.493,1.212,2.122.563,3.426-.623,4.639-1.511.481-.106,1.077-.091,1.3-.458-.538-.96-3.238-2.041-3.638-.32M422.017,6.324l.727.031c.007-.114.012-.228.019-.341l-.732-.031c0,.114-.01.228-.015.341M486.57,9.169a.823.823,0,0,0,1.289-.287.887.887,0,0,0-1.289.287M418.153,6.845c.009-.17.018-.34.025-.51l-.548-.022c-.049.369.124.546.523.532m17.856,1.081c.06-.485.067-.928-.506-.873-.372.313-.24,1.034.506.873m46.513,1.757c.127.146,1.241.508,1.1-.124-.146-.418-1.026-.116-1.1.124m-68.03-2.648.361.015c0-.113.01-.227.016-.341l-.363-.014c0,.113-.011.227-.015.34m-4.379-.181c-.116.6,1.214.8,1.095.046a1.362,1.362,0,0,0-1.095-.046m133.628,6.56c.078-.446-.227-.57-.7-.54-.076.446.227.568.7.54M406.425,7.553c.59.543.584-.607,0,0m-7.883.525c.007.726.917.5,1.093.046a.946.946,0,0,0-1.093-.046M410.72,9.435l.366.015c.006-.114.011-.227.015-.34l-.363-.015-.018.34m115.611,5.13a.765.765,0,0,0,.154.52c.509.162.485-.221.923-.132.185-.637-.79-.637-1.077-.387m-18.821-.1a.693.693,0,0,0,1.113-.3c-.482-.018-1.069-.139-1.113.3m74.044,3.067.547.022c0-.114.009-.227.015-.34l-.544-.022c-.007.113-.012.227-.018.34m-3.671.358c.523.059.929,0,1.11-.294-.342-.086-.441-.386-.895-.378-.069.228-.278.313-.215.671m-179.66-6.931c.3-.242.314-.958-.327-.866-.394.323-.037.727.327.866M517.7,15.4a.509.509,0,0,0,.565-.318c-.287,0-.633-.049-.565.318m-140.29-4.79a.691.691,0,0,0,1.111-.3c-.327-.337-.945-.06-1.111.3m64.2,2.489c.182.007.211.146.355.185.009-.17.158-.2.2-.333-.182-.008-.211-.146-.355-.185-.007.171-.158.2-.2.333M403.3,11.855l.364.015c.007-.114.012-.227.018-.34l-.366-.015c-.006.113-.01.226-.016.34m46.083,3.1a24.957,24.957,0,0,0,3.914,2.206c.937-.534,1.054-1.9,2.993-1.408.518-.416,1.832-.791,1.531-1.471-1.477-.15-2.355-.678-3.474.026-1.047-.943-4.342-.865-4.964.646m-61.594-3.574c-.588-.542-.581.606,0,0m117.807,5.051c.475.2,1.384.379,1.647-.1-.281-.238-1.589-.435-1.647.1m32.642,1.353.55.024c0-.114.01-.227.016-.34l-.548-.024c0,.114-.011.227-.018.34m35.738,1.652c.034-.2.342-.372.026-.511-.036.2-.344.373-.026.511M385.019,11.949c.45.045.884.067.927-.3-.429-.118-.835-.3-.927.3m-16.064-.326c.8-.128,2.375.52,2.4-.411-.836.1-2.048-.184-2.4.411m70.909,3.62c-.258.79.042,1.191-.279,2.034,1.685.684,2.881-.449,4.234-.677a1.383,1.383,0,0,0,2.14,1.112c.115-.534-.3-.614-.124-1.2,1.362.05,2.706-.768,2.458-1.773a52.77,52.77,0,0,0-8.429.5M378.952,12.72c-.848-.508-.469.54,0,0m56.676,3.2c-.387-.159-.6-.467-1.262-.393-1.4.655-3.722.338-5.3-.049-.542.514-1.6.506-2.411.752-.557.145-.541.875-1.317.8-.88-.065-.554-1.159-1.4-1.251-1.2.708-2.9,1.588-4.236.677-2.151,1.231-6.014.194-8.28,1.188a1.749,1.749,0,0,0-1.253-.563c-1.172.745-2.054.467-3.474.028-.681.078-.72.809-1.671.612-.8-.138-.343-1.34-.641-1.9a23.533,23.533,0,0,1-2.927.05c-.624.552-.839,1.521-2.078,1.447-.324.208-.054,1.017-.6,1-1.413-.015-2.206.6-3.678.529-.766-.053-.844-.7-1.61-.751-.945,1.289-2.46,1.075-4.085,1.365-.481.29.693,1.149-.248,1.354-1.229-.311-1.538-1.407-3.033-1.489-.012-.534.181-1.243-.112-1.539-1.525-.068-3.187-.279-4.035.347a3.453,3.453,0,0,1-.255,1.521c-.627.669-1.991.588-2.618,1.255-2.207-1-4.664.616-7.334.549-2.073-.052-4.04.407-6.235.423-.081-.419-.689-.391-.5-1.045.757-.178,1.688-.181,2.046-.765-.751-1.013-1.91-.27-2.567.233-.538.022-.544-.408-1.078-.386a12.176,12.176,0,0,0-1.667.443c-.911.021-2.079-.215-2.4.411-.832.616.96,1.234.284,1.718-.647-.046-.63-.657-1.435-.573-1.743,2.227-5.457,1.341-8.508,2.205.09-.9.378-1.666-.069-2.389-1.163.007-2.282.054-2.778.737a1.937,1.937,0,0,0-1.617-.578c-.617.024-.346.953-.959.983-1.761-.893-3.329.011-5.3.12-.382.021-.769-.093-1.095-.045-.995.148-1.819.737-2.785.907-2.5.44-5.121-.029-6.646,1.429.977.092,2.151.015,2.34.779-1.246.844-2.876.482-4.443,1.18-.733-.623-.143-1.653-.435-2.4-1.967-.334-4.331,1.209-6.6.579-.693.9-3.051.1-3.183,1.571.927.627,1.313-.624,2.57-.233a3.133,3.133,0,0,1-.073,1.529,4.7,4.7,0,0,0-3.52,1.049c-.957-1.045-2.136.2-3.109.04-1.271-.212-1.045-1.3-2.291-1.8-1.048.248.048.883-.429,1.346-.918-.426-1.683-1.419-3.036-1.489a9.459,9.459,0,0,0-1.665.442c-2.572.43-6.383.2-7.566,1.562,1.877.591,4.343-.818,5.257.9-.39.676-2,.1-2.935.219-1.089.878-3.774.467-3.789-1.009-.836.4-1.39-.157-2.182-.26-.678.595-1.6.057-2.569.234-.718.131-1.305.69-2.046.766-.6.064-1.381-.283-2-.254s-1.331.39-2.028.429c-.521.029-1.084-.135-1.461-.061-.462.089-.69.415-1.119.464s-.838-.131-1.277-.052a22.581,22.581,0,0,0-2.974,1.07c-.175-.393-1.143-.113-1.631-.238-.654.05-.874.539-1.5.62a6.445,6.445,0,0,0-4.415.669,5.337,5.337,0,0,0-2.729-.283c-.905.135-1.9.954-2.973,1.071-1.328.141-2.245-.329-2.76.394-.346-.086-.442-.384-.9-.376-.426.16-.539.639-.951.813-.387-.162-.6-.468-1.259-.393a16.455,16.455,0,0,0-2.6.914c-1.38-.6-3.124.176-4.767.313a34.258,34.258,0,0,0-3.844.181c-.55.215-.729.8-1.5.79-1.452.111-2.739.064-4.212.166-1.788.125-3.341.942-4.988,1.159-1.059.138-2.207-.283-3.283-.137-1.205.163-3.056,1.073-4.259,1.187-2.077.2-4.719-.146-5.509.624a7.137,7.137,0,0,0-4.418.667,7.225,7.225,0,0,0-1.262-.391c-.953.21-1.75.723-2.782.907-1.395.247-2.962.089-4.4.327a30.19,30.19,0,0,1-3.877.864c-1.522.059-2.276.274-3.307.373-.633.063-1.217-.13-1.827-.075-.647.059-1.308.471-2.037.6-.917.16-1.9.231-2.942.389a26.24,26.24,0,0,1-5.875.609c-.588.234-.926.72-1.683.783a8.222,8.222,0,0,0-1.605-.748c-.956.423-2,.085-2.936.22-.778.11-1.383.546-2.23.758-1.834.458-4.047.384-5.162.979-1.971-1.141-4.185.028-6.226.254-1.025.114-2.092-.241-3.1-.128-1.047.118-2.116.623-3.142.722-1.925.191-3.09.217-4.589.493-1.056.192-2.128.623-3.142.72-.266.028-.665-.2-.9-.206-1.2-.007-2.363.538-3.5.536-.327.425.1.908-.778.989-.941.152-.7-.706-1.429-.74-2.7.086-5.035,1.346-7.539,1.052a44.462,44.462,0,0,1-9.766,1.641c-.5.143-.735.557-1.307.625-4.407.059-8.752,1.4-13.237,1.669-.688.04-1.476-.134-2.188-.091-1.861.111-3.578.89-5.345.971-.772.033-1.634-.182-2.372-.1-.681.075-1.313.538-2.039.6-1.67.134-2.487-.035-3.5.538-.662-.252-1.653-.223-2.354-.439-4.33,1.55-9.815,1.567-14.72,2.116-1.834.206-3.275,1.006-5.006,1.5-.783.223-1.722-.081-2.561.064-.65.114-1.222.639-1.864.776-.805.171-1.544-.181-2.2.249-.579,0-.588-.478-1.26-.394a20.341,20.341,0,0,1-9.027,1.5c-2.942.327-5.484,1.211-8.113,1.539-.986.124-1.971-.063-2.926.049a26.928,26.928,0,0,0-5.378,1.651c-1.364-.415-2.588.547-3.87.691-.381.046-.895-.224-1.269-.221-1.019.007-1.912.635-2.968.9-.984.247-2.219.479-3.323.712-1.2.256-2.416.52-3.5.708-3.644.628-7.082,1.546-10.858,1.6-.521.18-.157,1.268-.969,1.153-.66.02-.463-.7-1.062-.727a6.314,6.314,0,0,1-2.037.6c-.122,1.422-2.421.621-2.3,2.29.185.547.929.621,1.419.91a8.956,8.956,0,0,0,.823,1.908c1.072-.355,1.768.216,2.736.113.99-.1,1.876-.869,2.782-.9s1.623.486,2.721.451c.775-.74,1.756-.67,2.966-.9,1.452-.273,3.12-1.272,4.265-1.355.8-.059,1.611.327,2.364.267,1.774-.138,3.147-1.063,4.64-1.514.781-.238,1.6.148,2.372.1,1.631-.1,3.071-1.034,4.8-1.163.863-.065,1.841.2,2.738.111.351-.033.809-.357,1.3-.456a14.37,14.37,0,0,0,2.594-.745,28.743,28.743,0,0,1,4.79-.823c.568-.093,1.113-.435,1.483-.45.3-.013.472.344.9.376.506.042.951-.333,1.467-.107.5-.086.487-.692,1.126-.637a5.6,5.6,0,0,0,3.316-.545,4.158,4.158,0,0,0,1.634.238c1.5-1.351,4.561.082,6.589-.238.335-.312.264-1.036.96-.983,1.02-.109,1.337.384,2.172.432.712-.88,1.825-1.353,3.705-1.039.582-.18.62-.915,1.325-.968,5.629-.352,9.85-1.655,15.377-.557.19-.309-.521-.589.033-.68.691-.1.86.244,1.449.231,2.077-1.358,4.716-.793,7.352-.89,1.573-.056,3.095-.787,4.772-.483,1.1-.255,2.1-1.149,3.177-1.4.152-.038.6.238.9.206.464-.047.581-.315.929-.3,2.01.074,4.276,1.375,6.382.263.341-.358.028-1.1.236-1.183a3.159,3.159,0,0,1,1.269.221c.842-.968,2.552-.492,4.055-.684,1.9-.241,3.79-.986,5.5-.453.6-.22.691-.961,1.507-.961,1.6.694,3.071.032,4.407-.5,2.585.673,4.315-.593,6.268-1.1.847-.07,1.032.425,1.809.415,1.38-1.282,4.615-1.371,6.992-1.073.55-.155.458-.958,1.144-.975.588-.014.757.333,1.453.23,3.159-1.035,6.645-.644,9.761-1.642.914.091.993.9,2.155.773.615-.026.563-.733,1.134-.805a39.358,39.358,0,0,0,8.835-1.339c1.16,1.123,1.892-.627,3.084.469.645-1.241,2.79-1.194,4.236-.677.517-.247.665-.868,1.326-.97,2.891.288,4.845-1.174,7.517-.54.966-.9,2.315-.345,3.689-.7.318-.092.022-.808.4-.837.647.047.632.657,1.434.573,2.11-.3,3.892.169,5.338-.8.387.159.6.467,1.261.393.6-.039.411-.89,1.133-.807,1.514.3,2.033-.425,2.959-.729,1.605.176,2.97-.174,5.3.049,1.05-.915,2.685-.524,4.244-.846.333-.068.614-.39.936-.474.533-.137,1.093,0,1.65-.1,1.716-.322,3.042-.864,4.567.019.594-.049.611-.684,1.134-.807,1.834.656,3.354-.74,5.164-.978,1.059-.142,2.2.249,3.281.137.939-.1,1.716-.781,2.6-.917,1.71-.256,3.6.6,4.782-.653,2.019.262,3.81-1.1,6.043-.26,1.4-1.453,3.544-.312,5.345-.972.072-.844-.349-1.392.445-1.686.738-.337,1.159.226,1.235.9,1.228.176,2.284-.352,3.284.137.587-.056.674-.62,1.31-.627,3.348.279,6.016-1.379,9.729-.961.577-.366.542-1.351,1.35-1.477a7.191,7.191,0,0,0,2.523.786c.458,0,.845-.345,1.3-.458.653-.164,1.456-.033,2.206-.249.442-.128.869-.5,1.308-.628,1.281-.364,2.766.2,4.019,0,.29-.046.494-.4.754-.481,1.284-.4,2.4-.17,3.5-.538.527-.663-.012-1.318.984-1.492,1.068-.187,1.1.8,2.148.94,2.13-.223,3.847-.954,6.8-.74.433-.035.367-.577.936-.472,2.17.723,3.236-.929,4.624-1.173,1.049-.182,2.092.3,3.284.135.064-.3-.472-.869.048-1.018,1.417-.178,1.374.893,2.322,1.119,2.128-.653,4.57-.288,6.243-.595.733-.134,1.641-.068,2.2-.248.511-.164.783-.529,1.31-.628,1.02-.191,1.943-.15,2.57-.235.547-.074,1.235.143,1.641.07.792-.148,1.868-.809,3.124-.383.611-.269.844-.924,1.516-1.13,1.544.146,3.977.749,4.409-.5,2.055.727,3.225-.83,4.46-1.518a14.9,14.9,0,0,0,3.868-.691,4.581,4.581,0,0,1,1.241-3.019,4.6,4.6,0,0,1,2.736.114,1.962,1.962,0,0,1-.795,1.33,2.7,2.7,0,0,0-1.809-.417c-.251.716-.591,1.7-.106,2.211.5.574,1.1-.373,1.461.061.142.641.91.749,1.6.921.889-.855,2.236-.325,3.305-.376.951-.045,1.743-.85,2.57-.234.45-.2.457-.84,1.134-.805a2.827,2.827,0,0,0,2.006.084c.6-.383-.373-1.251.429-1.347,1.4-.156,1.762.567,2.894.632.724-.025-.108-.532.4-.666.618-.075.853.334,1.443.4,4.6.515,8.71-1.021,13.031-1.165.487-.155.645-.649,1.134-.8,1.725.12,2.615-1.326,4.088-1.365,1.319-.035,2.267.933,3.979.846.6-.221.487-1.167.811-1.67,1.2.645,3.611-.822,3.987.677-.312.6-1.311-.166-1.674.612,1.891.469,4.01-1.146,6.771-.23.88-.4,1.407-1.114,2.421-.922.635-1.628,1.939-3.318,4.3-2.038.509.329.426,1.16,1.029,1.407,1.817.187,2.566-.715,3.538-1.387,3.1-.088,5.117.747,7.809,1-.412-1.935,1.873-1.784,3.338-1.053.926-.13,1.287-.832,2.239-.932.684.017.517.758,1.437.573,1.97-.556,4.191-.234,5.56-1.645.69.932,3.218.3,3.962,1.187.352-1.453,2.2.035,3.29-.033.714-.164.738-1.034,1.343-1.307a4.123,4.123,0,0,0,3.786,1.009c.641-.421.663-1.468.669-2.531a2.572,2.572,0,0,0-3.3.2m20.8.692c.221.242,1.077.34,1.1-.125-.221-.242-1.077-.341-1.1.125m34.1,1.412c.415.064.688-.013.747-.309-.414-.065-.687.011-.747.309m-16.621-.177c.244.01.487.021.732.029.01-.226.021-.454.034-.678q-.853-.157-.766.649M413.38,15c-.128.7.944.908,1.435.573A.964.964,0,0,0,413.38,15M623.828,23.89c.244.063.336.258.72.2l.027-.51c-.415-.065-.689.013-.747.309M371.791,13.447c-.119-.139-1-.422-1.093-.046.4.223.777.525,1.093.046m7.438,1.16c-.591-.543-.584.6,0,0m-29.564-.885c-.185.538,1.78.618,1.641.068-.266-.435-1.268-.123-1.641-.068m130.937,5.6c.315-.46-.765-.5-.721-.2.242.065.339.258.721.2m29.555,1.054c-.019.525.936.648,1.261.394.2-.685-.962-.631-1.261-.394M370.6,15.443a.764.764,0,0,0,1.084.215c.124-.7-1.008-.971-1.084-.215m-14.962-.451c-.187.741,1.813,1.152,1.813.247-.506-.15-1.353-.559-1.813-.247m146.07,6.225c.23.231.668.252.735-.142-.233-.23-.665-.251-.735.142M341.563,15.09c.69-.008,1.635.241,1.665-.442-.438-.433-1.59-.088-1.665.442m155.015,6.424c.7.857-.112,1.3-.636,1.847,1.286.678,2.8-.123,4.219-.334-.049-.613-.442-.929-.284-1.716-1.092-.49-2.385-.039-3.3.2m-158.306-6.39a1.319,1.319,0,0,0,2.007.082,2.651,2.651,0,0,0-2.007-.082m10.356,1.282,1.459.061c.306-1.074-1.543-.8-1.459-.061m-5.329.631c.52.056.993.061.936-.472-.348.024-.4-.209-.723-.2-.07.227-.273.315-.214.673m36.141.815c-.856.017-1.889.745-2.785.908-1.249.227-2.484-.053-3.5.538-.641-.052-.79-.52-1.434-.571-.65.943-3.2-.049-3.529,1.216,2.854,1.379,5.444-1.318,8.047-.177a1.908,1.908,0,0,1,2.024-.259c.574-.125.878-.531,1.491-.618.237-.412,1.577.3,1.308-.627-.578.134-1.011-.419-1.623-.41m-41.09-.508a1.6,1.6,0,0,1,1.277.053c.112-.857-1.165-.493-1.277-.053M483.1,24.365c.187.858,2.206.656,2.379-.072-.6-.582-2.082-1.183-2.379.072M320.221,18.126c.209-.56-.225-.568-.706-.539-.076.444.226.568.706.539m2.1,1.963a2.362,2.362,0,0,0,1.865-.775c-.42-.765-2.133-.291-1.865.775m34.706.245c-.911.735-2.871.4-3.538,1.387a23.813,23.813,0,0,0,5.133-.3c-.17-.671-.871-.889-1.595-1.088M407.7,22.945c.254.762,1.352.178,1.476-.281-.343-.3-1.431-.27-1.476.281m51.413,2.47c.342.053.412-.174.736-.138.109-.529-.363-.56-.886-.55a.909.909,0,0,0,.149.688M310.3,19.25a.609.609,0,0,0,.919-.131c-.221-.244-.881-.3-.919.131m9.26,1.236.547.022c-.018-.2.055-.481-.157-.517-.031.266-.472.114-.39.495m-1.649.1.365.017c0-.116.01-.228.016-.341l-.364-.015c-.006.113-.012.227-.017.34m-4.767.315c.39.308,1.659.369,1.485-.45-.506-.428-1.1.2-1.485.45m6.011.419a.826.826,0,0,0,1.292-.288.89.89,0,0,0-1.292.288m119.6,5.806c.7.442,2.03.237,2.037-.6-.6-.34-2.252-.458-2.037.6m-142.432-5.9c.394.031,1.964.4,2.03-.428-.769.049-1.789-.159-2.03.428m150.6,6.922c1.317.333,2.142-.607,3.3-.2-.745-.66-2.911-1.2-3.3.2m-139.14-5.934c.308-.5-.923-.488-.9-.209a1.258,1.258,0,0,0,.9.209m118.285,6.434c.575-.01,1.334.171,1.649-.1q.022-.426.042-.85c-.815-.563-2.4-.075-1.691.951M286.4,22.351c.233.308.85.722,1.258.393a.66.66,0,0,0-1.258-.393m7.07,1.144c.223.244.784.2,1.267.223.248-.688-1.234-.735-1.267-.223M615.338,37.172c-1.909,1.552-5.18.645-7.748,1.556,2.028,2.009,5.281-.706,7.675-.024.449-2.1,4.845-.173,5.75-1.808-2.225-.905-3.677.95-5.677.276M326.264,25.536a1.266,1.266,0,0,0,.9.208.8.8,0,0,0,.049-1.022c-.714-.132-.826.348-.953.815m-48.9-1.514c1.029.036,2.128.146,2.055-.939-.875.118-2.055-.075-2.055.939m89.394,3.021c-.1.9,1.758.616,1.649-.1a4.232,4.232,0,0,0-1.649.1m-93.6-3.026c-.187.738,1.815,1.149,1.815.244-.227-.518-1.3-.41-1.815-.244m12.939.7c-.11.691,1.755.878,1.464-.11-.523,0-1.187-.141-1.464.11m75.675,3.307.548.022c0-.113.01-.227.015-.34-.184-.007-.366-.015-.545-.024l-.018.341M270.02,24.74c.237.4,1.419.623,1.468-.11-.66.1-1.228-.579-1.468.11m332.8,14.3c.586,1.3,3.151.515,4.368.352-.243-1.954-2.982-.4-4.368-.352m-338.141-13.5c.933-.357,2.99.751,3.144-.72-1.266.018-2.809-.249-3.144.72M278,26.091c.8.1,1.507.109,1.316-.8-.729-.031-1.365.033-1.316.8m34.468,1.429a6.636,6.636,0,0,0,2.95-.56c-.815.085-3.026-.83-2.95.56m302.38,12.36c.233.018.242.227.539.192a.47.47,0,0,0-.341-.525c-.007.171-.158.2-.2.333M348.914,29.541c.451.273,1.525.865,2.173.432-.246-.553-1.789-1.472-2.173-.432M596.541,40.485c1.37.309,3.006-.449,4.243-.847-1.48.215-3.553-.174-4.243.847M271.2,26.833c.463.284,2.369.515,2.388-.241-.547-.287-2.254-.461-2.388.241m-12.756-.7c.176,1.01,2.623.51,2.926-.049a19.462,19.462,0,0,1-2.926.049m352.3,15.452c.62-.021,1.471.192,1.831-.1-.031-1.087-1.909-1.166-1.831.1m-20.815-.351c1.116-.627,1.855.341,3.117-.213-.173-1.3-3.834-1.532-3.117.213m15.126.8c.911.485,3.4.514,4.04-.343-1.7.737-4.336-2.5-4.04.343M254,27.312c1.2.41,3.256.256,3.692-.7-1.216-.361-3.1-.141-3.692.7m12.4.514c.454.373,1.5.209,1.659-.272-.568-.277-1.426-.27-1.659.272m-4.225.507c.255.279.8.223.744-.309-.414-.065-.687.011-.744.309m8.023.333.547.024c.006-.114.012-.228.015-.341-.179-.008-.363-.015-.545-.022-.007.113-.012.226-.016.34M622.92,42.942l-.913-.038c-.354.8,1.134.664.913.038M257.574,29c.893.6,1.974-.124,2.926-.049-.176-.754-2.648-.694-2.926.049m-4.236.676c.957-.149,2.161.26,2.6-.742-.832-.372-2.6-.313-2.6.742M627.374,45.34c.569.025,1.169.451,1.64.07.236-1.177-1.478-.568-1.64-.07M250.762,30.076c.691.11,1.142-.025,1.3-.457-.52-.242-1.226-.216-1.3.457m2.515.956A1.3,1.3,0,0,0,254.4,30.4c-.591-.01-.993.177-1.125.634m108.149,4.313a.465.465,0,0,0-.339-.525c-.272.237-.3.646.339.525M246.353,30.576c.257.24,1.429.408,1.467-.11-.255-.24-1.428-.408-1.467.11m-4.8.995c1.452.053,2.769-.031,3.505-.708-.618-1.071-2.9.057-3.505.708m4.062-.855a.505.505,0,0,0,.562-.316c-.287,0-.63-.05-.562.316M559.255,44.563a1.654,1.654,0,0,0-1.087-.215c-.234.656,1.051.727,1.087.215m-323.2-12.71c.59.082,2.1.908,2.2-.079-.971.148-1.723-.579-2.2.079m7.812,1a3.173,3.173,0,0,0,1.283-.117c.149-.839-1.508-.68-1.283.117m-10.23-.082c.109-.527-.363-.56-.887-.549-.109.529.364.56.887.549m70.224,2.74c-.278.017-.674-.089-.741.139.235.23.669.251.741-.139m-76.275-2.31.73.031a.382.382,0,1,0-.73-.031m-1.126.637c.438-.357.324-.554.049-1.021l-.729-.032c-.317.534-.022.968.68,1.053m9.119.376.547.024c.007-.17.016-.341.025-.51-.121-.007-.243-.01-.366-.017-.018.217-.245.226-.206.5m-12.314,1.535c.458.2,1.62-.182,1.513-1.128-.815.059-1.623.128-1.513,1.128m55.746,3.5c.651.007,1.465.184,1.483-.451-.614.029-1.568-.291-1.483.451M211.679,37.32c.563-.1.523.315,1.087.215.747-.709-1.24-1.745-1.087-.215m-17.215.82c.672.2,2.245.284,2.576-.405-.617-.7-2.413-.444-2.576.405m-1.65.1c.181.007.366.014.545.022.007-.114.012-.226.018-.338l-.548-.024c0,.111-.01.227-.015.34m-4.955.478c.373.312,2.061.442,2.021-.259-.614.148-1.965-.457-2.021.259m-5.886.777c.868-.22,1.77.7,1.84-.265-.7,0-1.6-.2-1.84.265m9.657.571c.01.573,1.1.7,1.1.046-.06-.382-.962-.174-1.1-.046m-3.13.553c.285-.006.629.047.562-.319l-.364-.015c-.007.171-.155.2-.2.334m-15.519-.3c.439.127.92.382.927-.3-.451-.045-.884-.068-.927.3m2.543.277a.824.824,0,0,0,.747-.312c-.324.028-.905-.209-.747.312m7.818.834c.243.01.488.02.73.032,0-.116.009-.228.015-.343-.243-.008-.485-.019-.729-.029,0,.113-.01.227-.016.34m-16.984-.192c-.659.091-1.668-.3-1.847.433,1.479-.156,3.268.006,4.234-.676-.579-.288-1.5.117-2.387.242m-.827,2.01a.7.7,0,0,0,1.128-.635c-.576.007-1.093.074-1.128.635m-2.4.582c.493.143.385-.323.745-.311-.04-.4-.078-.8-.694-.71a.793.793,0,0,0-.051,1.021m-2.933.22a1.228,1.228,0,0,0,.914.038c.015-.34.031-.68.046-1.021-.59.052-1.071.215-.96.983m-3.489.366a6.652,6.652,0,0,0,2.427-1.092c-.745-.138-2.442-.1-2.427,1.092m-8.746-.534c.354.38.723-.017,1.1-.124a.472.472,0,0,0-.342-.525c-.178.293-.683.252-.762.649m-5.726,1.3a5.667,5.667,0,0,0,3.33-.885c-1-.263-2.939-.057-3.33.885m9.672.231c.578-.007,1.095-.075,1.129-.637-.576.007-1.095.075-1.129.637m-11.132-.293c.414.065.688-.013.747-.309-.245-.063-.336-.255-.721-.2-.008.171-.016.341-.025.51m-5.336.8a1.885,1.885,0,0,0,1.461.06c.028-.752-1.392-.663-1.461-.06m1.643.068a.829.829,0,0,0,.745-.311c-.257-.279-.8-.221-.745.311m5.62.914c.553.148.551-.27,1.1-.123.112-.532-.229-.677-.317-1.036l-.911-.039c-.021.453-.116.97.126,1.2m3.868-.691a.506.506,0,0,0,.565-.318c-.284,0-.63-.049-.565.318m-17.374.3c-.524.15-1.143-.152-1.117.467,1.08.387,2.125-.1,2.935-.22-.015-1.082-1.033-.471-1.818-.247m4.213-.166c-.224-.245-.784-.2-1.271-.223-.128.808.93.423,1.271.223m3.425.995c.348.517,2.635.763,2.569-.234-.411-.521-3.148-.72-2.569.234m-11.156.22c.62.095,1.039-.01.944-.644-.594-.068-.889.164-.944.644m8.752.361c.136.3,1.314.164,1.295-.286-.031-.188-1.349-.2-1.295.286m-10.768-.273c.121,0,.246.008.366.014,0-.114.009-.228.015-.341l-.364-.015c-.006.114-.01.226-.016.343m8.547.862c.453.045.886.07.929-.3-.346-.369-.78-.038-.929.3m-1.11.3c.52.056.993.064.936-.472a.566.566,0,0,0-.936.472m-6.946.053c-1.269.2-2.815-.082-3.147.893,1.5.921,3.723-.305,4.8-.993,1.493-.3,1.694,1,2.9.46-.145-2.069-2.971-.6-4.551-.359m-8.072.69c.006.538.079,1.02.681,1.05.279-.258.441-1.336-.308-1.206-.048.131-.163.192-.373.156m3.431.823a.669.669,0,0,0,.763-.651c-.478-.55-1.305.159-.763.651m-5.653-.234c.013.481.282.737.88.719-.108-.527.336-.489.231-1.014-.569-.1-.723.213-1.111.3m-3.837.01c-.158.635,1.361.472,1.1-.123a1.658,1.658,0,0,0-1.1.123m1.64.07c-.007.17-.016.338-.024.51a1.589,1.589,0,0,0,2.031-.426,2.644,2.644,0,0,0-2.007-.084m-4.806,1.163a1.445,1.445,0,0,0,2.421-.921,4.394,4.394,0,0,0-2.421.921m-4.392.16c.669.575,2.6,1.022,2.4-.584-.859.138-2.154-.174-2.4.584m-2.6.915c1.171.391,1.244-1.148.04-.853-.012.284-.027.567-.04.853m-3.307.373c1.266.162,2.037-.181,2.243-1.1-1.234-.128-2.14.078-2.243,1.1m-.721-.2c-.154-.3-.553-.4-1.08-.384-.729.653,1.032,1.393,1.08.384m-9.54.8c.121.691.974.212,1.816.247,1.819.071,3.277.458,3.52-1.049-1.818-.071-3.985-.1-5.336.8m-2.593.745c.736-.259,1.918-.065,2.228-.759-.862.132-1.885.1-2.228.759m-8.655,1.344c.781.049,1.322.4,2.007.084.119-1.361-1.943-1.261-2.007-.084m-3.87.694c.6.018,1.287.123,1.3-.46-.354-.309-1.541-.384-1.3.46m2.578-.4c-.3-.014-.608-.028-.911-.039-.3.511,1.165.573.911.039M61.433,57.341c.884.008,1.93.181,2.04-.6a1.685,1.685,0,0,0-2.04.6M632.081,80.816c.787.1,1.017-.092.762-.649a.666.666,0,0,0-.762.649m-5.686.447c.977.084,3.6.837,4.028-.174-1.048-.646-3.372-.9-4.028.174M59.586,57.776l.364.015c.009-.171.158-.2.2-.333-.233-.019-.242-.228-.539-.192-.007.169-.016.34-.024.51M638.233,82.1c-.853.138-1.008.995-1.882,1.113-.923-.474-2.351.217-3.25-.816-1.343.121-2.987-.072-2.991,1.411.559.025,1.059.513,1.619.577a27.225,27.225,0,0,0,4.043-.514c1.3-.035,2.621.579,3.665-.189.43.015.521.315,1.084.216.252-.337.9-.273.779-.99-1.248-.077-1.861-.7-3.067-.807M54.43,58.585l.548.022c0-.113.01-.227.016-.341-.182-.007-.364-.013-.548-.021,0,.11-.01.227-.016.34m-8.841,1.507c.121,0,.243.01.364.017.019-.219.243-.227.206-.5l-.364-.015c-.021.216-.245.224-.206.5M36,61.911c.451.043.884.068.929-.3-.346-.371-.78-.039-.929.3m-3.88.862a3.02,3.02,0,0,0,2.048-.768c-.918.013-2-.135-2.048.768m-3.653.017c-1.284.128-3.407.478-3.538,1.387,2.721.458,3.508-1.059,5.892-.947-.109-.781-1.625-.51-2.354-.44m-9.249,2.346a11.494,11.494,0,0,0,3.514-.878c-1.077-.286-3.257-.258-3.514.878M627.623,97.675a3.706,3.706,0,0,0,1.252.564c.179-.355.579-.481.6-1-.6.157-1.677-.16-1.849.435m-7.17.9a.788.788,0,0,0,1.31-.625c-.673-.033-1.259.022-1.31.625M55.932,149.829a4.225,4.225,0,0,0,2.57-.235c.04-1.453-2.85-1.44-2.57.235M686.045,183.1c-3.308-.8-7.584.29-10.814.742-.614.2-.346,1.311-1.159,1.315a29.409,29.409,0,0,0-6.7-1.3c-.992,1.607-3.569,1.592-6.284,1.443-.512-.233.912-1.018-.126-1.2-2.729.28-6.249,1.08-9.92,1.124a14.618,14.618,0,0,0-1.824-.077c-1.821.255-3.139,1.823-4.83,1.676a3.589,3.589,0,0,0-3.244-.988c-.78.192-.118.747-.777.992-.579.059-.028-.848-.7-.71-3.622-.088-7.636,1.33-10.608.241-1.57,1.135-4.324,1.06-6.65,1.428-.559.411.43.848-.055,1.192-1.131-.513-1.974.234-3.106.04-.744-.128-1.195-.826-1.964-.936-1.853-.255-3.692,1.212-5.68.279a7.67,7.67,0,0,1-4.981.986c-.022.45.054,1.007-.412,1.009-2.293-2.069-5.965.24-8.38-.517-1.323.8-3.46.284-4.99,1.153-.844-.671-1.459-.617-2.7-.8-.355.291-.269,1.038-.786,1.162-1.931-.29-3.144-.1-4.155-1.024a8.909,8.909,0,0,1-2.575.4c-.813,1.134-2.313,1.567-3.581,2.241-.751-.068-.521-.968-1.416-.914-1.164.467-2.143-.245-3.275-.306-1.026.63-1.571,1.408-3,1.58-1.137.136-2.481-.449-3.49.366a3.743,3.743,0,0,0-2.582.574c-.157-.3-.553-.4-1.081-.383-.711-.075-.705.588-1.482.449-1.011-.061-.677-1.272-1.768-1.266-1.445.267-2.177,1.106-3.87.692-1.283,1.219-3.356,1.056-5.178,1.318-.827.121-1.31.528-2.212.421-.735-.085-1.234-.689-1.977-.763-1.289-.13-2.452.793-3.661.191-.872.3-1.222,1.812-2.286,1.949-1.141.15-1.51-.532-2.5-1.127a6.847,6.847,0,0,0-3.325.715c-.892-.354-1.449.017-2.552-.106-1.353.7-2.839,1.266-4.118,2.046a6.362,6.362,0,0,1-.672-1.222,6.773,6.773,0,0,0-3.7.869c-2.24-.907-4.126.621-6.032.091-.772.781-1.919.469-3.136.553-1.564.109-3.042,1.011-4.606.833-.75.3-.851,1.272-1.886,1.282-.76.1-.306-.827-1.066-.723-.709.734-1.431-.123-2.369-.1-1.246.032-2.645,1.191-3.672.359-1.6.394-2.224,1.779-4.285,1.7-.966-.383-.862-.95-1.774-1.1-1.438-.228-3.124,1.4-4.582.322-2.2,1.376-6.171.171-8.637,1-.473.305.339.9-.412,1.008-1.649-1.187-4.189-.021-6.184-.6-1.26.794-3.613-.121-4.8.995-.43-.177-.449-.7-1.255-.564-1.444.65-3.19.5-4.966.646-1.048.085-2.094.552-3.13.553-.436,0-.844-.256-1.268-.223-.257.021-.608.272-.927.3-.4.035-.783-.1-1.1-.046-2.079.365-2.654,1.623-4.3,2.034-1.295-.511-2.691-1.18-4.17-.683-.527.18-.219,1.2-.969,1.152-1.331-1.684-3.587-.468-4.773.486-1.8-.681-2.53.886-4.592.49-.636-.163-.418-1.056-1.228-1.073-1.193.152-1.774.926-2.627,1.426-.708-.1-.454-1.029-1.419-.912-2.336.712-5.487.589-8.09,1.027-.909,1.094-2.945,1.041-3.932,2.052-2.821-.972-5.866-.366-8.414.166-.787-.091-.778-.862-1.791-.756a3.408,3.408,0,0,1-3.7.869c-1.151,1.217-3.214.5-4.972.815-.481.086-.81.435-1.3.46-1.256.06-2.669-.663-3.664.188-.657-.84-1.419-.614-2.887-.8-1.667,1.3-4.557,2.562-6.994,1.073a8.762,8.762,0,0,1-3.362,1.563c-1.089.12-2.221-.187-3.284-.134-1.655.082-3.1.769-4.618,1-.475.075-1-.118-1.456-.061a10.274,10.274,0,0,0-1.858.606c-.467-.471-.759-1.091-1.965-.933-1.007.231-.218,1.194-1.341,1.309-1.077.1-1.111-.685-1.973-.765a13.865,13.865,0,0,1-5.32.462c-2.885-.13-4.749,1.737-6.482,1.776-.929.021-1.744-.7-2.712-.624-.73.057-.814.51-1.674.612-3.726-.848-6.589.627-9.033,1.672-.724-.2-.808-.943-1.782-.924-.932.177-1.193,1.042-2.246,1.1-.8-.2-.935-.514-1.616-.581-1.346-.131-2.633,1.184-3.849.181-1.419.534-3.725,1.394-5.329.634-.753.369-1.125,1.431-2.269,1.61-1.4.219-2.209-.426-3.241-.986-2.246.964-5.495.167-7.717.872-.721.228-1.138.978-1.88,1.117-1.549.281-2.968-.423-4.228.506-.7-.06-.235-1.109-1.042-1.068-2.024.617-5.07.187-7.163.727-.523,1.989-2.969,1.088-4.031.174a7.037,7.037,0,0,1-4.052.683c-.535.228-.436,1.1-1.323.968-1.47-1.139-3.433-.231-5.656-.234-.615,1.01-2.715,1.8-3.115.213-2.3.63-5.469.368-7.376,1.4-1.765-1.248-3.593.451-5.327.631a12.872,12.872,0,0,1-1.453-.231c-2.393-.036-4.5,1.254-6.653,1.6-.768,0-.524-.858-1.428-.74a6.607,6.607,0,0,0-2.609,1.087c-1.71-1.376-4,.584-6.008-.419-.766-.07-.8.613-1.493.619a8.384,8.384,0,0,0-2.545-.277,3.762,3.762,0,0,1-1.492.62c-1.208-.4-2.269.447-3.678.529-1.6.093-3.432-.4-5.106-.21-1.035.114-1.73.893-2.77.566-.663.334-.954,1.046-1.879,1.117-.738-.3-1.007-.885-1.785-.926-.671-.04-1.151.638-2.045.767-1.262.182-2.364-.274-3.831-.159a3.784,3.784,0,0,1-1.49.62c-2.512-.422-3.647.561-5.172,1.149-2.936-1.458-5.735.766-9.158.471-1.662,2.452-4.966.288-7.892.7-.659.621-.509,1.333-1.54,1.641-.959.284-2.428-.446-3.3.2-.771-.794-2.663-.609-4-.5-.66.216-.774.993-1.34,1.308-2.163.032-2.932.462-5.308.121-1.189,1.077-3.368.96-4.97.815-.954,1.1-3.95.8-5.493.286-2.13,1.408-6.076.2-8.465,1.183-1.014.415-1.1,1.566-2.261,1.439-.6-.085-.164-1.055-1.054-.894-1.813.926-3.738.208-5.526.963-.317-.166-.2-.7-.889-.547-1.547.206-2.115,1.41-3.551,1.727-.817-.513-1.4-1.117-2.517-.957-.893.127-.859,1.059-1.7,1.124-.809.146-.572-.6-1.252-.563a3.7,3.7,0,0,1-2.073,1.276c-1.34-.855-2.3-.237-3.835.014-.364.1,0,.949-.417,1-1.3-.138-3.147-.656-4.551-.359-1.039.22-1.286,1.124-2.07,1.276-2.758-.513-4.921.854-6.748-.279a20.493,20.493,0,0,0-2.635,1.595,5.8,5.8,0,0,0-5.156.811c-.424-.018-.85-.038-1.274-.053-1.967,1.308-4.685.882-7.562,1.39-1.589.281-3.1,1.394-4.274,1.527-1.638.184-3.807-.83-4.442,1.18,2.784.375,5.8-.488,8.271-1.021,4.885,1.283,9.049-1.073,13.585-1.312.847-1.332,1.991-.662,3.507-.706,1.247-.038,2.6-.644,4.052-.685.508-.014,1.141.138,1.64.07.578-.078,1.11-.495,1.676-.613,1.016-.214,2.291-.358,3.5-.536,2.321-.344,5.051-.35,6.987-.905.609-.174.945-.571,1.492-.62a14.189,14.189,0,0,1,1.634.238,21.7,21.7,0,0,0,3.861-.521c.415-.06.848.1,1.277.053,2.618-.326,5.366-.869,7.915-1.2,2.521-.333,5.126-.3,7.524-.712a12.9,12.9,0,0,1,3.136-.549c.621.038.152-1.034.775-.993.42.132.606.461.878.719,1.779-.578,3.655-.313,5.7-.619.444-.065.857-.364,1.3-.455,1.395-.291,2.941-.475,4.418-.669.473-.066.992.1,1.459.06,1.62-.145,3.245-.889,4.979-.988,3.5-.2,6.543-.886,9.746-1.3,1.144-.15,1.709-.341,2.4-.414.288-.032.8.226,1.087.214,1.287-.045,2.537-.518,3.87-.692,1.891-.247,4.064-.146,6.05-.432.647-.091,1.214-.4,1.847-.435.615-.032,1.223.138,1.824.077.563-.057,1.132-.377,1.665-.443,1.925-.233,3.817-.088,5.529-.964,2.818.935,6.065-.885,8.976-.481.721-.568.95-1.307,2.08-1.446,1.232-.152,2.316.577,3.242.985,2.24-.694,4.691-.315,6.97-.561,1.231-.135,2.473-.624,3.687-.7,2.806-.174,4.679-.56,6.979-.734,4.652-.35,9.14-.925,13.767-1.3,1.266-.855,3.46-.611,4.781-.653,2.236-.077,4.54-.846,6.815-1.082,1.953-.206,3.949-.012,5.86-.269,1.2-.162,2.3-.561,3.505-.706.348-.042.836.109,1.278.053.315-.04.62-.288.924-.3.33-.02.792.206,1.087.212,1.674.042,3.3-.531,4.966-.645,1.18-.079,2.266-.142,3.115-.212,2.978-.247,5.621-.471,8.247-.51a23.393,23.393,0,0,0,3.681-.529c2.932-.362,6.04-.13,8.983-.651.4-.072.75-.394,1.12-.465,1.616-.313,3.183.01,4.764-.313.5-.086.487-.691,1.128-.635,1.582.96,3.008-.089,4.584-.323,1.174-.173,2.563-.024,3.844-.181.923-.109,1.741-.482,2.587-.575,1.017-.109,2.133.06,3.109-.04,1.407-.142,2.687-.632,4.052-.684,3.1-.116,5.129-.734,7.715-.871,2.694-.148,4.306-.722,6.44-.929,1.374-.134,2.858.206,4.2,0,.378-.056.7-.375,1.117-.464,1.189-.256,2.493-.006,3.665-.189.968-.153,1.834-.993,2.76-.4.963-.681,2.04-.443,3.5-.538,2.169-.141,3.916-.745,6.076-.943,2.62-.235,4.893-.549,6.8-.737a48.627,48.627,0,0,1,6.786-.573c1.195-.8,3.911-.059,4.807-1.166,1.308.472,3.071.226,4.749.028,1.37-.162,2.827-.609,4.234-.674,2.022-.1,3.26-.4,4.776-.486,1.752-.107,2.455-.02,3.323-.715,1.213.5,2.342-.107,3.484-.2,3.622-.277,7.231-.408,10.814-.744.575-.054,1.107-.226,1.658-.272,2.461-.2,4.24-.525,6.247-.763,3.472-.417,7.081-.394,10.129-1.627,6.153.077,11.6-1.009,17.968-1.3.408-.646-.258-1.531,1.16-1.315.895.176-.7,1.01.5,1.043,1.1.233.524-1.244,1.514-1.131,4.531.235,6.976-.592,10.484-1.44.647-.008.321.815,1.06.727,1.011-.035,2.936.887,4.551.361.535-.245-.339-.812.23-1.016.836-.059.447.926,1.238.9,2.654-.208,5.281-.442,7.72-.872.611-.149.612-.919,1.495-.79.647.046.635.656,1.435.571,2.049-.418,4.652-.726,6.256-.933,1.2-.156,2.524,0,3.663-.191.721-.118,1.338-.5,2.042-.595.957-.132,1.986.077,2.927-.051,1.465-.2,2.969-.853,4.431-1.009,1.484-.16,3.015.061,4.392-.159a11.184,11.184,0,0,0,1.117-.465c1.855-.5,3.81.107,5.521-.794a1.63,1.63,0,0,1,1.084.215c1.162-.7,2.885-.479,3.867-.52,1.94-.086,3.813-.935,5.715-1.127.642-.067,1.3.142,2.007.084a67.826,67.826,0,0,0,7.914-1.206,7.8,7.8,0,0,0,2.561-.065c2.1-.184,3.991-.226,5.869-.439,2.34-.263,4.748-1.114,6.636-1.258,1.414-.109,2.766.2,4.022,0,.33-.053.69-.364,1.12-.467.33-.078.824-.032,1.1-.124.548-.181.854-.556,1.49-.618.875-.089,1.913.408,2.729.284a2.719,2.719,0,0,0,1.7-1.124c.512.05.188.818.878.72,1.541-.8,3.614-.1,5.495-.286.765-.077,1.571-.474,2.4-.581,2.24-.294,5.245-.382,7.154-.557.617.038.32-.861.951-.812.5.171.63.659,1.244.734,3.209-.774,7.614-.326,10.486-1.443,4.591.28,8.977-1.188,13.939-1.126a12.631,12.631,0,0,1,1.676-.612c1.9.351,4.433-.326,6.968-.564,2.3-.215,4.841.284,5.534-1.133.487.238.614.78,1.429.738a14.8,14.8,0,0,1,4.766-.312c.944.015,1.9-.309,2.942-.39.651-.05,1.338.118,2.009.085,3.1-.157,6.5-.837,9.364-.978.63-.028,1.249.167,1.823.077.611-.095,1.228-.564,1.855-.607.748-.045,1.9.489,2.727.287.545.018.641-.417,1.12-.465,1.812.628,3.774-.173,5.678-.277.838-.045,1.738.134,2.552.106,1.213-.043,2.313-.421,3.5-.535,1.61-.159,3.184.106,4.749.024,1.42-.071,2.891-.547,4.234-.674.763-.077,1.543.378,2.206-.251-.2-.738.054-.841.081-1.7-1.36-.524-3.124-.007-4.22.336M560.188,201.4c.62-.018,1.471.2,1.831-.093-.031-1.02-1.4-.1-1.831.093m-59.739,7.413c-.233-.021-.243-.228-.541-.194-.3.4.6.525.541.194m-8.622.662-.909-.036c-.358.8,1.132.669.909.036m-39.3,4c.35-.059,1.089.279.931-.3-.453-.043-.886-.067-.931.3m-11.951,1.549c-.588-.539-.582.606,0,0M237.047,237.44c.354-.059.79-.032.754-.482l-.73-.031c-.008.171-.015.341-.024.513M24.088,235.258c.6,1.479,3.209.33,3.855-.35a9.761,9.761,0,0,0-3.855.35M602.379,17.718c-.462.6-.612,1.517-1.718,1.463-.839.011-.78-.748-1.419-.911-1.192.472-2.258-.029-3.313.545-.39-.159-.6-.467-1.262-.393-1.281.281-2.276.832-3.852.351-.7.006-.727.685-1.494.621a5.153,5.153,0,0,0-3.1-.13c-.641-.267-.932-.834-1.589-1.089-.272.99-.99.017-1.644-.068-.589.056-.542.752-1.134.807a8.609,8.609,0,0,1-2.322-1.119c-.126.347.172,1.126-.238,1.183a8.839,8.839,0,0,0-3.284-.137c.1,1.112-.336,1.677-1.183,1.826a3.747,3.747,0,0,0-2.735-.113,4.8,4.8,0,0,0-4.346-.862c-.765-.053-.842-.7-1.61-.749a22.516,22.516,0,0,1-6.207-.086c.006.7,1.362.255,1.038,1.236-.845.408-1.232-.294-1.991-.422a13.665,13.665,0,0,0-4.212.166c-.824.124-2.089-.17-2.4.582.464.568,1.758-.449,1.991.423-1.017.178-.791,1.436-1.186,1.825-.812.043-.187-1.145-1.042-1.064a13.509,13.509,0,0,1-2.745.056c-.353-.656-2.042-2.225-2.52-.787-.046.638,1.287.1,1.243.733a7.108,7.108,0,0,1-2.6.917c-1.991-1.194-5.069.639-7.07-1.146-1.21.557-3.683-.28-4.231.507.1.457,1.007.234.874.889a11.588,11.588,0,0,0-3.465-.143c-.73.149-1.374.84-2.054.937a4.722,4.722,0,0,1-3.605-1,6.135,6.135,0,0,1-2.215.419c-.423.44.545,1.757-.113,2.382-.509-.819-1.165-1.509-1.718-2.286-1.561.319-3.012-1.616-3.481.2-.448.187.844.242.694.71a7.871,7.871,0,0,1-4.416.67c-.881-.155-1.525-.95-2.51-.957-.545,0-.76.439-1.479.28-.04.536.439,1.034-.411,1.006-.6-.028-.14-.97-.491-1.213a15.544,15.544,0,0,0-2.207.249c-.013.338-.028.68-.046,1.021a20.278,20.278,0,0,1-4.8.993c-.157-.521-.324-1.028-.477-1.553-1.377.417-1.755,0-3.281-.137-.807.436-.387,1.436-.454,1.857a8.456,8.456,0,0,1-3.465-.143c-1.259.857-3.413.8-5.344.971-.757-.769-2.152-.993-3.222-1.495-.411.528-1.474.4-1.695,1.121-.942-.262-2.294.485-3.673.359-.314.215-.179.886-.771.82-1.456.046-1.585-1.045-2.3-1.63-.757-.057-1.141.266-1.144.974.154.471,1.519-.1,1.435.573a12.14,12.14,0,0,1-2.611,1.084c-1.169-1.276-3.074.733-3.789-1.009a3.893,3.893,0,0,0,1.117-.465c-.224-1.123.439-1.339.645-2.018a4.5,4.5,0,0,0-3.108.042c-.344.553.055.759-.075,1.529-.412.233-1.22.065-1.48.45-.037.7.258,1.649-1,1.835-.781-.149-.665-1.067-1.594-1.089-.823-.125-1.108.3-1.665.444-.378-.116-.5-.443-1.077-.387-1.562.67-3.3-.013-4.939.135-1.547.141-2.989.949-4.419.67-1.54-2.229-2.985,1.23-5.5.284-.6.4-.815,1.191-1.358,1.649a7.763,7.763,0,0,0-5.535,1.132c-.406-.362-.95-.606-1.038-1.237.32-1.041,1.792-.908,1.753-2.312-.545-.623-2.276-.233-3.076-.639-.563.018-.348.836-1.125.635-.766-.162-1.494-.358-1.782-.925.391-1-.5-1.741-.269-2.056.579-.06.629.333,1.266.223a.813.813,0,0,1,.6-1c3.584,1.861,7.481-.595,11.672.483.574-1.024,2.19-1.015,2.95-.561.145.861-.847.567-.969,1.153,1.334,1.343,2.987.187,4.228-.507.219-.428-.517-.833.049-1.02a29.818,29.818,0,0,1,5.71-.957,8.059,8.059,0,0,1,.88.719c2.578-.414,5.557-1.6,8.438-.673a5.556,5.556,0,0,1,4.052-.684c1.486-1.1,4.739-.4,6.105-1.621.545.3.565,1.042,1.413,1.08a16.8,16.8,0,0,1,4.607-.83c.65-.11.515-1.02,1.325-.968.091.52.239.993.863,1.059a3.33,3.33,0,0,1,2.563-.064,22.253,22.253,0,0,1,10.457-.931c.777-.914,2.049-.242,3.141-.722-.081.694-.78.865-.437,1.514,2.028.107,1.522-2.374,3.926-1.882.511-.9,1.652-1.492.672-2.528-1.1.226-2.231.873-3.522,1.048a25.958,25.958,0,0,0-3.858.351c-.88.259-1.434.837-2.233.929a10.764,10.764,0,0,1-3.087-.468,11.027,11.027,0,0,1-4.409.5c-1,.761-2.932.577-4.25,1.017-.2-.262-.123-.766-.7-.712a16.325,16.325,0,0,1-5.847-.071c-.75.067-.769.878-1.68.781-3.047-.673-5.553.6-7.742,1.383a4.25,4.25,0,0,0-2.881-.8c-.612.057-1.035.483-1.677.612-1.241.248-2.732-.06-3.678.529-1.453-1.028-3.071.5-5.108-.212-.32.091-.022.807-.4.836a18.728,18.728,0,0,0-2.911-.291c-.565.049-1.074.464-1.667.443a10.429,10.429,0,0,1-1.262-.393c-2.206-.488-2.848.733-4.265,1.355a2.674,2.674,0,0,0-2.181-.262c-.582-.263-.435-1.151-1.41-1.08a16.064,16.064,0,0,1-7.569,1.562c-.427.1-.514.545-.942.644-.473-.249-.509-.873-1.235-.9-1.077.688-2.734.366-4.02,0-.826.11-1.047.837-1.871.946a13.7,13.7,0,0,0-7.347.719c-.579-.266-.433-1.152-1.411-1.081-.708-.013-.363,1.054-.966,1.152-1.2.213-2.34-.228-3.465-.143-1.22.092-2.148.681-3.132.552-.842-.11-1.367-.807-2.157-.772-.951.043-1.676.882-2.261,1.442-.548-.241-.883-.663-1.61-.749-1.356.4-3.56-.063-4.425.84-2.406-1.868-3.7,1.7-7.169.9-1.225-1.556-3.305.143-4.527-.869a8.988,8.988,0,0,1-4.664,2.023c-1.193-.265-1.531-.8-2.554-.106a1.281,1.281,0,0,0-1.062-.726c-1.383.276-2.552.075-3.862.521-.682.233-1.113.794-1.873.946-1.582.313-3.25-.143-4.933-.033-1.21.079-2.548,1.06-3.853.351-.355.054-.175.653-.754.481-.814-.72-3.133-.155-3.98-.847-.671.249-1.555,1.091-2.243,1.1-2.921.038-6.574,1.347-8.994.819-.88.649-2.724.316-3.873.692-.733.138-.523-.531-1.259-.394-.7,1.007-2.7.69-3.369,1.737a15.021,15.021,0,0,0-2.216.418c-.094-.3-.866-.022-.893-.377-1.125.816-2.506.1-4.028.174-1.891.095-4.452,1.262-5.892.95-.517.128-.475.826-1.137.805-.122-.6-.723-.8-1.42-.911a18.91,18.91,0,0,1-6.812,1.08,4.112,4.112,0,0,1-2.948.56c-.563.26-.726.928-1.335,1.139-.511-.053-.19-.819-.878-.72-.66.16-.651,1-1.507.961-.708-.269-1.423-.531-2.158-.77a13,13,0,0,1-2.4.579,18.823,18.823,0,0,1-2.579.405c-.261,0-.608-.248-.9-.208-1.007.141-1.958.793-2.966.9-.421.043-1.039-.254-1.452-.231-.575.026-1.2.39-1.849.433-2.6.177-4.349.815-6.78.4-1.425.925-3.628,1.056-5.9,1.117-1.141,1.584-3.027.917-4.981.988-.257.01-.326.266-.563.316-.338.075-.827-.111-1.093-.043-.36.089-.682.5-1.128.634-1.154.357-2.149-.118-3.29.035-1.074.143-1.868,1.024-2.791,1.077-1.2-.677-2.82-.157-4.377-.181-.385.249-.455,1.407-1.137.805-.566-.327,1.22-1.046-.124-1.2a5.94,5.94,0,0,1-1.921,1.967c-1.423-1.47-3.671-.092-5.838-.242-.3.233-.184.882-.769.822-2.207-1.2-3.553.827-6.035.089-1.12.819-3.4.46-4.624,1.171-.639.111-.689-.281-1.268-.221-.391.135-.349.71-.944.642-.817.1-1.084-.273-1.816-.247-5.429.826-11.137,1.369-16.376,2.389-.674-.187-.917-.74-1.982-.592-.366.1,0,.95-.415,1a32.218,32.218,0,0,0-6.621.919c-.6.155-1.12-.149-1.64-.065-.3.043-.614.4-.936.469-.5.11-.86.021-1.284.118-1.216-.7-3.015-.639-4.725-.536-.518.779-1.32,1.269-1.747,2.142-.6-.084-.787-.528-1.626-.408-1.181.033-1.977.6-3.132.552-.793-.035-1.632-.6-2.528-.617-1.691-.025-3.192,1.354-5.2,1.66-.9.138-2.151-.081-3.106.042-1.207.156-1.839.662-2.744.057a3.731,3.731,0,0,1-4.035.344c-1.31,1.145-2.8.85-4.616,1-1.711.141-3.6.71-5.686.446-.762-.1-1.474-.581-2.354-.439-.228.364-.09,1.1-.606,1.169a10.557,10.557,0,0,0-3.87.691c-2.083-.28-4.782.355-6.8.741a3.483,3.483,0,0,0-4.972.816c-1.52-.641-3.059.265-4.592.493-2.2.323-4.512.17-6.264,1.1-.769-.642-2.79-.215-4.173-.683-1.635,1.4-4.492.49-6.812,1.08-.351.358-.233,1.191-.8,1.333-1.293.553-2.267.025-3.265-.478-.933.326-1.915.11-2.944.39-.674.184-1.128.72-1.864.774-.627.046-1.628-.4-2.534-.446-.246-.01-.7.171-.921.132-.4-.071-.635-.366-1.08-.386-2.561-.113-4.757.8-7.349.889-.884,1.8-2.959,2.445-5.212,2-.148-.673.451-.971.066-1.36-4.628.084-9.068,1.259-13.047,1.5a8.969,8.969,0,0,0-1.64-.068c-.941.244-1.571,1.328-2.454,1.6s-1.761-.019-2.569.234c-.924,1.614-4.08.953-6.622.919-.62.166-1.128.818-1.871.944-1.2.208-2.566-.359-3.838.013-1.186.344-2.03,1.5-3.537,1.387a11.942,11.942,0,0,0-3.79-1.01c-.306.283-.139,1.05-.6,1.169-2.581-1.254-4.115,1.212-6.782.4-1.259,1.08-2.935,1.467-5.344.971-2.27,1.907-6.642,1.672-10.683,1.773-.5.2-.691.723-1.142.976-.968-.155-1.825.578-2.776.734-2.057.341-4.315-.3-6.4.078-.512.091-.886.51-1.31.627-.3.081-.7-.117-1.093-.045-.8.146-1.649.825-2.769.566a2.656,2.656,0,0,1-2.767.567c-2.472.929-6.258.517-8.661,1.516-.236.744.267.861.3,1.378-1.114.589-2.841.553-3.9,1.2-.727.024-.9-.432-1.626-.408-.683,1.268-2.8,1.064-4.1,1.705-.214.671.52.536.308,1.2-.453.313-1.3.221-1.5.79,1,.39.093.893.1,1.709.829,2,4.352-.166,5.4,1.758A22.223,22.223,0,0,1,13.2,87.9c-1.6,1.453-1.169,4.191-2.639,5.513.036.808-.379,1.158-.279,2.035-.572.96-1.965,1.085-2.649,1.935,1.423-.191,2.048.029,2.322,1.117-1.594.933-4.286.744-4.706,2.875a7.368,7.368,0,0,0-1.293.284c1.246,2.19,3.362.049,5.139-.467a19.262,19.262,0,0,1,2.388-.241c.354.465,1.035,1.316.83,1.738-1.532,1.468-3.943,2.043-5.468,3.524.494.174.5.769.674,1.219.639.27,1.815.084,1.592,1.088-.677,1.123-2.678.832-3.9,1.373-.381.169-.457.673-.944.642a3.824,3.824,0,0,0-1.856.6c-.453.726-.058,1.52-.114,2.383-.688.426-1.746.478-2.071,1.276,1.492,1.29,3.562-.96,5.148-.638a2.4,2.4,0,0,1,1.71,2.454,3.747,3.747,0,0,1-2.188-.091,7.748,7.748,0,0,0-1.913,1.8c1.384,1.97,3.9-.313,5.835.242A1.577,1.577,0,0,1,8.2,119.9C4.87,120.428,2,121.418,0,123.311a3.667,3.667,0,0,0,1.535,2.278c3.248.306,4.682-1.881,7.385-1.568,1.933-2.013,6.389-1.453,8.732-3.046l1.461.06c1.356-.422,3.841-1.329,4.973-.818a7.226,7.226,0,0,1-5.952,2.14c-1.2,1.273-4.061.854-5.393,1.993-1.673-.04-2.478.8-3.886,1.031a7.841,7.841,0,0,1-.264,1.7c-.478.352-1.676.7-1.343,1.308.677.131,1.942-.242,1.8.585.178.6-1.068,1.12-1.538,1.641-.5,1.453-1.789,2.1-2.533,3.3-.414-.067-.688.013-.745.308,2.139-.24,4.863-.719,6.746.281.4.258.315.926.863,1.059,1.116.244,1.328-.432,2.387-.242.151.306.418.514.508.873a1.767,1.767,0,0,0-.669,2.528,7.973,7.973,0,0,1-1.731,1.8c.666,1.514,3.805,1.3,4.917.376.4.475,1.738.145,1.974.763.573,1.67-1.8,2.308-1.041,2.682.936.061,1.635.527,2.528.617,2.824.288,4.917-.669,6.994-1.073,1.051-.206,2.089-.038,2.935-.221,1.326-.287,2.316-.738,3.513-.878a10.575,10.575,0,0,1,2.015-.086,7.262,7.262,0,0,1,1.31-.625c5.595-.242,9.527-2.18,15.1-2.443,1.413-.7,3.531-.681,5.518-.794.441-.624,2.17-.876,3.124-.383-.036.437-.789.149-.587.832,1.68.223,3.471-.383,4.924.2-.747.781-1.734.345-2.775.737-.895.332-1.408,1.209-2.263,1.44-1.02.273-2.139-.091-3.117.21a11.683,11.683,0,0,0-1.317.8c-1.507.681-3,.9-4.457,1.521-.568,1.467-1.314,2.684-.759,4.4,2.643.623,6-1.712,8.216.169,0,.529-.478.946-.066,1.362-1.305.046-1.05,1.334-1.547,1.811a19.964,19.964,0,0,0-5.86.267,2.172,2.172,0,0,1-1.383,2.161c.124,1.015-.433,1.683-.112,2.379,1.308.405,2.312,1.075,3.583,1.514-.548.51-1.877.227-2.587.573.376,2.109-1.629,1.787-1.629,3.51.184.662,1.408.429,1.594,1.092-.829.343-1.063,1.293-1.556,1.979,1.11,1.471.612,3.436,1.405,5-.623.255-1.611.141-1.514,1.13a6.2,6.2,0,0,1,3.407,1.334c-.73.5-.479,2.007-1.041,2.682,1.656,1.066,1.834,4.2-.766,4.57a10.282,10.282,0,0,1-.518,3.218c.436.823,1.8.861,1.726,2.117-.33.853-2.133.2-2.6.915.145,1.724,2.548,1.523,3.532,2.535.993-.359,3.044-1.134,4.037-.347-.441,1.1-2.167.88-3.347,1.224-.17,1.373-1.937,1.117-2.651,1.936.432.964.154,1.516.236,2.736-.809.843-3.166.1-3.54,1.389.308.717,1.395.769,1.95,1.272a13.191,13.191,0,0,0-1.01,2,24.433,24.433,0,0,0,1.544,2.109c-1.151.612-3.313.191-4.077,1.2-1.1-.574-3.215.389-4.425.84-1.284-.2-3.175.1-3.363,1.564.139.045.2.152.167.348,2.651.472,4.831-.995,7.541-1.052.151.308.659.309.7.713-.423.7-.122,2.133-1.026,2.342-1.816-.185-2.521.759-3.363,1.564-.853.142-2.086-.1-2.4.582.1,1.446,1.855.71,2.3,1.631-.352,1.348-1.953,2.18-3.4,2.414-.539.088-1.066-.1-1.641-.068-2.593.162-4.96,1.8-7.218,1.917.569,1.36-.588,1.493.236,2.737-2.482.738-5.377,1.059-7.591,2.07-.333-.209-1.514-.091-1.49.621,4.512.433,7.817-1.9,12.339-2.045.485.946,1.559,1.39,2.085,2.3a11.06,11.06,0,0,1-4.649,1.684c-.6.571-1,1.358-1.731,1.8-.8.125-2.045-.156-2.927.05-.723.171-1.921.805-1.331,1.138a3.92,3.92,0,0,1,2.378-.068c1.3-.462,2.234-1.294,4.252-1.02a4.081,4.081,0,0,1,3.33-.885c.939-.5,4.1-1.624,4.758-.143-.469.472-1.479.394-2.4.411A27.358,27.358,0,0,1,31.5,225.51a8.24,8.24,0,0,1-6.141,2.3c-.984.9-2.614,1.141-3.917,1.713.024,1.45-1.453,1.373-1.589,2.661,4.794-.185,8.774-1.842,13.1-2.7,1.222-.238,2.575-.1,3.853-.347,1.361-.265,2.8-1.374,4.436-1.013a5.956,5.956,0,0,1,3.7-.871c.859-.8,2.037-.382,3.132-.552,1.228-.187,2.393-.808,3.7-1.039.333-.058.723.1,1.095.047,1.492-.2,3.033-.71,4.606-.832a6.19,6.19,0,0,1,3.275.3c-2.89,1.992-7.057,1.575-10.9,2.449-1.8.408-3.611,1.28-5.371,1.482-.539.059-.974-.149-1.459-.06-1.776.323-3.319,1.311-5.014,1.666-1.044.217-2.209,0-3.115.213-.872.206-1.317.791-2.23.759-.895,1.525-3.652,1.151-4.165,3.065,1.661.659,2.579-.756,4.234-.677a1.891,1.891,0,0,1,.856,1.229c-.66,1.113-2.576.939-3.9,1.373-.527.414-.7,1.19-1.175,1.655-2.058.814-5.067.662-5.8,2.828,1.192.426,2-.511,3.29-.033.6-.039.412-.89,1.137-.805,2.231-.1,3.574-1.241,5.708-.957a8.317,8.317,0,0,0,2.473,1.805c.972.178,1.511-.283,2.188.092.288.405,0,1.308.475,1.555,1.016.451,2.752-.169,3.623.662-.733.858-1.592,1.585-2.31,2.46-1.635.3-3.572.281-4.276,1.528,4.179,1.808,7.345-.577,11.355-.553,1.005-.947,3.411-.769,5.141-.471a9.1,9.1,0,0,1,5.17-1.149c.293.351.9.43.672,1.223-1.268.809-3.192-.268-4.606.832-.6.44.541.749-.058,1.19a15.113,15.113,0,0,1-6.416.417c-.17.776-.78,1.107-1.174,1.656,2.4-.581,4.506.429,6.748.28.68-.047,1.541-.309,2.4-.414a25.431,25.431,0,0,0,4.972-.815c.544-.2.723-.564,1.31-.63.892-.1,1.8.361,2.727.283a16.747,16.747,0,0,0,3.7-1.036c2.231.946,4.27-.031,6.407-.247,2.443-.248,4.963-.231,6.812-1.082.784.52,1.473-.215,2.2-.249.774-.036,1.562.309,2.364.267a23,23,0,0,0,2.593-.745,27.333,27.333,0,0,1,3.127-.38c1.974-.106,2.924-.306,4.407-.5,1-.13,2.015-.036,2.933-.219.333-.064.612-.39.938-.471a30.931,30.931,0,0,1,6.423-.588c3.638-1.286,8.8-1.01,12.182-2.562a3.257,3.257,0,0,0,1.268.224c1.289-.755,2.884-.362,4.418-.673.668-.131,1.344-.623,2.046-.766.363-.071.907.092,1.277.053.95-.1,1.859-.6,2.775-.738,3.628-.545,7.553.018,10.666-1.432a16.128,16.128,0,0,0,6.068-.772c2.067.773,3.956-.85,6.035-.089a3.433,3.433,0,0,1,2.758-.4c.993-.965,2.749-.362,4.409-.5.78-.065,1.573-.476,2.4-.584,2.179-.284,4.471-.244,6.606-.579,1.019-.907,3.384-1.244,5.156-.807.684-.079.778-.754,1.5-.791l2.188.088c1.125-1.347,3.044-.2,4.584-.319,1.092-.084,1.365-.575,2.236-.929,1.948.212,3.487-1.126,5.363-1.314,2.018-.2,4.351.975,6.049-.43a7.094,7.094,0,0,0,2.92.12c1.18-.049,1.455-.336,2.394-.411,2.071-.164,3.124-1.406,5.314-.291,1.661-.552,3.723-1.289,5.884-.777.805-.961,2.57-.286,4.044-.515,1.014-.156,1.244-.8,2.055-.937,4.634.586,8.026-1.674,11.911-.7a21.63,21.63,0,0,1,7.343-.719c.588-.056.675-.624,1.31-.63,2.794-.241,5.672-.4,8.263-.851.376.116.5.444,1.078.387,1.449-.766,2.76-.233,4.4-.329.721-.043,1.543-.458,2.4-.581,1.371-.2,2.34-.3,3.307-.376.548-.045,1.12.11,1.643.068,1.008-.077,2.688-.62,3.322-.712a37.023,37.023,0,0,1,4.2,0c.781-.049,1.559-.513,2.4-.581,1.456-.116,3.3.255,4.758-.145.574-.156.865-.685,1.5-.791a4.83,4.83,0,0,0,.886.552c1.677-1.029,5.166-.206,7-1.074.429.013.521.315,1.087.216.962-.981,3.416-.443,4.8-.995,2.82,1.167,5.232-.71,8.222,0,.484-.224.809-.6,1.317-.8,1.8.177,2.994-.833,4.76-.145,3.129-1.659,7.724-.773,12.118-1.2.673-.145.877-.766,1.507-.96,1.289-.327,2.112.393,3.265.475,2.191.162,4.165-1.294,6.639-1.258a12.852,12.852,0,0,0,2.548.276c1.516-1.713,4.144-.852,6.265-1.1.99-.116,1.994-.566,3.139-.72,1.184-.159,2.529-.142,3.671-.361,2.753-.529,7.275-.433,9.566-1.305,1.888.233,3.81-.376,5.875-.611,3.263-.373,6.8-.762,9.921-1.121a8.056,8.056,0,0,1,3.1.128c.32-.745,1.729-.377,2.761-.4,1.28-1.048,2.915-.475,4.415-.666.438-.059.874-.366,1.3-.461,2.194-.488,4.8-.6,7.172-.894,1.039-.134,2.089-.238,3.121-.384a26.919,26.919,0,0,1,4.776-.482c2.061.11,3.432-.579,5.336-.8,3.032-.354,6.123-.447,9.174-.815.565-.068,1.044-.359,1.67-.442,1.337-.178,2.9.064,4.207-.166.514-.091.948-.394,1.484-.45,2.948-.3,5.992-.213,8.8-.659.818-.131,1.584-.508,2.4-.584,1.278-.118,2.345-.145,3.117-.208,2.44-.2,5.078.057,7.318-.21.564-.065,1.039-.489,1.676-.612.765-.149,1.622.054,2.379-.072.551-.092.966-.391,1.482-.451a62.12,62.12,0,0,0,6.8-.74c.621.071.854.465,1.625.411a3.335,3.335,0,0,1,1.317-.8c12.148-1.585,25.14-2.317,37.8-3.375.432-.036.367-.577.938-.474,1.507.437,2.7-.426,4.219-.337a8.377,8.377,0,0,0,2.012-.088c1.349-.174,2.971-.114,4.4-.327,1.682-.252,3.344-.7,4.975-.816a8.576,8.576,0,0,0,3.313-.546c.442-.05.382.329.9.208,1.023-.589,2.209-.414,3.5-.536,2.449-.229,5.062-.954,7.548-1.222a23.356,23.356,0,0,1,5.495-.281c.469.079.829.386,1.261.393,1.417.024,2.849-1.041,4.221-.336.951-.776,1.767-.284,2.935-.219,2.729.149,4.189-1.113,6.09-1.283.706-.063,1.295.29,2,.251,1.514-.071,2.306-.958,3.547-1.556,1.483.12,1.94-.419,2.95-.557a47.811,47.811,0,0,1,6.046-.263,31.645,31.645,0,0,0,3.669-.359c.245-.022.692.213.905.208,1.791-.026,3.484-.646,5.329-.63a33.462,33.462,0,0,0,4.194.174c2.616-1.337,6.195-1.3,9.572-1.479.317-.093.326-.5.582-.657,2.537,1.461,5.333-.981,8.395.177.7-.525,1.555-.325,2.578-.4,1.168-.091,2.521-.7,3.5-.706.345,0,.567.237.905.206.223-.019.539-.286.745-.308,1.552-.174,3.145-.215,4.775-.483,2.446-2.332,6.574-.869,10.659-1.265,1.855-1.376,4.448-1.177,7.193-1.4,4.264-.355,10.09-1.752,14.124-1.12,1.18-1.181,3.289-.476,5.339-.8a33.312,33.312,0,0,1,9.7-.28c1.168-1.247,4.239-.554,6.607-.577.881-.649,1.979-.415,3.314-.545,1.359-.138,2.976-.617,4.053-.685,1.111-.07,2.455.21,3.648.152,2.572-.13,5.221-.371,7.88-.528,3.186-.188,6.41-.823,9.551-.965.945-.045,1.822.188,2.735.113.529-.043,1.066-.376,1.665-.443,1.523-.171,3.669-.231,4.585-.32,1.071-.107,2.566.078,3.29-.032.5-.082.817-.416,1.3-.46.6-.056,1.157.092,1.822.074,1.963-.05,4.352-.807,5.7-.786.446.01,1.029.32,1.45.233,1.095-.235,1.547-1.222,2.3-2.123-1.544-.45-1.676-2.748-.379-3.6,1.274-.245,2.989-.045,4.044-.513-.045-.56-.5-.773-.672-1.22-2.31.167-4.563-.737-6.722-.79a12.053,12.053,0,0,0-1.292.287,25.385,25.385,0,0,1-3.838.011c1.833-2.477,7.169-.546,7.862-3.935-.4-1.245-2.261-.992-2.085-2.3.191-1.428,3.226-1.243,4.663-2.023.875.456,2.664,1.376,3.111-.039-1.144-1.566-3.8-.061-5.627-.748a6.663,6.663,0,0,1-1.856.606c-1.053-.242-1.41-1.2-2.49-1.468a13.307,13.307,0,0,0-2.015.089,51.5,51.5,0,0,1-5.486.113c-1.563-.189-3.59.345-4.719-.708.213-.02.212-.26.208-.5.418-.362.736.2,1.459.06,1.431-1,3.407-.362,5.137-.469,1.538-.095,3.051-.546,4.6-.662.856-.065,1.955.421,2.578-.405-1.3-.422-2.633-.5-4.155-1.024-.357-.347-.333-1.02-1.046-1.066-.829-.223-1.565.326-2.4.414-1.638.171-3.421-.247-5.115-.042-.533.063-1.029.368-1.483.449a31.164,31.164,0,0,1-5.85.1c-.721.156-1.014.752-1.865.776a3.346,3.346,0,0,1-1.608-.748c-3.039.366-5.838.075-8.8.657-.364-.341-.939-.5-.854-1.23.545-.606.844.035,1.641.068.52-.5,1.391-.417,2.213-.419,2.7,0,6.235,0,8.628-.836,2.228.439,5.3-.052,6.952-.222.417-.043.895.116,1.279.054.467-.081.987-.411,1.483-.451,1.464-.128,2.966.224,4.385.011.642-.1,1.234-.566,1.856-.606.865-.054,1.839.286,2.729.283a50.459,50.459,0,0,0,6.621-.917c.024-1.107-1.176-1.171-1.552-1.939.136-.458.781-.394.777-.992-.635-.274-1.626-.24-1.592-1.089-.039-1.05,1.225-.773,1.184-1.823-.333-.532-1.258-.559-1.971-.763-.666-1.477-1.27-1.425-3.047-1.321a60.613,60.613,0,0,1-6.4.077c-2.448-.13-4.888,1.1-6.582.065.175-2.116,2.784-.887,4.625-1.17.572-.086.96-.5,1.49-.62,1.537-.337,3.021-.162,4.236-.674.963.844,2.643.228,4.011.164,1.278-.059,2.682.408,3.133-.552-1.129-.94-2.629-.779-3.807-.669-2.137.2-2.57-.843-3.962-1.187-.555-.139-1.383.32-1.816-.247a1.513,1.513,0,0,1-1.692.953c-1.836-.2-1.956-3.374-.342-4.274,1.108-.095,2.04.329,2.733.113.358-.644-.581-1.415-1.005-1.918a27.873,27.873,0,0,0-6.437.928c-.515-.052-.19-.82-.882-.72-1.087.024-2.079-.176-3.1-.13-1.586.074-3.132.7-4.61.832-1.154.1-2.325-.4-3.456-.311-.536.039-1.092.442-1.665.44a17.872,17.872,0,0,1-1.806-.415c-1.422-.162-3.424.61-4.545-.528.015-.637-.182-.493.049-1.02.995.089,1.909-.638,2.96-.731.5-.043,1.156.235,1.631.238,1.28.008,2.648-.422,4.043-.513,1.673-.113,3.44-.178,5.135-.3,1.619-.113,3.262-.249,4.764-.311.769-.033,1.64.188,2.369.1.482-.061,1-.411,1.486-.451.29-.022.6.21.9.209a48.106,48.106,0,0,0,6.244-.593c.684.706,2.446.681,2.93-.219-.53-1.662-2.446-.646-4.168-.685-1.125-1.446-4.808-.953-6.383-.265a25.634,25.634,0,0,1-3.193-2c-1.9.437-2.842-1.128-4.137-1.367-.956-.174-2.155.593-3.094-.3.024-.454.045-.907.064-1.361.452-.729,2.306-.028,2.778-.737-.993-1.008-2.632-.43-3.8-.84-1.284-.451-2.04-1.956-3.568-1.851-.208.9,1.361.919.839,1.568a1.725,1.725,0,0,1-2.156-.772c-.365-1.307,1.038-2.369.9-3.544-.114-.964-1.3-1.34-1.719-2.283-1.287.227-1.4-.547-2.155-.773-1.121.086-1.7-.293-2.729-.284-1.625.88-4.026.386-6.035.093-.781.155-.987.894-2.044.766-.55-.892-1.41-1.52-1.7-2.627.285-.242,1.039-.006.944-.644-2.4.588-5.223-.248-7.693.365-.754-.39-1.129-.685-2-.252-.088-1.663-1.2-2.459-1.837-3.655a5.213,5.213,0,0,1-2.873-.975c.458-.96,1.726-.905,1.91-1.794a2.738,2.738,0,0,0-1.169-2.265c-.418-.332-1.206-.394-1.61-.748-.508-.447-.45-1.194-1.029-1.406-2.865,1.1-6.63.744-9.549.967-.757-.876-2.321-1.063-2.247-2.648-1.91-.187-3.48.3-5.3.12-2.188-.209-4.351-1.183-6.552-.612-.969.254-1.6,1.38-2.814,1.588-1.246.212-1.862-.283-3.1-.128-.881-.935-1.4-2.183-3.558-2.023.115-.532-.3-.613-.127-1.2-1.154.439-2.294-.208-3.3.376.119.277.893,0,.7.543-1.078.228-2.382-.663-3.805-.671-.559.919-3.093-.18-3.339,1.054a11.54,11.54,0,0,0,2.2-.079c-.824,1.188.5,1.528.617,2.411-1.487,1.386-4.277-1.134-2.979-2.679-1.7-1.481-2.909-.017-4.221.337-1.891.508-4.052.242-6.232.425-1.5.121-2.926.474-4.41.5-.9.015-1.879-.192-2.735-.114-1.664.15-3.2.919-4.785.655-.687.153-.5-.446-1.074-.386a10.72,10.72,0,0,1-6.44.926c-.5.2-.99.415-1.493.62-4.785.011-8.139.578-12.83.832-.581-.1-.611-.674-1.244-.734-.65-.206-2.133.3-2.172-.429.778-.153,1.661-.723,2.23-.759,1.071-.072,2.346.529,3.45.481.99-.046,2.169-.648,3.5-.706a17.814,17.814,0,0,0,1.824.075c.385-.057.612-.372.936-.474,2.064-.635,4.594.212,6.771-.228.46-.092.862-.422,1.3-.457.733-.06,1.369.283,2.179.262.584-.017,1.29-.368,1.847-.436,1.374-.171,2.8-.474,3.864-.522,1.534-.071,2.829.585,3.687-.7.391.212.58.593,1.06.724a27.247,27.247,0,0,1,4.778-.482c.959.015,1.84-.511,2.766-.567.548-.035,1.069.27,1.634.238.723-.045,1.459-.54,2.219-.592,2.754-.18,6,.781,8.09-1.027a4,4,0,0,0,2.171.432c.545.02.642-.418,1.12-.465,4.458.961,9.614.046,13.715-.286,2.714-.216,5.632.1,8.232-.169.757-.079,1.486-.517,2.221-.591,1.98-.2,3.971.128,5.7-.784,1.008.805,2.228.462,3.456.312,1.42-.171,3.48.146,3.879-.861a3.057,3.057,0,0,0-3.083-.471c-1.344-.974-3.528.16-4.743-.2-.314-1.308-1.323-2.024-3.383-1.843-.529-.258-.641-.868-1.229-1.075-2.2.063-6.921,1.484-7.445-.99a5.292,5.292,0,0,1,2.073-1.276c-.009-.485-.3-.723-.309-1.206-.7-.352-1.1.256-2.022.258-1.809,0-3.42-.825-4.4.33-1.258-.741-3.532.1-4.9-.716-1.29,1.4-3.322.983-5.37,1.481-1.694-1.12-5.153.387-7.079-.974-1.249.6-2.614-.013-3.687.7-.378-.114-.5-.443-1.08-.386-.526,1.842-3.9.786-5.9,1.119a2.914,2.914,0,0,0-2.158-.772c-1.108,1.546-3.835,1.44-6.289,1.617-.2-1.928,1.759-1.908,3.393-2.248a36.893,36.893,0,0,1,4.594-.489c2.245-.245,4.244-.28,5.686-.447a34.274,34.274,0,0,1,4.942-.137,26.1,26.1,0,0,0,3.314-.543c.623-.057,1.37.163,2.006.081,1.087-.135,2.151-.554,3.29-.033.63-.805,1.916-.433,2.579-.4,2.479.107,5.55-.55,8.065-.517.553-.921,2.23-.7,3.163-1.233-1.343-1.633-3.148-.5-5.453-.567-.787-.025-1.367-.312-2-.254-.695.064-1.38.54-2.036.6-.559.049-1.1-.27-1.634-.237-.654.039-1.243.4-1.849.435-.4.022-.914-.216-1.268-.223-.5-.011-.969.244-1.478.279-.875.064-1.744-.139-2.552-.106-2.363.1-4.551.8-7.149.557-.29-.571-1.25-.567-1.024-1.577,1.264-.664,2.342.45,3.48-.2.493.125.424.73,1.062.726.381-.387,1.34-.181,1.85-.436.557-.347-.414-1.216.43-1.344,1.148.38,1.549,1.4,3.416,1.163.523-.418.347-1.548,1.175-1.655.754.01,1.128.344,2,.254.977-1.74,2.99-.917,4.763-.315.714.011.366-1.054.971-1.152a5.656,5.656,0,0,1,1.235.9c1.634-1.024,3.565.038,5.308-.12,1.148-.1,2.325-.709,3.505-.709a7.216,7.216,0,0,1,1.449.233c1.525-.943,4.136-.779,6.09-1.282.164-.738-.264-.974-.1-1.709-1.208-1.3-4.128-1.348-5.811-.752-1.65-1.075-3,.411-4.937.135-4.022-2.5-9.784-.736-15.125-.965-.692-1.64-4.976-.215-5.19-2.261a6.38,6.38,0,0,1,4.21-.167c.792-.322,1.171-1.064,2.594-.745.394-.252.4-.9,1.135-.8,1.113.028,1.267.879,2.333.947.832-.131.82-.717,1.5-.788.907-.1,1.8.807,2.7.794.535-.008,1.214-.56,2.045-.769,2.2-.547,3.714-1.457,5.919-1.458.227-.362.088-1.1.6-1.167,2.708,0,4.439-.45,6.936.116a5.122,5.122,0,0,0,1.193-1.995,13.361,13.361,0,0,1-2.993-2.34c-1.295-.039-2.218-.393-2.307-1.458-.9-.1-1.243-.683-1.773-1.1-.866-.026-1.8.013-1.986-.593a37.328,37.328,0,0,0,.56-4.066c.2-.506.983-.428.969-1.153-.9-.1-1.922-.1-1.965-.935.2-1.106,1.486-1.1,2.1-1.786-.977-1.017-2.743-.064-4.388-.013-.49.014-1.114-.113-1.64-.068-1.169.1-2.436.634-3.139.722-.583.071-1.906.132-2.182-.26-.054-1.01,1.432-.444,1.7-1.123-.214-1.091-1.476-.56-2.179-.262-2.04-.078-3.592.221-6.037.092-.581.123-.8.61-1.49.62-.033-.461-.753-.338-.88-.719,1.65-1.073,4.368-.894,6.1-1.451.342.086.308.5.9.377a19.724,19.724,0,0,0,2.046-.768c.061.384.893.107,1.269.223,1.141-.442,2.593-.564,3.531-1.216.808-.008,1.576-.059,1.68-.783-1.04.064-1.452-.755-2.339-.78-1.353-.033-2.7,1.255-4.25,1.018-.751-.116-1.351-.967-2.14-1.112-1.362-.251-3.559.571-5.33.631-1.928.067-3.129.713-4.551-.358,1.57-1.266,3.879-.853,6.083-1.112,1.271-.149,2.578-.674,3.88-.861,1.589-.231,3.471-.41,4.955-.476.847-.039,2.191.535,2.584-.577-.857-.543-1.435-.11-2.552-.1-1.066-.872-2.091-.864-3.6-1.173-.551-.111-.957-.51-1.438-.57-3.331-.415-6.9,1.446-10.257.6-1.692,1.187-4.621.579-6.982.736-.562.035-.978.4-1.483.45-1.474.139-2.361-.552-3.432-.825a1.2,1.2,0,0,1,.787-1.159c1.679.223,2.464-.462,4.21-.169.462-.719,2.351.02,2.6-.915-.671-.148-.8.259-1.468.111-.285-.139.081-.832-.515-.7-1.24.326-1.437.449-2.554-.106-.462.123-.738.437-1.3.458-2.382-.247-3.595.5-5.512.623-.4.026-.883-.091-1.275-.053-1.564.15-2.918.651-4.053.684-1.172.038-2.358-.715-3.472.026.057.85-.829.974-1.882,1.116-1.137-.875-2.494-3.255-4.1-2.213.16,1.275,1.289,1.726,2.076,2.471-.993.474-1.508,1.435-3.341,1.056-1.531-2.886-5.828,0-8.364-.858-.792-.2-.533-1.287-1.4-1.422-.685.132-1.613.017-2.028.426-.66.358.551.773-.048,1.021a4.179,4.179,0,0,1-3.293.033c-1.136.446-2.1,1.073-3.178,1.574-2.7-1.429-6.443,1.326-9.113-.549a9.222,9.222,0,0,0-1.492.621c-.019-.91-.683-1.266-1.767-1.268-.223.7-.657.919-1.347,1.478a1.361,1.361,0,0,0-1.644-.07c-.545-.751-1.452-.352-2.519-.784a1.5,1.5,0,0,1-1.525,1.3c-.669-.134-.8-.731-1.8-.585-.6.1-.255,1.163-.968,1.152-.727-.139-1.949.141-2.361-.269-.524-.836.563-.933.243-1.354-.155.333-1.177.045-1.077-.386a4.94,4.94,0,0,1,4.967-.645c2.558-1.085,5.808-.919,8.825-1.167.355-.029.772-.291,1.11-.3.391-.007.681.27,1.086.216,2.291-.3,4.354-1.233,6.616-.748a4.627,4.627,0,0,1,2.578-.405c.75-.9,2.158-1.128,3.711-1.209,1.679,1.276,3.614.081,6.035-.091.872-.063,1.8.169,2.552.106.354-.031.781-.394,1.3-.457,1.34-.162,1.949-.142,2.585-.577,2.726.223,5.329.322,6.447-1.095.245.444.932.511,1.425.74,2.757-.875,7.623.4,9.391-1.485,1.13-.432,2.436-.1,3.656-.018,2.685.181,4.934-.692,6.622-.919,1.186-.16,2.286-.134,2.933-.219,3.265-.433,7.636-.145,9.564-1.309,1.521.566,2.914-.454,4.584-.32.354-.411.553-.985,1.326-.968,1.856,1.492,4.872.336,7.121.124.236-.963-.587-1.02-.65-1.73.367-.467.7-1.6.1-2.041-1.868.489-4.439.422-6.8.741-1.544.208-3.371.79-4.734-.368a8.75,8.75,0,0,1,4.607-.832c.895-1.406,3.271-1.3,4.15-2.725-2.155-.667-5,.612-7.526.71-.72-.148-.378-1.2-1.219-1.244-2.051-.247-2.727.907-4.086,1.364-.133-.322-.2-.7-.506-.872-1.3-.138-2.373.45-3.673.358-.656-.045-1.18-.545-1.8-.586-.88-.056-2.086.471-3.5.538-3.9.185-7.073.305-9.218,1.665-1.2-1.049-2.809-.319-4.376-.181-.336.028-.636-.212-.9-.209-.71.007-1.187.478-1.856.6a25.734,25.734,0,0,1-5.86.27,5.122,5.122,0,0,1-1.731,1.8c-.461-1.119-1.387-.517-2.339-.779-.16-1.6.915-1.211,2.086-1.619.19-.065.484-.432.572-.488,1.228-.765,3.748.135,4.973-.818,1.843.333,4.261-.27,5.686-.443,2.893-.359,5.306-.082,6.821-1.252a16.778,16.778,0,0,0,8.992-.82c.142.259.576.272.9.378,2.7-.234,5.971-.981,8.1-1.2a26.731,26.731,0,0,0,3.109-.04c.56-.137.82-.652,1.491-.62a4.87,4.87,0,0,0,2.926-.049c.164-.738-1.379-.018-1.053-.9.2-.387.654-.524,1.3-.458.512-.056-.187.922.324.865.565-.376,1.541-.33,1.525-1.3-3.737-1.467-6.2,2.184-9.927,1.293-.043-.578.818-.235.593-1a11.7,11.7,0,0,1-1.029-1.407c-.721-.237-1.356.394-1.452-.23-.588-1.19.874-1.688,1.564-2.152.688-.038.987.742,1.634.24-.073-1.808-3.785-1.837-4.891-.885a7.451,7.451,0,0,0-3.671.359c-.1-.631.493-.928.066-1.361-1.08.446-2.994.043-4.218.336m-2.2,4a21.247,21.247,0,0,0,5.448.738c-.4.547-1.005.878-1.177,1.655-1.289.224-2.867-.639-3.855.351-1.52-.364-1.284-1.875-.417-2.744m6.144,9.117c-.006,1.194-1.964.724-1.456-.06a1.508,1.508,0,0,1,1.456.06m-33.987-.045c-2.064.2-3.634,1.617-5.495.284.125-.759,1.131-.879,2.419-.922,1.313-.046,3.323-.674,3.075.638M486.28,26.712c-.308.223-.266.8-.947.642.009-.17.018-.34.025-.51.438.088.412-.3.922-.132m138.195,6.579c-.033.837-1.48.486-2.219.591-.569.077-.887.258-1.293.286,0-.166-.217-.141-.355-.184-.04-.4-.258-.652-.125-1.2.4-.354.512.106,1.093.045.884-1.052,1.58.476,2.9.462M431.827,26.672c-.055.894-1.611.259-2.046.768a3.048,3.048,0,0,0-.621,1.509c.868.566,3.215-.132,3.808.669-.263.865-1.131,1.109-1.549,1.809-2.209-.735-4.524-1.034-6.4.075-.738.141-.527-.531-1.262-.391-.808-.052-.614.922-1.152,1.145-.493.372-.827-.38-1.253-.564-1.177-.137-2.243-.369-2.687-1.132,1.157-.663,3.186-.437,4.609-.832-.366-2.045-3.765-.752-5.09-.552-.559.149-.306-.393-.335-.7a2.22,2.22,0,0,0-1.135.8c.367.94,1.3,1.4,1.338,2.613-2.3.045-4.161.449-5.438-.907-.845-.06-.727.864-1.516,1.13a6.434,6.434,0,0,1-5.423-1.248c-2.248.384-4.712.546-7.161.727-.886.761-1.384,1.918-3.015,1.921-.573-.124-.957-.669-1.608-.749-.815-.1-1.222.44-2.039.6-.432.082-.824-.137-1.275-.053a3.8,3.8,0,0,0-1.691.953c-3.018.138-5.986,1.261-9.167.642a5.051,5.051,0,0,1-3.324.715c-.5-.095-.2.627-.581.657-.69.047-.838-.371-1.252-.561-.763-.068-.678.733-1.141.975a16.4,16.4,0,0,1-2.678-1.305c-2.013.567-4.86.279-6.108,1.621a7.864,7.864,0,0,0-6.813,1.081c-.4-.364-.318-1.144-.657-1.56-1.4.291-2.869.522-3.023,2.089-1.807-.536-1.287,1.3-2.791,1.078a3.689,3.689,0,0,0-.276-1.886c-1.358,1.173-3.69,1.348-5.75,1.807a21.388,21.388,0,0,0-2.878-.97c-1.761,1.294-5.253.826-7.219,1.915a18.367,18.367,0,0,1-2.542-.277c-.969.4-1.652,1.684-2.959.729.161-.736-.266-.971-.1-1.706a2.692,2.692,0,0,1,2.585-.574c.494-.093.694-.485.953-.815,2.408-.072,3.684-.456,5.854-.1a6.659,6.659,0,0,1,3.895-1.2c2.257-.088,5.008.663,6.43-.755,1.287-.052,2.778-.7,4.236-.677,1.228.022,3.086.518,3.7-.869a3.658,3.658,0,0,0,1.607.747c.8.1.669-.747.971-1.151.862-.368,1.619-.847,2.434-1.263,1.576.124,2.052,1.185,3.02,1.83,1.447-.775,3.162-.166,4.773-.485,1.352-.269,2.6-1.38,4.252-1.018.427-.35-.124-.586.057-1.19.95-.28,2.26-.2,2.785-.907a9.708,9.708,0,0,1,3.789,1.009c.666,0,.632-.581,1.308-.628.515-.035,1.177.472,1.807.417.708-.063,1.286-.712,2.046-.768.688-.05,1.275.373,1.991.423a8.316,8.316,0,0,0,1.474-.28c.635-.061,1.371.12,2.009.084,2.115-.121,4.249-1,6.423-.585.829-.226,1.341-.774,2.582-.575.869-.543,1.653-1.17,2.46-1.775.544.6,1.444-.053,2.373.1.645.106,1.06.592,1.616.578a2.814,2.814,0,0,0,1.871-.944,5.021,5.021,0,0,0,5.607,1.255c.323-.784-.536-.992-.118-1.368a14.344,14.344,0,0,1,8.263-.853,1.491,1.491,0,0,0,1.038,1.237c.566.1.535-.407.762-.649.033-.657-1.458-.595-.856-1.23,2.9.875,5.762-.677,8.207.341m85.88,3.9c.66-.017,1.264.01,1.063.727l-1.093-.047c.008-.226.019-.454.03-.68m24.009,2.36a2.111,2.111,0,0,1,1.441.4c-.4.249-1.7.627-1.441-.4m-50.542,6.086c-.063.905-1.571.7-2.021.256-.669-.148-.484.577-.771.82-.554-.015-.692-.389-1.069-.556-.234-1.807,3.342-1.6,3.861-.521m-24.539,1.2c.085.878-1.126,1.128-1.683.781-.069-.855,1.054-1.2,1.683-.781m62.347,6.845c-.52.274-2,.549-1.988-.425a1.61,1.61,0,0,0-.763.651c-.151-.577-.751-.77-.847-1.4,1.087-.489,4.406-1.265,3.6,1.171m-11.854-.492c.036.868-.756.89-1.505.961,0-.836.789-.861,1.505-.961m-191.71-7.09c-1.786,2.161-4.993,2.878-8.734,3.045-.494.093-.693.483-.953.814-1.718.428-3.093-.4-4.035.344-.7-.49-.742-1.543-1.744-1.776a4.737,4.737,0,0,1,1.565-2.151c1.025.118.7,1.421.1,1.708,1.056.369,3.084,1.211,4.177.515-.131-.433-.466-.692-.488-1.215,1.283-.355,2.963-.308,3.71-1.212a3.87,3.87,0,0,0,2.929-.049c.762.256,1.534.669,1.837-.263.732.488,1.066.045,1.635.24m183.978,8.3c-.714.878-2.75.407-4.052.683-.013-1.507,3.3-1.626,4.052-.683M307.192,42.3c-.178.947-1.731.495-1.9,1.456-3.09,1.013-7.32.862-10.327,1.96a8.283,8.283,0,0,1-2.337-.78c.091-.69,1.072-.706,1.689-.953a8.161,8.161,0,0,1,2.6-.914c.877-.075,1.977.429,2.726.283.8-.156,1.011-.825,1.516-1.13.706-.337,1.284.256,2,.254.468,0,.759-.414,1.3-.458a6.53,6.53,0,0,1,2.729.283m178.35,7.561c-.548.758-2.424,1.424-2.935.22.451-.521,2.342-.978,2.935-.22M602.709,72.1c.031.865-.487,1.166-.81,1.67-.3-.233-.7-.383-.69-.88.175-.595.709-.826,1.5-.79m-1.1,3.874a15.36,15.36,0,0,1-2.024.258c.3-.4,1.838-1.4,2.024-.258m-5.14,8.138c-.615.6-2.1,1.146-2.748.227-.042-1.323,2.318-.794,2.748-.227m-4.442,1.18a8.027,8.027,0,0,1-2.9-.462c-2.169.348-4.019,1.018-6.8.741.109-1.612,2.245-1.158,3.02-2.089a5.226,5.226,0,0,1,2.539.446c1.64-.3,4.419-.95,4.137,1.365m-14.057-.241c-.481,1.424-1.286.529-2.213.418.529-.685,1.15-.579,2.213-.418m-17.622,1.655c-.386.057-.478-.137-.723-.2.046-.482.795-.3.723.2M627.1,89.472c-.079.922-1.8.957-2.587.574.012-.281.024-.566.039-.848.539-.213,2.313-.294,2.548.274M580.38,88.218c.466,1.293-1.913,2.624-2.793,1.077.466-.833,1.362-1.227,2.793-1.077M620.3,90.384c.327-.008.373.223.72.2.045.3-1.035.259-.72-.2m-55.737.077c-1.2-.595-1.241.649-2.23.759-.735-.917,2.088-1.86,2.23-.759m-13.189.645c-.266.5-.752.779-1.673.613.057-.717,1-.522,1.673-.613m-9.516.287c-.261.506-.887.644-1.673.613.1-.748.959-1,1.673-.613m103.4,15.876c-.039.2.025.3.166.347-.388,1.091-2.171.759-2.642,1.766a1.407,1.407,0,0,1-1.388-1.592c.941-.437,2.493-1.109,3.864-.521M524.229,104.64a3.007,3.007,0,0,0-.246,1.354,7.9,7.9,0,0,0-3.1-.13c.018-.4.036-.8.055-1.19.887-.476,2.536-.88,3.29-.035m138.934,21.778c-.036.3.206.366.151.687-.166.068-.333.137-.382.325a2.422,2.422,0,0,1-1.431-.57c-.01-.822,1.084-.717,1.662-.442m-6.958,4.143a3.655,3.655,0,0,1,1.8.586c-.281.859-1.868.279-1.8-.586m47.965,17.326c-.006.114-.012.227-.016.341-.9.132-.291-.919.016-.341m-15.723.2c.327-.007.372.226.721.2-.058.476-.354.71-.944.644a1.04,1.04,0,0,1,.223-.844m8.734,19.963a2.956,2.956,0,0,1-.248,1.351c-.664-.082-1.622.079-2-.254.018-.338.034-.68.049-1.018.554-.3,1.674-.776,2.2-.079m-.815,5.591c-.385.054-.477-.138-.723-.2a.377.377,0,1,1,.723.2M411.743,191.329c.582-.607.59.545,0,0" transform="matrix(0.995, 0.105, -0.105, 0.995, 26.228, 0.001)" fill="#c05630" fill-rule="evenodd"/>
</svg>
