<svg xmlns:x="http://ns.adobe.com/Extensibility/1.0/" xmlns:i="http://ns.adobe.com/AdobeIllustrator/10.0/" xmlns:graph="http://ns.adobe.com/Graphs/1.0/" xmlns="http://www.w3.org/2000/svg" xmlns:xlink="http://www.w3.org/1999/xlink" version="1.1" id="Layer_1" x="0px" y="0px" viewBox="0 0 1165.7 223.9" style="enable-background:new 0 0 1165.7 223.9;" xml:space="preserve">
<style type="text/css">
	.st0{opacity:0.5;}
	.st1{fill:#707070;}
</style>
    <g i:extraneous="self">
		<g class="st0">
			<path class="st1" d="M1106.9,109.9c-0.2-1.2-6-0.6-4.5,0.5C1104.4,110.4,1104.6,109.1,1106.9,109.9z"/>
            <path class="st1" d="M105.8,89.9c2.7-0.1,4.7-0.4,7.1-0.4c1.3,0,2.7,0,4.1,0.2c0.7-0.2,1.4-0.3,2.1-0.4     c-4.8-0.1-18.4-0.4-29.9-0.7c-0.3,0.1-0.5,0.1-0.3,0.5c3.1,0.4,6.4,0.2,9.1,0.7c0.6,0,1.2-0.1,1.9-0.1     C102,89.6,104,90,105.8,89.9z"/>
            <path class="st1" d="M1139,109.8c-2.9-0.4-4.7-0.1-5.7,0.7C1134.9,112.2,1139.8,111.2,1139,109.8z"/>
            <path class="st1" d="M1156.8,107.5c1.9,0.5,3.8,0.8,5.8,0.9l0,0c0.7-2.3-4.9-2.1-8.2-2c-1.6-0.5-3.4-0.8-5.1-0.8     c-1.6,0.8-5.9,0.1-6.2,1.7C1148.7,108,1152.4,107.6,1156.8,107.5z"/>
            <path class="st1" d="M119.6,89.2c-0.2,0-0.4,0.1-0.6,0.1C121.1,89.3,121.6,89.3,119.6,89.2z"/>
            <path class="st1" d="M1134.3,106.2c-2.1-0.3-3.4-0.5-4.5,0.1C1131.7,106.6,1133.3,107.6,1134.3,106.2z"/>
            <path class="st1" d="M191,19.2c-5.1-1.7-8.4,0.7-13.7-0.5c-0.9,0.3-1.8,0.5-2.8,0.7c14.5,0.3,26.6,0.5,25.4,0.3     c-0.5-0.2-1-0.4-1.6-0.5c-1.3,0-2.7-0.1-4.2-0.4c-0.1-0.2,0-0.3,0-0.4c-0.6-0.1-1.2-0.2-1.8-0.3C191.7,18.3,192,19.1,191,19.2z"/>
            <path class="st1" d="M1149.8,48.5c-2.5,0.8-7.5-0.5-10.1,0.1c-0.4,0.2-0.8,0.3-1.2,0.4c-2.4,0.3-4.5-0.3-4.3,1.4     c1.9,0.4,3.8-0.1,4.7,1.1c1.3-0.3,2.5-0.8,3.6-1.6c3.9,0.4,7.9,0.6,11.8,0.5c1.3-0.2,2.5-0.3,3.8-0.4c0.5,0,1.1,0.3,1.8,0.3     c2,0,4-0.1,5.8,0V49c-1.4-0.1-2.9-0.1-4.5-0.1C1158.4,48.8,1153.4,49.1,1149.8,48.5z"/>
            <path class="st1" d="M1147.1,60.3c-1-0.3-2.4-0.5-2.8-1c-2.4,1.3-7.6,0.8-13.1,0.2c-1.3,0.4-2.5,0.3-5.2,0.2     c-1.1,0-1.9,0.3-2.7,0.3c-1.5,0-3.4-0.4-5.1-0.5c-4.9-0.2-8.9,0.8-12.2-0.8c-3.1-0.1-6-0.1-7.6,0.7c-1.7-0.2-3.5-0.2-5.2,0.1     c-4.5-0.8-8.7-0.2-13.4-0.2c-0.8,0-1.4-0.3-2.2-0.4c-0.7,0-1.5,0.2-2.3,0.1c-6.1-0.2-12.6-0.8-17.8,0c-3.4-0.9-7.5-1-10,0     c-0.2,0.4,1.8,0.9,2.1,0.6c0.6,0.5-1.6,0.4-0.6,1.4c0.8,0.5,3.3,0.4,4.7,0.6c1.4,0.1,0.8-1,2-1.1c2,0,2.2,0.6,3.6,0.9     c1.8,0.1,2.8-0.3,3.2-1.1c2.1,0.6,4,0.3,5,1.2c1.1-0.3,2.3-0.2,3.3,0.3c1.4-0.5,2.3-0.6,2.8-1.3c2.2,0.2,3.5,0.6,3.5,1.6     c1-0.2,2-0.3,3-0.4c5.2,2.3,13,0,18.3,1.9c2.2-0.4,4.2-0.9,6.5-1.2c2.2,0.6,4.4,0.8,6.6,0.4c1.2-0.2-1.2-0.8,0.2-1     c0.9-0.4,2.7-0.1,4.1-0.2c1.7,0.3,1.1,1.4,2.7,1.7c5,1.2,13.9-1.1,16.8,2.1c3.7,0.7,4.8-0.3,6.8-0.6c-1.5-0.9-3.8-1.5-4-2.8     c3.3-0.8,5.9,1.8,8.1,2.9c2.1,0,3.9,0,3.9-0.9c2.3-0.6,4.6,0.3,7,0.5c2.3,0.1,5.1-0.2,8.2-0.1c0.1,0,0.2,0,0.3,0v-1.2     c-1.4-0.2-2.6-0.6-4.1-0.2c-0.9-1.2,2-1.3,4.1-0.9v-1.6C1161.8,61.7,1152.5,59.8,1147.1,60.3z M1097.4,61.4     c0.7,0,1.5,0.1,2.2,0.4C1099.5,62.3,1096.9,62.1,1097.4,61.4z"/>
            <path class="st1" d="M1162.4,110.3c-3.3,0.1-7.3-0.2-7,1.8c3.7,0.1,7.6,0.4,10.3,0v-1.9C1164.7,110.3,1163.6,110.3,1162.4,110.3z     "/>
            <path class="st1" d="M166.5,18.9c-0.2,0.1-0.5,0.2-0.8,0.2c0.9,0,1.7,0,2.6,0.1C167.8,19.1,167.2,19,166.5,18.9z"/>
            <path class="st1" d="M1097.3,105.1c0.5,0.2,0.9,0.3,1.4,0.3C1098.9,104.9,1097.4,104.6,1097.3,105.1z"/>
            <path class="st1" d="M90.1,88.3c-1.9-0.6-5.4-0.6-6.3,0c-0.8,0-1.7-0.1-2.5-0.1c-0.2,0.1-0.4,0.2-0.6,0.2     c2.5,0.1,5.4,0.1,8.5,0.2C89.5,88.5,90,88.5,90.1,88.3z"/>
            <path class="st1" d="M174.5,19.3c-2,0-4.1-0.1-6.2-0.1C170.8,19.5,172.8,19.5,174.5,19.3z"/>
            <path class="st1" d="M944.9,56.7c0.9,1.3,4.8,0.9,5.9,0.2C949.6,56,945.8,56.2,944.9,56.7z"/>
            <path class="st1" d="M840.1,25.8c0.9-0.5,4,0.4,4.2-0.5c-4.8-1.4-10.7-0.2-16.5-1.5c-1.3,0.6,1.7,0.7,1.6,1.4     c-0.5,0.2-0.4,0.7-1.6,0.6c-0.9-0.1-1.6-0.6-2-1.4c-5.5-0.9-11.2-1-16.7-0.3c-0.9,0.3,0.8,0.7,0.1,1.4c-4.1,0.6-9.3-0.6-11.2-2.1     c-1.2,0.5-2.5,0.8-3.8,0.7c-1.1-0.1-1.9-0.6-3.2-0.8c-1.9-0.3-3.7,0.3-4.8-0.4c-1.7,0.5-3.3,1-5.1,1.5c-2.5-0.4-3.6,0.1-5.2,0.2     c-4.3-0.7-8.7-0.1-13-0.3c-1.3-0.1-2.8-0.3-4-0.4c-1.1,0-1.9,0.2-3,0.1c-1.4-0.2-2.6-0.7-4-0.7c-1.5-0.1-2.7,0.5-4.2,0.5     c-1.3,0-2.6-0.6-3.6-0.7c-1.4,0-1.3,0.6-2.7,0.5c-2.5-0.8-5-1.3-7.6-1.6c-1.1,0.7-3.7,0.4-5.7,0.5c-0.4,0.6,0.7,0.9-0.2,1.2     c-3.3-0.6-5.9,0.4-8.6,0.4c-3.3,0.1-6.7-0.8-9.6-0.2c-1.9-0.8-2.8-2-5.9-2.3c-1.7,0.3-3.2,0.7-5,1c-0.6,0.4-0.4,1.3-2,1     c-1.1-0.2-2.2-0.5-3.2-1c-1.3,1.3-5,0.6-7.5,0.4c-2.9-0.2-6,0.2-8.6,0.1c-3,1.3-8.4,0.1-13-0.1c-2.7-0.2-5.3,0-7.9,0.7     c-4.3-0.7-6.9-0.5-11.8-0.7c-0.6,0.4-1.3,0.7-2,0.7c-2.5-0.4-4.2-0.3-5.2,0.2c-0.4,0.7,0.5,1,0.1,1.8c2.6,1.2,4-0.1,6-0.3     c1.9,0.2,3,0.6,5.1,0.6c4-0.8,11,0.1,14.7-1c2.2,0.3,3.7,1,5.7,1.4c4.2-0.2,8.9,0,11.7-1.1c0.5,0.6,0.6,1.3,0.4,2     c3,0.4,2.1-1.5,5.7-0.7c0.4-1.6,3.4-1.6,6.2-1.7c0.7,0.5,0.4,1.3,1.2,1.7c3.3-1.1,8.7-1.3,13.8-0.2c2.6-1.2,8.3-0.5,12.4-0.8     c1.7,0.7,3.5,1.2,5.3,1.7c0.9-0.2,0.8-1,2.4-0.8c0.8,0.4,1.6,0.7,2.5,0.8c0.8,0,0.2-0.8,1.2-0.6c2.2,0.3,4.5,0.2,6.7-0.3     c6.4,1.1,12.4,0.3,18.5,0.6c1.1-0.4,2.3-0.7,3.5-0.7c0.9,0,1.7,0.3,2.6,0.2c1.7,0,2.5-0.5,4.1-0.3c1.3,0.2,2,0.8,3.2,1     c3.3,0.2,4.4-0.9,6.2-1.6c4.9,0.2,9.9,0.3,14.5,0.3c3.4,1.6,7.1,2.3,10.8,2.1c1.6-0.2,1.4-1.1,3.1-1c2.5,1.6,6.3,1.4,10.9,1.7     c0-1.3-1.8-1.9-2.5-2.9c0.7-0.4,1.5-0.6,2.3-0.7c0,0.3-0.5,0.8,0.6,0.8c2.7,0,9.6-0.9,10.2,1.3c-2.9,0.2-7-0.3-9.3,0.2     c0.8,0.8,3,1.2,5.3,1.5c0.8,0.2,1.5,1.1,2.5,0.8c1.1-0.2,0.8-1.2,2.4-1c1.5,0,1,0.6,2.5,0.6c3.9-0.9,8.5-0.2,12.9,0.8     c0.9-0.7,2.7-0.8,3.2-1.6c-1.1-0.9-5.9-0.5-7.6-1.2C839,26.7,839.5,26.1,840.1,25.8z M701.3,23.8c0.4,0.1,0.7,0.3,0.6,0.6     C700.6,24.4,700.7,24,701.3,23.8z M835.9,26.7c-1.1,0.1-2.2,0.1-3.3-0.1c-1.4-1.2,1.9-1.4,3.5-0.7     C836,26.1,835.9,26.4,835.9,26.7z"/>
            <path class="st1" d="M910,44.8c1.1,0.4,3.6,0.3,3.4-0.6C912.2,43.7,909.9,43.9,910,44.8z"/>
            <path class="st1" d="M952.1,33.1c0,0.2-0.1,0.3-0.1,0.5c1.4,0.3,1.3-0.3,2-0.5C952.9,32.8,953,33.2,952.1,33.1z"/>
            <path class="st1" d="M955.1,46.4c0.7,0.4,1.4,0.6,2.1,0.7c0.6-0.2,0.3-1,1.6-0.7c0.9,0.5,3.9,0.9,4.1,0l0,0     C961.9,45.3,954.7,44.6,955.1,46.4z"/>
            <path class="st1" d="M990.8,58.2c2.6-0.1,6.7,0.7,8.2-0.1C997.5,57,990.8,56.6,990.8,58.2z"/>
            <polygon class="st1" points="629.1,23.5 629.1,23.5 629.1,23.5    "/>
            <path class="st1" d="M586.8,23.2c-1.1,0-1.7,0.4-2.6,0.3c-1.4-0.1-2.6-0.8-4-0.5c-1,0.2-1.5,0.9-3.1,1c-1.5,0-3.7-0.6-5.5-0.7     c-1.8,0-3.6,0.2-5.3,0.6c-1.3,0.2-3.2,0-3.5,0.7c1.5,0.5,3.1,0.9,4.7,1.1c6.1-0.7,14.6,0,20.9-0.6c0.4-1,3.5-0.3,3.9-1.2l0,0     C590.4,23.4,588.6,23.2,586.8,23.2z"/>
            <path class="st1" d="M844.3,25.3C844.3,25.3,844.3,25.4,844.3,25.3C844.3,25.4,844.3,25.4,844.3,25.3L844.3,25.3z"/>
            <path class="st1" d="M1068,48c-0.9-0.4-1.9-0.6-2.9-0.6C1064.5,48.4,1067.2,48.2,1068,48z"/>
            <path class="st1" d="M622.1,23.1c-2,0.3-4,0.2-5.9-0.4c-1.6,0.8-4.9,0.5-7.6,0.7c0,0.5,0.7,0.9,0.9,1.3c-2.3,0.6-6.3-0.6-8.4-1.1     c1.2-0.2,2-1.5-0.1-1.8c-1.3,0.3-2.4,1-3.3,2c2,0.4,2,1.5,3.4,2.1c2-0.6,4.7,0.4,8.1,0.2c0.6-0.4,1.3-0.7,2-0.7     c7.5,0.4,14.1,0.1,17.8-1.9c-1.1-0.3-1.8,0.1-3.3-0.5C625.2,24,623.7,23.4,622.1,23.1z"/>
            <path class="st1" d="M1126.9,49.4L1126.9,49.4c0.6-1.3-3.5-1-6.1-1.1c-2.6-0.1-4.6-0.2-4.9,0.6     C1119.5,50.6,1122.7,49.4,1126.9,49.4z"/>
            <path class="st1" d="M792,192.3C793.1,193,793.2,191.8,792,192.3L792,192.3z"/>
            <path class="st1" d="M196.9,5.3c0.4,0,0.8,0,1.2,0c-0.4,0-0.7-0.1-1.1-0.1C197,5.2,196.9,5.3,196.9,5.3z"/>
            <path class="st1" d="M189.2,5.3c0.9,0,1.8,0,2.6,0c0.6-0.1,1.1-0.4,1.2-0.7c-1,0-2-0.1-3.1-0.1c-0.6,0.1-1.2,0.2-1.8,0.4     C188.5,5.1,188.8,5.2,189.2,5.3z"/>
            <path class="st1" d="M167.3,5c1.2,0.2,2.2,0.2,2.9,0.1c0-0.1,0-0.1,0-0.2c0.2,0,0.3,0,0.5,0.1c0.5-0.1,0.9-0.4,1.1-0.7     c-1.2,0-2.5,0-3.7,0C167.7,4.4,167.4,4.6,167.3,5z"/>
            <path class="st1" d="M184.2,4.4c-1.5,0-3.1-0.1-4.7-0.1c-0.1,0-0.2,0.1-0.2,0.1C180.6,5.1,184.2,5.8,184.2,4.4z"/>
            <path class="st1" d="M145.6,4.3c-1.3,0-2.6,0-3.8,0.1c-0.2,0.1-0.3,0.1-0.4,0.2C142.7,4.4,144.7,4.7,145.6,4.3z"/>
            <path class="st1" d="M150.3,4.6c3.5,0.3,6.3,0.9,7.1-0.5c-3.7,0-7.3,0-10.6,0.1C147.1,4.8,148.7,4.5,150.3,4.6z"/>
            <path class="st1" d="M165.9,4.7c-0.3-0.2-0.7-0.4-1.1-0.5c-0.4,0-0.8,0-1.2,0C162.6,4.8,165.7,5.6,165.9,4.7z"/>
            <path class="st1" d="M174.2,5.1c0.4-0.2,1-0.4,1.7-0.4c0-0.2-0.2-0.3-0.6-0.4c-0.4,0-0.8,0-1.2,0c0,0.3-0.1,0.5-0.1,0.8     C174.1,5.1,174.1,5.1,174.2,5.1z"/>
            <path class="st1" d="M170.7,5c-0.2,0-0.3,0.1-0.5,0.1c0,0.1,0,0.2,0,0.3c0.3,0,0.6,0,0.9,0c0.1-0.1,0.2-0.1,0.3-0.2     C171,5.1,170.9,5,170.7,5z"/>
            <path class="st1" d="M178.1,4.9c-0.7-0.2-1.5-0.2-2.2-0.2c0.1,0.3-0.5,0.7-1.7,0.4c-0.1,0-0.2,0.1-0.2,0.1c0.4,0,0.9,0.1,1.3,0.1     c0.7,0,1.4,0,2.1,0C177.7,5.3,178,5.1,178.1,4.9z"/>
            <path class="st1" d="M159.8,5.2c0,0,0,0.1,0,0.1c0.4,0,0.7,0,1.1,0c0,0,0,0,0,0C160.5,5.2,160.2,5.2,159.8,5.2z"/>
            <path class="st1" d="M201.2,5.1c-0.5-0.1-1.6-0.2-3.3-0.3c0,0,0,0.1,0,0.1C198.7,5.3,200.2,5.3,201.2,5.1z"/>
            <path class="st1" d="M1011.5,58.7c1.5,0,3.1,0.1,3.1-0.8C1013.2,57.9,1011.6,57.8,1011.5,58.7z"/>
            <path class="st1" d="M193.6,5.3c0.9,0,1.8,0,2.6,0c0-0.1,0.1-0.1,0.1-0.2C195.6,4.8,193.4,4.5,193.6,5.3z"/>
            <path class="st1" d="M172,15.1c-0.1,0-0.1,0-0.1,0c0.4,0.1,0.7,0.3,1.3,0.4c0.5,0,0.9,0,1.4,0c0.1,0,0.2,0,0.3,0     C173.9,15.4,173,15.2,172,15.1z"/>
            <path class="st1" d="M188.6,15.6c-1.1,0-2.2-0.2-3.3-0.5c-0.4,0.1-0.8,0.1-1.2,0.2c1.9,0.1,3.8,0.3,5.7,0.4c2,0.1,4-0.1,6-0.1     C193.1,15.2,190.4,14.9,188.6,15.6z"/>
            <path class="st1" d="M138.2,15c0.2,0,0.3,0,0.4-0.1c-0.4,0-0.7,0-1,0C137.7,15,137.9,15,138.2,15z"/>
            <path class="st1" d="M175,15.6C174.9,15.6,174.9,15.6,175,15.6C174.9,15.6,174.9,15.6,175,15.6C174.9,15.6,174.9,15.6,175,15.6z"/>
            <path class="st1" d="M179.7,8.9c-1.1,0-2.3,0-3.3,0c1.3,0,2.6,0,3.8,0C180,8.9,179.8,8.9,179.7,8.9z"/>
            <path class="st1" d="M197.9,8.7c-1.3,0.2-2.6,0.3-3.9,0.4c3,0,5.1,0.1,6,0.1C199.3,9,199.1,8.7,197.9,8.7z"/>
            <path class="st1" d="M194.1,9.1c-3.6,0-8.5-0.1-14-0.1C184.8,9.4,189.4,9.5,194.1,9.1z"/>
            <path class="st1" d="M178.6,15.2c1.8,0.3,3.7,0.3,5.5,0.1c-3.3-0.3-6.4-0.4-9.2,0.3c0.3,0,0.7,0,1,0c0.3,0,0.5,0,0.8,0     C177.4,15.5,177.6,15.1,178.6,15.2z"/>
            <path class="st1" d="M126.3,14.8c2.1,0,2.7,0.6,4.3,0.8c0.6-0.3,1.3-0.6,2.2-0.7C128.5,14.8,126,14.8,126.3,14.8z"/>
            <path class="st1" d="M1156.7,121.8c-0.7-0.2-1.4-0.5-2.1-0.9c-1.8,1.2-4.4,0.3-7.5,0.2c-2.2-0.1-5,0-7.8,0     c-1.1,0-2.6,0.3-3.8,0.2c-1.6-0.1-2.9-0.5-4.4-0.6c-0.9,0-1.7,0.3-2.7,0.3c-4.4,0.1-9.4-1.1-13.7-0.7c-0.6,0.2-1.3,0.3-1.9,0.4     c-1.2,0-2.4-0.3-3.7-0.3c-2.7-0.1-5.1,0.3-7.1,0.2c-2.2-0.1-4.8-0.9-6.9-1c-1.1,0-3,0.4-4.5,0.5c0,0.8,3,0.4,4.3,0.7     c1.3,0.1,1.3,0.7,2.5,0.9c9.5,0.4,16.3,0.3,25.9,1c1-0.1,2-0.3,3.1-0.4c4.3,0.7,8.7,0.7,13,0c1.2,0,0.7,0.6,2.1,0.6     c3.2,0.5,6.3-0.1,9.7,0c1.7,0,3.7,0.4,5.5,0.5c3,0.2,5.8,0,8.8,0.1V122C1163,121.8,1159.7,121.8,1156.7,121.8z"/>
            <path class="st1" d="M132.8,14.9c1.4,0,3,0,4.7,0.1C135.6,14.7,134,14.7,132.8,14.9z"/>
            <path class="st1" d="M168.6,15.3C168.6,15.3,168.6,15.3,168.6,15.3c-9.5-1.3-17.4-0.7-27.7-1.1c-1.2,0-1.5,0.5-2.3,0.7     c6.3,0.1,14.5,0.2,22.8,0.4C163.7,15.3,166.2,15.4,168.6,15.3z"/>
            <path class="st1" d="M171.9,15.1c-0.1,0-0.2-0.1-0.3-0.1c-0.7,0-1.8,0.2-2.9,0.2c0.4,0.1,0.8,0.1,1.2,0.2c0.7,0,1.3,0,2,0     C171.7,15.3,171.3,15.2,171.9,15.1z"/>
            <path class="st1" d="M200,9.2c0.1,0,0.2,0,0.4,0.1C200.5,9.2,200.4,9.2,200,9.2z"/>
            <path class="st1" d="M1057.7,108c1.6,0.1,2.8,0.1,3.4-0.4C1059.7,107.1,1058,107.3,1057.7,108z"/>
            <path class="st1" d="M1016.9,41.5L1016.9,41.5c0,0.2-0.1,0.5-0.1,0.7c0.7,0.1,1.5,0.1,2.2,0.2     C1019.5,41.7,1018.3,41.6,1016.9,41.5z"/>
            <path class="st1" d="M1076.9,109.1c1.8,0.3,2.8,0.1,3.4-0.4C1079,108.7,1077.1,108.3,1076.9,109.1z"/>
            <path class="st1" d="M1018.1,118.4c-0.1,0.4-0.1,0.8-0.2,1.2c2.1,0,4.2,0.2,6.2,0.6c0-0.5,0.2-1,0.6-1.4l0,0     C1023.3,117.8,1019.9,118,1018.1,118.4z"/>
            <path class="st1" d="M1031.3,58.4c0.1,0.7,1.3,0.9,1.6,1.6c0.5-0.3,1-0.5,1.6-0.6c-0.1,1,2.9,0.9,4,0.7     C1040.2,57.7,1033.5,58,1031.3,58.4z"/>
            <path d="M269.7,5c-0.6,0-1.3-0.1-1.2,0.2C268.9,5.3,269.4,5.2,269.7,5z"/>
            <path d="M266.6,3.1c-2-0.4-5.9-0.5-6.8,0.4C262.1,3.8,264.4,3.6,266.6,3.1z"/>
            <path d="M273.7,3c0.1-0.3-0.2-0.5-0.7-0.6c-0.4,0.3-1.4,0.2-1.6,0.6C272.2,3.4,273,3.1,273.7,3z"/>
            <path d="M262.4,4.3l-1.8-0.2c-0.1,0.5-0.3,1,0.2,1.3c1.1,0.2,1.1-0.2,2.2,0C263.2,4.9,262.5,4.7,262.4,4.3z"/>
            <path d="M289.1,4.8c1.7-0.1,3.3-0.3,5-0.8C292.5,3.7,289.1,3.6,289.1,4.8z"/>
            <path d="M281.6,4.6c-1.2-0.1-2.2-0.1-2.3,0.5C280.5,5.2,281.5,5.2,281.6,4.6z"/>
            <path d="M258.5,3c-0.5-0.2-0.9-0.3-1.4-0.3c0,0.2-0.1,0.3-0.1,0.5C257.8,3.4,258.3,3.3,258.5,3z"/>
            <path d="M246.6,5.1c0-0.2-2.7-0.4-2.6,0.1C244.2,5.6,246.6,5.6,246.6,5.1z"/>
            <path d="M296.1,4.9c0.6,0.2,1.2,0.2,1.8,0.2c0.1-0.3,0.1-0.7,0.2-1C296.9,4,296,4.1,296.1,4.9L296.1,4.9z"/>
            <path d="M242,3.5c-0.8-0.3-1.7-0.4-2.5-0.4C239.2,3.9,241.3,3.6,242,3.5z"/>
            <path d="M249.1,3.6c0.1-0.8-2.8-0.9-2.9-0.3C247.1,3.6,248.1,3.7,249.1,3.6z"/>
            <path d="M248.8,5c0.7,0.6,5.2,1.2,5.2,0.1C253.2,4.5,247.7,3.9,248.8,5z"/>
            <path d="M251,3.4c-0.5-0.3-1.6-0.3-1.5,0.2C250,3.7,250.5,3.6,251,3.4z"/>
            <path d="M344,3.3c-1.4-0.1-3.2-0.4-3.7,0C342.1,3.2,343.8,4.3,344,3.3z"/>
            <path d="M239.4,5.5c0.9,0.1,1.8,0.2,1.9-0.2C240.7,5,240,5.1,239.4,5.5z"/>
            <path d="M738.9,3.5C737.2,2.8,737.9,4,738.9,3.5L738.9,3.5z"/>
            <path d="M361.9,5.4c-0.1-0.4-1.9-0.3-2.2-0.2C359.7,5.8,361.9,6.1,361.9,5.4z"/>
            <path d="M356.3,3.3c-1.2,0.1-3.9-0.7-4.1,0C352.9,3.7,356.3,4.1,356.3,3.3z"/>
            <path d="M363.4,3.3l-1.1-0.1c0,0.1,0,0.2-0.1,0.3c0.4,0,0.7,0.1,1.1,0.1C363.3,3.5,363.4,3.4,363.4,3.3z"/>
            <path d="M370.8,3.6c-1.2-0.8-4.8-0.8-5.2,0.1C366.9,3.9,370.1,4.3,370.8,3.6z"/>
            <path d="M306.9,4.8c0.7,0.4,2.5,0.3,2.3-0.5C308.1,4.3,307,4.2,306.9,4.8z"/>
            <path d="M302,5.1c1,0.2,0.8-0.3,1.5-0.2c-0.1-0.4-0.1-0.8-1.3-0.8c-0.3,0.1-0.5,0.3-0.5,0.7C301.8,4.9,301.9,5,302,5.1z"/>
            <path d="M313.6,3c-1.1-0.4-3-0.1-4.8-0.1l0,0c-1.3,0-3.3-0.5-3.8,0.2C308,3.1,311.6,3.5,313.6,3z"/>
            <path d="M324,2.7c-0.9-0.1-1.8-0.2-1.9,0.2C323,3,324,3.4,324,2.7z"/>
            <path d="M400.3,5.2c1.1,0,1,0.4,2.2,0.4C404,5,400.1,3.6,400.3,5.2z"/>
            <path d="M342.9,5.5c0.5,0,1,0.1,1.5,0.1c0-0.1,0-0.2,0.1-0.4c-0.5,0-1-0.1-1.5-0.1C343,5.2,342.9,5.4,342.9,5.5z"/>
            <path d="M328.8,3.3c-0.7,0-1.8-0.3-1.5,0.2C327.8,3.6,328.3,3.5,328.8,3.3z"/>
            <path d="M202,4.8c-1.3-0.4-2.7-0.5-4-0.4h0c0,0.1,0,0.3-0.1,0.4c1.6,0.1,2.8,0.2,3.3,0.3C201.5,5,201.8,4.9,202,4.8z"/>
            <path d="M198.9,5.4c-0.2,0-0.5,0-0.7-0.1c-0.4,0-0.8,0-1.2,0C196.8,5.7,199.3,5.9,198.9,5.4z"/>
            <path d="M191.8,5.3c-0.8,0-1.7,0-2.6,0C190.1,5.5,191,5.5,191.8,5.3z"/>
            <path d="M239.1,5.3c-0.7-0.4-1.9-0.2-1.9,0.4C238.2,5.8,239.2,5.9,239.1,5.3z"/>
            <path d="M184.2,4.2c-1.6,0-3.9-0.4-4.7,0.1c1.6,0,3.2,0,4.7,0.1C184.2,4.3,184.2,4.3,184.2,4.2z"/>
            <path d="M193.1,4.3c-1.1-0.1-2.1,0-3.2,0.2c1.1,0,2.1,0.1,3.1,0.1C193.1,4.5,193.1,4.4,193.1,4.3z"/>
            <path d="M174.2,4.2C174.2,4.2,174.2,4.2,174.2,4.2c0.4,0.1,0.8,0.1,1.1,0.1C175,4.2,174.7,4.1,174.2,4.2z"/>
            <path d="M1154.4,31.8c0.1-1.1-2.5-2.2-3.2-0.8C1152,31.7,1153.2,32,1154.4,31.8z"/>
            <path d="M170.3,4.9c0,0.1,0,0.1,0,0.2c0.2,0,0.3-0.1,0.5-0.1C170.6,4.9,170.5,4.9,170.3,4.9z"/>
            <path d="M159.7,5.5L159.7,5.5l1.1,0.1c0-0.1,0-0.2,0.1-0.3c-0.4,0-0.7,0-1.1,0C159.8,5.4,159.8,5.4,159.7,5.5z"/>
            <path d="M177.4,5.3c-0.7,0-1.4,0-2.1,0C176.1,5.4,176.8,5.4,177.4,5.3z"/>
            <path d="M170.2,5.4L170.2,5.4l0.7,0.1c0-0.1,0.1-0.1,0.1-0.1C170.8,5.3,170.5,5.3,170.2,5.4C170.2,5.3,170.2,5.4,170.2,5.4z"/>
            <path d="M193.6,5.4c1.1,0.1,2.3,0.3,2.6-0.1c-0.8,0-1.7,0-2.6,0C193.6,5.4,193.6,5.4,193.6,5.4z"/>
            <path d="M223.1,3.2l-0.7-0.1c0,0.1,0,0.2-0.1,0.4l0,0c0.2,0,0.5,0,0.7,0.1C223,3.4,223.1,3.3,223.1,3.2z"/>
            <path d="M226.5,4.9c3-0.1,3.3,1.3,5.8,0.9c-0.1-2.2-5.9-1-9.1-1l0,0c-2.6,0-5.7-0.5-6.4,0.5C219.8,6.4,224.3,5.5,226.5,4.9z"/>
            <path d="M213.7,5.7c0.9,0.1,1.5-0.1,1.6-0.6C214.4,4.5,212.7,5.1,213.7,5.7z"/>
            <path d="M228.3,3.1c-1.2-0.2-1.8,0-1.9,0.5C227.6,3.8,228.5,3.8,228.3,3.1z"/>
            <path d="M237.2,3.6c0-1.1-2-0.6-3.6-0.5c-1.1,0.1-2.3-0.3-2.3,0.3C233.4,3.9,235.5,3.6,237.2,3.6z"/>
            <path d="M171.9,4.1c-1.6-0.2-3-0.2-3.8,0.1C169.4,4.2,170.6,4.2,171.9,4.1C171.9,4.2,171.9,4.2,171.9,4.1z"/>
            <path d="M208.2,5.5c0.6-0.2,1-1.3-0.5-1.3c-0.1,0.1-0.3,0.2-0.8,0.1l0,0C206.9,4.9,207,5.4,208.2,5.5z"/>
            <path d="M163.8,4.1c-0.1,0-0.1,0.1-0.2,0.1c0.4,0,0.8,0,1.2,0C164.5,4.1,164.1,4.1,163.8,4.1z"/>
            <path d="M157.4,4.1c-3.7-0.3-8-0.7-10.8,0.1l0,0c0,0,0,0.1,0.1,0.1c3.3,0,6.9-0.1,10.6-0.1C157.4,4.1,157.4,4.1,157.4,4.1z"/>
            <path d="M196.9,4.1c-0.7-0.1-1.5-0.2-2.2,0C194.3,4.7,197.4,4.8,196.9,4.1z"/>
            <path d="M204.1,5.5c-0.2-0.6,0.7-0.5,0.5-1c-0.8-0.1-1.5,0-2.3,0.1C202.4,5.1,202.9,5.4,204.1,5.5z"/>
            <path d="M145.9,4.1c-1.5,0-3.2-0.1-4.1,0.2c1.2,0,2.5,0,3.8-0.1C145.7,4.2,145.8,4.1,145.9,4.1z"/>
            <path d="M493.3,3.1c1.8,0.7,4,0.2,5.9,0.4C498.9,2.7,493.9,2.4,493.3,3.1z"/>
            <path d="M616.2,2.7l-0.7-0.1c0,0.1,0,0.2-0.1,0.3l0,0l0.7,0.1C616.1,2.9,616.2,2.8,616.2,2.7z"/>
            <path d="M659.3,2.8c0.3-0.9-2.3-0.7-2.6-0.2C657.6,2.4,658.5,2.5,659.3,2.8z"/>
            <path d="M620.5,3.8c-0.8-0.4-1.8-0.3-2.6,0.1C618.6,4.4,620.2,4.3,620.5,3.8z"/>
            <path d="M618.7,3.1l1.1,0.1c0-0.2,0.1-0.5-0.3-0.6C619.4,2.9,618.6,2.7,618.7,3.1L618.7,3.1z"/>
            <path d="M628.1,2.6c-0.8-0.8-4.3-0.6-3.8,0.5C625.6,3.2,626.9,3.1,628.1,2.6z"/>
            <path d="M634.1,9c0-0.2-0.1-0.3-0.3-0.4c-1.4-0.2-1.7,0.2-2,0.7l0,0c0.6,0.2,1.2,0.4,1.8,0.3C634,9.6,634.2,9.3,634.1,9z"/>
            <path d="M620.2,0.8c0.5-0.5-0.4-0.6-1.4-0.7C618.6,0.6,619.2,0.7,620.2,0.8z"/>
            <path d="M593.1,2.9c0.6,0.2,1.2,0.4,1.8,0.3C595.5,2.8,593,2.6,593.1,2.9z"/>
            <path d="M576,0.4c-1.6-0.1-3.6-0.4-4.1,0.2C572.7,0.7,575.8,1.3,576,0.4z"/>
            <path d="M608.8,2.4c-1-0.5-2.2,0.1-3,0.3C606.5,3,609.1,3.2,608.8,2.4z"/>
            <path d="M554.3,0.9c0.4-0.9-1.9-1.2-2.5-0.6C552.5,0.9,553.4,1.1,554.3,0.9z"/>
            <path d="M602,0.5c-0.4-0.3-1.8-0.4-1.9,0C600.7,0.8,601.4,0.8,602,0.5z"/>
            <path d="M609.9,9.2c-1.6,0-6-1.3-6,0.2C605.9,9.5,607.9,9.5,609.9,9.2z"/>
            <path d="M426.8,4.3c-1.6-0.1-3.3-0.1-3.1,1C424.6,5.5,427,5.3,426.8,4.3z"/>
            <path d="M723.7,0.9c-1.7,0-4.1-0.5-4.9,0.1C720.4,0.9,723.5,1.8,723.7,0.9z"/>
            <path d="M732.9,10.4c1.3-0.4,2.8-0.4,4.1,0c1.2,0,1.8-0.4,3-0.4c0.5-0.4,3.2,0.5,2.7-0.5c-1.2,0.1-2-0.6-3.2-0.7l0,0     c-1.7-0.1-3.9,0.5-5.7,0.5c-2.5,0.1-5-0.4-7.1,0.1c-1.3-0.1-1.6-0.6-2.8-0.8c-1.4,0.9-6.4-0.5-7.2,0.8     C722.3,11.3,727.7,8.8,732.9,10.4z"/>
            <path d="M721.8,5.1c0.6,0.4,1.4,0.6,2.2,0.4C724.3,4.8,722,4.3,721.8,5.1z"/>
            <path d="M660.8,0.6c-1.3-0.4-2.7-0.5-4-0.4C657.3,0.9,660.2,1.1,660.8,0.6z"/>
            <path d="M722.2,3c0.8,0.3,1.5,0.7,2.2,0.2C724.2,3.1,722.4,2.7,722.2,3z"/>
            <path d="M695.4,3c-1-0.2-2.7-0.8-3.6-0.5C691.3,3.3,695.3,4,695.4,3z"/>
            <path d="M738.2,0.9c-0.7-0.3-1.6-0.3-2.3,0.1C736.6,1.5,737.5,1.4,738.2,0.9z"/>
            <path d="M666.8,2.9c1,0.1,2,0.2,1.9-0.4c-0.7,0-0.8-0.3-1.4-0.3C667.1,2.5,666.7,2.5,666.8,2.9L666.8,2.9z"/>
            <path d="M666.8,0.4c-0.8-0.5-3.2-0.3-3.4,0.2C664.8,0.7,666.7,1.1,666.8,0.4z"/>
            <path d="M697.3,9.6c-0.3-0.7-1.7-1-3.1-1.3c-1.9,0.6-5.8,0-7.2,0.9C690.5,9.4,694.4,9.8,697.3,9.6z"/>
            <path d="M677.5,3l2.9,0.3C681.2,2.2,677.4,2.2,677.5,3z"/>
            <path d="M683.1,0.7c-0.5-0.5-2.5-0.3-3.3-0.3C679.4,0.9,683.4,1.3,683.1,0.7z"/>
            <path d="M566,2.5c0.8,0.3,1.7,0.4,2.5,0.4C569,2.3,566.1,2,566,2.5z"/>
            <path d="M473.5,3.3c-0.5-0.3-2.8-0.6-3-0.1C471.1,3.5,473.4,3.8,473.5,3.3z"/>
            <path d="M470.2,3c-0.6,0-1.3-0.1-1.2,0.2C469.5,3.3,469.9,3.2,470.2,3z"/>
            <path d="M465.4,5.2c0.9,0.1,1.7,0.1,2.6,0.1C468.4,4.4,465,4.3,465.4,5.2z"/>
            <path d="M486.8,4.1c-1.2-0.1-2,0-2.3,0.5C485.3,4.7,486.1,4.6,486.8,4.1z"/>
            <path d="M482.1,3c-1-0.3-2.5-0.4-2.7,0.3C480.9,3.5,481.8,3.4,482.1,3z"/>
            <path d="M468,3.3c-1.2-1.2-5.8-0.4-7.1,0.2C463.8,3.8,466.4,3.9,468,3.3z"/>
            <path d="M454.2,3.3c-2,0-3.4-0.8-4.4-0.2C450.9,3.2,453.9,4.3,454.2,3.3z"/>
            <path d="M554,2.8c-1-0.2-2-0.2-3-0.1C550.8,3.4,554.5,3.9,554,2.8z"/>
            <path d="M434.1,3.4c0.4-0.6-1.6-0.8-1.5-0.1L434.1,3.4z"/>
            <path d="M430.3,3.7c0.9-0.3,0.7-0.5,0.2-1L429,2.6C428.3,3.1,428.9,3.5,430.3,3.7z"/>
            <path d="M444.8,3.6c0.3-0.5-0.7-0.6-1.7-0.7C442.8,3.5,443.8,3.6,444.8,3.6z"/>
            <path d="M449.7,5.5c0-0.2,0.1-0.3,0.1-0.5c-0.2,0-0.5,0-0.7-0.1c-0.1,0.2-0.5,0.2-0.5,0.5l0,0C449,5.4,449.4,5.5,449.7,5.5z"/>
            <path d="M490,2.8c-1.6-0.5-5.2-0.7-5.3,0.4C486.6,3.2,489,3.8,490,2.8z"/>
            <polygon points="430.3,3.7 430.3,3.7 430.3,3.7    "/>
            <path d="M528.7,0.7c-0.4-0.6-2.6-0.6-3.6-0.5C524.6,0.9,528.6,1.6,528.7,0.7z"/>
            <path d="M520.9,2.8c0.9,0.4,4.7,0.9,4.8,0.1C524.6,2.5,521.2,2.1,520.9,2.8z"/>
            <path d="M518.7,4.6l1.1,0.1c0-0.1,0-0.2,0.1-0.4c-0.4,0-0.7-0.1-1.1-0.1C518.8,4.3,518.7,4.5,518.7,4.6L518.7,4.6z"/>
            <path d="M521.6,0.6c-1.3,0-2.4-0.8-3-0.1C519.1,0.9,521.5,1.3,521.6,0.6z"/>
            <path d="M537.7,0.1c-1.8,0-4.1-0.4-4.2,0.7C535.6,1,537.8,1.2,537.7,0.1z"/>
            <path d="M534.6,3c1.6,0.2,3,0.3,2.7-0.6C535.9,2.2,534.6,2.2,534.6,3z"/>
            <path d="M504.1,2.9c-0.8-0.1-1.4-0.1-1.5,0.2C503.1,3.4,504.2,3.4,504.1,2.9z"/>
            <path d="M175.9,4.7c-0.7,0-1.3,0.2-1.7,0.4C175.4,5.3,176,5,175.9,4.7z"/>
            <path d="M501.1,0.7c-2.1,0-3.2-0.2-5.9-0.4C495.5,1.4,500.5,1.2,501.1,0.7z"/>
            <path d="M511.1,3.2c0.9,0.4,3,0.4,3.4,0C513.4,2.8,511.7,2.6,511.1,3.2z"/>
            <path d="M493.7,0.7c-2.4-0.5-6.2-0.6-7.5,0.2C488.6,1.5,492.8,1.6,493.7,0.7z"/>
            <path d="M514.2,0.3c-2.6-0.2-5.6-0.7-6.4,0.3C509.8,0.3,513.8,1.8,514.2,0.3z"/>
            <path d="M353.4,5.4L353.4,5.4c0.6,0,1.3,0.1,1.2-0.2L353.8,5C353.8,5.2,353.5,5.2,353.4,5.4z"/>
            <path d="M788.7,5.8L788,5.7c0,0.1,0,0.2-0.1,0.3l0.7,0.1C788.7,6,788.7,5.9,788.7,5.8z"/>
            <polygon points="898.2,7.6 898.2,7.6 898.2,7.6    "/>
            <path d="M794.5,2C795.7,2.7,795.8,1.5,794.5,2L794.5,2z"/>
            <path d="M890,7.4c0.2-0.4-0.4-0.6-1.4-0.7C888.5,7.2,889.1,7.4,890,7.4z"/>
            <path d="M803.1,4.6l0.7,0.1c0-0.1,0-0.2,0.1-0.3l-0.7-0.1L803.1,4.6z"/>
            <path d="M780.8,1.7c-0.7-0.3-1.5-0.4-2.2-0.2C778.6,2.2,780.4,2.1,780.8,1.7z"/>
            <path d="M810.9,11.5c0-0.6-1.8-1.1-2.9-0.8C807.7,11.4,809.8,11.8,810.9,11.5z"/>
            <path d="M1009,15.3c0.8,0.4,1.6,0.6,2.5,0.6C1011.8,15.4,1009.5,15,1009,15.3z"/>
            <path d="M929.7,22.2L929.7,22.2c0.5,0,1,0.1,1.5,0.1c0-0.2,0.1-0.5,0.1-0.7C930.1,21.4,929.6,21.6,929.7,22.2z"/>
            <path d="M977.5,9.4c-0.5-0.3-2.5-0.6-2.6-0.1C975.4,9.6,977.5,9.9,977.5,9.4z"/>
            <path d="M777.8,4.4c0.6-0.2,0.7-0.9-0.6-0.9C776.4,3.7,777.1,4.2,777.8,4.4z"/>
            <path d="M804.2,2c-0.7-0.2-1.5-0.3-2.2-0.2C801.7,2.4,804.4,2.8,804.2,2z"/>
            <path d="M899,7.3l-0.7-0.1c0,0.1,0,0.2-0.1,0.3l0.7,0.1C899,7.6,899,7.5,899,7.3z"/>
            <path d="M894.6,18.4c0.4,0.3,2.1,0.5,2.2,0C896.4,18.2,894.7,18,894.6,18.4z"/>
            <path d="M73.1,88.2c1.6,0,4.3,0.1,7.6,0.2c0.2-0.1,0.4-0.2,0.6-0.2C78.3,88,75.4,87.9,73.1,88.2z"/>
            <path d="M137.2,18.7c0.5,0,1-0.1,1.5-0.2c-2.2-0.1-4.1-0.1-5.6-0.2C134.5,18.5,135.9,18.7,137.2,18.7z"/>
            <path d="M1164.2,31.1c-2.4-0.1-3.8,0.1-5.9-0.5c-0.8,0.3-2,0.3-2,1.1c2.3,0.9,6.2,0.5,8.9,0.5c0.2,0.1,0.4,0.1,0.6,0.2v-0.9     C1165.2,31.2,1164.7,31.1,1164.2,31.1z"/>
            <path d="M129.5,18.1c-0.4,0,1,0.1,3.6,0.2C131.9,18.2,130.7,18,129.5,18.1z"/>
            <path d="M1156.6,217.6c-1.6-0.8-2.9-0.8-5.4-1.2c-0.7,0.2-0.6,1-1.7,1.1c-3.9-0.6-6.3-0.5-8.3-1.6c-1.7,0.2-3.5,0.2-5.2,0.1     c-1.7,1.1-4.8,1.3-7.4,1.8c-1.5-0.2-1-1.1-2.8-1.1c-2.4,0.3-4.3-0.6-6.6-0.8c-2.1,0.5-3.3,1.2-6.2,1.2c-2.3,0-5-0.8-7.1-0.1     c-1.7-0.3-3.5-0.2-5.2,0.2c-0.6-0.4-1.4-0.6-2.1-0.6c-1.4-0.2-1.5,0.5-3,0.3c-2-0.2-1.3-1.4-3.5-1.6c-2.9,0.1-4.5,0.8-7.8,0.2     c-2.7,1.1-6.8,0.6-10.5,0.6c-1.5,0.2-3,0.2-4.5,0.1c-1.5-0.2-2.4-0.9-3.9-1.1c-2.6-0.3-5,0.5-7.4-0.3c-1.8,0.2-2.6,1.7-4.7,1.7     c-2.3,0-3-0.8-5-1.5c-2.3-0.2-4.5-0.1-6.7,0.3c-1.8-0.5-2.9-0.2-5.1-0.5c-2.8,0.5-5.8,0.9-8.4,1.5c-0.5-0.4-0.9-0.9-1.3-1.4     c-2.5-0.3-5-0.1-7.5,0.4c-4.4-1.3-8.4,0.1-12.2-0.8c-1.6,0.7-3.9,0.2-6.4,0.1c-3.2-0.1-6.2,0.6-9.3,0.2c-1.5,0.2-1.8,1.2-3.9,1.1     c-1.5,0-0.6-0.9-2.1-0.9c-1.5,0.7-2.9-0.3-4.8-0.4c-2.5-0.1-5.4,0.9-7.4-0.1c-3.2,0.2-4.6,1.5-8.7,1.1c-1.9-0.5-1.7-1.1-3.5-1.4     c-2.9-0.4-6.4,1-9.2-0.3c-4.5,1.1-12.4-0.7-17.5-0.2c-1,0.2,0.6,1-0.9,1c-3.2-1.5-8.4-0.6-12.4-1.5c-2.6,0.6-7.3-0.6-9.7,0.3     c-0.9-0.2-0.9-0.8-2.5-0.8c-3,0.5-6.5,0.1-10,0c-2.1-0.1-4.3,0.3-6.3,0.1c-0.9-0.1-1.7-0.4-2.5-0.4c-0.5,0-1.2,0.2-1.9,0.2     c-0.8,0-1.6-0.2-2.2-0.2c-4.2,0.1-5.5,1.3-8.8,1.5c-2.6-0.7-5.3-1.6-8.3-1.3c-1.1,0.1-0.5,1.2-2,1.1c-2.6-1.9-7.2-1-9.6-0.2     c-3.6-1-5.2,0.6-9.3-0.1c-1.3-0.3-0.8-1.1-2.4-1.3c-2.4,0-3.6,0.7-5.4,1.1c-1.4-0.2-0.8-1.1-2.8-1.1c-4.8,0.4-11.1-0.2-16.4-0.1     c-1.9,1-6,0.7-8.1,1.6c-5.6-1.4-11.8-1.2-17-1c-1.6-0.2-1.5-1-3.6-1c-2.4,0.9-5,1.1-7.5,0.4c-2.4,1.1-6.5,0.1-10.1,0.1     c-1,0-1.7,0.3-2.7,0.3c-2.5-0.1-5.3-1.1-7.4-0.3c-1.3-1-2.8-0.8-5.8-1.2c-3.5,1.1-9.4,2-14.2,0.1c-2.2,0.7-4.5,1.1-6.9,1.1     c-2.2,0-4.5-0.5-6.6-0.6c-3.3-0.1-6.3,0.4-9.4,0.4c-1,0-2-0.3-2.9-0.3c-1.3,0.1-2.5,0.2-3.8,0.4c-1.1-0.9-2.5-1.3-3.9-1.2     c-2,0.1-0.5,1.2-2.8,1.2c-2.2,0-2.2-0.9-3.9-1.1c-3.6,0.3-7.2,0.2-10.7-0.3c-5.8-0.5-9.7,1.1-13.2,0.9c-1.9-0.1-3.5-1-5.4-1     c-1.5,0-1.7,0.4-3.4,0.4c-7.4-1.4-13.3-0.3-18.3,0.4c-1.4-0.3-1.6-1.1-3.5-1.2c-1.9,0.1-2.5,0.9-4.6,0.8     c-1.6-0.3-1.8-0.7-3.2-0.8c-2.7-0.3-5.4,0.8-7.8-0.4c-2.9,0.3-7.6,0.9-10.8-0.1c-1.5,0.3-2.4,1.3-4.7,1.3c-2.8,0-4.4-0.8-6.5-1.5     c-4.6,0.7-11.1-0.6-15.6-0.2c-1.5,0.1-2.4,0.8-3.9,0.9c-3.1,0.1-5.9-0.9-8.5-0.1c-1.4-0.2-0.4-1.2-2-1.2     c-4.1,0.4-10.2-0.5-14.5-0.3c-1.2,2-6.1,0.7-8.1-0.4c-2.7,0.5-5.5,0.5-8.2,0.1c-1.1,0.2-1,1.1-2.7,0.8c-2.9-1.4-6.9-0.7-11.4-1     c-1.3,1-5.6,1.5-6.3-0.2c-4.7,0.3-11-0.4-15,0.4c-3.5-1.5-7.3,0-10.8-0.1c-0.8,0-2.2-0.4-2.9-0.4c-4.8-0.4-9.2,0.7-13.5,0.7     c-1.5-0.1-1-1-2.8-1c-1.8,0-3.6,0.3-5.3,0.8c-3.3-1.7-8.1,0-12.1-1.3c-1.5-0.2-1.7,0.5-3.1,0.4c-1.7-0.3-3.4-0.6-5.1-0.6     c-1,0.3-2,0.4-3,0.4c-2.4-0.6-4.6,0.1-7.4,0c-3.2-0.1-6.9-0.9-10.3-0.9c-2.1,0-3.5,0.7-5.6,0.2c-1.4,0.3-2,0.9-3.9,0.9     c-1.5-0.4-2-1.1-3.5-1.2c-1.3-0.1-2.4,0.5-4.2,0.5c-2.6,0-4.7-0.6-7.7-0.7c-1,0.3-2,0.4-3,0.4c-5-0.8-7.4,0.1-10.5,0.5     c-5.8-1.9-11.6,0-18.5-0.8c-3.5,2.3-10-0.4-15.9-0.4c-1.4,0.5-1.1,1.3-3.2,1.5c-2,0.2-4.9-0.8-6.7-0.3c-1.5-0.9-5.3-1-8-1.1     c-1.3,0.1-1.6,0.9-2.8,1.2c-4.4-0.3-5.9,0.1-10.7-0.6c-2.5,0.9-6.8,0.5-10.1,0.1c-2,1-8,0.3-11.1-0.5c-4.4,1.2-12.2-0.6-17.1,0     c-2.1,0.3-2.3,1.5-4.7,1.2c-1.2-0.2-0.3-1.1-2.1-1.1c-3.7,0.7-7.5-0.3-11.2,0.2c-0.6-0.2-0.3-0.7-1.7-0.7c-3.1,0-4.4,1.2-7.3,1.3     c-1.6-0.6-2.7-1.3-5-1.3c-1.8,0-1.8,1-3.5,0.9c-1.6,0-1.1-0.7-2.5-0.8c-1.3,0.6-2.8,1-4.3,1c-2.6-1.1-4.6-0.6-7.7-0.5     c-0.7,0.1-0.1,1-0.9,1c-2.6-0.3-6.3-1.1-9.1-1c-2.1,0.1-2.7,1-4.3,1c-5.5-0.9-10,0.2-13.6-1.2c-2,0.3-3.6,0.9-5.4,1.3     c-3.4-0.8-7-0.8-10.4,0.1c-0.9-0.1-1.7-0.2-2.6-0.2c-4.1,1.1-9.5,0.2-15.3,0.4c-3.2,0.1-6.3,1-8.7,1c-3.3,0-7.6-1.4-9,0.6     c5.6,0.8,11.7,0.3,16.7,0.1c9.7,2,18.3,0.2,27.4,0.6c1.8-1.3,4.1-0.4,7.1-0.2c2.5,0.1,5.3-0.3,8.2-0.1c1,0.1,2.3,0.3,3.3,0.3     c1.2,0,2.3-0.4,3.4-0.4c2.1-0.1,4.6,0,7.1-0.1c4.7,0,10.2,0.4,14.1,0.1c1.2-0.1,1.9-0.5,3-0.4c1,0,2.3,0.4,3.3,0.5     c2.6,0.2,5.2,0,7.8,0c0.8,0,1.7,0.2,2.6,0.2c5.3,0,10.9-0.1,16-0.1c5.1,0,10.3,0.4,15.2,0.3c2.1-0.2,4.2-0.2,6.4-0.1     c1.2,0.1,0.4-1,1.6-0.9c0.6,0.2,1.2,0.5,1.7,0.9c3.6-0.3,7.4,0.2,11.5,0.2c0.9,0,1.8-0.3,2.7-0.3c2.8-0.1,6-0.1,8.9-0.1     c1,0,2,0.2,2.9,0.3c3.3,0.1,6.6-0.5,10.1-0.3c7.1,0.3,13.2,0,19.7,0c2.3,0,3.5-0.1,4.9-0.1c0.6,0,1.6,0.3,2.2,0.4     c2.6,0.1,5.1-0.2,7.8-0.2c3.8,0,8.2,0.4,12.2,0.4c1.3,0,2.5-0.2,3.8-0.2c1.2,0.1,2.5,0.3,3.7,0.3c1.1,0,2.3-0.2,3.4-0.2     c3.9,0,7.7,0.4,11.2-0.2c5.6,1.4,12.3-0.1,18.1,0.8c1.5-0.5,2-1.2,4.3-1.2c2.2,0.2,4.4,0.7,6.5,1.5c4.6-0.4,9.5,0.3,14.1,0.4     c2.5,0,5-0.3,7.5-0.2c5.7,0.2,9.5,0.1,14.1,0.2c9.4,0.3,18.5,0.3,27.8,0.6c2.6-0.7,7-0.1,9.7,0c4.5,0.2,9.2-0.2,13.8-0.2     c3.9,0.1,8,0.5,11.8,0.6c2.4,0,4.7-0.3,7.1-0.2c0.7,0,1.7,0.2,2.6,0.2c0.6,0,1.3-0.2,1.9-0.2c0.7,0,1.6,0.3,2.2,0.4     c3.4,0.3,6.7-0.1,10,0c2.4,0.1,4.6,0.2,6.3,0.2c6,0.2,11.4,0.3,16.6,0.6c3.5,0.2,4.9,0,7.5,0c5.9,0,12.2,0.7,18.1,0.6     c0.8,0,1.5-0.3,2.3-0.3c3.3-0.1,6.4,0.5,9.6,0.3c1,0,1-0.6,2.3-0.5c3.1,1.2,6.1,0.3,9.3,0.3c2.4,0,5.2,0.3,7.8,0.4     c1.9,0,3.5-0.3,5.3-0.2c2.1,0,4.3,0.4,6.3,0.4c2.8,0.1,5.5-0.3,8.2-0.1c6.3,0.3,10.4,0,15.6,0.2c5.4,0.2,8.7-0.1,13,0     c2.8,0.1,5.7,0.6,8.5,0.6c0.8,0,1.4-0.3,2.3-0.3c2.4-0.1,5,0.3,7.4,0.3c2,0,3.8-0.8,5.6,0c2-0.6,4.1-0.2,7.1-0.1     c4.4,0.2,7.9-0.2,12.3-0.1c5.3,0.1,9.9,0.1,13.7,0.2c4.9,0.1,8.9-0.1,13.7,0.4c2.5-0.7,7.9,0.5,9.8-0.5c2.6,0.7,6.2,0.7,9.6,0.7     c2.8,0,5.7-0.2,8.6-0.1c4.1,0.2,6.6,0.1,9.7,0.2c3.5,0.1,4.9,0.3,6.7-0.3c2.4,0.7,4.7,0.2,7,0.3c7.3,0.2,14.6,0.6,21.8,0.8     c1.2,0,2.2-0.1,3.4,0c5,0.1,8.6,0.1,12.6,0.1c7,0.1,14.3,0.6,20.5-0.2c12.4,0.9,23.4,0.6,36.3,1.2c0.9-0.6-0.4-1.6,2.4-1.2     c1.8,0.3-1.5,0.9,0.9,1.1c2.2,0.4,1.1-1.2,3.1-1c9.1,0.9,14.1,0.4,21.2,0c1.3,0.1,0.6,0.9,2.1,0.9c2,0.1,5.8,1.3,9.1,1     c1.1-0.2-0.6-0.9,0.5-1c1.7,0.1,0.8,1,2.4,1.1c5.4,0.2,10.7,0.3,15.6,0.2c1.2-0.1,1.3-0.9,3.1-0.6c1.3,0.1,1.2,0.8,2.9,0.8     c4.2-0.1,9.4-0.1,12.7-0.1c2.4,0,5.1,0.4,7.4,0.3c1.5,0,2.7-0.3,4.2-0.3c1.9,0,4,0.4,5.9,0.4c3,0,6-0.5,9-0.4     c3,0,6.1,0.5,8.9,0.5c0.8,0,1.5-0.3,2.3-0.3c3.8-0.2,7.7,0.6,11.2,0c0.7,0,1.5,0.1,2.2,0.4c2.4-0.6,5.8-0.1,7.8,0     c3.9,0.2,7.7-0.4,11.6-0.4c1.3,0,2.6,0.3,4,0.4c5,0.1,12.4,0.1,16-0.1c1.7,0.2,3.4,0.3,5.2,0.3c4.2,0.1,8.1,0.3,11.8,0.4     c4.7,0.1,9.6-0.5,13.5-0.4c2.9,0.1,5.6,0.6,8.1,0.6c0.7,0,1.4-0.3,2.3-0.3c0.7,0,1.7,0.1,2.2,0c1-0.2,2-0.4,3-0.4     c1.8,0,3.8,0.7,5.5,0.7c1.2,0,2.4-0.3,3.5-0.9c1,0.1,0.3,0.9,1.7,0.9c3.2-0.6,7.3,0.4,11.1,0.5c1.5,0,3.2-0.3,4.9-0.3     c3.8,0,8.6,0.2,12.4,0.4v-2.7C1163,217.5,1159.4,217,1156.6,217.6z"/>
            <path d="M72.6,88.3c0.2,0,0.3,0,0.5-0.1C71.1,88.2,70.7,88.2,72.6,88.3z"/>
            <path d="M756.7,3.4C755.6,2.7,755.5,3.9,756.7,3.4L756.7,3.4z"/>
            <path d="M1159.7,21.8c-0.3,0.5-0.7,0.8-1.3,0.9h0h0c-2.9-0.5-5.9-0.8-8.8-0.6c-1.8-1.2-6.7-0.6-9.2-0.5c-1.1-0.3-1.5-0.7-2.9-0.4     c-0.1,1.7,3.7,2.1,7,2.6c3.3-0.9,6.7-0.9,10.1-0.1c1.4-0.1,2.4-0.3,3.8-0.4c1.8,0.9,4.5,1.3,7.3,1.5v-2.2     C1163.7,22.4,1161.7,22.3,1159.7,21.8z"/>
            <path d="M753,3.4c-0.9-0.2-1.7-0.4-1.9,0.2C752,3.7,752.9,3.7,753,3.4z"/>
            <path d="M894.3,17.5c1.1-0.4,3.7-0.6,3.2-1.3c-3-0.4-4.7-1-7-0.5c-2-1.1-8.7-1.5-10,0l0,0c2.5,1.1,5.1,2,7.7,2.8     C890.1,18.1,890.5,16.8,894.3,17.5z"/>
            <path d="M1161.6,62.7c1.6-0.3,2.7,0.1,4.1,0.2v-1.1C1163.6,61.3,1160.7,61.4,1161.6,62.7z"/>
            <path d="M876.1,6.3c-0.9-0.2-1.8-0.2-2.6,0.1C874.1,6.8,876.1,6.9,876.1,6.3z"/>
            <path d="M907.2,7.6l-0.7-0.1c0,0.1,0,0.2-0.1,0.3l0.7,0.1C907.1,7.8,907.1,7.7,907.2,7.6z"/>
            <path d="M827.5,3.1c0-0.1,0-0.2,0.1-0.3l-1.5-0.1c0,0.1,0,0.2-0.1,0.4h0L827.5,3.1z"/>
            <path d="M853.4,4.1c0.5-0.7-1.9-0.8-2.5-0.6C850.8,4.2,852.4,4.1,853.4,4.1z"/>
            <path d="M1099.6,61.8c-0.7-0.3-1.4-0.4-2.2-0.4C1096.9,62.1,1099.5,62.3,1099.6,61.8z"/>
            <path d="M837.2,3.1c-1-0.1-2-0.2-1.9,0.4C835.9,3.7,836.6,3.5,837.2,3.1z"/>
            <path d="M941.6,24.3c0.5,0.2,0.9,0.3,1.4,0.3C943.7,24.2,941.5,24,941.6,24.3z"/>
            <path d="M811.6,2.4c-0.2,0-0.5,0-0.7-0.1c0,0.1,0,0.2-0.1,0.3l0.7,0.1C811.6,2.6,811.6,2.5,811.6,2.4z"/>
            <path d="M964.7,24.5c-0.8-0.1-1.4-0.1-1.5,0.2C964,24.8,964.5,24.8,964.7,24.5z"/>
            <path d="M854.1,6.6c0.2-0.5,0.2-0.9-1-1C852.4,5.9,852.6,6.7,854.1,6.6z"/>
            <path d="M701.3,23.8c-0.6,0.2-0.6,0.6,0.6,0.6C702,24.1,701.7,23.9,701.3,23.8z"/>
            <path d="M1156.9,123.3c-1.8-0.1-3.8-0.5-5.5-0.5c-3.4-0.1-6.5,0.5-9.7,0c-1.4,0.1-1-0.5-2.1-0.6c-4.3,0.7-8.7,0.7-13,0     c-1,0.1-2,0.3-3.1,0.4c-9.6-0.7-16.4-0.6-25.9-1c-1.2-0.2-1.2-0.8-2.5-0.9c-1.3-0.3-4.3,0-4.3-0.7c1.6,0,3.4-0.5,4.5-0.5     c2.2,0.1,4.7,0.9,6.9,1c2,0.1,4.4-0.4,7.1-0.2c1.3,0.1,2.5,0.3,3.7,0.3c0.6-0.1,1.3-0.2,1.9-0.4c4.2-0.4,9.2,0.9,13.7,0.7     c0.9,0,1.8-0.3,2.7-0.3c1.5,0,2.7,0.5,4.4,0.6c1.2,0.1,2.6-0.2,3.8-0.2c2.8,0,5.7-0.1,7.8,0c3.1,0.1,5.7,1,7.5-0.2     c0.7,0.4,1.4,0.7,2.1,0.9c3-0.1,6.3,0,9,0.1v-9.8c-2.8,0.4-6.7,0.1-10.3,0c-0.3-2,3.7-1.7,7-1.8c1.2,0,2.3,0,3.3,0V64.1     c-0.1,0-0.2,0-0.3,0c-3.2-0.1-5.9,0.3-8.2,0.1c-2.4-0.1-4.7-1.1-7-0.5c0.1,0.9-1.7,0.9-3.9,0.9c-2.2-1.1-4.8-3.7-8.1-2.9     c0.2,1.3,2.5,2,4,2.8c-2,0.3-3.1,1.3-6.8,0.6c-2.9-3.2-11.7-0.8-16.8-2.1c-1.6-0.3-1-1.4-2.7-1.7c-1.4,0-3.2-0.2-4.1,0.2     c-1.4,0.3,1.1,0.9-0.2,1c-2.2,0.3-4.5,0.2-6.6-0.4c-2.3,0.3-4.3,0.8-6.5,1.2c-5.3-1.9-13.1,0.5-18.3-1.9c-1,0.1-2,0.2-3,0.4     c0-0.9-1.3-1.4-3.5-1.6c-0.5,0.7-1.4,0.9-2.8,1.3c-1-0.5-2.2-0.6-3.3-0.3c-1-0.9-2.9-0.6-5-1.2c-0.4,0.8-1.4,1.2-3.2,1.1     c-1.3-0.2-1.6-0.9-3.6-0.9c-1.2,0-0.6,1.2-2,1.1c-1.5-0.2-3.9-0.1-4.7-0.6c-1-0.9,1.2-0.9,0.6-1.4c-0.3,0.3-2.4-0.1-2.1-0.6     c2.6-1,6.6-0.9,10,0c5.2-0.8,11.8-0.1,17.8,0c0.7,0,1.6-0.2,2.3-0.1c0.8,0,1.4,0.4,2.2,0.4c4.6,0,8.9-0.7,13.4,0.2     c1.7-0.3,3.5-0.3,5.2-0.1c1.6-0.8,4.4-0.9,7.6-0.7c3.3,1.6,7.3,0.6,12.2,0.8c1.8,0.1,3.6,0.4,5.1,0.5c0.7,0,1.6-0.3,2.7-0.3     c2.7,0,3.9,0.1,5.2-0.2c5.5,0.6,10.7,1.1,13.1-0.2c0.5,0.5,1.8,0.7,2.8,1c5.4-0.5,14.7,1.4,18.6-0.1v-9.7c-1.8-0.2-3.9,0-5.8,0     c-0.7,0-1.3-0.3-1.8-0.3c-1.3,0.1-2.5,0.2-3.8,0.4c-3.9,0-7.9-0.1-11.8-0.5c-1.1,0.8-2.3,1.3-3.6,1.6c-0.8-1.2-2.8-0.7-4.7-1.1     c-0.2-1.7,1.9-1.1,4.3-1.4c0.4-0.1,0.8-0.2,1.2-0.4c2.5-0.6,7.5,0.7,10.1-0.1c3.7,0.6,8.6,0.3,11.5,0.3c1.6,0,3.1,0.1,4.5,0.1     v-9.2c-0.2,0-0.5-0.1-0.7-0.1c-1.4-0.1-1.5,0.6-3.1,0.4c-2-0.5-4.1-0.7-6.2-0.6c-1.3-0.4-1.8-1-3.1-1.3c-0.6,1-2-0.1-3.3-0.3     c-1.2,0-1.1,0.7-2.3,0.7c-1.6-0.4-3.1-0.9-4.6-1.5c-0.3,0.3,0.3,1.2-0.6,1.2c-2.2-0.4-4.4-0.6-6.6-0.6c0.1,1.2-0.8,1.7-2.5,1.7     c-1.8-0.5-3.6-0.7-5.5-0.5c-2.7-1.2-5.7-1.8-8.7-1.5c-1.5-0.2-1.6-0.8-3.2-1c-4.2,0-8.4-0.3-12.5-1c0,0.7,2.7,0.5,2,1.4     c-1.7,0.3-2.5-0.5-4-0.7c-2.8-0.4-5.7-0.5-8.5-0.4c-1.7,0-4.2-0.5-4.9,0.3c0.9,0.7,3.6-0.2,4,0.7c-2.1,0-1.7,1.4-2.5,1.7     c-1.6-0.1-0.3-1.2-2-1.2c-1.8,0-3.7-0.1-5.5-0.3c-0.7-0.7-3.9-2.6-5-1.2c-0.1,0.7,2.6,0.3,2.4,0.9c-1.7,0.4-3.5,0.6-5.3,0.6     c-3.9-1.5-10.3-0.1-14.2-2.2c-2.5,0.4-7.4-0.8-8.6-0.1c0.2,0.5,2,0.4,1.7,1c-2.3-0.4-4.6-0.6-7-0.6c-1.5,0.1-2.8,0.7-4.2,0.7     c-2.5,0-4.9-0.5-7.2-1.5c-1.5,0.2-3,0.2-4.5,0.1c-0.9,0.4,1,1.9-0.4,2.4c-1-0.9-2.2-1.7-3.3-2.6c-3.2,0.1-5.9-2.1-7-0.3     c-0.9,0.1,1.7,0.4,1.3,0.8c-3,0.5-6,0.5-8.9,0.1c-1.8-0.3-3-1.2-5-1.3c-1.1-0.1-1.6,0.3-3,0.1c-0.1,0.5,0.8,1.1-0.9,1     c-1.2-0.1-0.2-1-0.9-1.3c-1.6-0.1-3-0.1-4.5-0.1c-0.1,0.3-0.1,0.7-0.2,1c-3.2,0.3-6.5,0.4-9.7,0.3c-0.3-0.6-0.6-1.1-0.8-1.7     c-2.8,0.2-3.5-0.2-6.6-0.6c-1.7,0.3-0.9,1.4-1,1.9c-2.3,0-4.7-0.2-7-0.6c-2.6,0.7-6.9,0.3-10.8,0.2c-1.5-0.9-4.3-1.3-6.4-2     c-0.9,0.5-3,0.2-3.5,0.9c-1.9-0.4-4.7,0.2-7.4-0.1c-0.6,0.2-0.4,0.9-1.6,0.7c-2.9-0.2-3.1-1.3-4.5-2c-1.5-0.2-2.3,0.1-2.4,0.8     c0.3,0.5,3.1,0.1,2.9,0.8c-1.8,0.4-3.5,0.6-5.3,0.7c-2.3-1.5-6.2,0.3-7.6-1.6c0.8,0,1.5-0.1,2.3-0.3c-0.4-1.2,1-1.3,1.4-2     c-2-0.5-4.2-0.6-6.3-0.4c-0.7,0.5,0.1,0.8-0.3,1.6c-0.8,0.2-2.5-0.1-3,0.3c-0.1,0.7,0.4,1.7-2.2,1.8c-1.6-0.3-1.3-1.2-3.1-1.3     c-1.1-0.1-2.3,0-3.4,0.2c-0.7-0.3-1.4-0.5-2.1-0.6c-3.2,0.5-6.6-0.5-10-0.6c-3.1-0.1-6.1,0.6-8.9,0.1c-2.9-2.5-6.1,0.8-11.1-0.5     c-1.2,0.3-1.7,1.1-2.9,1.5c-3.7-0.6-7.5-0.5-11.2,0.4c-0.8-0.4-1.9-0.8-2-1.4c0.7-1,3.7-0.7,3.7-2.1c-1.1-0.7-4.6-0.6-6.1-1.1     c-1.1-0.1-0.8,0.8-2.3,0.5c-1.5-0.3-3-0.6-3.5-1.2c0.9-1-0.9-1.9-0.4-2.2c1.2,0,1.2,0.4,2.5,0.4c-0.1-0.6,0.5-0.9,1.3-0.9     c7.1,2.4,15.1,0.4,23.5,2.1c1.2-1,4.5-0.7,6-0.2c0.2,0.9-1.7,0.5-2,1.1c2.6,1.6,6,0.6,8.5,0.1c0.5-0.4-1-0.9,0.2-1     c3.8-0.3,7.7-0.3,11.6-0.2c0.6,0.3,1.2,0.5,1.7,0.9c5.2-0.1,11.3-0.9,17,0.5c2.7-0.6,5.5-0.6,8.2-0.1c3.1-0.9,9.6,0.3,12.4-0.8     c1.1,0.4,1.1,1.2,2.8,1.3c3.1-0.3,6.2-0.4,9.3-0.2c1.3,0,1.1-1,2.7-0.8c0.1,0.5,0.4,1.1,1.7,1.2c1.7-0.3,3.5-0.2,5.2,0.3     c7-0.7,14.1-0.5,21.1,0.5c1.6-0.8,4.1,0,6.4-0.3c-0.2,0.7-1.6,0.8-1,1.5c4.1,0.4,3.2-2.2,8-1.4c1.1-0.9,3.4-1.3,1.5-2.5     c-2.2,0.1-4.6,0.6-7.2,0.6c-2.5,0-5.3-0.4-7.8-0.2c-1.8,0.1-2.9,0.7-4.6,0.6c-2.1-0.1-4.1-0.5-6.2-0.9c-3,0.3-6,0.2-8.9-0.1     c-2.1,0.6-5.9,0.2-8.6,0.4c-0.4-0.3-0.2-0.8-1.3-0.8c-3.9,0.1-7.9-0.2-11.8-0.9c-1.5,0-1.6,0.8-3.4,0.6     c-6.1-1.1-11.2-0.2-15.7,0.3c-1.8-0.8-3.8-1.2-5.7-1.2c-1.2,0-2.1,0.4-3.4,0.4c-2.5,0.1-5.5-0.4-7.4,0c-2.9-1.3-6.2,0.1-10.3-0.9     c-0.7,0-0.1,0.8-0.9,0.8c-1.7-0.2-3.7-0.7-5.8-0.7c-1.1,0-2.2,0.3-3.4,0.2c-0.7-0.1-1.7-0.4-2.5-0.6c-4.4-0.8-5.8,0.4-8.7,0.8     c-1.4-0.5-2.9-0.7-4.4-0.6c-1.2-0.4-0.8-1.2-2.8-1.3c-5.1,0.8-10.2,1-15.4,0.5c-0.9,0-1.1,0.5-1.9,0.5c-0.9-0.3-1-1-2.4-1.1     c-2.2,0.6-5.5,0-8.1-0.6c-1.7,0-2.2,0.7-3.8,0.7c-4.9-0.8-9.9-0.9-14.8-0.3c-1.1-0.4-0.8-1.2-2.8-1.3c-1.4-0.1-0.8,1-2,1.1     c-2.4,0-4.7-0.6-7-0.6c-2.5-0.1-4.4,0.4-6.3,0.1c-1.7-0.2-2.7-1-4.3-1.1c-1.6,0-3.2,0.4-4.7,1.2c-1-0.4-2.1-0.8-3.2-1     c-2.8,0.2-7.2-0.6-9,0.2c-4.7-2.3-7.6,1.2-14.5-0.1c-2.4-1.8-6.7-0.3-9.1-1.5c-3.1,1-6.3,1.5-9.5,1.4c-2.4-0.4-3-1-5.1-0.5     c-0.6-0.5-1.3-0.9-2.1-0.9c-2.8,0.1-5.1-0.3-7.8,0c-1.4,0.1-2.3,0.7-3.8,0.7c-3.2,0.1-6.5-0.6-9.9-0.7c-2.4-0.1-5.2,0.7-7.8-0.2     c-0.7,0-0.4,0.6-1.6,0.4c-1.6-0.9-6.3-0.6-8-1.4c-1.4,0.2-3.2,0.9-4.6,0.8c-5.9-0.4-13.3,0.5-18.2-0.4c-1.8,0.5-5.5-0.1-7.8,0.2     c-1.5,0-1-0.6-2.5-0.6c-1.5,0.9-5.5,0.3-6.9,1.3c-1.7-0.1-2.9,0.1-4.5,0.1c-0.2-0.3-1.7-0.1-1.8-0.5c-2.3,0.7-5.1-0.3-8.1-0.4     c-3.8-0.2-9.1,0.7-11.9,0.1c-1,0.1-1,0.8-2.3,0.7c-0.2-0.6-1.4-0.9-2.8-1.1c-3.7,0.6-8.7,0.4-13.8,0.2c-2,0.5-4,0.5-6,0.2     c-1.2,0.2-1.5,0.9-2.8,1c-1-0.1-0.3-0.9-1.7-0.9c-1.3,0.1-1.4,0.9-3.1,0.8c-1.4-0.4-2.8-0.7-4.3-1.1c-1.6,0.2-3.2,0.3-4.9,0.3     c-1.6,0-3.7,0.2-5.2,0.1c-0.5,0-1.2-0.3-1.8-0.3c-2,0-4,0.5-6,0.5c-0.9,0-2.1-0.4-2.9-0.4c-1.2-0.1-2.4,0.2-3.8,0.2     c-5.2-0.2-8.8,0.2-13.7-0.5c-2.9,0.8-7.4,0.6-12,0.3c-2.4,1.5-6.2,0.5-10.1,0.3c-0.5,0-0.7,0.2-1.2,0.2c-0.7,0-1.7-0.2-2.2-0.2     c-0.7,0-1.4,0.4-2.3,0.5c-2.4,0.2-4.3-0.4-6.6-0.4c-2.2,0-3.8,0.8-5.7,0.7c-2.4-0.9-5.7-0.6-8.8-0.8c-0.8,0.2-1,1.4-2.3,0.7     c-1.1-0.4,2.5-0.9-0.2-1.3c-1.2,0.8-2.6,1.4-4,1.8c-2.8-1.7-7.4-0.6-11.7-1.1c-0.6,0.2-0.4,0.9-1.6,0.7     c-4.4-1.6-7.2,0.4-12.2-0.8c-2.3,0.7-6.9,0-9.4,0.6c-1.3,0-1.4-0.4-2.5-0.4c-0.8,0.1-0.8,0.7-1.9,0.5c-1.7,0-2.2-0.4-3.6-0.5     c-11,0.1-22.5-0.2-33.1,0.2c-1.3-0.3-1.8-0.9-3.9-0.9c-0.7,0.1-0.1,1-0.9,1c-4.5-0.2-8.9-0.2-13.4,0c-1.2,0.1-2.2-0.3-3.3-0.3     c-0.6,0-1.3,0.3-1.9,0.4c-1,0-1.7-0.1-2.6-0.1c-2.4-0.9-6-1.1-9.5-1.2c-1.1,0.7-2.7,1.1-3.7,2c-1.2-0.2-1.5-0.7-3.2-0.7     c-2.4-0.1-4,0.3-6.3,0.1c-1.6-0.1-3.2-0.9-5-1c-3.4-0.3-6.5,0.9-10.6,1c-1.8,0-4.3-0.4-6.3-0.4c-2.4,0-3.7,0.4-5.5-0.3     c-2.7,0.8-5.5,0.7-8.1-0.2c-2.7,1-5.7,0.5-9.4,0.4c-3.5-0.1-7.3,0.2-11.5-0.3c-1.5-0.2-2.9-0.8-4.7-0.8c-0.5,0.3-0.3,1.1-1.3,1.1     c-2.6-0.2-5.2-0.1-7.8,0.2c-4.2-0.6-9.7-0.3-13.7-0.2c-3.5-1.5-8.2-1.3-10.1,0.1c-3-0.9-6.2-0.2-9.3-0.1c-4.5,0-9.1-0.5-12.7,0.3     c-1.5-0.8-5.6-0.6-8.4-1.3c-3.4,1.2-9.1-0.1-13.8,0.2c-0.7,0.3-0.6,1.2-1.7,1.3c-2.2,0.2-4.5-0.1-6.5-1c-1.9,0.2-3.9-0.2-6,0     c-1.4,0.1-2.3,0.6-3.8,0.5c-1.3,0-3.2-0.6-5.1-0.8c-0.5,0-1.4,0.1-1.9,0c-0.8-0.1-1.3-0.5-2.1-0.6c-5.1-0.5-9.6,0.1-14.9-0.1     c-1.3,1.2-3.7,1.7-6.5,1.7c0.6,0.1,1.1,0.3,1.6,0.5c1.2,0.1-10.9-0.1-25.4-0.3c-1.7,0.2-3.8,0.2-6.2-0.1c-0.9,0-1.7,0-2.6-0.1     c-4.9,1.3-13.2,0.5-20.9,0.1c-1,0.1-1.4,0.6-2.4,0.8c-1.9-0.3-3.7,0.3-5.6,0.4c-4.2,0.1-8.7-0.9-12.9-0.8c-1,0-1.8,0.4-2.7,0.5     c-0.6,0-1.4-0.2-2.2-0.2c-1.6,0-3.4,0.6-5.6,0.2c-1.8,0.6-3.8,0.7-5.6,0.2c-5,0.6-12.6-0.4-17.5,0.3c-0.5,0.7,0.5,0.9,0.5,1.5     c-2.3,0.5-5.8,0.2-7.9,0.7c-1.5-0.1-1.8-0.6-3.2-0.7c-1.5,1.2-5.7,0.7-8.4,1.2c-0.5,0.7,1,0.6,0.5,1.3c-0.9,0.3-2.6,0-3.1,0.6     c2,0.5,0.1,0.9,0.1,1.8c1.5,2.2,8.8,0.4,10.7,2.6c-1.3,0.3-3.4,0.2-4.9,0.4c-3.3,1.3-2.7,4.2-5.7,5.3c0,0.8-0.8,1.1-0.7,2.1     c-1.2,0.9-4,0.8-5.5,1.6c2.9,0,4.1,0.3,4.6,1.5c-3.3,0.7-8.7,0.2-9.7,2.3c-0.9,0-1.9,0-2.6,0.1c2.3,2.4,6.8,0.5,10.4,0.2     c1.6-0.1,3.3,0.1,4.8,0.1c0.7,0.5,2,1.5,1.5,1.9c-3.2,1.3-8.1,1.6-11.3,2.9c1,0.2,0.9,0.9,1.3,1.4c1.3,0.4,3.6,0.3,3.1,1.3     c-1.4,1.1-5.4,0.5-8,0.9c-0.8,0.1-1,0.6-1.9,0.5c-1.3-0.1-2.5,0.1-3.8,0.4c-1,0.7-0.2,1.6-0.4,2.4c-1.4,0.3-3.5,0.2-4.3,1     c2.9,1.5,7.2-0.5,10.4,0.1c1.7,0.3,3.3,1.4,3.3,2.8c-1.5,0.1-3,0-4.4-0.4c-1.4,0.3-2.7,0.9-4,1.6c2.6,2.2,7.9,0.2,11.7,1.1     c0,0.7-0.6,1-1.3,1.3c-6.7,0.1-12.6,0.7-16.8,2.4c0.4,1.1,1.4,1.9,2.9,2.6c6.5,0.8,9.6-1.3,15-0.6c4-1.8,13-0.6,17.8-1.9l2.9,0.3     c2.8-0.2,7.8-0.8,10.1-0.1c-2.8,1.2-6.5,1.9-12.1,1.4c-2.5,1.1-8.2,0.3-11,1.3c-3.4-0.3-5,0.5-7.9,0.5c0,0.6-0.2,0.6-0.7,1.7     c-1,0.3-3.4,0.5-2.8,1.2c1.4,0.2,3.9,0,3.6,0.9c0.3,0.6-2.2,1-3.2,1.5c-1.1,1.4-3.8,1.9-5.3,3.1c-0.8-0.1-1.4-0.1-1.5,0.2     c4.3,0.1,9.8-0.1,13.6,1.2c0.8,0.3,0.6,1,1.7,1.2c2.2,0.4,2.7-0.3,4.8,0.1c0.3,0.3,0.8,0.6,1,1c-1.8,0.3-2.6,1.4-1.5,2.5     c-1.1,0.7-2.3,1.2-3.6,1.6c1.2,1.7,7.6,1.9,9.9,1.1c0.8,0.5,3.5,0.4,3.9,1.1c0.6,1-0.7,1.6-1.6,1.9c0.8,0,1.7,0.1,2.5,0.1     c0.9-0.6,4.4-0.6,6.3,0c-0.1,0.2-0.5,0.2-0.9,0.3c11.5,0.3,25.1,0.6,29.9,0.7c0.2,0,0.4-0.1,0.6-0.1c2,0.1,1.5,0.1-0.6,0.1     c-0.7,0.1-1.4,0.2-2.1,0.4c-1.4-0.2-2.8-0.2-4.1-0.2c-2.4,0-4.4,0.3-7.1,0.4c-1.7,0.1-3.8-0.2-5.9-0.2c-0.6,0-1.2,0-1.9,0.1     c0.3,0.1,0.5,0.1,0.8,0.2c-1.6,0.7-3.5,0.1-5.6,0.4c-1.8,0.2-2.9,1-4.7,1.2c-2.1,0.1-4.3-0.4-6.3-0.2c-0.9,0.1-1.9,0.5-2.7,0.6     c-3.1,0.5-6.1,0.5-9.1,0.9c-1.2,1.4-2.8,2.6-1.8,4.4c5.3,1,12.2-0.9,16.5,1.3c0,0.5-1,0.9-0.2,1.4c-2.6-0.1-2.2,1.2-3.2,1.6     c-3.9-0.5-7.9-0.7-11.8-0.6c0,1.3-1.4,1.7-2.9,2c0.2,1.1-1,1.7-0.4,2.4c2.6,0.6,4.6,1.4,7.1,2.1c-1.1,0.4-3.8,0-5.2,0.2     c0.6,2.2-3.4,1.6-3.5,3.4c0.3,0.7,2.8,0.6,3.1,1.4c-1.7,0.2-2.2,1.2-3.3,1.8c2.1,1.7,1,3.6,2.5,5.4c-1.3,0.2-3.3-0.1-3.1,1     c2.3,0.2,4.6,0.9,6.8,1.9c-1.5,0.4-1.1,2-2.3,2.6c3.3,1.3,3.4,4.6-1.9,4.6c-0.4,1-0.2,2.3-1.3,3.2c0.8,0.9,3.6,1.1,3.3,2.4     c-0.7,0.8-4.3-0.1-5.3,0.6c0.2,1.8,5,1.9,6.9,3.1c2-0.2,6.2-0.7,8.2,0.2c-1,1.1-4.4,0.6-6.8,0.8c-0.4,1.4-4,0.9-5.5,1.6     c0.8,1.1,0.2,1.6,0.3,2.9c-1.7,0.8-6.4-0.3-7.2,0.9c0.6,0.8,2.8,1,3.8,1.6c-0.7,0.7-1.7,1.1-2.2,1.9c0.9,0.8,1.9,1.6,3,2.4     c-2.4,0.5-6.7-0.3-8.3,0.7c-2.2-0.7-6.5-0.1-9,0.2c-2.6-0.4-6.4-0.3-6.9,1.1c0.3,0.1,0.4,0.2,0.3,0.4c5.3,0.9,9.8-0.3,15.3,0     c0.3,0.3,1.3,0.4,1.4,0.8c-0.9,0.7-0.4,2.2-2.2,2.3c-2.4-0.4-4.8,0-6.9,1.1c-1.7,0-4.2-0.4-4.9,0.3c0.1,1.5,3.7,1,4.5,2     c-0.8,1.3-4.1,2-7,2c-1.1,0-2.1-0.3-3.3-0.3c-5.2-0.2-10.1,1.2-14.7,1c1,1.5-1.3,1.5,0.3,2.9c-5.1,0.4-10.9,0.3-15.4,1.1     c-0.7-0.3-3-0.3-3,0.4c9.1,1.1,15.9-0.9,25-0.4c0.9,1,3,1.7,4,2.7c-3.1,0.8-6.3,1.1-9.5,1.1c-1.2,0.6-2.4,1.2-3.6,1.6     c-1.6,0-4.1-0.4-5.9-0.4c-1.5,0.1-3.9,0.6-2.8,1c1.6-0.2,3.2-0.1,4.8,0.3c2.6-0.3,4.6-1,8.6-0.5c2.2-0.7,4.5-0.8,6.8-0.4     c1.9-0.4,8.4-1.1,9.6,0.5c-1,0.4-3,0.2-4.9,0.1c-4,0.5-8,0.8-12,0.8c-3,1.2-6.9,1.9-12.5,1.5c-2,0.8-5.3,0.8-8,1.2     c-0.1,1.5-3,1.2-3.4,2.5c9.7,0.5,17.8-0.7,26.6-0.9c2.5-0.1,5.2,0.3,7.8,0.2c2.8-0.1,5.7-1,9-0.4c2.5-0.6,5-0.7,7.5-0.4     c1.8-0.7,4.1-0.1,6.3-0.1c2.5,0,4.9-0.5,7.5-0.5c0.7,0,1.4,0.2,2.2,0.2c3,0,6.2-0.3,9.3-0.2c2.2,0,4.4,0.2,6.6,0.8     c-6,1.6-14.3,0.6-22.1,1c-3.7,0.2-7.4,0.8-10.9,0.8c-1.1,0-2-0.3-2.9-0.3c-3.6,0.1-6.8,0.9-10.2,1c-2.1,0.1-4.4-0.3-6.3-0.2     c-1.8,0.1-2.7,0.6-4.5,0.5c-1.9,1.4-7.4,0.7-8.6,2.6c3.3,0.9,5.2-0.4,8.6-0.1c0.7,0.2,1.3,0.7,1.6,1.4c-1.4,1.1-5.3,0.6-8,0.9     c-1.1,0.4-1.5,1.1-2.5,1.5c-4.2,0.5-10.3,0-11.9,2.1c2.4,0.6,4.1-0.2,6.6,0.4c1.2,0,0.9-0.9,2.3-0.7c4.5,0.2,7.3-0.8,11.6-0.2     c1.1,0.9,3.1,1.5,4.8,2.2c1.9,0.3,3.1-0.1,4.4,0.4c0.6,0.5-0.1,1.3,0.8,1.7c2,0.6,5.6,0.2,7.2,1.2c-1.5,0.8-3.3,1.4-4.8,2.2     c-3.3,0.1-7.2-0.2-8.7,1c8.3,2.5,14.8,0.4,22.9,1c2.1-0.8,6.9-0.3,10.4,0.2c3.5-0.7,7-0.9,10.5-0.5c0.6,0.4,1.8,0.6,1.3,1.4     c-2.6,0.7-6.4-0.7-9.3,0.2c-1.2,0.4,1,0.8-0.2,1.2c-4.3,0.3-8.7,0.2-12.9-0.5c-0.4,0.8-1.6,1-2.5,1.5c4.9-0.3,9,1.1,13.6,1.2     c1.4,0,3.1-0.1,4.9-0.1c3.4,0.1,6.7,0.1,10.1-0.1c0.9-0.2,1.8-0.4,2.7-0.5c1.8,0,3.6,0.6,5.5,0.7c2.5,0,5-0.2,7.5-0.5     c4.4,1.3,8.6,0.6,12.9,0.7c4.9,0.1,10,0.5,13.8-0.2c1.5,0.6,3,0,4.5,0.1c1.6,0.1,3.1,0.5,4.7,0.6c1.7,0.1,3.5-0.4,5.3-0.4     c2,0,4.4,0,6.3,0c4,0.2,5.9,0.1,8.9,0.1c2,0,4.1,0.2,5.9,0.2c0.7,0,1.3-0.3,1.9-0.4c4.3-0.1,8.7,0,13,0.3     c7.4-0.8,17.8,0.2,24.7-0.9c0.8,0.2,1.7,0.4,2.5,0.4c2.6-0.6,5.8,0,8.9-0.1c1.4,0,2.8-0.5,4.2-0.5c0.7,0,1.8,0.2,2.6,0.2     c1.9,0,3.8-0.4,5.6-0.4c7.3,0,15.2,1.1,21.6,0c4.1,0.4,8.2,0.4,12.3,0.1c4.1,1.1,8-0.3,12.2,0.8c1.8-0.4,3.7-0.4,5.6,0     c2.1-0.9,5.6,0,8.9,0.1c1.6,0,3.2-0.3,4.9-0.3c4.4,0,9,0.4,13.3,0.3c2.1-0.8,6.9-0.8,10.4-0.1c1.4,0,1.6-0.7,3.1-0.6l4.4,0.4     c2.4-1.2,6.1,0.2,9.3,0.3c2.2,0.1,2.8-0.4,4.6-0.6c3.9,0.5,7.1-0.7,10.9-0.6c4.1,0.1,8.7,1.6,12.2,0.4c1.9,0.4,3.9,0.6,5.9,0.5     c2.4,0.1,3-0.1,4.9-0.1c4.2,0.1,6.4-1,10.7,0.5c3.4-0.3,7.6-0.8,11.9,0c1.7-0.9,5.2,0.1,8.2,0c2.1,0,2.6-0.6,4.2-0.7     c9.3,1.3,16.3-0.6,24,1c4.9-0.3,9.9-0.2,14.8,0.3c1.2,0,1.4-0.5,2.7-0.5c5.6,0.1,11.5,0.4,16.7,0.3c0.7,0.3,1.4,0.5,2.1,0.6     c3-0.6,5.6,0.2,8.9,0.3c1.5,0.1,3.1-0.3,4.9-0.3c2.8,0,4.7,0,6.7,0.1c1.1,0,2.2,0.3,3.3,0.3c2,0.1,5.5-0.3,6.7-0.3     c3.1,0,5.9,0.5,8.5,0.6c1.6,0.1,3.2-0.3,4.9-0.3c2.9,0.1,6.6,0.7,9.6,0.5c1.2-0.1,1.8-0.6,3.1-0.6c0.6,0.3,1.1,0.5,1.7,0.7     c3.5-0.8,10.4,0.5,14.2-0.1c0.7,0.2,1.4,0.3,2.2,0.4c2-0.9,6.9,0,9.7-0.3c5.6,1.6,10.6,0,16.6,1.2c1-0.2,1.7-0.5,2.7-0.6     c3.6,0.4,6.1-0.4,9.6,0.5c6.4-1.3,15.6,0.3,24.5,0.5c1.4-0.1,1.8-0.7,3.1-0.8c2.6-0.2,4.2,0.7,6.5,1c4.4,0.5,8.5-0.7,13.5-0.4     c1.7,0.3,3.4,0.5,5.1,0.6c3.2-1.6,8.4-0.3,12.7-0.3c2,0,4.1-0.3,6.4-0.3c2.4,0,5.1,0.2,7.4,0.1c5.6-0.2,14.7,0.6,19.4,0     c3.8,0.5,7.7,0.1,11.9,0.2c6.6,0.1,13.7,0.2,20.1,0.2c2.1,0,4.2,0.2,6.2,0.6c0.7-0.7,3.5-0.1,5.6,0c2.7-0.9,5.9-0.1,8.9-0.1     c0.9,0,1.8-0.3,2.7-0.3c4.5-0.2,9.7,0.1,14.5,0.1c2.1,0,4.2,0,6.3,0c3.1,0,6.7-0.1,9.7,0.2c4.1,0.4,7-0.1,10.8-0.1     c6.1,0.1,12.4,0.4,18.5,0.5c1.1,0,2.1-0.2,3.4-0.2c2.7,0,5.8,0.5,8.5,0.4c1,0,1.9-0.3,3-0.3c6,0.1,12.1,0.6,17.8,0.6     c1.7,0,3.2-0.3,4.9-0.3c2.6,0.1,4.7,0.2,6.3,0.2c4.9,0.1,10.2,0.8,14.7,0.8c1.1,0,2.1-0.4,3.4-0.4c1.6,0,3.3,0.3,4.8,0.3     c1.1,0,2-0.3,3-0.3c4.8,0.1,9.2,0.4,13.7,0.2c1.2,0.2,1.7,0.6,3.2,0.7c0.9-0.3,1.8-0.6,2.7-0.6c24.6,0.1,50.8,1.2,76.4,1.9     c0.9,0,0.8-0.5,1.9-0.4c3,0.7,5.5-0.1,8.5,0.2c1.3,0.1,2.7,0.2,4.1,0.2c2.7,0,6,0.3,8.9,0.3c3.4,0,6.8-0.3,10.1-0.1     c2.2,0.2,4.5,0.2,6.7-0.1c0.9,0,0.7,0.4,1.8,0.3c2.1-0.5,4.5-0.1,7.1-0.1c4.9,0.1,10.3-0.3,15.3-0.2c3.7-0.1,7.4,0.1,11.1,0.5     c0.9,0.1,1.6,0.5,2.5,0.6c2.9,0.2,5.8-0.7,8.5,0.2c2-0.7,3.6,0,5.9,0.2c5.5,0.5,8.5-0.6,12.4-0.5c1.4,0,2.6,0.5,4,0.5     c3.1,0.1,4.7-0.7,7.3-1.1c3,0.3,3.9-0.2,6-0.2c4,0,8.1,0.3,12.2,0.6c3.3,0.2,5.3,0.1,7.4,0.1c0.5,0,1.4,0.3,1.8,0.3     c3.6,0.2,7.1-0.2,10.8,0.1c3,0.2,5.7,0.7,8.4,0.8c5.4-1,12.6-0.5,19.4-0.2c0.6-0.1,0.7-0.5,1.2-0.6c5,1.9,10.8-0.3,16.9,1.4     c1.5-0.4,3.2-0.1,5.2-0.1c2.4,0.1,5.1-0.4,7.1-0.2c0.5,0,0.9,0.2,1.4,0.3v-90.9C1162.7,123.3,1159.8,123.5,1156.9,123.3z      M1149.3,105.6c1.7,0,3.4,0.3,5.1,0.8c3.3-0.1,9-0.4,8.2,2l0,0c-2-0.1-3.9-0.4-5.8-0.9c-4.4,0.1-8.2,0.5-13.7-0.2     C1143.4,105.7,1147.7,106.5,1149.3,105.6z M1139,109.8c0.8,1.4-4,2.4-5.7,0.7C1134.3,109.7,1136.1,109.4,1139,109.8z      M1134.3,106.2c-1.1,1.4-2.6,0.4-4.5,0.1C1131,105.7,1132.2,105.9,1134.3,106.2z M1106.9,109.9c-2.4-0.8-2.5,0.5-4.5,0.5     C1101,109.3,1106.7,108.7,1106.9,109.9z M1098.7,105.4c-0.5,0-1-0.1-1.4-0.3C1097.4,104.6,1098.9,104.9,1098.7,105.4z      M1120.8,48.3c2.6,0.1,6.7-0.2,6.1,1.1l0,0c-4.2-0.1-7.4,1.2-11.1-0.5C1116.1,48.2,1118.2,48.2,1120.8,48.3z M1065.1,47.3     c1,0,2,0.2,2.9,0.6C1067.2,48.2,1064.5,48.4,1065.1,47.3z M588.3,25.1c-6.3,0.6-14.8-0.1-20.9,0.6c-1.6-0.2-3.1-0.6-4.7-1.1     c0.2-0.7,2.2-0.6,3.5-0.7c1.7-0.4,3.5-0.6,5.3-0.6c1.8,0,4,0.7,5.5,0.7c1.6,0,2.1-0.7,3.1-1c1.4-0.2,2.6,0.4,4,0.5     c0.9,0.1,1.6-0.3,2.6-0.3c1.8,0,3.7,0.3,5.5,0.7l0,0C591.8,24.8,588.7,24.1,588.3,25.1z M629.1,23.5c-3.7,2-10.3,2.3-17.8,1.9     c-0.7,0-1.4,0.3-2,0.7c-3.5,0.2-6.2-0.9-8.1-0.2c-1.4-0.6-1.4-1.7-3.4-2.1c0.9-1,2-1.7,3.3-2c2.1,0.3,1.3,1.6,0.1,1.8     c2.1,0.5,6.1,1.7,8.4,1.1c-0.2-0.5-0.9-0.8-0.9-1.3c2.6-0.2,6,0.1,7.6-0.7c1.9,0.5,3.9,0.6,5.9,0.4c1.5,0.4,3,0.9,3.7,0     C627.3,23.7,628,23.2,629.1,23.5C629.1,23.5,629.1,23.5,629.1,23.5L629.1,23.5C629.1,23.5,629.1,23.5,629.1,23.5z M792,192.3     C793.2,191.8,793.1,193,792,192.3L792,192.3z M843.1,30.2c-4.4-1.1-9-1.7-12.9-0.8c-1.5,0-1-0.6-2.5-0.6c-1.6-0.2-1.3,0.9-2.4,1     c-1,0.3-1.6-0.5-2.5-0.8c-2.4-0.3-4.5-0.7-5.3-1.5c2.4-0.5,6.4,0,9.3-0.2c-0.6-2.2-7.5-1.3-10.2-1.3c-1.1,0.1-0.6-0.4-0.6-0.8     c-0.8,0-1.6,0.3-2.3,0.7c0.7,1,2.5,1.6,2.5,2.9c-4.6-0.3-8.4-0.1-10.9-1.7c-1.7-0.2-1.5,0.8-3.1,1c-3.7,0.2-7.4-0.5-10.8-2.1     c-4.6,0.1-9.5-0.1-14.5-0.3c-1.8,0.7-2.9,1.8-6.2,1.6c-1.1-0.2-1.9-0.8-3.2-1c-1.6-0.2-2.5,0.3-4.1,0.3c-0.9,0-1.6-0.3-2.6-0.2     c-1.2,0.1-2.4,0.3-3.5,0.7c-6.1-0.3-12.1,0.5-18.5-0.6c-2.2,0.5-4.5,0.6-6.7,0.3c-1-0.2-0.5,0.6-1.2,0.6     c-0.9-0.1-1.7-0.3-2.5-0.8c-1.5-0.2-1.4,0.7-2.4,0.8c-1.8-0.5-3.6-1.1-5.3-1.7c-4.1,0.3-9.8-0.4-12.4,0.8     c-5.1-1.1-10.5-0.9-13.8,0.2c-0.8-0.4-0.6-1.2-1.2-1.7c-2.8,0.1-5.8,0.1-6.2,1.7c-3.6-0.8-2.7,1.2-5.7,0.7c0.2-0.7,0-1.4-0.4-2     c-2.8,1-7.5,0.9-11.7,1.1c-2-0.4-3.5-1.1-5.7-1.4c-3.6,1.1-10.6,0.1-14.7,1c-2.1-0.1-3.2-0.5-5.1-0.6c-2,0.3-3.4,1.5-6,0.3     c0.4-0.7-0.5-1-0.1-1.8c1-0.5,2.8-0.6,5.2-0.2c0.7,0,1.4-0.3,2-0.7c4.9,0.3,7.5,0.1,11.8,0.7c2.6-0.7,5.3-0.9,7.9-0.7     c4.6,0.2,10,1.4,13,0.1c2.6,0.1,5.6-0.3,8.6-0.1c2.5,0.2,6.2,1,7.5-0.4c1,0.5,2.1,0.8,3.2,1c1.6,0.2,1.4-0.7,2-1     c1.8-0.3,3.3-0.6,5-1c3.2,0.4,4,1.5,5.9,2.3c3-0.6,6.4,0.3,9.6,0.2c2.7-0.1,5.3-1.1,8.6-0.4c0.9-0.3-0.2-0.6,0.2-1.2     c1.9-0.2,4.6,0.1,5.7-0.5c2.6,0.2,5.1,0.8,7.6,1.6c1.3,0.1,1.3-0.5,2.7-0.5c1,0,2.3,0.7,3.6,0.7c1.4,0,2.6-0.6,4.2-0.5     c1.4,0,2.5,0.6,4,0.7c1.1,0.1,1.9-0.1,3-0.1c1.3,0,2.8,0.3,4,0.4c4.3,0.2,8.6-0.4,13,0.3c1.7-0.1,2.8-0.6,5.2-0.2     c1.8-0.4,3.4-1,5.1-1.5c1.1,0.7,2.9,0.1,4.8,0.4c1.3,0.2,2.1,0.8,3.2,0.8c1.3,0.1,2.6-0.2,3.8-0.7c1.9,1.5,7.1,2.7,11.2,2.1     c0.7-0.8-1-1.1-0.1-1.4c5.5-0.8,11.2-0.7,16.7,0.3c0.4,0.8,1.1,1.4,2,1.4c1.1,0.2,1.1-0.3,1.6-0.6c0.1-0.7-2.9-0.8-1.6-1.4     c5.8,1.3,11.6,0.1,16.5,1.5c0,0,0,0,0,0l0,0c0,0,0,0,0,0c-0.2,0.9-3.3,0-4.2,0.5c-0.6,0.3-1.1,0.8-1.4,1.5     c1.7,0.7,6.5,0.3,7.6,1.2C845.8,29.4,844,29.5,843.1,30.2z M910,44.8c-0.1-0.9,2.2-1.1,3.4-0.6C913.5,45.1,911.1,45.2,910,44.8z      M944.9,56.7c0.9-0.5,4.8-0.7,5.9,0.2C949.6,57.5,945.8,58,944.9,56.7z M952,33.6c0-0.2,0.1-0.3,0.1-0.5c0.9,0.2,0.9-0.2,1.9,0     C953.3,33.3,953.3,33.9,952,33.6z M958.8,46.4c-1.3-0.2-1,0.5-1.6,0.7c-0.7-0.1-1.5-0.4-2.1-0.7c-0.3-1.9,6.8-1.2,7.8,0l0,0     C962.7,47.4,959.7,47,958.8,46.4z M990.8,58.2c0.1-1.6,6.8-1.2,8.2-0.1C997.5,58.9,993.4,58.1,990.8,58.2z M1011.5,58.7     c0.1-0.9,1.6-0.8,3.1-0.8C1014.6,58.8,1013,58.7,1011.5,58.7z M1016.9,41.5L1016.9,41.5c1.3,0.1,2.5,0.2,2.1,0.9     c-0.7-0.1-1.5-0.1-2.2-0.2C1016.9,42,1016.9,41.7,1016.9,41.5z M1024.1,120.2c-2.1-0.4-4.1-0.6-6.2-0.6c0.1-0.4,0.1-0.8,0.2-1.2     c1.8-0.4,5.2-0.6,6.6,0.4l0,0C1024.3,119.2,1024.1,119.6,1024.1,120.2z M1038.4,60.1c-1.1,0.2-4.1,0.3-4-0.7     c-0.6,0.1-1.1,0.3-1.6,0.6c-0.3-0.6-1.5-0.9-1.6-1.6C1033.5,58,1040.2,57.7,1038.4,60.1z M1057.7,108c0.3-0.8,2-0.9,3.4-0.4     C1060.6,108.1,1059.3,108.2,1057.7,108z M1076.9,109.1c0.2-0.7,2.1-0.4,3.4-0.4C1079.8,109.2,1078.8,109.4,1076.9,109.1z"/>
            <path d="M832.6,26.6c1.1,0.2,2.2,0.2,3.3,0.1c0.1-0.3,0.1-0.6,0.1-0.9C834.4,25.1,831.2,25.4,832.6,26.6z"/>
            <path d="M869.2,16.6c0.2,1,2.1,2,4.2,1.4c0.3-0.5-0.6-0.7-0.2-1.3c2.7,0.2,5.5-0.4,5.1-1.5c-4.9-0.5-11.8-0.6-17-0.7l0,0     c-0.6,0.8,0,1.2-0.7,2.1C863.9,17.7,866.4,16.7,869.2,16.6z"/>
            <path d="M866.1,12.7c-0.4,0-0.4-0.2-0.7-0.2c0,0.2-0.3,0.2-0.4,0.3c0.4,0,0.4,0.2,0.7,0.2C865.7,12.8,866,12.8,866.1,12.7z"/>
            <path d="M818.2,3c0-0.2,0.1-0.3,0.1-0.5l-1.1-0.1C817.1,2.7,817.4,2.9,818.2,3z"/>
            <path d="M194.2,18.7c1.4,0.2,2.8,0.4,4.2,0.4c-1.2-0.3-2.7-0.5-4.1-0.8C194.1,18.4,194.1,18.6,194.2,18.7z"/>
            <path d="M950.1,6.4c-0.5-0.3-2.2-0.4-2.3,0.1C948.6,6.7,949.4,6.7,950.1,6.4z"/>
            <path d="M949.8,15c-0.3-0.5-2.1-0.3-2.2,0C947.9,15.2,950.1,15.7,949.8,15z"/>
            <path d="M965.7,9c0-0.1,0-0.2,0.1-0.3l-1.5-0.1c0,0.1,0,0.2-0.1,0.3h0L965.7,9z"/>
            <path d="M168.4,19.1c2.1,0,4.2,0.1,6.2,0.1c1-0.1,2-0.3,2.8-0.7c5.3,1.2,8.6-1.1,13.7,0.5c0.9-0.1,0.7-0.9,1.3-1.1     c0.6,0.1,1.2,0.2,1.8,0.3c0.2-0.4,0.8-0.6,0.2-1c-9.3-0.6-18.4,0-26.4-0.3c-1.1,0-2.2-0.4-3.3-0.3c-1.9,0.1-3.3,1.1-5.1,1.3     c-1.8,0.2-3.5-0.3-5.2-0.1c-2,1.5-8.3,0.4-13.4,0c-0.8,0.1-1.6,0.3-2.4,0.5c7,0.2,17.1,0.4,27.1,0.6c0.3-0.1,0.5-0.1,0.8-0.2     C167.2,19,167.8,19.1,168.4,19.1z"/>
            <path d="M958.4,14.9c-0.8-0.4-1.8-0.3-2.6,0.1C956.5,15.5,958.2,15.4,958.4,14.9z"/>
            <path d="M1090.1,223.7c1.2,0.1,2.9,0.4,3.7,0.2C1093.8,222.8,1091,223.5,1090.1,223.7z"/>
            <path d="M89.2,88.6c-3.1-0.1-6-0.1-8.5-0.2c-0.4,0.2-0.5,0.3,0,0.5c1.9,0.2,3.3,0.8,5,1c4.8,0.6,8.7,0.2,12.3,0     c-2.8-0.6-6.1-0.3-9.1-0.7C88.7,88.7,88.9,88.6,89.2,88.6z"/>
            <path d="M997.6,23.4c0.7,0.4,1.6,0.3,2.3-0.1C998.9,23.2,997.7,23,997.6,23.4z"/>
            <polygon points="1139,36.9 1139,36.9 1139,36.9    "/>
            <path d="M993.6,25.2c0.9,0.3,2.8,0.6,3.3,0.1C996.3,25,993.7,24.7,993.6,25.2z"/>
            <path d="M1002.5,29.9c-0.1,0.5,1.8,0.8,2.5,0.6C1005.4,29.8,1003.1,29.7,1002.5,29.9z"/>
            <path d="M902.8,18.5c0.3-0.6,0.4-1.3,1-1.7c0.9,0.4,2.9,0.4,3.2,1c1.1,0.3-1.2,1,0.6,1.1c1.9,0.4,1.2-0.8,2.7-0.6     c2.5,0.4,7.2,1.6,9.1,1.2c-1-0.9-3.2-1.3-3.3-2.4c1.7-0.6,3.3,0.6,5.4,0.9c1.6,0.2,3.8,0,5.9,0.2c3.1,0.3,6.8,0.8,9.6,0.5     c1.1-0.4,0.6-1.7,2.8-1.3c1.1,0.6,0.2,1.8,1.9,2.1c2.8,0.2,1.7-1.1,4.3-1c1.2,0,2,0.9,3.5,1.2c3,0.5,6.7,0.2,9.6,0.7     c1.3-0.3,1-1.5,2.5-1.7c3.3-0.1,6.7,0.1,10,0.6c0.7,0.4,0.4,1.2,2,1.2c2.7,0.1,2.7-1.4,5.8-1.1c1.1,0.2,0.3,1.2,2,1.2     c1.8-0.1,1.7-1.4,3.6-1.4c4.2,1,6.9,0.5,10.3,0.6c4.3,0.2,6.4,1.1,9.2,0.8c1.2,0.1,1.3,0.6,2.9,0.6c0.7-0.1,0.6-0.8,1.3-0.9     c4.2,0.8,6.8-0.2,10.5-0.3c1.8,0.3,1.3,1.4,3.1,1.7c3,0,5-1.1,8.2,0c5.1-1.8,12,1,19.2,0.7c1,0.1,0.6-0.6,1.6-0.6     c5.8-0.1,10.6-1.7,17.5,0c1.7-0.4,3.3-0.8,5-1.1c1.2,0.6,2.6,0.9,3.9,0.9c0.4-2.3-5.2-1.4-10.1-2l0,0c-1.3,0.2-1.7,0.9-3.5,0.7     c-3.9-1.1-10.2-1.2-12.9-0.5c-3.1-1.8-8.9-0.1-12.8-1.2c-2.6,0.1-3.8,1-6.1,1.2c-1.9-0.2-1.9-1-3.9-1.1c-1.4-0.2-1.5,0.5-3,0.3     c-3.5-0.7-7.1-1-10.6-1c-1.3,0-2.4,0.5-3.8,0.5c-0.7,0-1.8-0.3-2.5-0.4c-4.4-0.4-7.6,0-10.8-0.1c-7.6-0.1-15.8-1-22.9-0.9     c-1.6,0-3.7,0.5-5.6,0.4c-0.7-0.4-1.4-0.6-2.1-0.7c-2.1,0.5-4.3,0.5-6.3,0c-4.8,0.5-11.6-0.3-16.8,0.1c-0.9-0.5-1.8-0.8-2.8-1     c-3.1,1.3-7-0.2-10.7-0.3c-3.4-0.1-6.2,1.2-10.8,0.2c-1.4,0.1-2.1,0.6-3.5,0.7c-0.7-0.5-1.6-0.8-2.5-0.8c-1.3-0.1-1.7,0.3-3,0.3     c-3.5-0.8-6.8,0.2-10.4-0.4C899.1,17.3,900.4,18.1,902.8,18.5z"/>
            <path d="M985.4,29.6c0.4,0.3,1.3,0.4,1.5,0C986.4,29.3,985.6,29.2,985.4,29.6z"/>
            <path d="M124.3,6.2c-0.6-0.3-1.4-0.3-1.9,0.2C123.3,6.4,124.2,6.5,124.3,6.2z"/>
            <path d="M111.9,7c-0.2-0.8-3.2-0.8-4.7-0.8c-2.6,0-6.9,0-7.2,0.9C105.4,8,107.1,6.5,111.9,7z"/>
            <path d="M159.8,5.2c0.4,0,0.7,0.1,1.1,0.1c0,0,0,0,0,0c3.1,0,6.2,0,9.3,0c0-0.1,0-0.2,0-0.3c-0.8,0.1-1.7,0.1-2.9-0.1     c0.1-0.4,0.4-0.6,0.8-0.8c-1.1,0-2.2,0-3.4,0c0.4,0.1,0.8,0.2,1.1,0.5c-0.2,1-3.3,0.1-2.3-0.5c-2.1,0-4.2,0-6.2,0     c-0.7,1.3-3.5,0.8-7.1,0.5c-1.6-0.1-3.2,0.2-3.6-0.4c-0.4,0-0.7,0-1.1,0c-0.9,0.4-2.9,0.1-4.2,0.3c0.1-0.1,0.3-0.2,0.4-0.2     c-8.1,0.1-13.8,0.4-13.9,0.8c-0.6,0.1,14.9,0.2,31.9,0.2C159.8,5.3,159.8,5.2,159.8,5.2z"/>
            <path d="M95.5,6.9c-2.1-0.5-6.5-0.7-7.1,0.4C90.8,7.4,93.1,7.2,95.5,6.9z"/>
            <path d="M141.8,5.8L141.8,5.8c0.2,0,0.5,0,0.7,0.1c0.1-0.2,0.5-0.2,0.5-0.5c-0.2,0-0.5,0-0.7-0.1C142.2,5.5,141.8,5.5,141.8,5.8z     "/>
            <path d="M118.7,6.2c-1.9-0.1-4-0.4-4.2,0.5C115.9,6.8,117.4,6.6,118.7,6.2z"/>
            <path d="M739.3,5.5C738.1,4.8,738.1,6,739.3,5.5L739.3,5.5z"/>
            <path d="M16,183.1c-2.6-0.3-5.2-0.4-7.8-0.2C9.4,184.5,14.7,183.7,16,183.1z"/>
            <path d="M171.9,15.8c0.1-0.1,0.1-0.2,0-0.3c-0.7,0-1.3,0-2,0C170.5,15.6,171.2,15.7,171.9,15.8z"/>
            <path d="M173.4,15.6c0.4,0,0.8,0,1.3,0c-0.5,0-0.9,0-1.4,0C173.2,15.6,173.3,15.6,173.4,15.6z"/>
            <path d="M199.8,16.1c0.8,0.1,1.5,0.1,2.1,0.1C202,16.2,201.2,16.2,199.8,16.1z"/>
            <path d="M176.3,15.7c0.2,0,0.3,0,0.5-0.1c-0.3,0-0.5,0-0.8,0C176.1,15.6,176.2,15.7,176.3,15.7z"/>
            <path d="M83.7,99.4c0.2-1.5-5.6-1.9-5.2-0.1C80.3,99.6,82,99.6,83.7,99.4z"/>
            <path d="M1149.2,31.3c-3.1-0.7-10-2.3-10.1,0.3c1.1,0.3,3.4,0,5.2,0.1c0.6,0.2-0.2,0.8,1,0.8     C1146.9,32.3,1149.2,32.5,1149.2,31.3z"/>
            <path d="M191.8,5.3c0.6,0,1.2,0,1.8,0c-0.2-0.8,2-0.5,2.7-0.2c0,0.1,0,0.1-0.1,0.2c0.3,0,0.5,0,0.7,0c0,0,0-0.1,0.1-0.1     c0.4,0,0.7,0.1,1.1,0.1c2.3,0,3.6,0,3.3-0.1c0,0-0.1-0.1-0.3-0.1c-1,0.2-2.4,0.2-3.3-0.2c0,0,0-0.1,0-0.1     c-1.3-0.1-2.9-0.1-4.8-0.2C192.9,4.9,192.4,5.2,191.8,5.3z"/>
            <polygon points="1139.1,31.6 1139.1,31.6 1139.1,31.6    "/>
            <path d="M1146.4,37.1l1.1,0.1c0-0.1,0-0.2,0.1-0.3l-1.1-0.1C1146.5,36.8,1146.4,36.9,1146.4,37.1L1146.4,37.1z"/>
            <path d="M1141.3,36.8c-0.7-0.1-0.9-0.5-1.8-0.5c-0.2,0.2-0.6,0.3-0.5,0.7C1139.8,37.1,1140.6,37.1,1141.3,36.8z"/>
            <path d="M858.2,26.8c1.4,0.6,4.1,0.5,4.1-0.3C861.2,26,857.9,25.7,858.2,26.8z"/>
            <path d="M170.7,5c0.2,0.1,0.3,0.2,0.6,0.2c-0.1,0.1-0.2,0.1-0.3,0.2c1.4,0,2.8,0,4.2,0c-0.4,0-0.9-0.1-1.3-0.1     c0.1-0.1,0.1-0.1,0.2-0.1c0,0-0.1,0-0.1,0c0-0.3,0.1-0.5,0.1-0.8c-0.8,0-1.5,0-2.3,0C171.7,4.6,171.3,4.8,170.7,5z"/>
            <path d="M947.7,30.2c0.3,0.9,4.4,1,4.8,0.3C951.3,29.8,948.4,29,947.7,30.2z"/>
            <path d="M899.3,27.9L899.3,27.9c0.7,0.1,0.8-0.1,1.5,0c0.3-0.5-0.7-0.6-1.7-0.7C899,27.4,899.1,27.7,899.3,27.9z"/>
            <path d="M973.6,31c2.5,0.9,5.6,0.3,8.5,0.3c-0.1-0.6-0.8-1-0.4-1.8c-2.2-0.7-4.8-0.4-6.7-0.3l0,0C976.4,30.1,974.7,30.5,973.6,31     z"/>
            <path d="M874.6,29c2.6,0.5,4.4-0.3,6.7,0.3C879.8,28.5,875.5,27.6,874.6,29z"/>
            <path d="M175.9,4.7c0.7,0,1.5,0,2.2,0.2c-0.1,0.2-0.4,0.4-0.7,0.4c4.3,0,8.4,0,11.9,0c-0.4-0.1-0.7-0.2-1-0.4     c0.6-0.2,1.2-0.3,1.8-0.4c-1.8,0-3.7-0.1-5.7-0.1c0,1.4-3.6,0.7-4.9,0.1c0-0.1,0.1-0.1,0.2-0.1c-1.4,0-2.8,0-4.2-0.1     C175.7,4.4,175.8,4.5,175.9,4.7z"/>
            <path d="M716.6,16.7c-1.1-0.2-2.2-0.2-3.3-0.1C713,17.4,716.8,17.4,716.6,16.7z"/>
            <path d="M969.3,222.9c-0.5-0.1-0.5-0.3-1.1-0.3C967.6,223,969.4,223.2,969.3,222.9z"/>
            <polygon points="703.2,16.9 703.2,16.8 703.2,16.8    "/>
            <path d="M703.2,16.8l1.1,0.1c0-0.1,0-0.2,0.1-0.3c-0.4,0-0.7-0.1-1.1-0.1L703.2,16.8z"/>
            <path d="M796,18.1c0.5,0.8,2.7,0.4,3-0.1C798.3,17.7,796.1,17.5,796,18.1z"/>
            <path d="M677.2,16.6c0.9,0.3,3,1.1,4.3,0.8C681,16.7,678,15.6,677.2,16.6z"/>
            <path d="M83.9,14.5c0.2,0.8,1,1.4,1.5,2.1c2.2-0.2,3.5,0.5,5.5,0.5c2,0,3.8-0.6,5.7-0.5c1.8,0.1,3.2,0.7,5.4,0.8     c1.6-0.7,3.6-0.4,6-0.5c2.9-0.1,6.4-0.9,8.7-0.8c1.6,0.1,3.2,0.6,4.7,0.6c3.6,0.1,6.4-0.7,9.5-0.9c1.6-0.1,3.2,0.4,4.8,0.4     c3.3,0.1,6.3-0.6,9.8-0.5c1.7,0.1,3.7,0.5,5.5,0.5c0.7,0,1.7-0.3,2.7-0.3c1.8,0,3.5-0.2,5.3-0.4c0.8-0.1,1.6-0.1,2.5-0.2     c-8.3-0.1-16.5-0.3-22.8-0.4c-0.1,0-0.3,0.1-0.4,0.1c-0.2,0-0.4-0.1-0.6-0.1c-1.7,0-3.3,0-4.7-0.1c-0.9,0.1-1.6,0.4-2.2,0.7     c-1.7-0.2-2.3-0.7-4.3-0.8c-0.3,0,2.3,0,6.5,0.1c1.2-0.2,2.8-0.2,4.7,0.1c0.3,0,0.7,0,1,0c0.8-0.2,1.1-0.8,2.3-0.7     c10.2,0.4,18.2-0.2,27.7,1.1c1.1,0,2.2-0.3,2.9-0.2c0.1,0,0.2,0,0.3,0.1c0,0,0.1,0,0.1,0c1,0.1,1.9,0.2,2.9,0.4c0,0,0,0,0.1,0     c2.7-0.7,5.9-0.6,9.2-0.3c0.4,0,0.8-0.1,1.2-0.2c1.1,0.3,2.2,0.4,3.3,0.5c1.7-0.7,4.4-0.4,7.2,0c1.2,0,2.4,0,3.6,0.3     c2.2-0.1,4.3-0.9,6.5-1c0.3,0,1.2,0.3,1.8,0.3c0.9,0,1.2-0.2,1.9-0.2c4,0.4,8.5,2,12.8,1.2c0.7-0.3,0.1-1.1,0.6-1.2     c0.9,0,1.7,0.2,2.5,0.4c1.8-0.9,5.2-0.1,8.2-0.1c3.8,0,7.7-0.5,11.1,0.3c1.2-0.1,1.5-0.9,3.1-0.8c3.2,0.9,6.2,0.5,8.9,0.1     c5.2,1.1,8.7,0,12.7-0.3c1.7,0,2,0.6,3.6,0.7c2.9-1.1,9.4-0.8,14.2-0.1c1.1-0.1,1-0.9,2.4-0.8c1,0.2,1.9,0.3,2.9,0.4     c6.4-0.6,13.4,0.3,19.8-0.3c1.8,0.2,1.9,1.1,4.3,1.1c1.2,0.1,1.2-0.7,2.3-0.7c6,0.3,11.9,0.3,17.9-0.1c2.3,1.3,3.9-0.4,6.2,0.9     c1.4-1.2,5.7-0.8,8.6-0.1c1.1-0.2,1.4-0.8,2.7-0.8c5.8,0.7,9.8-0.5,15.2,0.5c2-0.8,4.7,0,7.5-0.2c0.6-0.1,0.1-0.8,0.9-0.8     c1.3,0.1,1.2,0.8,2.8,0.8c4.3,0,7.8,0.7,10.8-0.1c0.8,0.4,1.6,0.6,2.5,0.6c1.2,0,0.9-0.9,2.3-0.7c3,0.5,4.1-0.2,6-0.3     c3.2,0.4,6,0.2,10.7,0.8c2.2-0.8,5.4-0.2,8.6-0.3c0.7,0,1.3-0.3,1.9-0.4c1.1-0.1,2.2,0.2,3.3,0.1c3.5-0.1,6.2-0.5,9.2,0.7     c1.2,0,1.3-0.6,2.3-0.7c3.6,0.9,6.8-0.3,10.5-0.3c2.1,0,4.4,0.6,6.6,0.6c1.9,0,3.5-0.6,5.3-0.6c3.5,0,7.2,1.1,9.7,0     c4,0.6,7.8-0.6,12.2,0.6c2.9-1.3,7.2,0.2,10.8-0.2c0.2-0.9-0.6-1.5,1-1.7c1.5-0.2,2.3,0.4,2.4,1.1c2.5,0.4,4.6,0,6.6,0.6     c1.2,0,1.4-0.5,2.7-0.5C513,15.3,518.5,14,526,15c1.2-0.3,1.2-1.3,2.8-1.3c1.6,0.6,3.3,0.9,5,1.2c0.9,0,1.8-0.1,2.6-0.3     c1.3-0.1,2.9,0.2,4.5,0.1c0.9-0.1,1.8-0.4,2.7-0.5c2.6-0.2,5.6,0.6,8.1,0.6c0.6,0,1-0.3,1.6-0.4c2.6-0.2,4.8,0.2,7.1-0.1     c1.1-0.6,0.1-1.4,2.1-1.4c2.2,0,2.1,1,4.3,1.3c4.3,0.1,7.8-0.4,13.7,0.2c0.9,0,0.8-0.5,1.9-0.4c4.3,1.1,6.6-0.5,9.4-0.6     c2.1,0,4.2,0.6,6.6,0.6c0.2-0.3-0.9-1,0.2-1c2.9,0,2.7,1.1,4.6,1.5c4.3-0.4,9.2,0.3,12.6,0.3c1.5,0,3.3,0.2,4.5,0.1     c1-0.1,1.6-0.4,2.7-0.5c2.1-0.1,3.9,0.1,5.2,0.1c1.1,0,2.5,0.3,3.3,0.3c1.6,0,3.8-0.6,6.3,0c1.2-0.2,1.8-0.8,3.1-1     c3.1,0.4,8,1.3,8.9,0.1c4.1,1,6.6-0.4,9.1-0.9c2.6,0.1,5.2,0.1,7.8-0.2c0.3-1.4,1.4-2.5,2.7-2.9c1.8-0.1,3.7,0.1,5.5,0.5     c-0.3,0.7-1,1.1-1.7,1.3c-1.1-0.5-2.4-0.7-3.6-0.7c-0.6,0.7-1.3,1.7-0.4,2.3c1,0.7,2.2-0.2,2.9,0.3c0.2,0.7,1.8,0.9,3.2,1.2     c1.9-0.8,4.5,0,6.7,0.1c1.9,0.1,3.6-0.6,5.2,0.1c0.9-0.1,1-0.8,2.3-0.7c1.3,0.4,2.7,0.5,4,0.4c1.2-0.3-0.7-1.3,1-1.3     c2.8,0,3.5,0.8,5.8,1.1c1.5,0.1-0.2-0.6,0.8-0.6c1.2,0,1.7,0.5,2.9,0.6c9.2,1.2,17.6,0.2,26.3,0.6c1-0.1,1.3-0.6,2.3-0.7     c3.5,0.4,5.4-1,8.3-0.8c2.7,0.2,4.5,1.3,7.9,1.4c1.2-0.1,1.1-1.1,1.8-1.6c2.4,0.8,7.3-0.3,8,1.3c-0.7,0.6-2.6-0.4-3.4,0.4     c3.8,0.8,8.2-0.6,13.7,0.7c1.8-0.3,2.9-1,4.9-0.6c1.4-1.6,4.1-3.1,8.8-1.5c1,0.4,0.8,1.3,2,1.6c3.6,0.4,5.2-0.4,7.2-0.9     c6.2,0.3,10.2,1.5,15.7,2.1c-0.7-2.1,3.9-1.6,6.8-0.6c1.9,0,2.7-0.7,4.6-0.6c1.4,0.1,1,0.9,2.9,0.8c4-0.3,8.5,0.4,11.3-0.9     c1.3,1.1,6.5,0.8,7.9,1.8c0.8-1.4,4.4,0.3,6.6,0.4c1.4-0.1,1.6-1,2.8-1.2c2.3,1.2,4.9,1.8,7.5,1.6c1.3-0.3,1.4-1.4,1.5-2.5     c-2.1-0.9-4.5-1-6.7-0.3l0,0c-0.8-0.4-1.6-0.6-2.5-0.6c-2.9,0.5-7.5-0.2-10.7-0.8c-1.1,0.5-3.3,0.3-4.9,0.4     c-1.1,0.1-1.2,0.8-2.7,0.6c-1.8-0.2-1-1.3-2.7-1.5c-2.5,0.6-6,1.2-8.6,0.1c-4.4,1-12.1-0.6-16.8,0.1c-0.8-0.5-1.6-0.7-2.5-0.8     c-2.4,0.6-4.2,0.2-7-0.5c-1.4,0-1.5,0.7-3.4,0.4c-1.6-0.3-0.6-1.4-1.2-2.1c-2.5,0-3.6-0.2-5.9-0.4c-1.3,0.5-1.8,1.5-4.3,1.2     c-0.7,0.2-0.2,1-1.3,0.9c-2.8-0.2-4.5,0.3-7.4,0c-1.5-0.2-1.6-0.8-3.2-1c-2,1.2-5,0.8-8.3,0.8c-1,0.2,1.3,1.3-0.6,1.4     c-2.5-0.5-3-1.7-6-2c0-0.6,0.5-1.3-0.1-1.6c-3.1-0.3-6.4-0.7-8.1-0.2c0,0.6-0.2,1.1-0.6,1.5c-1.3,0.6-4.1,0.3-5.4,0.9     c-4.4-1.3-9.4,0-14.8-0.5c-4.2-0.3-8.2-0.2-12.6-0.4c-0.1-0.4-1.4-0.5-0.9-1.1c1.5-0.1,3.4,0.1,4.2-0.5c-1.4-1.2-3.8-0.5-5.2-0.1     c-1.1-0.1-1.1-0.5-2.1-0.6c-1.1,0.1-2.4,0.1-3.4,0.2c-1.8-0.1-4.2-0.5-4.9,0.1c-1.7,0.5,1.8,1.4,0.4,1.8     c-1.3-0.1-1.2-0.8-2.9-0.8c-3.7,2-11.1,0.6-17.3,1.1c0.2-0.9,0.9-1.7,0-2.5c-2.3-0.2-4.6-0.3-5.6,0.4c-1-0.6-2.1-0.8-3.2-0.8     c-1.2-0.1-0.8,0.9-2,0.9c-3.5-1.2-6.7-0.5-10.7-0.6c-0.8,0-1.5-0.2-2.2-0.2c-2,0-3.7,0.5-5.7,0.5c-5.1,0.1-10.3-0.8-13.5,0.5     c2,0.2,4.3,0.3,4.7,1.1c-2.6,0.7-5.8,0.1-9,0.6c-1.4-0.7-0.2-1.7-0.7-2.5c-3.9-0.6-8.8,0.6-13.3-0.3c-1.5,0.8-6.2-0.3-6.5,1.2     c1.8,0.8,2.7-0.5,5.2,0.1c0.2,0.5,0.1,1.1-0.3,1.6c-2.4-0.3-4.8-0.1-7.2,0.6c-1.9-1.2-4.3-0.1-6.3-0.4c-2.5-0.4-2-1.5-4.5-2.2     c-2.1,0.1,0,0.9-1,1.3c-1.8-0.6-3.3-1.7-6-2c-1-0.1-2.3,0.2-3.4,0.2c-5.2,0.1-12.9-0.7-15.3,0.5c3.7,0.9,8.8-0.2,10.5,1.7     c-0.8,0.6-4-0.2-5.9-0.2c-2.3,0.8-7.6-0.1-7.6-1.6c-1.7,0.3-2.8-0.4-4.4-0.6c-1.4,0.5-3.2-0.2-5.2-0.1c-1.5,0-2.7,0.5-4.2,0.5     c-1.2,0-2.8-0.5-4-0.5c-1.3-0.1-2.7,0.2-4.1,0.2c-1.1,0-2.2-0.3-2.9-0.3c-0.9,0-1.4,0.3-2.3,0.3c-0.9,0-1.7-0.3-2.6-0.2     C537.8,8.4,536,8.8,534,9c-0.3-0.4-2.3-0.3-3.3-0.5c-1.3,0-1.8,0.4-3.1,0.4c-3-0.5-6-0.5-8.9,0.1c-1.8-0.5-3.6-0.7-5.5-0.7     c-1.8,0-3.9,0.7-6.1,0.7c-2.7,0-4.5-0.7-5.6,0c-0.7-0.1-0.9-0.5-1.8-0.5c-0.9,0.1-1.1,0.6-2,0.7c-0.8-0.4-1.6-0.6-2.5-0.6     c-1.9,0.1-3.7,0.3-5.3,0.6c-2.7-0.8-6.3-0.3-9.6-0.3c-2.6-0.1-5.2-0.4-7.8-0.4c-1.1,0.1-1.5,0.7-3.1,0.6     c-2.9-0.1-5.5-0.3-8.5-0.4c-3.6-0.1-6.8,0.5-10.1,0.5c-2.1,0-4.4-0.6-6.6-0.6c-2.4,0-6.2,0.7-8.7,0.6c-4.2-0.1-9.5-0.8-11.1-0.1     c-3-0.5-6-0.5-8.9,0.1c-0.8-0.2-1.7-0.4-2.5-0.6c-1.9,0.1-3.6,0.5-5.7,0.5c-2.8,0.1-6-0.3-8.9-0.3c-2.8,0-5,0.5-7.9,0.3     c-3.1-0.2-4.6,0-6.7-0.1c-1.3,0-2.4-0.3-3.7-0.3c-1.3,0-2.7,0.3-4.1,0.3c-1.9,0-3.8,0-6,0c-4,0.2-7.9,0.1-11.9-0.2     c-1.1,0.3-2.3,0.5-3.4,0.6c-1-0.4-2.1-0.7-3.2-1c-2,0.3-4-0.2-5.9-0.2c-1.6,0-2.8,0.4-4.5,0.5c-3.7,0.2-8.2-0.2-10.5,0.3     c-3.9-1.5-8.4-0.6-12.6-0.6c-2.1,0-4.2-0.5-6.2-0.6c-2.1,0-4.3,0.3-6.4,0.3c-3.9-0.1-6.2-0.2-9.3-0.1C294.2,8,292,8.3,290,8.2     c-0.5,0-1.3-0.3-1.8-0.3c-2.4-0.2-4.8,0.2-7.1,0.1c-0.7,0.4,0.1,1-1.6,0.9c-1.9,0-1.4-0.8-2.8-1c-5.4-0.3-10.2,0.7-15.3,0     c-6.6,0.5-13.2,0.6-19.8,0.3c-0.9,0.2-1.8,0.4-2.7,0.5c-8.9-0.6-17.7,0.2-26.8-0.1c-1.4-0.1-3-0.3-4.4-0.4     c-3.8-0.1-7.3,0.4-10.8,0.2c-1.6-0.1-3.3-0.4-4.8-0.4c-1.4,0-2.7,0.4-4.1,0.3c-3.4-0.1-5-0.4-7.1,0.1c-1.3-0.4-3.3-0.5-4.7-0.8     c-8.8,1-19.9,0.2-29.8,0.1c-3.7,0-6.7,0.6-10.2,0.8c-1.6,0.1-3.5-0.3-5.2-0.3c-1.3,0-2.5,0.5-3.8,0.5c-1,0,27.3,0.1,49,0.2     c1.1,0,2.2,0,3.3,0c0.2,0,0.3,0,0.5,0c5.5,0,10.4,0.1,14,0.1c1.3-0.1,2.6-0.2,3.9-0.4c1.2,0,1.3,0.4,2.1,0.5c0.3,0,0.5,0,0.4,0.1     c-0.2,0-0.3,0-0.4-0.1c-0.8,0-3-0.1-6-0.1c-4.6,0.4-9.3,0.4-14-0.1c-1.2,0-2.5,0-3.8,0c-4.6,0.1-8.8,0.4-13.1,0.4     c-2,0-4-0.3-5.9-0.4c-3.7,0.1-7.3,0.4-10.9,0.9c-2.7-0.6-5.3,0.2-7.8,0.2c-0.8,0-1.8-0.4-2.5-0.4c-2.1-0.1-3.9,0.4-6,0.5     c-2,0.1-4.5,0.2-6.7,0.3c-2.4,0.1-4.9,0.2-7.1,0.2c-7.4,0.1-14.4,0.6-22,0.1c-1.1,0.1-0.4,1.3-2,1.1c-1.3-0.1-0.9-0.8-2.1-0.9     c-1.4,0.2-2.8,0.3-4.1,0.3c-0.3,1.4-4.9,0.3-4.8,2C81.4,13.9,82.9,14.1,83.9,14.5z"/>
            <path d="M535.7,16.7c1.3,0.1,2.9,0.4,3-0.3C537.5,16.4,535.6,16,535.7,16.7z"/>
            <path d="M584.5,16.4c0.5,0.3,1.3,0.4,1.5,0C585.5,16.4,584.7,16.2,584.5,16.4z"/>
            <path d="M950.1,222.2c-0.8,0.8,2.2,0.8,1.8,0.2L950.1,222.2z"/>
            <path d="M848.3,220.8C847.2,220.2,847.1,221.4,848.3,220.8L848.3,220.8z"/>
            <path d="M872.5,220.9c0.7,0,2.2,0.4,1.9-0.2C873.5,220.6,872.6,220.6,872.5,220.9z"/>
            <path d="M1069.2,26.8c-0.2,0.4,0.4,0.6,1.4,0.7C1070.8,27,1070.2,26.9,1069.2,26.8z"/>
            <path d="M436.9,215.2L436.9,215.2c0.7,0,1.6,0.1,1.6-0.4l-1.5-0.1C436.9,214.9,436.9,215,436.9,215.2z"/>
            <path d="M1019.2,25.6c-0.6,0-1.3-0.1-1.2,0.2C1018.4,26,1018.9,25.9,1019.2,25.6z"/>
            <path d="M1095.8,23.6c0.2-1.8,5.4-0.5,6.6-1.7c-5.3-1-10.9-2.4-15.8-1.4h0h0h0h0c-1.6-0.5-3.4-0.8-5.1-0.6     c-0.7,0.3-1.4,1.2-0.7,1.7C1086,21,1089.5,23.5,1095.8,23.6z"/>
            <path d="M175,15.6C174.9,15.6,174.9,15.6,175,15.6C174.9,15.6,174.9,15.6,175,15.6c-0.2,0-0.3,0-0.3,0c0.5,0,0.9,0,1.4,0     C175.6,15.6,175.3,15.6,175,15.6z"/>
            <path d="M1072.7,28.5c-6.9-0.7-12.9,0.4-19,0c-2.4-0.2-3.4-0.8-5.9-0.5c-0.6,0.1-0.6,0.4-1.2,0.4c-0.9,0-1.3-0.4-2.2-0.2     c-1.1-0.1-0.5,0.8-1.6,0.7c-1.9-1.3-5.6-0.1-6.3-0.2c-1.4-0.2-0.7-1.3-2.8-1.1c-1.1-0.1-0.8,0.7-1.9,0.5c-2-1.3-4.1,0.1-7.3-0.8     c-1.3,0.1-1.5,0.8-3.1,0.8c-3.4-1.5-10-1-13.6-0.9c0.2,0.7-1.5,0.8-0.6,1.4c4.3,0.6,10,0,14.3,1c-0.2,0.8-2,0.5-2.4,1.2     c1,0.1,1.5,0.5,2.5,0.6c2.2-0.8,4.1-1.8,7.4-2c2.5,0.8,5.7,2.2,9.3,2.1c0.4-0.9-1.3-0.9-0.8-1.8c3.2-0.2,4.3,1.5,7.5,1.7     c1.2-0.3,0.5-0.8,0.6-1.5c1.1-0.6,2.6,0,4.5,0.1c3.8,0.1,8.6-0.3,10.7,0.6c3.5,0,6.4-0.4,9.8-0.5c2,0.8,3.4,0.2,6.6,0.8     c1,0,1-0.6,2.3-0.5c2.2,0.6,4.9,0.4,6.9,0.8c-0.1,0.3-0.1,0.7-0.2,1c2.2,0.1,2.6,0.7,4.4,0.6c0.7-0.3,1.1-1.1,1.1-1.9     c4-0.3,9.4,0.4,13,0c1.2,0,0.7,0.6,2.1,0.6c1.2,0.1,1.4-0.5,2.7-0.3c2.4,0.2,4.9,0.6,6,0c1.6,0.6,4.3,0.4,5.9,0.4     c0.4,0.4,0.2,1,0.9,1.3c4.2,0.9,6.9-0.2,9.4-0.9c1,0,2.2,0.1,2.7-0.3c-1-1.1-6.4-2.6-7.3-0.8l0,0c-3.2-1.1-5.7-1-10.2-1.3     c-2,0.8-5,0.3-8.5-0.1c-1.1,0.2-2.3,0.4-3.4,0.6c-4-0.8-8-1.2-12.1-1.1c-2.1,0-4.1,0.6-6.1,0.7c-1.8,0.1-3.7-0.4-5.2,0.1     c-1.1-0.8-1.8-0.5-3.3-0.3c-1-0.4-1.2-1.1-2.4-1.5C1074.8,28.1,1073.7,28.4,1072.7,28.5z"/>
            <path d="M171.9,15.5c0.4,0,0.9,0,1.3,0c-0.6-0.1-0.9-0.3-1.3-0.4C171.3,15.2,171.7,15.3,171.9,15.5z"/>
            <path d="M1120.3,24.1c1.7-0.1,2-1.1,3.6-1.3c2.7,0.4,4-0.1,5-0.8c-2-1.1-4.2-1.7-6.4-1.6l0,0c-1.5,0.3-2.5,1-4.3,1.2     c-1.2-0.7-2-0.3-3.6-0.5c-0.9-0.1-1.9-0.5-2.5-0.6c-1.6-0.1-3.1,0.1-4.9,0.1c-2.5,0-6-0.7-7.1,0.2c4.4,1.2,12.5,2.6,17.4,2.5     C1118.3,23.7,1119.3,23.9,1120.3,24.1z"/>
            <path d="M168.6,15.3c-2.3,0-4.9-0.1-7.2,0c2.8,0,5.7,0.1,8.5,0.2C169.5,15.4,169,15.4,168.6,15.3     C168.6,15.3,168.6,15.3,168.6,15.3z"/>
            <path d="M1131,38c0.1-0.2,0.7-0.3,0.1-0.5C1131,37.6,1130.4,37.8,1131,38z"/>
            <path d="M1035.7,26.8c1,0.2,1-0.2,1.9,0c0.4-0.6-1.5-0.8-2.1-0.6l0,0C1035.4,26.4,1035.6,26.6,1035.7,26.8z"/>
            <path d="M872.3,4.2c-0.8-0.1-1.4-0.1-1.5,0.2l0,0c0.5,0.2,0.9,0.3,1.4,0.3C872.3,4.5,872.3,4.4,872.3,4.2z"/>
            <path d="M1130.7,22c-1.5,0.2,0.5,1.6,1.2,2.1c1.3,0.1,2.5,0,3.8-0.2c0.2-1.3-2-1.8-2.5-2.9c-1.2-0.2-2.5-0.2-3.7,0     C1129,21.6,1130.7,21.5,1130.7,22z"/>
            <path d="M189.8,15.7c-1.9-0.1-3.8-0.3-5.7-0.4c-1.8,0.2-3.7,0.2-5.5-0.1c-1.1-0.1-1.3,0.3-1.9,0.4c10.2,0.2,19.1,0.4,23,0.5     c-1.3-0.1-2.6-0.3-4-0.5C193.8,15.6,191.8,15.8,189.8,15.7z"/>
            <path d="M1060.3,31.3c0-0.1,0-0.2,0.1-0.3l-1.1-0.1c0,0.1,0,0.2-0.1,0.3L1060.3,31.3z"/>
		</g>
	</g>
</svg>