<svg xmlns="http://www.w3.org/2000/svg" width="30" height="24" viewBox="0 0 32.582 26.967">
  <path id="Path_63160" data-name="Path 63160" d="M8,0c-.2,0-.411.008-.615.023A7.967,7.967,0,0,0,.282,5.9,9.141,9.141,0,0,0,.356,10.67a12.691,12.691,0,0,0,2.183,4.275A30.677,30.677,0,0,0,9.81,21.23q2.725,1.884,5.475,3.736,2.747-1.852,5.472-3.736a30.677,30.677,0,0,0,7.271-6.285,12.691,12.691,0,0,0,2.183-4.275A9.141,9.141,0,0,0,30.285,5.9a7.968,7.968,0,0,0-15-1.108A7.979,7.979,0,0,0,8,0" transform="translate(1.007 1.001)" fill="none" stroke="#c57e1b" stroke-linejoin="round" stroke-width="2"/>
</svg>
