<svg xmlns="http://www.w3.org/2000/svg" xmlns:xlink="http://www.w3.org/1999/xlink" width="2000" height="596" viewBox="0 0 2000 596">
	<path d="M0,592.8c0,0,24.1-30.5,76.5-52.2c52.4-21.7,82.2,33.3,126,25.1s46.7-26.2,79.8-4c33.1,22.2,47.1,62.4,102.5,0
			c55.4-62.4,72-38.5,124.6-36.5c52.6,2,39.4-51.1,72.6-62.4c33.2-11.3,36.5,45.5,86.8,39.3c50.3-6.1,36.7-37.6,104.3-56.8
			s109.7-15.8,179.6-16s169.7-114.4,305.2-79.6c135.6,34.8,86.3-52.3,195.1-82.1c108.8-29.9,151.3-70.3,260.6-27.7
			s286.6-90.9,286.6-90.9L2000,0H-0.1L0,592.8z" fill="#000000"/>
</svg>
